<svg width="640" height="480" xmlns="http://www.w3.org/2000/svg" xmlns:svg="http://www.w3.org/2000/svg">
 <!-- Created with SVG-edit - https://github.com/SVG-Edit/svgedit-->
 <g class="layer">
  <title>Layer 1</title>
  <path d="m119.02858,60.76824c2.28688,0 3.39474,0 4.50092,0c0.89952,0 2.15062,0.1016 3.36363,-0.00598c1.25312,-0.11113 2.08182,-0.63607 3.17176,-0.94497c1.24858,-0.35387 2.3301,-0.35891 3.07185,-0.37122c1.51912,-0.0252 2.6894,-0.00598 3.51606,-0.00598c0.88765,0 2.37709,0 3.48411,0c1.17817,0 1.78758,0 3.03436,0c1.90213,0 2.5359,0 3.79452,0c0.62233,0 1.84666,0 3.61326,0c1.11972,0 2.19879,0 3.24737,0c1.02826,0 2.55439,0.00791 3.56521,-0.00598c0.99579,-0.01368 1.97184,-0.01742 3.35134,-0.21538c0.86885,-0.12468 2.07143,-0.44873 2.80143,-0.71432c1.33537,-0.48584 2.47417,-1.09049 3.3613,-1.34165c1.2506,-0.35408 2.30699,-0.36352 3.34391,-0.37719c1.27378,-0.01679 2.19245,-0.00177 3.22535,-0.00177c1.28278,0 2.30257,0 3.41382,0c1.16206,0 2.91152,0 3.47712,0c1.09813,0 2.16068,0 3.19782,0c1.5303,0 2.54499,0 3.54954,0c0.98419,0 1.93791,0 3.7183,0c0.83682,0 2.07936,0 3.36764,0c0.91475,0 1.88032,0 2.89671,0c1.06721,0 2.76289,0 3.94614,0c0.6005,0 1.80663,0 3.00258,0c1.16546,0 2.28181,0 3.33715,0c0.98421,0 2.69853,0 3.73334,0c1.0833,0 2.25532,0 3.26961,0c1.2671,0 2.05987,0.00019 3.28717,0c1.39055,-0.00022 2.44599,-0.02228 3.38712,-0.22667c1.435,-0.31164 2.03888,-0.52741 3.44049,-0.93148c0.77428,-0.22321 1.58573,-0.46343 2.4279,-0.71321c0.86536,-0.25666 2.63275,-0.78851 4.40732,-1.31265c0.8768,-0.25898 1.74215,-0.51026 2.59371,-0.74509c0.8306,-0.22905 1.63004,-0.48695 3.89087,-0.94077c0.677,-0.1359 1.92423,-0.30264 3.01741,-0.41505c0.9397,-0.09663 2.38542,-0.273 3.4409,-0.77475c0.65327,-0.31054 2.00895,-1.03034 2.62589,-1.30203c1.44351,-0.63567 2.26116,-0.95686 3.11779,-1.29892c0.88647,-0.35397 1.79424,-0.70806 2.71187,-1.05787c1.81229,-0.69087 2.68928,-1.01474 3.54041,-1.32106c1.61172,-0.58005 2.37414,-0.8387 3.10678,-1.0696c1.35606,-0.42737 3.12687,-0.87751 4.12188,-1.02046c0.83574,-0.12007 1.81047,-0.15008 3.32658,-0.15185c0.8999,-0.00105 2.11747,0 3.21519,0c1.11676,0 2.71375,0 3.3854,0c0.73776,0 2.37073,0 3.2457,0c0.90033,0 1.81594,0 2.73662,0c1.81594,0 2.69281,0 4.37533,0c0.80825,0 1.59618,0 3.11609,0c0.73458,0 2.15923,0 3.53304,0c0.67103,0 1.98766,0 3.27893,0c0.63924,0 2.54625,0 3.17855,0c1.24676,0 2.45289,0 3.03436,0c1.62747,0 3.03773,0 3.85082,0c1.02909,0 2.46789,-0.09148 3.6912,0.29418c0.99509,0.31372 1.5795,0.69058 3.23237,1.16722c1.07232,0.30923 1.71276,0.42864 2.41985,0.58616c0.78867,0.17568 2.65074,0.57032 4.94959,1.05145c1.32993,0.27835 2.76283,0.57766 4.27456,0.89252c1.56624,0.32621 3.16296,0.65779 4.76623,0.98814c1.5852,0.32663 3.12784,0.64643 5.99334,1.21836c1.27747,0.25497 2.44738,0.48226 3.51606,0.68333c0.97264,0.183 1.85657,0.34331 2.6585,0.48012c0.72489,0.12367 1.37928,0.2354 2.50713,0.38605c0.48287,0.0645 0.91956,0.11109 1.31302,0.14543c0.35364,0.03087 0.67196,0.05276 0.95861,0.06176c0.90429,0.02838 2.00662,-0.07254 3.18088,0.06951c0.88222,0.10672 2.29206,0.53154 2.90393,0.70082c1.3915,0.38496 2.15112,0.60132 2.94413,0.81814c0.81503,0.22284 3.30913,0.86508 4.12866,1.05322c0.79995,0.18364 1.5771,0.35477 3.04579,0.63751c0.67809,0.13054 1.89786,0.36968 3.3255,0.55805c1.33609,0.17629 2.36266,0.15721 3.18068,0.30481c0.9481,0.17107 2.33479,0.51857 3.22597,0.73867c1.00785,0.24891 2.1063,0.52803 3.27215,0.82677c1.20954,0.30995 2.43777,0.6282 3.66091,0.94631c1.19419,0.31056 3.39788,0.88672 4.36455,1.13911c0.87133,0.22749 1.65356,0.43158 2.35359,0.61161c0.62346,0.16033 1.65232,0.50731 3.38459,0.79334c0.93728,0.15477 2.10731,0.11334 2.97294,0.11334c0.638,0 1.44496,0 3.66239,0c1.45047,0 3.11694,0 4.97398,0c2.02221,0 4.18415,0 6.46043,0c2.36522,0 4.794,0 9.74044,0c2.46813,0 4.90578,0 7.29515,0c2.32327,0 4.56272,0 6.70054,0c2.01837,0 3.89956,0 7.17911,0c1.36854,0 2.563,0 3.59993,0c0.89591,0 1.66732,0 2.33072,0c0.57193,0 1.06891,0 1.90403,0c0.37396,0 0.75552,0 1.17775,0c0.49594,0 1.09857,0 1.84095,0c0.91518,0 2.03616,0 5.02775,0c1.92562,0 4.12316,0 6.55953,0c2.64221,0 5.45719,0 8.41191,0c3.06146,0 6.19662,0 12.55581,0c3.15994,0 6.27285,0 9.31713,0c2.95414,0 5.79641,0 8.50531,0c2.55389,0 4.93117,0 9.06961,0c1.72595,0 3.23721,0 4.56039,0c1.16189,0 2.18908,0 3.10826,0c0.83791,0 1.62115,0 3.13051,0c0.77327,0 1.56182,0 2.35549,0c0.78855,0 1.56182,0 2.30974,0c0.71232,0 1.3789,0 2.53419,0c0.47155,0 0.87579,0 1.22156,0c0.29626,0 0.55185,0 0.77564,0c0.20096,0 0.38792,0 0.75552,0c0.19673,0 0.40486,0 0.62319,0c0.22721,0 0.46205,0 0.70321,0c0.24628,0 0.49632,-0.00022 1.00284,0c0.25369,0.00011 0.50485,-0.00035 0.75086,0.00598c0.23845,0.00613 0.46717,0.01671 0.68224,0.04183c0.20088,0.02347 0.39594,0.0317 0.68437,0.17355c0.12109,0.05956 0.21573,0.15156 0.26109,0.25899c0.04529,0.10726 0.04218,0.24271 -0.0019,0.37852c-0.05137,0.15832 -0.14629,0.33588 -0.47093,0.69063c-0.19809,0.21646 -0.44654,0.42457 -0.71465,0.64548c-0.28234,0.23262 -0.5817,0.46218 -0.88618,0.6933c-0.30324,0.2302 -0.6052,0.44792 -1.15188,0.87481c-0.24357,0.19018 -0.46116,0.37135 -0.6594,0.5379c-0.18122,0.15225 -0.34519,0.29385 -0.49931,0.41837c-0.1416,0.11442 -0.26978,0.22759 -0.53529,0.37188c-0.12368,0.06722 -0.2481,0.1458 -0.63524,0.19368c-1.10893,0.13713 -0.85299,-0.02034 0.3422,-0.34952c0.96066,-0.26458 1.95773,-0.62568 3.23551,-0.83939c1.14902,-0.19218 2.35615,-0.31215 3.34415,-0.57996c1.00978,-0.27372 2.17128,-0.73453 3.34201,-0.84558c1.1658,-0.11059 2.54082,-0.71885 3.44596,-0.00819c0.5249,0.41213 -0.78587,1.12494 -1.69311,1.34984c-1.44337,0.35781 -2.43311,0.8962 -3.09682,1.32815c-0.97144,0.63225 -1.88782,1.57477 -2.81014,2.14828c-1.07876,0.6708 -2.11669,1.20564 -3.14528,1.58713c-0.93934,0.3484 -0.79406,0.22135 -0.09193,0.22135c1.57415,0 2.24499,0 3.75432,0c0.80801,0 1.6313,0 3.26261,0c0.77754,0 2.18016,0 3.30665,0c1.2292,0 2.47324,0 3.5686,0c1.14917,0 3.19239,-1.22871 3.51017,0c0.09596,0.37108 -1.09555,0.50691 -3.1233,1.5495c-0.96756,0.49747 -2.05578,1.09598 -3.25691,1.75315c-1.29081,0.70625 -2.6457,1.45631 -4.04585,2.23129c-1.42329,0.7878 -2.84503,1.5812 -5.61387,3.09901c-1.30023,0.71275 -2.53396,1.38003 -3.69333,2.00616c-1.08012,0.58333 -2.07749,1.11916 -2.98438,1.61171c-0.81414,0.44217 -1.53825,0.81837 -2.63923,1.47336c-0.39191,0.23316 -0.68987,0.40629 -0.83663,0.58172c-0.08375,0.10013 -0.04389,0.21677 0.08956,0.24704c1.35191,0.30661 2.54439,0.05666 3.22705,0.05666c0.74365,0 1.54321,0 3.28971,0c0.93678,0 2.91199,0.00065 3.94,-0.00022c1.04712,-0.00089 2.10696,-0.0031 3.17308,-0.01394c1.06616,-0.01085 2.12604,-0.02866 3.17304,-0.06176c1.02816,-0.03251 3.00202,-0.13853 3.93573,-0.21804c0.89921,-0.07657 1.7646,-0.17142 2.59945,-0.27093c0.80747,-0.09626 2.347,-0.30273 3.08643,-0.38606c2.11569,-0.23841 2.79121,-0.27485 4.06558,-0.32937c0.58973,-0.02523 2.14926,-0.37282 3.38288,-0.04782c0.09336,0.02459 -1.57536,0.22164 -2.27101,0.29397c-0.80355,0.08355 -1.69598,0.17557 -2.6585,0.27093c-1.01308,0.10038 -2.05799,0.2007 -3.11585,0.29485c-1.05115,0.09355 -3.05843,0.25178 -3.98005,0.30725c-1.65666,0.09972 -2.3962,0.11416 -3.69818,0.19479c-1.07977,0.06687 -3.34457,-0.28452 -3.22236,0.82611c0.12996,1.18144 2.01635,0.42389 3.19018,0.40641c0.66909,-0.00996 1.38956,-0.0234 3.80088,-0.23242c0.87207,-0.07559 1.76088,-0.17923 2.6566,-0.29883c0.89486,-0.11948 1.7838,-0.21993 3.45911,-0.58439c1.51979,-0.33064 2.19715,-0.52593 3.3272,-1.01139c0.92732,-0.39837 2.28857,-1.53608 1.78019,-1.67147c-0.81364,-0.21669 -2.11514,0.31249 -3.86738,0.63397c-1.02018,0.18717 -2.1096,0.39693 -3.24927,0.62556c-1.17267,0.23525 -2.35848,0.4794 -3.53514,0.7451c-2.26488,0.51143 -3.31072,0.78598 -4.28918,1.05543c-0.91068,0.25079 -1.74502,0.49993 -2.49841,0.7451c-0.67448,0.2195 -2.20909,-0.38841 -2.46157,0.94076c-0.11473,0.604 1.69396,0.44272 2.79676,0.44272c0.59903,0 1.83521,0 3.04599,0c1.56842,0 3.28444,0.68025 3.28444,0c0,-1.11454 -2.00716,-0.00177 -3.62175,0c-0.80801,0.00089 -1.68845,-0.01227 -2.60705,0.04782c-1.84354,0.12058 -2.71006,0.30432 -3.51668,0.53125c-1.13463,0.31921 -2.56223,0.68613 -3.51079,1.44082c-0.87982,0.70002 -0.64936,2.06714 0.07875,2.53653c0.97535,0.6288 2.01538,0.63304 3.12392,0.70083c1.23226,0.07536 1.8886,0.05356 3.95993,0.05534c0.7119,0.00061 2.13821,0 2.84251,0c1.36533,0 2.01623,0 3.78161,0c0.98547,0 3.03199,0.92615 3.03199,0c0,-1.07665 -2.08358,-0.00139 -3.58446,0c-0.9588,0.00089 -2.02949,0.0092 -2.5939,0.02767c-1.16243,0.03804 -2.91556,0.16534 -4.02448,0.35129c-1.03603,0.17373 -2.06307,0.18046 -3.33379,0.94918c-0.81255,0.49155 -0.05323,1.31304 0.71318,1.32637c1.76999,0.03079 2.3375,0.00177 3.54828,0.00177c1.23618,0 1.83521,0 3.42161,0c1.19682,0 2.38938,0 3.66091,0c0.94949,0 2.21979,0 2.12829,0c-1.31453,0 -2.4732,0 -3.29649,0c-1.49409,0 -2.70184,-0.39355 -3.65052,0.37719c-0.7718,0.62705 -0.79534,0.95096 -2.00739,0.95096c-1.10342,0 -2.05501,0 -2.60705,0c-2.00441,0 -2.7866,0 -3.61198,0c-0.85842,0 -2.63372,0 -3.53025,0c-0.88893,0 -2.60325,0 -3.40979,0c-1.49366,0 -2.17826,0 -3.41657,0c-1.05534,0 -2.93514,-0.72899 -3.66576,0.11334c-0.52839,0.60919 1.03161,1.3778 1.93958,1.61326c1.17623,0.30502 1.88957,0.40453 2.67482,0.53125c0.86466,0.13954 2.85046,0.40323 3.97323,0.53104c1.19802,0.13638 2.46018,0.2642 3.77335,0.3845c1.35063,0.12374 2.72701,0.2366 4.11641,0.33668c1.38874,0.10003 4.11618,0.25815 5.43029,0.31301c1.26921,0.05299 2.48794,0.08884 3.64948,0.11355c1.09784,0.02336 2.12592,0.03545 3.07774,0.04184c0.86924,0.00584 2.33452,0.00598 2.92064,0.00598c0.49466,0 0.90801,0 1.25017,0c1.1282,0 1.86634,-0.02404 0.71973,0.00022c-1.13037,0.02391 -2.419,0.21454 -3.12179,0.57884c-1.1974,0.62068 -1.3559,1.96076 -0.36613,2.07125c1.32962,0.14843 2.26973,0.00598 3.31406,0.00598c1.09516,0 1.64274,0 3.66537,0c0.86392,0 1.97618,0.14024 3.30499,-0.00177c1.0391,-0.11105 0.66487,-1.12947 -0.27106,-1.36001c-1.2088,-0.29776 -1.89577,-0.69817 -3.13388,-0.91732c-1.27948,-0.22646 -2.11037,-0.22255 -3.03393,-0.26385c-0.99916,-0.04469 -2.04966,-0.06883 -3.12539,-0.08566c-1.07566,-0.01682 -2.12596,-0.02344 -3.12539,-0.0259c-2.44571,-0.00603 -3.0323,-0.01106 -4.48909,-0.00177c-1.11133,0.00708 -0.75257,0.62559 0.02691,0.85975c1.39026,0.41764 2.25755,0.41386 3.58469,0.45423c0.86706,0.02638 3.50125,1.18626 3.50125,0.01417c0,-0.64437 -1.55985,-0.01844 -3.05529,0.00045c-1.11703,0.01412 -2.38085,-0.25168 -3.24698,0.58792c-0.80018,0.7757 0.65386,2.09087 1.22962,2.33311c1.36684,0.57508 2.14376,0.7696 2.90098,1.00762c1.38661,0.43587 2.73445,1.08823 2.10076,1.28786c-1.03018,0.32452 -1.74564,0.08734 -2.4834,0.09208c-2.43339,0.01565 -3.26939,0.00355 -4.10284,0.00355c-0.82325,0 -2.40884,0 -3.15587,0c-1.96672,0 -2.98988,0 -3.79964,0c-1.14173,0 -2.64838,0.16393 -2.20219,0.81105c0.75528,1.09535 1.7275,1.27388 3.18809,1.62389c0.97252,0.23305 2.00142,0.08747 3.28804,0.59854c0.92526,0.36754 2.00406,0.75183 3.20162,0.83762c0.70523,0.05051 1.46009,0.07417 3.04242,0.09917c0.79231,0.01251 1.56186,0.01327 3.55821,0.01417c1.334,0.00059 1.77868,0 0.82581,0c-1.01638,0 -1.63894,0 -3.96392,0c-0.92553,0 -1.91589,0 -2.9596,0c-1.08562,0 -2.20176,0 -3.33693,0c-1.14281,0 -2.28182,0 -4.50262,0c-1.06023,0 -2.0785,0 -3.05107,0c-0.92301,0 -1.79267,0 -2.60515,0c-0.75148,0 -2.60239,-0.02648 -3.47438,0.00177c-1.18205,0.03829 -1.48548,0.84241 -0.55181,1.62034c0.86625,0.72174 1.60025,0.97237 2.5359,1.00651c0.63117,0.02303 2.2983,0.02661 4.60552,0.02767c1.42232,0.00066 2.99326,-0.00006 4.67097,0.00598c1.74246,0.00628 3.50784,0.01721 5.25411,0.04184c1.68535,0.02377 3.26943,0.02527 5.95604,0.17354c1.03506,0.05712 1.87212,0.14108 2.53842,0.24704c0.53289,0.08474 0.9569,0.19019 1.30352,0.29485c0.30374,0.09171 0.58356,0.21795 1.24001,0.34355c0.41397,0.07921 0.89568,0.11558 1.4236,0.14543c1.14312,0.06464 2.31311,0.07294 3.87009,0.07593c1.05961,0.00204 1.34334,0 0.46077,0c-1.55,0 -2.29702,0 -3.15591,0c-1.00114,0 -2.83445,0 -3.53704,0c-1.50425,0 -2.29066,0 -3.0898,0c-0.80425,0 -3.17114,-0.00141 -3.92053,0.00022c-1.41744,0.00309 -2.08358,-0.00587 -3.32127,0.04759c-1.10699,0.04782 -2.53357,0.12692 -3.55735,0.54542c-0.8034,0.32841 -1.77081,1.68173 -1.38696,2.6003c0.5216,1.24832 1.47889,1.60664 2.2655,2.06372c1.15615,0.67178 2.42404,1.31944 3.52579,1.37994c1.17026,0.06425 1.11924,-1.1892 0.20627,-1.29693c-1.21016,-0.14278 -2.97763,-0.62248 -2.97763,-0.02767c0,0.89052 2.60705,0 3.42863,0c0.92324,0 1.92268,0 2.97294,0c1.0757,0 2.15139,0 3.20166,0c0.99943,0 2.74426,0 4.02828,0c1.15107,0 1.13052,0 0.00423,0c-1.09683,0 -3.20278,-1.1752 -3.5116,0.02767c-0.21022,0.81883 1.58571,0.81097 3.07034,1.07912c1.12385,0.20298 1.85265,0.20751 3.38796,0.22135c1.08349,0.00977 0.08301,-0.00346 -1.05872,0c-0.98718,0.00299 -2.03996,-0.22012 -3.27955,0.37719c-1.07453,0.51777 -1.80679,0.88962 -2.88764,0.92328c-0.76606,0.02385 -1.71556,0.02346 -2.87194,0.0259c-3.03052,0.00639 -4.94009,0.00177 -7.07578,0.00177c-2.30846,0 -4.73638,0 -7.23033,0c-2.5067,0 -4.9727,0 -7.34471,0c-4.24851,0 -6.02804,-0.0015 -7.55857,0.00177c-1.28658,0.00276 -2.33448,0.00515 -3.14827,0.0259c-0.58542,0.01493 -1.0869,-0.06855 -1.09008,0.08566c-0.00779,0.38035 0.82942,0.1863 1.50425,0.26385c0.85644,0.09841 1.8867,0.19331 3.07968,0.28688c1.34458,0.10547 2.83185,0.20615 4.45179,0.28688c3.59365,0.17909 5.54812,0.22172 7.58568,0.26385c2.10339,0.0435 4.25525,0.06887 6.43755,0.08566c2.19497,0.01688 4.38491,0.02334 6.55193,0.0259c4.1943,0.00496 6.1879,0.00298 8.09894,0c1.8221,-0.00284 3.54894,-0.00836 5.17408,-0.0259c1.5172,-0.01637 2.9204,-0.03517 4.20214,-0.08566c2.17764,-0.0858 3.0634,-0.16728 3.81992,-0.26563c0.64521,-0.08387 1.18926,-0.18583 1.63894,-0.31278c0.3802,-0.10734 0.69674,-0.23046 0.95287,-0.37254c0.43553,-0.24157 0.61012,-0.39336 0.77924,-0.52949c0.16114,-0.1297 0.30812,-0.26219 0.43832,-0.39845c0.12384,-0.12961 0.23535,-0.26067 0.32398,-0.39845c0.16536,-0.25705 0.21515,-0.3963 0.25407,-0.52949c0.03711,-0.12703 0.05738,-0.25305 0.05719,-0.37254c-0.00019,-0.11287 -0.01396,-0.22244 -0.05719,-0.31278c-0.08134,-0.16998 -0.16854,-0.22487 -0.25749,-0.26563c-0.10015,-0.04589 -0.22651,-0.0698 -0.37353,-0.08566c-0.17149,-0.0185 -0.37179,-0.02684 -1.1646,-0.02767c-1.09578,-0.00115 -1.93462,-0.00671 -2.79401,0.07593c-1.60447,0.15428 -2.69956,0.27484 -3.46527,0.98836c-0.94907,0.88435 -1.05883,2.4326 -0.36527,3.30554c0.76606,0.9642 1.85149,0.82727 3.10446,0.91443c0.69988,0.04868 -0.33205,0.02833 -1.30438,0.02833c-1.10447,0 -2.26825,0 -3.45236,0c-1.17391,0 -1.74754,-0.0069 -3.36931,0c-1.40456,0.00598 -2.43777,-0.46565 -3.59973,0.44272c-0.81794,0.63942 -0.36101,1.95962 0.09488,2.99629c0.5059,1.15036 -0.54122,1.79493 -1.39185,1.8459c-1.45361,0.08709 -2.72038,0.23555 -2.22312,0.79092c0.70577,0.78824 2.0742,0.50466 2.91133,0.53723c1.28569,0.05002 2.81269,0.14196 3.6791,0c1.18418,-0.19403 0.32088,-1.10833 -0.44464,-1.18714c-1.01343,-0.10433 -2.2869,-0.10133 -3.01741,-0.10736c-0.79406,-0.00656 -2.57277,-0.00598 -3.55464,-0.00598c-1.02886,0 -2.08827,0 -3.16161,0c-1.07081,0 -2.12255,0 -3.13873,0c-0.96411,0 -3.38206,0 -3.99633,0c-1.29399,0 -1.39627,0 -0.50819,0c1.62281,0 2.53082,0 3.44895,0c1.30732,0 2.40884,0 3.62641,0c1.09601,0 2.25468,0 1.87735,0c-0.97066,0 -2.45967,0 -3.42208,0c-1.09578,0 -2.30594,0 -3.61136,0c-1.38165,0 -2.82049,0 -4.29744,0c-1.49599,0 -4.46893,0 -5.90967,0c-1.39499,0 -2.73662,0 -4.01727,0c-1.21206,0 -2.34789,0 -3.39982,0c-0.96051,0 -2.57657,0 -3.22007,0c-0.5406,0 -0.9897,0 -1.35877,0c-0.30048,0 -0.54378,0 -1.30162,0c-0.97954,0 -2.11786,0.00903 -2.98248,-0.01196c-1.23102,-0.02988 -2.02791,-0.0799 -2.96957,-0.1399c-1.10474,-0.07039 -3.87273,-0.2873 -5.56091,-0.43629c-1.85905,-0.16408 -3.84229,-0.35101 -5.90397,-0.55583c-2.09541,-0.20817 -4.1779,-0.42507 -6.20127,-0.65145c-1.9202,-0.21484 -5.26485,-0.63056 -6.61203,-0.83231c-1.15638,-0.17317 -2.16582,-0.3508 -3.07968,-0.512c-0.86567,-0.15269 -1.7301,-0.30767 -2.64516,-0.44029c-1.00928,-0.14628 -3.51358,-0.41221 -5.09084,-0.53723c-1.78697,-0.14165 -3.7554,-0.26917 -5.87349,-0.39845c-2.23712,-0.13654 -4.56357,-0.26639 -6.9483,-0.39844c-2.41264,-0.13359 -7.19993,-0.39688 -9.51638,-0.53104c-2.24038,-0.12975 -4.39169,-0.25902 -6.44139,-0.3845c-1.93543,-0.11849 -3.74369,-0.23183 -5.4123,-0.33668c-1.51611,-0.09527 -4.04011,-0.25399 -5.02818,-0.31301c-0.81771,-0.04884 -1.48552,-0.08686 -2.02387,-0.11355c-0.42898,-0.02127 -0.76905,-0.03519 -1.04053,-0.04184c-0.22313,-0.00547 -0.60601,-0.00598 -0.80317,-0.00598c-0.21111,0 -0.43747,0 -0.68034,0c-0.26067,0 -0.54037,0 -0.84043,0c-0.32165,0 -1.03483,0 -1.42783,0c-0.41331,0 -0.8419,0 -1.28065,0c-0.44383,0 -0.88765,0 -1.3264,0c-0.42859,0 -1.2349,0 -1.60505,0c-0.35488,0 -0.70469,0 -1.05957,0c-0.37016,0 -0.76567,0 -1.19682,0c-0.47686,0 -1.60843,0 -2.28008,0c-0.73776,0 -1.53139,0 -2.37073,0c-0.87497,0 -1.7753,0 -2.69091,0c-0.92069,0 -2.73662,0 -3.61307,0c-0.84973,0 -1.67155,0 -2.46409,0c-0.76211,0 -1.49242,0 -2.1897,0c-0.66297,0 -1.88096,0 -2.43385,0c-0.99649,0 -1.85576,0 -3.47031,0c-0.85377,0 -2.1089,0.00425 -3.16269,-0.01417c-0.62237,-0.01087 -1.44163,-0.03282 -2.49461,-0.06176c-1.32368,-0.03638 -4.93016,-0.14362 -7.2729,-0.2187c-2.67827,-0.08583 -5.64625,-0.18647 -8.85787,-0.31278c-3.41017,-0.13412 -6.97284,-0.28967 -10.64159,-0.48012c-3.73063,-0.19367 -11.19153,-0.66894 -14.83426,-0.96135c-3.55332,-0.28523 -6.99874,-0.6048 -10.32145,-0.94033c-3.18723,-0.32185 -6.22089,-0.65694 -9.08655,-0.98814c-2.68382,-0.31019 -7.44005,-0.89191 -9.488,-1.14508c-1.83466,-0.2268 -3.47093,-0.43097 -4.92443,-0.61161c-1.28569,-0.15979 -2.41885,-0.30064 -3.41506,-0.42036c-0.874,-0.10502 -2.31715,-0.26774 -2.91556,-0.32495c-0.52812,-0.05048 -0.99296,-0.08798 -1.40073,-0.11355c-0.35667,-0.02236 -0.66909,-0.03536 -0.94333,-0.04184c-0.2424,-0.00573 -0.6575,-0.00598 -0.84721,-0.00598c-0.21007,0 -0.47349,0 -0.82329,0c-0.46922,0 -1.0909,0 -1.8981,0c-1.02572,0 -3.86482,0.00167 -5.73457,-0.00067c-2.16194,-0.00271 -4.59079,-0.0108 -7.26084,-0.04183c-2.88621,-0.03354 -5.96313,-0.08933 -9.20469,-0.18528c-3.38199,-0.1001 -10.46343,-0.42022 -14.11008,-0.65455c-3.68154,-0.23657 -7.36467,-0.52296 -11.01892,-0.84072c-3.59772,-0.31284 -7.10548,-0.65301 -10.49299,-1.00807c-3.23934,-0.33952 -9.14455,-1.02458 -11.75689,-1.35714c-2.38657,-0.30382 -4.55861,-0.60115 -6.53095,-0.88256c-1.78785,-0.25509 -3.40314,-0.49824 -4.86152,-0.7152c-1.31467,-0.19559 -3.56871,-0.51871 -4.5363,-0.63198c-0.8722,-0.10211 -1.65887,-0.17658 -2.36691,-0.22711c-0.63621,-0.04541 -1.2094,-0.07084 -1.72661,-0.08367c-0.46874,-0.01162 -1.29209,-0.01196 -1.66327,-0.01196c-0.36231,0 -0.73223,0 -1.1263,0c-0.43471,0 -0.9266,0 -1.49219,0c-0.65577,0 -2.30402,0 -3.32191,0c-1.12839,0 -2.33812,0 -3.59993,0c-1.28468,0 -2.563,0 -3.80575,0c-1.17796,0 -3.22259,0 -4.03825,0c-0.67844,0 -1.23492,0 -1.68467,0c-0.35828,0 -0.64032,0 -0.86138,0c-0.17533,0 -0.44978,-0.00177 -0.57893,0.00067c-0.14191,0.00269 -0.30962,0.01338 -0.51455,0.04183c-0.25687,0.03566 -0.57666,0.09746 -0.97192,0.18528c-0.4858,0.10794 -1.77214,0.43709 -2.59836,0.65411c-0.95413,0.25061 -2.03612,0.53342 -3.25309,0.81282c-1.34462,0.30872 -2.82436,0.61314 -4.44227,0.88455c-1.74803,0.29323 -5.66422,0.76213 -7.82537,0.92106c-2.2586,0.1661 -4.58059,0.26805 -6.92352,0.34067c-2.32447,0.07206 -4.59234,0.1065 -6.76345,0.12552c-2.03508,0.01782 -5.53997,0.01793 -6.94301,0.01793c-1.18199,0 -2.17594,0 -3.01487,0c-0.71698,0 -1.34503,0 -1.91717,0c-0.54927,0 -1.71135,0 -2.38428,0c-0.74664,0 -1.5644,0 -2.45077,0c-0.95244,0 -1.96841,0 -3.04537,0c-1.13539,0 -3.57135,0.00189 -4.86788,-0.00067c-1.35117,-0.00266 -2.76089,-0.01016 -4.23263,-0.04183c-1.5381,-0.03309 -3.14629,-0.08951 -4.82722,-0.18528c-1.75966,-0.10026 -5.526,-0.42404 -7.53337,-0.65411c-2.06844,-0.23707 -4.16292,-0.51703 -6.25462,-0.81282c-2.06028,-0.29134 -4.05562,-0.59343 -5.95732,-0.88455c-1.77763,-0.27212 -4.83622,-0.74521 -6.06596,-0.92106c-1.03183,-0.14756 -1.88621,-0.26064 -2.58227,-0.34067c-0.55549,-0.06387 -0.99075,-0.10484 -1.32448,-0.12552c-0.25076,-0.01554 -0.58125,-0.0171 -0.69666,-0.01815c-0.09633,-0.00087 -0.18027,-0.00315 -0.25727,-0.01394c-0.07764,-0.01088 -0.16131,-0.03221 -0.25727,-0.06176c-0.11589,-0.03568 -0.42845,-0.1465 -0.64116,-0.21892c-0.26662,-0.09077 -0.60438,-0.20032 -1.03101,-0.32673c-0.52905,-0.15675 -1.17988,-0.33642 -1.96862,-0.54188c-0.94065,-0.24502 -3.35155,-0.83179 -4.84417,-1.17917c-1.65135,-0.38431 -3.42059,-0.78514 -5.26363,-1.19733c-1.87272,-0.41883 -3.73319,-0.8288 -5.53806,-1.22122c-1.70508,-0.37071 -4.64584,-0.99592 -5.8055,-1.23429c-0.94943,-0.19516 -1.70939,-0.34446 -2.29641,-0.46817c-0.43559,-0.09179 -0.74409,-0.14787 -0.92428,-0.22911c-0.09707,-0.04375 -0.0711,-0.17525 0.01737,-0.24238c0.12537,-0.09513 0.31541,-0.19257 0.56981,-0.29883c0.32234,-0.13466 0.73166,-0.27237 1.23302,-0.41837c0.59779,-0.17408 2.13525,-0.54341 3.08495,-0.7431c1.04912,-0.22059 2.17617,-0.43783 3.3541,-0.65544c1.20212,-0.22207 2.40498,-0.43334 3.58278,-0.63154c1.12605,-0.18949 3.12497,-0.50334 3.95312,-0.62024c0.71175,-0.10046 1.32001,-0.17692 1.83523,-0.24106c0.43384,-0.05401 0.79852,-0.09622 1.10342,-0.14543c0.25916,-0.04183 0.6834,-0.14945 0.86435,-0.23021c0.17326,-0.07732 0.33017,-0.17289 0.4631,-0.28489c0.12587,-0.10604 0.23087,-0.22611 0.30301,-0.35661c0.06837,-0.1237 0.1213,-0.39449 0.09571,-0.52528c-0.02666,-0.13629 -0.09877,-0.27278 -0.2039,-0.39845c-0.11838,-0.1415 -0.28178,-0.27303 -0.47834,-0.39844c-0.22158,-0.14136 -0.7852,-0.40374 -1.12353,-0.53148c-0.37135,-0.14021 -0.78156,-0.2736 -1.22539,-0.41239c-0.47554,-0.1487 -0.98427,-0.29902 -1.52268,-0.4602c-0.56776,-0.16996 -1.7859,-0.54311 -2.43404,-0.7493c-0.67656,-0.21523 -1.3821,-0.44374 -2.12298,-0.66938c-0.77436,-0.23584 -1.58713,-0.47156 -2.44316,-0.6933c-0.89553,-0.23197 -2.83052,-0.65389 -3.87182,-0.8385c-1.0779,-0.19111 -2.18628,-0.35849 -3.31026,-0.52594c-1.1286,-0.16814 -2.252,-0.32801 -3.356,-0.50205c-1.07616,-0.16965 -3.09548,-0.53805 -4.01431,-0.75505c-0.86152,-0.20346 -1.65921,-0.42691 -2.39551,-0.65544c-0.6819,-0.21165 -1.30345,-0.42796 -1.86952,-0.63154c-0.51293,-0.18446 -1.37669,-0.50387 -1.7338,-0.62003c-0.30544,-0.09934 -0.56397,-0.17315 -0.77563,-0.22711c-0.16497,-0.04206 -0.28646,-0.06639 -0.36399,-0.08367c-0.03587,-0.00799 0.01334,-0.01156 0.09698,-0.01218c0.12811,-0.00094 0.30708,-0.00453 0.54313,-0.01394c0.29968,-0.01195 0.66923,-0.03193 1.11486,-0.06176c0.52844,-0.03537 1.85823,-0.14378 2.66718,-0.21804c0.88674,-0.08141 1.82664,-0.17336 2.79571,-0.27093c0.97435,-0.0981 1.92954,-0.19737 2.84144,-0.29485c0.84475,-0.0903 2.23565,-0.24507 2.7396,-0.30703c0.37857,-0.04655 0.64596,-0.07971 0.81375,-0.11355c0.08549,-0.01725 0.10039,-0.03668 0.05908,-0.04184c-0.08231,-0.01028 -0.31826,-0.00598 -0.44489,-0.00598c-0.12408,0 -0.24308,0 -0.35447,0c-0.10121,0 -0.18972,0 -0.26299,0c-0.05547,0 -0.1029,0 -0.09041,0c0.03663,0 0.09613,0 0.17723,0c0.10143,0 0.22191,0 0.36018,0c0.15479,0 0.50977,0.02991 1.12058,-0.00598c0.99786,-0.05863 1.76298,-0.89602 1.26942,-2.17705c-0.37505,-0.97345 -0.35363,-0.51275 0.52091,-0.47503c1.26433,0.05454 2.49461,0.00177 3.35642,0.00177c1.2292,0 2.5643,0.02321 3.57368,0c1.20318,-0.02767 1.88667,-0.94021 1.88879,-2.01524c0.00247,-1.25242 -1.0799,-1.89056 -1.93051,-1.94152c-1.45362,-0.0871 -2.57039,0.14879 -1.82633,0.6364c1.08767,0.71278 2.30322,1.2894 3.30475,0.58815c0.87072,-0.60965 0.5099,-2.13393 0.09127,-3.22142c-0.43154,-1.121 -1.42702,-1.96739 -2.58672,-2.01524c-0.86157,-0.03555 -2.63214,-0.2345 -2.56978,0.37719c0.11313,1.10953 2.21268,0.88156 3.23212,0.93679c1.26823,0.06872 2.91565,0.2715 2.8171,-0.5649c-0.09241,-0.78436 -2.00918,-0.76733 -3.31006,-1.01294c-0.73601,-0.13896 -1.50988,-0.26197 -3.09321,-0.48522c-0.77276,-0.10896 -1.50052,-0.33182 -3.7742,-0.46396c-0.76113,-0.04423 0.49041,0.26733 1.54153,0.44979c0.5882,0.10211 1.82861,0.30182 2.45628,0.38606c1.7533,0.23531 2.75117,0.32626 3.99272,0.36302c1.4743,0.04365 2.98448,-0.1254 2.63097,-0.92151c-0.55246,-1.24411 -1.89897,-0.93975 -2.76141,-1.14155c-1.80004,-0.42119 -2.67326,-0.49335 -3.85064,-0.55139c-1.0035,-0.04947 -3.38162,-1.24093 -3.38162,-0.02767c0,0.42921 1.08987,0 2.2962,0c1.21776,0 2.66669,0.38386 3.45382,-0.11334c0.88336,-0.55797 0.09429,-1.96982 -0.86901,-2.72712c-1.0677,-0.83938 -2.14374,-1.04166 -3.15251,-1.11565c-1.17643,-0.08628 -2.02565,-0.01227 -1.11125,-0.0425c1.22049,-0.04034 1.72985,-0.07842 3.55504,-0.28001c0.69602,-0.07688 2.14127,-0.27728 2.86199,-0.39757c1.37484,-0.22945 2.18369,0.08343 3.76721,-0.90203c0.91712,-0.57075 0.58078,-2.07357 -0.5967,-2.31474c-0.91075,-0.18655 -2.25432,-0.22163 -3.38585,-0.06176c-1.04508,0.14766 -0.43776,0.99257 0.91179,1.44657c0.91871,0.30905 1.97461,0.51669 3.07204,0.72118c0.54652,0.10184 2.09696,0.37515 3.42059,0.41239c1.04605,0.02943 2.44681,-0.45865 2.13718,-1.69294c-0.24473,-0.97556 -0.87276,-1.71377 -1.96948,-2.38004c-0.94743,-0.57558 -2.17318,-0.84886 -3.49258,-1.01603c-0.9146,-0.11588 -1.8341,-0.20583 -3.08009,-0.04648c-1.28276,0.16405 -2.40257,0.83601 -2.52636,2.07987c-0.11435,1.14902 0.80014,2.17797 1.5591,2.57218c1.2722,0.66081 2.55314,0.95042 3.43879,1.18183c0.87966,0.22985 2.4814,0.60766 3.43879,0.62976c0.91594,0.02115 1.79201,-0.96325 1.6203,-2.133c-0.13989,-0.95296 -1.41611,-1.97664 -2.20642,-2.2729c-0.90682,-0.33993 -1.94882,-0.58973 -3.64291,-0.97729c-0.59285,-0.13563 -1.83581,-0.39269 -2.49185,-0.50381c-1.38563,-0.2347 -2.12439,-0.34179 -3.70559,-0.47039c-1.71561,-0.13953 -2.61456,-0.14949 -3.52688,-0.17354c-0.91975,-0.02424 -1.83966,-0.03561 -2.75188,-0.04184c-0.89696,-0.00613 -2.61467,-0.00598 -4.18838,-0.00598c-0.7265,0 -2.05247,0 -3.20057,0c-1.36641,0 -2.57815,-0.83644 -3.61009,0.00045c-0.45845,0.3718 0.62457,1.17849 1.47123,1.52603c1.06906,0.43883 2.46444,0.70263 3.26557,0.80708c0.86588,0.11289 1.79605,0.17973 2.77857,0.22711c1.02746,0.04955 2.09371,0.07136 3.1902,0.08367c1.11926,0.01256 3.39601,0.01263 4.53776,0.01173c1.13158,-0.00088 2.24286,-0.00283 3.3236,-0.01394c1.04014,-0.01069 2.02959,-0.02746 2.9577,-0.06176c0.85737,-0.03169 2.93694,-0.08598 3.80575,-0.39845c1.16908,-0.42046 1.77262,-1.93848 0.93572,-2.68485c-0.70448,-0.62827 -1.76138,-0.12266 -2.54607,-0.04781c-1.0823,0.10324 -2.51797,0.20773 -6.65397,0.32938c-2.78039,0.08178 -5.98481,0.1136 -9.52677,0.14543c-3.79469,0.0341 -7.75717,0.05091 -11.80221,0.06176c-4.04247,0.01084 -7.99731,0.01404 -15.30347,0.01417c-3.19295,0.00005 -6.02894,0.00294 -8.49386,-0.01793c-2.08007,-0.01761 -3.76292,-0.03193 -5.02923,-0.12552c-0.84303,-0.06231 -1.27989,-0.28568 -0.66404,-0.52063c0.95088,-0.36278 2.38371,-0.47747 4.10494,-0.7411c1.96474,-0.30093 4.09974,-0.59161 6.32323,-0.88455c2.23255,-0.29413 4.39693,-0.56905 8.20566,-1.03064c1.50421,-0.1823 2.73553,-0.32666 3.72571,-0.43629c0.78009,-0.08638 1.38241,-0.14861 1.83903,-0.18528c0.34178,-0.02745 0.60134,-0.03984 0.99945,-0.0425c0.19651,-0.00131 0.40317,0 0.61746,0c0.21937,0 0.44129,0 0.6632,0c0.21937,0 0.43366,0 0.83683,0c0.18486,0 0.36081,0 0.53169,0c0.16961,0 0.34177,0 0.52027,0c0.18867,0 0.39131,0 0.85377,0c0.26595,0 0.55223,0 0.85377,0c0.31169,0 0.62847,0 0.94525,0c0.31169,0 0.61322,0 1.16546,0c0.24245,0 0.46585,0 0.67654,0c0.20434,0 0.40868,0 0.61937,0c0.2234,0 0.46585,0 1.03333,0c0.34706,0 0.79448,0 1.40452,0c0.83492,0 1.95698,0 3.42842,0c1.88307,0 4.24005,0 10.62467,0c4.11956,0 8.76638,0 13.80704,0c5.30112,0 10.72929,0 16.15111,0c5.28204,0 10.29095,0 18.9557,0c3.42142,0 6.23047,0 8.48814,0c1.76724,0 3.10508,0 4.07446,0c0.66192,0 1.07736,0 1.41278,0c0.03218,0 0.00337,0 -0.08386,0c-0.14313,0 -0.33964,0 -0.58695,0c-0.2956,0 -0.63695,-0.0002 -1.44667,0c-0.46267,0.00011 -0.95711,-0.00007 -1.47695,0.00598c-0.53891,0.00627 -1.09062,0.01771 -1.64846,0.04183c-0.55813,0.02414 -1.11195,0.04233 -2.1683,0.17355c-0.49685,0.06172 -0.96659,0.15049 -1.41024,0.24703c-0.42029,0.09147 -0.81364,0.19359 -1.18155,0.29485c-0.34354,0.09455 -0.65876,0.19537 -1.21968,0.34355c-0.24041,0.0635 -0.45581,0.10911 -0.64222,0.15141c-0.15745,0.03573 -0.28752,0.06096 -0.37925,0.10359c-0.06496,0.0302 -0.10947,0.09092 -0.03726,0.18771c0.06556,0.08787 0.18969,0.1559 0.31634,0.24704c0.13421,0.09658 0.27046,0.19005 0.38497,0.29485c0.10028,0.09177 0.22472,0.21066 0.14569,0.34355c-0.05806,0.09763 -0.24116,0.11478 -0.43642,0.14543c-0.23,0.03611 -0.48987,0.05105 -0.768,0.06176c-0.2881,0.01109 -0.57765,0.01303 -1.12482,0.01417c-0.24159,0.00051 -0.45912,-0.00073 -0.65366,0.00598c-0.17308,0.00597 -0.3266,0.01579 -0.45928,0.04184c-0.11686,0.02295 -0.23201,0.043 -0.36929,0.17354c-0.06636,0.0631 -0.14784,0.15646 -0.12198,0.24704c0.28804,1.00915 1.95589,0.436 3.08645,1.0811c0.77686,0.44328 0.65248,2.13104 0.60878,3.15435c-0.03222,0.7543 -0.22684,2.34272 -0.52748,3.53065c-0.20305,0.80237 -0.71655,2.39067 -0.97064,3.18224l-0.38115,1.11763l-0.38115,0.93833" fill="#bbbbea" id="svg_10" stroke="#000000" stroke-dasharray="null" stroke-linecap="null" stroke-linejoin="null" stroke-opacity="0" stroke-width="null"/>
  <text fill="#ffffff" font-family="Serif" font-size="24" font-weight="bold" id="svg_11" stroke="#000000" stroke-dasharray="null" stroke-linecap="null" stroke-linejoin="null" stroke-width="0" text-anchor="middle" transform="matrix(1.49864 0 0 1.70263 -157.663 -44.8591)" x="309.83273" xml:space="preserve" y="85.73802">A World-Class Curriculum</text>
 </g>
</svg>