<svg width="640" height="480" xmlns="http://www.w3.org/2000/svg" xmlns:svg="http://www.w3.org/2000/svg">
 <!-- Created with SVG-edit - https://github.com/SVG-Edit/svgedit-->
 <g class="layer">
  <title>Layer 1</title>
  <path d="m138.5,73.5c1.672,0 2.772,0 3.5625,0c0.60367,0 1.95906,-0.00553 2.69467,0.0045c0.76376,0.01041 1.55078,0.01997 2.74283,0.16216c0.80025,0.09546 1.57883,0.25787 2.328,0.408c0.70148,0.14058 1.90089,0.36563 2.65117,0.4045c1.1861,0.06144 1.9825,0.02084 2.5625,0.02084c0.94499,0 1.97966,0 2.711,0c0.74733,0 1.86333,0 2.92599,0c0.66867,0 1.64667,0 2.30533,0c1.037,0 2.12001,0 2.81868,0c1.19733,0 2,0 2.864,0c0.70132,0 1.69066,0 2.69783,0c0.80699,0 1.698,0 2.1675,0c0.972,0 2.46901,0 2.976,0c1.056,0 1.617,0 2.20801,0c0.627,0 2.784,0 3.6115,0c0.8725,0 1.77499,0 2.6925,0c0.9175,0 1.81999,0 2.69249,0c0.8275,0 2.28751,0 2.89401,0c0.5255,0 0.97899,0 1.9975,0c0.896,0 1.696,0 2.496,0c1.01799,0 1.74399,0 3.06667,0c0.87466,0 1.362,0 2.41666,0c0.55934,0 1.13467,-0.00025 2.91667,0c0.59984,0.00008 1.19873,-0.00426 2.38933,0.01067c0.58989,0.00739 1.75388,0.03983 2.32533,0.07467c1.11954,0.06826 2.19658,0.19439 2.71468,0.26733c0.98851,0.13918 1.89191,0.31306 3.07066,0.48067c0.64265,0.09138 1.66795,0.16133 2.7,0.16666c0.79999,0.00414 1.8,0 2.61067,0c0.6465,0 1.61067,0 2.41466,0c0.82201,0 2.09468,0 2.83717,0c0.56166,0 2.02266,0 2.47217,0c0.95599,0 1.92799,0 2.39749,0c1.23451,0 2.32379,0.10487 3.1685,-0.22134c0.68471,-0.26441 1.56393,-0.63159 2.23933,-0.69333c0.79156,-0.07236 1.66664,-0.07889 2.58,-0.084c1.35866,-0.00761 2.22734,-0.00134 2.65466,-0.00134c0.85068,0 1.70934,0 3.04668,0c0.93134,0 1.40399,0 2.35333,0c0.94133,0 1.85866,0 2.73866,0c0.84,0 1.64,0 2.39999,0c1.40001,0 2.04001,0 2.925,0c1.04018,0 1.94084,0 2.96167,0c0.832,0 1.5715,0 2.5,0c0.75467,0 1.59732,0 2.496,0c0.92267,0 1.83734,0 2.71735,0c0.84,0 1.63998,0 2.39999,0c1.40265,0 2.06131,0 3.03934,0c1.01398,0 1.72891,0.01031 2.45132,-0.01067c1.0296,-0.02991 2.14575,-0.17715 2.8335,-0.48933c0.88284,-0.40073 1.76382,-0.5 2.72916,-0.5c0.65869,0 1.66959,0.04454 2.56668,-0.036c0.93866,-0.08427 1.60617,-0.25075 2.39999,-0.38933c0.8728,-0.15237 1.78476,-0.30688 2.70001,-0.408c0.87708,-0.0969 1.70908,-0.14027 2.48398,-0.156c1.34909,-0.02739 2.17734,-0.01067 2.93335,-0.01067c1.08267,0 1.72131,0 2.43201,0c0.77466,0 1.60532,0 2.93814,0c0.91833,0 1.81668,0 2.24585,0c1.46667,0 2.20465,0 3.13333,0c0.81433,0 1.76935,0 2.52084,0c0.79648,0 1.79248,0 2.63248,0c1.08951,0 1.97147,-0.19319 2.86752,0.02084c0.74774,0.1786 1.36899,0.71181 2.37915,0.89383c0.79077,0.14249 1.80267,0.03798 2.60001,0.10617c1.0069,0.08611 1.77173,0.453 2.51468,0.69517c1.05426,0.34365 1.88531,0.284 2.78531,0.284c0.90002,0 1.80017,0 2.58536,0c0.94,0 1.948,0 2.70398,0c0.91068,0 1.81067,0 2.71066,0c0.90002,0 1.80002,0 2.70001,0c0.79999,0 1.75717,0 2.65268,0c0.86331,0 1.82648,0.00007 2.65182,0c1.01682,-0.00008 1.75302,0.16521 2.67398,-0.2215c0.79709,-0.3347 1.27835,-1.19596 2.07751,-1.49317c0.95218,-0.35411 1.61966,-0.26302 2.586,-0.28083c1.09348,-0.02016 1.83847,0.04938 2.84201,-0.2885c0.71014,-0.2391 1.677,-0.50482 2.51599,-0.88267c0.68896,-0.31028 1.48267,-0.7813 2.21066,-0.82267c0.98831,-0.05616 1.85382,-0.01044 2.64532,-0.096c1.01129,-0.10932 1.80392,-0.26225 2.64401,-0.4355c0.84406,-0.17406 2.00275,-0.47047 2.64667,-0.67783c0.83618,-0.26926 1.612,-0.57195 2.82132,-0.716c0.67966,-0.08096 1.38132,-0.08 2.69867,-0.08533c0.56134,-0.00227 1.47601,0 2.44934,0c1.05066,0 1.70935,0 2.71735,0c0.86215,0 1.6875,0 2.65067,0c0.86331,0 1.77924,-0.02008 2.44016,0.05717c1.06671,0.12467 1.79071,0.29723 2.59668,0.44283c0.82535,0.1491 1.97821,0.34127 2.90765,0.44733c0.7388,0.08431 1.78998,0.23087 2.59235,0.59433c0.68201,0.30894 1.4071,0.76917 2.19382,1.28367c0.78238,0.51166 1.61447,1.19016 2.24368,1.633c0.71271,0.50159 1.66769,0.73251 2.24167,1.24616c0.73532,0.65803 1.39111,1.22135 1.86398,1.8955c0.52185,0.74398 0.57922,1.76275 0.95685,2.37917c0.56854,0.92805 1.35861,1.32401 1.6485,1.99284c0.35477,0.81847 0.854,1.54729 1.1825,2.07983c0.63147,1.02371 1.01849,1.7089 1.44684,2.54683c0.40738,0.79694 0.74316,1.60404 1.30133,2.37984c0.54602,0.75892 1.51218,1.11298 1.86398,2.00684c0.32086,0.8153 -0.34137,1.61475 -1.07065,1.99316c-0.9679,0.50222 -1.77744,0.57742 -2.47333,0.82017c-1.00992,0.3523 -1.10547,0.95768 -0.22134,1.20267c0.79492,0.22027 0.88345,1.20243 0.80118,2.09866c-0.08368,0.91144 -0.65344,1.46041 -1.29535,2.2c-0.57861,0.66669 -0.78891,1.66726 -0.12115,2.17916c0.77991,0.59787 1.78317,0.47411 2.45831,0.5c0.71436,0.02739 2.13651,0.01114 2.78769,0.02534c0.85236,0.01859 2.04041,0.24375 2.16666,0.88216c0.18002,0.9104 -0.41714,1.72386 -0.87485,2.55617c-0.36844,0.66998 -0.56995,1.52863 -1.27048,2.1465c-0.68613,0.60516 -0.91608,1.29905 -0.84,2.236c0.08255,1.01665 0.87625,1.68239 0.94266,2.57467c0.06195,0.83215 -0.84399,1.58915 -0.94885,2.3c-0.13791,0.93473 -0.92075,1.4543 -1.00449,2.3c-0.07883,0.79611 -0.21536,1.54868 -0.83334,2.16666c-0.61798,0.61798 -1.50922,0.68798 -1.50934,0.83334c-0.00067,0.82535 2.01398,-0.06694 2.33368,0.7045c0.34329,0.82832 0.78738,1.68073 0.63834,2.4955c-0.13306,0.72728 -1.15576,1.27457 -1.828,2c-0.5379,0.58046 -1.48026,1.35327 -1.21799,2.27917c0.21024,0.74216 1.41653,0.50541 2.19666,0.5195c0.12,0.00217 -0.82104,-0.18028 -1.57999,0.08667c-0.76111,0.26771 -1.19272,1.32737 -0.91736,2.11333c0.26569,0.7583 -0.81848,0.72873 -0.93997,1.46533c-0.13843,0.83934 -0.0553,1.76862 0.00015,2.5575c0.06451,0.91788 0.44806,1.87442 -0.34283,1.61183c-0.77805,-0.25832 1.13428,0.13184 0.58566,0.75233c-0.32626,0.369 -1.43921,-0.53954 -1.58432,0.21567c-0.18036,0.93867 0.29761,1.94292 -0.08667,2.62933c-0.41168,0.73532 -1.58167,0.40451 -2.25333,0.28534c-0.78442,-0.13918 -1.63,-0.30368 -2.496,-0.43201c-1.21924,-0.18068 -1.94202,-0.32852 -2.836,-0.23734c-1.09418,0.1116 -1.35413,1.12085 -1.31866,1.8c0.04398,0.84216 0.22845,1.8528 0.53098,2.63251c0.2991,0.7709 0.9509,1.53856 1.59702,2.09949c0.70297,0.61026 0.99594,1.60205 1.29733,2.24667c0.33093,0.70779 0.96527,1.55827 1.44934,2.05867c0.75296,0.77834 1.18912,1.41338 2.09314,1.873c0.76187,0.38734 1.36685,0.243 0.50284,0.243c-0.85599,0 -1.85086,-0.21417 -2.62,0.07201c-0.79666,0.29642 -0.3808,1.2224 -0.44666,2.27066c-0.00504,0.08035 -0.86343,-0.6398 -1.80402,-0.332c-0.67752,0.22171 -0.46112,1.35452 -0.0065,2.03101c0.46869,0.69739 1.36975,1.39697 2.12451,1.90649c0.40903,0.27611 1.30685,0.80449 1.78934,1.04201c1.46161,0.71951 1.97562,0.88274 2.9505,1.19099c0.4545,0.14371 2.66113,-0.18103 2.53134,0.76167c-0.1366,0.99213 -1.78931,0.0446 -2.51453,0.05716c-1.03912,0.01801 -1.49173,0.66359 -1.19998,1.48666c0.27621,0.77921 0.83353,1.64848 0.98315,2.4525c0.17145,0.92139 -0.71518,1.50816 -1.43716,1.55017c-0.82999,0.04829 -1.78915,-0.33438 -2.66467,0.17734c-0.73279,0.4283 -0.44934,1.38647 -0.28815,2.41167c0.13757,0.87498 0.62708,2.20105 -0.04517,2.75499c-0.64313,0.52995 -1.37903,-1.01247 -2.3125,-0.79166c-0.72079,0.1705 0.09744,1.2686 0.39383,2.15833c0.28568,0.85751 -0.23779,1.70668 -1.10001,1.78934c-0.92514,0.08868 -2.66412,0.10049 -2.444,-0.70534c0.1687,-0.61755 1.86862,0.43713 1.54666,1.28c-0.2634,0.68954 -1.39536,0.43135 -2.60001,0.15067c-0.53848,-0.12546 -1.34949,-0.33911 -2.34399,-0.91199c-0.60162,-0.34656 -0.87,0.20161 -1.80667,0.19733c-0.75684,-0.00346 -1.43393,-0.82088 -2.36533,-0.91333c-0.78372,-0.07779 -0.5658,1.16742 -0.03967,1.61333c0.80426,0.68164 1.21487,0.92889 0.457,0.71468c-0.88474,-0.25008 -1.69766,-0.40425 -2.70667,-0.41467c-0.79462,-0.00821 -1.84534,0 -2.47867,0c-1.01248,0 -1.67084,0 -2.76898,0c-0.86835,0 -1.75436,-0.03047 -2.547,0.036c-1.05508,0.08849 -1.68512,0.24295 -2.6965,0.464c-0.65909,0.14406 -1.76089,0.35468 -2.66086,0.52533c-0.90839,0.17224 -1.66483,0.41873 -2.28931,0.62134c-0.73035,0.23695 -2.03424,0.6774 -2.52667,0.836c-1.05002,0.3382 -1.60425,0.50476 -2.17599,0.65601c-1.16766,0.3089 -2.36636,0.5396 -2.96768,0.6185c-1.18854,0.15596 -1.77878,0.18495 -2.92834,0.25749c-0.55756,0.03519 -1.10565,0.02649 -2.629,0.20683c-0.93201,0.11034 -1.80292,0.29233 -2.63397,0.483c-0.40714,0.09341 -1.608,0.39748 -2.39551,0.591c-1.10477,0.27148 -1.7468,0.48492 -2.95102,0.64734c-0.65945,0.08894 -1.64532,0.05099 -2.59164,0.07799c-0.41629,0.01187 -1.44183,0.0594 -2.77084,0.14584c-0.7937,0.05162 -1.66797,0.11758 -2.6145,0.18599c-1.00946,0.07295 -2.07285,0.14946 -3.18149,0.222c-1.14435,0.07487 -2.31537,0.15501 -4.70401,0.25867c-1.19922,0.05203 -2.39594,0.08476 -3.58649,0.10951c-1.18146,0.02455 -2.35098,0.03828 -3.50552,0.04649c-1.13647,0.00809 -2.25198,0.00983 -4.40799,0.01067c-1.03433,0.0004 -2.03467,-0.00031 -2.99701,0.0045c-0.92032,0.00459 -1.79474,0.01259 -2.61899,0.03149c-0.77042,0.01767 -1.48453,0.02463 -2.71735,0.13068c-0.51715,0.04448 -0.97101,0.10999 -1.36649,0.19049c-0.34982,0.0712 -0.65659,0.15714 -0.92551,0.25351c-0.24536,0.08792 -0.46634,0.18858 -0.87466,0.38933c-0.20102,0.09882 -0.39594,0.21785 -0.832,0.38933c-0.72751,0.28609 -1.66699,0.45349 -2.42932,0.52934c-0.88831,0.08839 -1.38657,0.10631 -2.48083,0.24834c-0.60443,0.07846 -1.92621,0.32565 -2.64352,0.49699c-0.75488,0.1803 -1.53421,0.39325 -2.33698,0.612c-0.81921,0.22324 -1.64661,0.4534 -2.48102,0.666c-0.82965,0.21138 -2.46115,0.56917 -3.25266,0.69366c-0.76605,0.1205 -1.5108,0.20316 -2.229,0.267c-0.68918,0.06126 -1.97754,0.13318 -2.57068,0.17867c-1.55936,0.1196 -2.01218,0.15221 -3.11899,0.4395c-0.60059,0.1559 -1.60828,0.75565 -2.31601,1.12201c-0.86389,0.44722 -1.77298,0.35716 -2.621,0.35716c-1.11948,0 -1.62,0 -2.19849,0c-0.6655,0 -1.427,0 -2.29349,0c-0.9805,0 -2.08401,0 -4.69601,0c-1.52084,0 -3.16667,0 -4.91251,0c-1.82083,0 -3.69167,0 -5.58749,0c-1.89583,0 -3.76666,0 -7.33333,0c-1.651,0 -3.20801,0 -4.677,0c-1.38701,0 -2.698,0 -3.93901,0c-1.17699,0 -2.29599,0 -4.38399,0c-0.97968,0 -1.91734,0 -2.811,0c-0.84767,0 -1.64734,0 -2.397,0c-0.69766,0 -1.34132,0 -2.45866,0c-0.47084,0 -0.88667,0 -1.2525,0c-0.32083,0 -0.60167,0 -0.8475,0c-0.21582,0 -0.40666,0 -0.73332,0c-0.14584,0 -0.28667,0 -0.42751,0c-0.14583,0 -0.30167,0 -0.4725,0c-0.19083,0 -0.40666,0 -0.93333,0c-0.31966,0 -0.67732,0 -1.071,0c-0.42766,0 -0.88733,0 -1.377,0c-0.51767,0 -1.06133,0 -2.21866,0c-0.6105,0 -1.244,0 -1.9035,0c-0.68851,0 -1.409,0 -2.16451,0c-0.7935,0 -1.62799,0.00015 -3.43199,0c-0.97351,-0.00009 -1.98801,0.00011 -3.0345,-0.0045c-1.0695,-0.0047 -2.15305,-0.01329 -3.2415,-0.03149c-1.08456,-0.01814 -2.15674,-0.03236 -4.224,-0.13068c-0.98009,-0.04662 -1.91765,-0.11337 -2.811,-0.18599c-0.84799,-0.06892 -1.64751,-0.14565 -2.397,-0.222c-0.69783,-0.07109 -1.34085,-0.146 -2.45866,-0.25867c-0.47264,-0.04764 -0.9028,-0.08389 -1.3065,-0.123c-0.39497,-0.03825 -0.79819,-0.08153 -1.22549,-0.14101c-0.47043,-0.06548 -2.30176,-0.40057 -3.10516,-0.567c-0.90733,-0.18796 -1.90936,-0.40413 -3.00151,-0.633c-1.17349,-0.24591 -2.42177,-0.50331 -3.7395,-0.759c-1.37689,-0.26718 -4.28745,-0.78363 -5.80682,-1.02217c-1.54729,-0.24292 -3.11626,-0.46727 -4.69501,-0.6855c-1.57791,-0.21811 -3.14673,-0.42482 -4.69499,-0.63148c-1.5184,-0.20268 -4.42555,-0.60074 -5.79434,-0.80417c-1.30586,-0.19408 -2.54301,-0.38914 -3.70799,-0.57901c-1.08968,-0.1776 -2.09875,-0.34879 -3.024,-0.50699c-0.83742,-0.14319 -2.23178,-0.38231 -2.78366,-0.47151c-0.4615,-0.07458 -0.84346,-0.13217 -1.155,-0.18149c-0.25179,-0.03986 -0.45427,-0.07182 -0.61501,-0.10951c-0.13252,-0.03107 -0.34668,-0.11554 -0.44501,-0.17316c-0.10182,-0.05966 -0.20047,-0.13069 -0.29999,-0.20401c-0.10048,-0.07402 -0.19905,-0.15067 -0.3,-0.222c-0.09908,-0.07001 -0.29816,-0.19035 -0.4005,-0.23116c-0.10185,-0.0406 -0.21146,-0.09175 -0.95551,-0.12018c-1.01393,-0.03873 -1.76933,-0.00133 -2.23567,-0.00133c-1.15067,0 -1.851,0.00043 -3.54166,0c-1.00584,-0.00026 -2.12671,-0.00035 -3.36751,-0.0135c-1.36588,-0.01448 -2.86185,-0.04251 -4.4925,-0.0945c-1.77106,-0.05646 -3.68824,-0.1217 -7.97333,-0.392c-2.3768,-0.14993 -4.88724,-0.34927 -7.5075,-0.5715c-2.70643,-0.22954 -5.4722,-0.48555 -8.2725,-0.7605c-2.81138,-0.27603 -5.60838,-0.55663 -11.05334,-1.168c-2.60634,-0.29265 -5.12463,-0.59491 -7.5585,-0.89999c-2.35413,-0.29507 -4.62968,-0.59503 -6.8295,-0.90001c-2.12917,-0.29518 -4.1902,-0.58574 -8.112,-1.2c-1.87091,-0.29305 -3.67933,-0.59477 -5.4255,-0.89549c-1.68448,-0.29008 -3.30423,-0.58061 -4.8585,-0.86852c-1.48938,-0.27588 -2.91192,-0.54434 -5.54933,-1.06932c-1.21542,-0.24193 -2.35889,-0.47758 -3.4305,-0.7005c-0.99904,-0.20782 -1.92368,-0.40363 -2.7735,-0.58351c-0.77384,-0.1638 -1.46959,-0.31596 -2.62933,-0.54933c-0.46108,-0.09277 -0.85223,-0.16411 -1.1805,-0.228c-0.2757,-0.05365 -0.50855,-0.09966 -0.7035,-0.15599c-0.17202,-0.04971 -0.33276,-0.10275 -0.616,-0.28267c-0.15985,-0.10153 -0.31844,-0.23318 -0.4815,-0.37651c-0.16908,-0.14861 -0.33363,-0.30849 -0.4905,-0.47549c-0.15412,-0.16408 -0.30548,-0.32237 -0.528,-0.64799c-0.09652,-0.14124 -0.16748,-0.27979 -0.2235,-0.4095c-0.05175,-0.11981 -0.08933,-0.23624 -0.1245,-0.34651c-0.03382,-0.10605 -0.05755,-0.214 -0.152,-0.41066c-0.04934,-0.10274 -0.116,-0.20093 -0.186,-0.3c-0.07132,-0.10095 -0.14798,-0.19952 -0.222,-0.3c-0.07331,-0.09952 -0.15213,-0.19405 -0.25867,-0.39999c-0.05042,-0.09746 -0.08464,-0.19913 -0.1095,-0.3c-0.02445,-0.09924 -0.03832,-0.19981 -0.0465,-0.3c-0.00815,-0.09985 -0.01,-0.2 -0.01067,-0.39999c-0.00034,-0.10017 0,-0.20134 0,-0.3045c0,-0.10616 0,-0.21632 0,-0.3315c0,-0.12117 0,-0.24933 0,-0.53067c0,-0.15466 0,-0.31732 0,-0.48599c0,-0.17267 0,-0.34734 0,-0.522c0,-0.17267 0,-0.34134 0,-0.65866c0,-0.14517 0,-0.28134 0,-0.4095c0,-0.12117 0,-0.23634 0,-0.34651c0,-0.10616 0,-0.41066 0,-1.21066c0,-0.836 0,-1.85266 0,-2.54733c0,-1.006 -0.15244,-2.00723 0.036,-2.802c0.18617,-0.78519 1.2975,-0.86169 1.97833,-0.84616c0.80741,0.01842 1.98748,0.15318 2.58967,0.2795c0.96161,0.20171 1.6621,0.40337 2.896,0.54933c0.94885,0.11224 1.45775,0.11757 2.5,0.14584c0.5239,0.01421 1.548,0.02016 2.93483,0.02083c0.77567,0.00037 2.532,1.11267 2.532,0c0,-0.95216 -1.6775,0 -2.66684,0c-0.8,0 -1.80493,0.06931 -2.58933,-0.02133c-0.73565,-0.08501 -1.49265,-0.90083 -2.00933,-1.41068c-0.70523,-0.69589 -1.61561,-1.02362 -2.172,-1.45467c-0.78756,-0.61015 -1.53406,-1.10669 -2.024,-1.46066c-1.0409,-0.75203 -1.57781,-1.49982 -0.797,-1.61099c0.59962,-0.08537 1.95844,0.12389 2.5415,0.17966c0.64228,0.06143 1.33227,0.13197 2.0595,0.20401c1.5212,0.15068 2.29318,0.22568 3.05867,0.29066c1.46475,0.12436 2.1451,0.16696 2.78533,0.19867c1.15963,0.05743 1.67991,0.07074 2.6,0.08083c1.07994,0.01183 2.25129,0.19685 2.66133,-0.56483c0.37289,-0.69267 0.29209,-1.90215 -0.20266,-2.62933c-0.38934,-0.57227 -1.47971,-0.739 -2.23283,-0.7805c-0.79553,-0.04384 -2.0175,-0.02083 -2.8175,-0.02083c-0.9045,0 -1.89087,0.09064 -2.63233,-0.17067c-0.8402,-0.2961 -1.51158,-0.86093 -2.26133,-1.26134c-0.93327,-0.49841 -1.91228,-0.59874 -2.41084,-1.27249c-0.51374,-0.69427 -0.36741,-1.77327 -0.70016,-2.22417c-0.85828,-1.16298 -1.36404,-1.41388 -1.791,-1.7955c-0.94429,-0.84401 -1.45837,-1.28207 -1.97867,-1.73666c-0.52504,-0.45874 -1.55613,-1.37016 -2.04383,-1.817c-0.9197,-0.84262 -1.3352,-1.24812 -2.11417,-1.9675c-0.66701,-0.61598 -2.41618,-0.85237 -2.22533,-1.71201c0.10214,-0.46007 1.5031,0.02077 2.20933,-0.07866c1.0523,-0.14815 1.62513,-0.77586 2.472,-0.98933c0.93291,-0.23517 0.91556,-0.58232 0.86133,-1.40001c-0.04824,-0.72748 1.62716,-0.61004 1.539,-1.28449c-0.11613,-0.88847 -1.07252,-1.78333 -0.80067,-1.87584c0.8071,-0.27464 1.71202,0.59731 2.467,0.78434c0.82096,0.20338 1.66971,0.37845 2.496,0.516c1.08377,0.18041 2.34292,0.1521 2.12366,-0.60017c-0.18517,-0.6353 -0.91841,-1.13086 -1.47,-1.761c-0.74187,-0.84753 -1.56939,-1.8924 -0.96567,-2.3175c0.70354,-0.49538 1.61338,-0.60014 0.89983,-1.136c-0.55256,-0.41496 -1.65262,-0.56539 -2.3625,-1.09867c-0.74142,-0.55697 -0.9045,-0.73309 -1.4525,-1.32217c-0.67397,-0.72449 -0.25903,-1.49097 -0.1155,-2.1265c0.17813,-0.7887 0.6706,-1.57821 0.31067,-2.46867c-0.27472,-0.67963 -0.97539,-1.65331 -0.544,-2.31467c0.53038,-0.81312 1.02329,-0.21291 1.41333,0.39466c0.22486,0.35026 0.33778,0.16885 0.49733,-0.53867c0.19259,-0.85401 1.53673,-0.39469 2.51283,-0.07266c0.76288,0.25169 2.04074,0.58004 1.86283,0.14733c-0.34036,-0.82784 -1.46616,-0.8045 -2.22233,-1.63333c-0.47923,-0.52528 -2.0212,-1.38479 -1.288,-1.872c0.72431,-0.4813 0.05198,0.77908 -0.72134,0.148c-0.53857,-0.43951 -1.11616,-1.01489 -1.8,-1.632c-0.75578,-0.68203 -1.59475,-1.39617 -2.0365,-1.76334c-0.45023,-0.37421 -1.37472,-1.12298 -1.842,-1.49466c-0.46472,-0.36964 -1.82436,-1.43327 -2.26017,-1.76334c-0.82694,-0.62629 -1.5858,-1.20226 -2.316,-1.632c-0.906,-0.53321 -2.5174,-0.21319 -2.51333,-1.14c0.00419,-0.95524 1.56251,-0.35326 2.29067,-0.096c1.13789,0.40201 1.69682,0.92798 2.57233,1.4785c0.50753,0.31914 1.35487,0.67451 2.36233,0.81483c0.81072,0.11292 1.632,0.08466 2.62933,0.08533c0.84,0.00056 2.04501,0.11185 2.06533,-0.036c0.12789,-0.93008 -0.09293,-0.67674 -0.09217,-0.964c0.00245,-0.9253 -1.79968,-0.5379 -2.26567,-1.02084c-0.73904,-0.76591 -1.06012,-1.71228 -0.311,-2.27016c0.56655,-0.42192 2.07948,-0.02903 1.66883,0.24433c-0.71675,0.47713 -1.03701,-1.38867 -1.74483,-1.90067c-0.80355,-0.58123 -1.64891,-0.38286 -2.38317,-0.66333c-0.93093,-0.35561 -2.16483,-0.74512 -2.189,-1.68484c-0.0197,-0.76591 1.2429,-0.71527 2.105,-0.7045c0.83353,0.01042 2.24296,0.18262 2.04783,0.4355c-0.38403,0.4977 -1.48964,-0.658 -1.95184,-1.8315c-0.25573,-0.64929 0.84543,-1.17632 1.50067,-1.1325c0.74061,0.04953 1.75219,-0.21778 2.62883,0.62833c0.56352,0.5439 -0.48932,0.98708 -1.39217,0.56683c-0.85293,-0.39702 -1.73993,-0.84644 -1.88117,-1.905c-0.09836,-0.73719 1.61656,-1.20232 1.8195,-0.409c0.18529,0.72432 -0.79553,-0.13376 0.12417,-0.291c0.68768,-0.11758 1.96473,1.12236 2.51417,0.5285c0.3812,-0.41203 -0.54556,-1.41527 -0.57533,-2.10616c-0.04469,-1.03705 -1.37992,-1.72849 -0.83467,-2.31734c0.51546,-0.55667 1.16298,0.8682 1.54933,1.63334c0.40694,0.80592 0.7332,0.07195 0.63217,-0.74284c-0.0442,-0.35648 -0.49382,-1.16903 -0.34817,-2.05717c0.11223,-0.68435 1.16643,-0.434 1.83333,0.16666c0.20829,0.1876 -1.23619,-0.54974 -0.612,-1.045c0.59682,-0.47355 1.44574,0.95218 1.717,0.164c0.22607,-0.65685 -0.40046,-1.64324 -0.477,-2.41367c-0.08851,-0.89091 0.42187,-1.70874 1.0595,-2.35117c0.64799,-0.65287 1.40571,-0.83144 1.96317,-1.65684c0.36961,-0.54726 0.6659,-1.62524 1.4945,-2.37749c0.5161,-0.46855 1.23881,0.36552 1.54233,1.11766c0.24959,0.61849 0.63959,1.73158 0.96317,2.55984c0.33489,0.85722 0.48523,1.28783 0.86333,2.05917c0.58466,1.1927 1.36145,1.65478 1.97383,0.892c0.58023,-0.72272 0.7429,-2.1709 1.5645,-1.806c0.58879,0.2615 0.11012,1.27084 0.1145,2.433c0.0032,0.84968 -0.01606,1.6979 0.057,2.481c0.10963,1.17525 0.88365,1.564 1.4255,0.92083c0.55636,-0.66039 0.92037,-1.21908 1.27433,-2.444c0.25432,-0.88009 0.23233,-1.49986 0.243,-2.7c0.0078,-0.87746 -0.25553,-1.88394 0.02083,-1.89584c0.90679,-0.03902 0.11849,1.95763 0.97917,2.5625c0.59919,0.4211 0.92255,-0.56631 1.16933,-1.35467c0.31939,-1.02029 0.62416,-1.96403 1.26266,-2.37199c0.5271,-0.33678 0.85104,0.83269 1.08884,1.6225c0.18191,0.60419 0.58365,1.95726 0.77467,2.68117c0.18826,0.71347 0.35756,1.3872 0.58317,2.49167c0.18228,0.89235 1.03761,1.17276 1.51067,0.37133c0.34519,-0.58481 0.49825,-1.7483 0.558,-2.4075c0.09168,-1.01135 -0.2032,-1.78068 0.40533,-2.81866c0.38332,-0.65382 0.63103,0.44228 0.66817,1.22366c0.02518,0.52965 0.19796,1.9819 0.2645,2.4345c0.14479,0.98489 0.23066,1.50385 0.41917,2.565c0.09441,0.53143 0.37624,2.05653 0.5955,2.946c0.18393,0.74614 0.65398,1.63372 1.11066,1.06233c0.3986,-0.4987 0.44911,-1.33235 0.91067,-2.51183c0.31409,-0.80264 0.68157,-1.57801 1.026,-2.343c0.49015,-1.08864 0.76274,-1.76969 1.01666,-2.38917c0.32564,-0.79443 1.15277,-1.86613 1.5145,-1.20383c0.41346,0.75701 -0.89318,2.29253 0.1215,2.64249c0.08752,0.03019 0.3474,-0.96845 0.7045,-1.71117c0.38486,-0.80045 0.80472,-1.56316 1.174,-2.57349c0.13239,-0.36221 0.1215,0.39149 0.1215,1.37666c0,0.94417 -0.3728,2.41841 0.436,2.53333c0.88382,0.12558 0.98367,-1.244 1.264,-2.10267c0.32282,-0.98884 0.49508,-1.71513 0.71067,-2.45467c0.21899,-0.75121 0.42607,-1.51193 0.9105,-2.5525c0.44939,-0.96529 0.56051,-2.64582 1.60683,-2.25684c0.91856,0.34148 0.07152,1.68533 0.072,2.42934c0.00067,1.03467 0.16081,2.66003 0.83334,2.33867c0.59607,-0.28484 -0.09453,-2.32562 0.814,-2.20551c0.83511,0.11041 0.38347,1.45573 0.57401,2.736c0.11784,0.7918 0.20502,1.20132 0.35333,2.02417c0.26046,1.44501 -0.10887,2.58725 0.64683,2.99017c0.71186,0.37954 1.20974,-0.7933 1.65,-1.51583c0.62741,-1.02966 0.88609,-1.45108 1.482,-2.355c0.30862,-0.46813 0.8811,-1.40502 1.50916,-2.13c0.7371,-0.85084 0.59489,-0.17482 1.17334,0.676c0.37589,0.55289 0.9044,-0.62558 0.98933,-1.38534c0.13069,-1.16924 0.2396,-1.76913 0.47467,-2.6055c0.1999,-0.71122 0.79075,-1.64716 1.66666,-1.5625c0.86624,0.08372 1.48434,0.65472 1.83334,1.33334c0.46944,0.91283 0.60669,1.50835 0.8,2.12267c0.41439,1.31689 0.5976,2.0092 0.8,2.69866c0.39532,1.34672 0.59377,1.9822 0.79867,2.58401c0.37946,1.11454 0.56013,1.62396 0.94417,2.51917c0.46603,1.08633 1.03994,2.2088 1.71183,2.11016c1.15179,-0.1691 1.33094,-0.83911 1.987,-1.493c0.73616,-0.73372 1.09741,-1.15071 1.79167,-2.04166c0.70235,-0.90134 1.01553,-1.38198 1.64583,-2.33334c0.31317,-0.47269 0.60628,-0.95395 1.52084,-2.33334c0.29626,-0.44683 0.88801,-1.29494 1.4375,-2.08333c0.49235,-0.7064 1.0146,-1.60994 1.46516,-2.36467c0.4082,-0.68376 0.83605,-0.15475 1.108,0.67067c0.27107,0.82277 0.83579,1.60921 0.90667,2.312c0.0835,0.82792 -0.06752,1.73766 0.252,2.424c0.4388,0.9426 1.25494,0.42648 1.809,-0.5465c0.4343,-0.76266 0.72409,-1.55374 0.90017,-2.43567c0.19266,-0.96499 0.1215,-0.49733 0.1215,0.17017c0,1.11467 0,2.10267 0,2.63867c0,1.09599 -0.00343,1.632 0,3.048c0.00225,0.93001 0.2222,0.77166 0.35717,0.1705c0.16453,-0.73281 0.31492,-1.53486 0.64283,-2.6705c0.26912,-0.93203 0.52179,-1.64819 0.916,-2.61333c0.33297,-0.8152 0.80048,0.03405 1.60484,0.03c0.82094,-0.00414 0.88858,-1.2513 1.2935,-2.1445c0.50425,-1.1123 0.71974,-1.51991 1.2,-2.382c0.25299,-0.45413 0.80229,-1.37844 1.09467,-1.842c0.87697,-1.39045 1.18183,-1.83283 1.791,-2.682c0.29558,-0.41203 0.87603,-1.20445 1.5,-1.89417c0.8672,-0.95857 1.44352,-1.50539 2.0375,-1.847c1.00308,-0.57689 1.5278,0.0191 1.5585,0.73633c0.04289,1.00193 0.004,1.80117 0.004,2.6595c0,0.87833 -0.00696,2.14587 0.00133,2.9045c0.0106,0.97064 -0.35443,2.4446 0.57333,2.50667c0.6685,0.04472 0.42534,0.377 0.42534,1.03867c0,1.02567 -0.31433,2.224 0,2.224c0.86667,0 0,-1.95866 0,-2.63216c0,-0.59317 -0.5842,0.9741 0.0045,1.00517c0.71524,0.03775 0.26111,-1.8983 0.42084,-2.59433c0.1992,-0.86805 0.49889,-0.84604 0.57466,0.08916c0.05908,0.72918 0.22499,1.06097 0.94284,1.409c0.74728,0.36229 0.05849,1.7285 0.27882,2.6285l0.54001,0.6l0.72232,0.5l0.69067,0.4" fill="#00bfbf" id="svg_4" stroke="#000000" stroke-dasharray="null" stroke-linecap="null" stroke-linejoin="null" stroke-opacity="0" stroke-width="null"/>
  <text fill="#ffffff" font-family="Serif" font-size="24" id="svg_5" stroke="#ffffff" stroke-dasharray="null" stroke-linecap="null" stroke-linejoin="null" stroke-width="0" text-anchor="middle" transform="matrix(1.81341 0 0 1.53125 -100.727 -77.9844)" x="181.5" xml:space="preserve" y="127.5">A New Learning</text>
  <text fill="#ffffff" font-family="Serif" font-size="24" id="svg_6" stroke="#000000" stroke-dasharray="null" stroke-linecap="null" stroke-linejoin="null" stroke-opacity="0" stroke-width="0" style="cursor: move;" text-anchor="middle" transform="matrix(2.40545 0 0 1.52182 -219.264 -62.8062)" x="184.17422" xml:space="preserve" y="144.5">Experience</text>
 </g>
</svg>