<svg width="640" height="480" xmlns="http://www.w3.org/2000/svg" xmlns:svg="http://www.w3.org/2000/svg">
 <!-- Created with SVG-edit - https://github.com/SVG-Edit/svgedit-->
 <g class="layer">
  <title>Layer 1</title>
  <rect fill="#00ffff" height="0" id="svg_12" stroke="#000000" stroke-dasharray="null" stroke-linecap="null" stroke-linejoin="null" stroke-opacity="0" stroke-width="null" width="1" x="127.5" y="61.5"/>
  <rect fill="#5656ff" height="111" id="svg_24" stroke="#000000" stroke-dasharray="5,5" stroke-linecap="null" stroke-linejoin="null" stroke-width="5" width="0" x="91.5" y="45.5"/>
  <path d="m100.5,45.5c1.8,0 2.672,0 3.54266,0c0.708,0 1.68934,0 2.64301,0c1.01433,0 1.91433,0 2.81433,0c0.8,0 1.636,0 2.48534,0c0.91917,0 1.91333,0 2.67867,0c0.952,0 1.72,0 2.66133,0c1.008,0 1.8,0 2.65867,0c0.86333,0 1.89066,0 2.8375,0c0.69933,0 1.6785,0 2.46783,0c1.04401,0 1.90617,0 2.7315,0c0.96451,0 1.68983,0 2.679,0c0.77934,0 1.77884,0 2.68417,0c0.94133,0 1.632,0 2.70534,0c0.87466,0 1.45366,0 2.83916,0c0.47951,0 1.5555,0 2.134,0c0.59351,0 1.78951,0 2.9375,0c1.04401,0 1.5285,0 2.4375,0c0.849,0 2.0625,0 2.85851,0c0.77199,0 1.83249,0 2.70399,0c0.95833,0 1.8252,-0.0169 2.50667,0.032c0.78168,0.05608 1.31305,0.13536 1.95999,0.224c1.70154,0.23313 2.77733,0.4065 3.996,0.6c1.34335,0.21329 2.79227,0.45041 4.32901,0.7065c1.60727,0.26784 3.2664,0.54863 4.959,0.8415c3.41682,0.59122 5.10461,0.89409 6.76266,1.19333c1.61861,0.29213 3.18694,0.57982 4.69499,0.861c1.43861,0.26823 2.79718,0.52471 4.065,0.771c2.22757,0.43273 3.16862,0.62609 4,0.79867c0.73193,0.15193 1.37334,0.28935 1.935,0.4095c0.49167,0.10518 0.92264,0.19985 1.30501,0.2745c0.65219,0.12733 0.9431,0.16838 1.21333,0.204c0.2498,0.03292 0.48016,0.05735 0.69,0.084c0.19016,0.02415 0.36226,0.0433 0.50999,0.084c0.24472,0.06742 0.33389,0.13408 0.40933,0.2c0.07501,0.06555 0.14229,0.14479 0.2265,0.216c0.09296,0.07861 0.19717,0.2216 1.045,0.3785c0.67,0.12399 1.4966,0.10583 2.41501,0.117c0.48413,0.00589 1.97733,0.0045 2.97299,0.0045c0.49384,0 1.46851,0 1.94734,0c1.39049,0 2.26917,0 3.09982,0c0.77467,0 2.12401,0 2.68668,0c0.94933,0 1.97049,0 2.74983,0c0.9995,0 1.7735,0 2.67799,0c0.74733,0 1.7415,0.00236 2.68567,0c0.90001,-0.00225 1.68842,-0.33689 2.45717,-0.716c0.84521,-0.41681 1.8136,-0.29116 2.509,-0.63667c0.67603,-0.33587 1.70905,-0.6072 2.54832,-0.63667c0.63036,-0.02213 1.66383,-0.01067 2.75734,-0.01067c0.724,0 1.416,0 2.61467,0c0.72899,0 1.77066,0 2.56,0c1.04399,0 1.84952,0.00684 2.696,-0.284c0.739,-0.25391 1.71359,-0.60331 2.53549,-0.716c0.66359,-0.09099 1.66318,-0.2892 2.5,-0.5c0.87915,-0.22147 1.77824,-0.38595 2.6685,-0.47467c0.85283,-0.08498 1.89883,-0.21812 2.58534,-0.46133c0.92372,-0.32726 1.90535,-0.77018 2.43999,-0.95333c0.77187,-0.26441 1.96967,-0.58207 2.88551,-0.61067c0.78477,-0.02451 1.72516,0 2.41583,0c1.07333,0 1.89465,0 2.80565,0c0.92502,0 1.845,0 2.6355,0c0.85352,0 2.04285,0 2.64551,0c0.939,0 1.61166,0 2.73068,0c0.836,0 1.728,0 2.65198,0c0.46652,0 1.84802,0 2.73068,0c0.85867,0 1.70932,0 2.13666,0c1.314,0 2.23135,0 3.17267,0c0.47467,0 1.422,0 2.80801,0c0.88,0 1.30499,0 2.125,0c1.155,0 2.22,0 2.88,0c0.91498,0 1.995,0 2.71347,0c0.95801,0 2.09085,0 2.75351,0c0.69467,0 1.72668,0 2.65167,0c0.771,0 1.64032,0 2.63849,0c0.91919,0 1.88367,0 2.81519,0c0.91064,0 1.58932,0 2.56781,0c1.02151,0 1.72952,0 2.78568,0c0.59833,0 1.59583,0 2.26917,0c1.19601,0 1.92502,0 2.96667,0c0.81067,0 1.68539,-0.01075 2.68668,0.00134c0.85513,0.01032 1.48047,0.01541 2.83432,0.22c0.72626,0.10975 1.43674,0.28151 2.112,0.426c1.10202,0.23581 2.04297,0.34733 3.13202,0.35266c0.62,0.00304 1.35999,0 2.21997,0c1.51501,0 2.07919,0 2.66833,0c1.23334,0 1.86752,0 2.50668,0c0.63916,0 2.50665,0 3.09634,0c0.56766,0 1.629,0 2.57831,0c0.82135,0 1.77966,0 2.79468,0c0.914,0 1.664,0 2.59399,0c1.11002,0 1.94333,0 2.3775,0c0.87833,0 1.73666,0 2.89917,0c0.99149,0 1.72916,0 2.172,0c1.11868,0 2.66135,0 3.62701,0c1.07965,0 2.24731,0 3.47699,0c1.26566,0 2.54132,0 3.80099,0c1.21768,0 3.423,0 4.36517,0c0.83517,0 1.57632,0 2.23651,0c0.59216,0 1.12933,0 1.62448,0c0.46619,0 1.36349,0 1.81766,0c0.45917,0 0.91833,0 1.37253,0c0.44415,0 1.2825,-0.00302 2.34,0c0.78748,0.00225 1.62027,0.03185 2.39999,0.08533c1.10043,0.07548 1.80124,0.13487 2.58932,0.2c0.85229,0.07043 1.74557,0.14795 2.65649,0.2355c0.90646,0.08713 1.78552,0.17395 2.61151,0.2805c1.41156,0.18209 2.02444,0.10873 2.98801,0.588c0.72324,0.35973 1.49329,0.96917 1.41998,1.81067c-0.08041,0.92304 -0.63785,1.57284 -1.39865,2.18933c-0.74359,0.60254 -1.63824,0.43713 -2.39999,0.696c-0.88794,0.30176 -1.64133,0.79852 -2.40002,1.19867c-0.85837,0.45272 -1.55716,0.71375 -2.45267,0.716c-0.86331,0.00217 -2.72598,-0.89951 -2.72598,0c0,0.216 1.37866,-0.00085 1.80667,0.00017c0.98798,0.00236 1.52423,0.00153 2.62,0.03583c0.53616,0.01678 1.99884,-0.02799 2.90451,0.32567c0.72153,0.28175 1.13617,1.30863 0.96082,2.15433c-0.18539,0.8941 -0.53598,1.97268 -1.27499,2.42683c-0.68756,0.42253 -2.25778,-0.51184 -2.51501,0.40983c-0.19312,0.69187 1.28568,0.64508 2.27536,0.64734c0.76532,0.00174 1.85675,-0.14625 2.70114,0.00017c0.8428,0.14614 0.52277,0.86155 -0.26648,1.33316c-0.80533,0.48123 -1.32809,0.68878 -2.47919,1.1875c-0.62595,0.2712 -1.28329,0.53712 -1.9635,0.7965c-1.38596,0.5285 -2.08823,0.76354 -2.77866,0.99466c-0.67062,0.22449 -1.92499,0.62402 -2.48801,0.80534c-0.95682,0.30814 -2.00989,0.80192 -1.14551,0.88284c0.82101,0.07686 1.5787,0.67817 2.44284,0.9745c0.88162,0.30231 1.59586,0.3501 2.328,0.63599c1.12793,0.44044 1.84485,0.84208 2.12918,1.71067c0.2677,0.8178 -0.18951,1.98696 0.40683,2.59467c0.60944,0.62105 1.41028,0.84875 1.91733,1.56667c0.46533,0.65885 1.32825,1.33379 2.048,1.44534c0.97217,0.15067 1.94794,-0.08106 2.84915,0.07217c0.8511,0.14471 1.05429,1.15031 0.72952,1.88516c-0.38522,0.87164 -1.11389,1.37112 -1.60269,1.80134c-0.85431,0.75191 -1.52713,1.26792 -2.22665,1.7925c-0.68994,0.51738 -1.66666,1.18751 -2.22665,1.55151c-0.69,0.4485 -1.44952,1.13239 -1.7525,1.94849c-0.31479,0.84788 -1.09515,1.64063 -0.45016,1.9355c0.76596,0.35017 1.87384,-0.14857 2.715,0.1425c0.77206,0.26717 0.715,1.34283 0.71432,2.24284c-0.00067,0.89999 -0.15225,1.87452 -0.68268,2.3c-0.77689,0.62317 -1.64819,0.81889 -2.35464,1c-0.87167,0.22347 -1.9621,0.40379 -2.59033,0.49983c-0.67307,0.1029 -2.10275,0.29138 -2.83069,0.37933c-0.71744,0.08669 -1.41107,0.16601 -2.06699,0.2355c-1.6019,0.16972 -2.95361,-0.50346 -3.30801,0.452c-0.28979,0.78132 1.25732,0.78292 1.89584,0.83334c0.69815,0.05512 2.12125,0.19689 2.77133,0.35717c0.89243,0.22003 1.82626,0.65455 2.5155,1.03217c0.61301,0.33585 1.65503,0.57315 2.39999,0.6c1.10699,0.03989 1.96902,-0.17749 2.85068,0.04667c0.8761,0.22275 1.54916,0.99524 2.22534,1.35333c0.67465,0.35728 1.698,0.53742 2.49582,0.83216c0.8493,0.31376 1.74704,0.96504 1.67868,1.87833c-0.06442,0.86089 -1.09967,0.90017 -2.02518,0.90017c-0.776,0 -1.81055,-0.1181 -2.45383,0.52084c-0.64221,0.63786 -1.07657,1.46967 -0.93552,2.08983c0.19415,0.85366 0.29211,1.75558 0.74802,2.556c0.41782,0.73352 1.05432,1.14677 1.78,1.94933c0.55347,0.61209 0.84723,1.53571 0.88531,2.4c0.0415,0.94168 0.168,1.484 -0.47098,1.484c-0.87302,0 -2.02768,0 -2.81967,0c-0.90533,0 -1.08301,0 -0.04135,0c0.66934,0 1.43466,0 2.23203,0c0.76532,0 2.21646,-0.17546 2.896,0.08533c0.84219,0.32322 0.75287,1.58968 -0.09467,1.8575c-0.86118,0.27213 -1.87714,-0.05364 -2.67917,0.078c-0.87949,0.14436 -1.37656,0.95056 -2.22086,0.97916c-0.89963,0.03047 -1.68533,0 -2.62534,0c-1.008,0 -1.73715,0 -2.84131,0c-0.672,0 -1.45602,0 -2.30402,0c-0.86398,0 -2.08633,0 -2.815,0c-0.67267,0 -1.61166,0 -2.81165,0c-0.86102,0 -1.63202,0 -2.58835,0c-0.91434,0 -1.81433,0 -2.5715,0c-0.90448,0 -1.7045,0 -2.66449,0c-0.82501,0 -1.73999,0 -2.745,0c-0.72,0 -1.48001,0 -2.28,0c-0.84,0 -2.17468,0 -3.10602,0c-0.47266,0 -1.422,0 -2.36331,0c-1.36267,0 -1.80002,0 -2.65869,0c-0.85065,0 -1.70932,0 -3.04648,0c-0.927,0 -1.39352,0 -2.3175,0c-0.892,0 -2.11816,0 -2.8425,0c-0.96152,0 -1.53085,0 -2.76169,0c-0.85266,0 -1.85983,0 -2.49881,0c-0.729,0 -1.93033,0 -2.64102,0c-0.77466,0 -1.60532,0 -2.93881,0c-0.46384,0 -1.41452,0 -2.38919,0c-0.4938,0 -1.98932,0 -2.98398,0c-0.48734,0 -1.422,0 -2.27667,0c-1.06201,0 -1.98468,0 -2.93933,0c-0.67734,0 -2.12268,0 -2.66232,0c-0.61768,0 -1.31134,0 -2.07901,0c-0.83966,0 -1.74933,0 -2.72699,0c-1.04367,0 -3.32101,0 -4.54868,0c-1.27368,0 -2.57935,0 -3.90302,0c-1.32767,0 -2.64532,0 -3.939,0c-1.25568,0 -3.59698,0 -4.65833,0c-0.98935,0 -1.91467,0 -2.784,0c-0.82135,0 -1.60266,0 -2.35202,0c-0.72531,0 -2.13599,0 -2.83533,0c-0.69531,0 -1.38266,0 -2.05798,0c-0.65933,0 -1.29868,0 -1.914,0c-0.58734,0 -1.66202,0 -2.14484,0c-0.45984,0 -0.91367,0 -1.37851,0c-0.49283,0 -1.03067,0 -1.63049,0c-0.67883,0 -2.34149,0 -3.35251,0c-1.117,0 -2.31598,0 -3.573,0c-1.29099,0 -2.59201,0 -3.879,0c-1.24899,0 -3.53699,0 -4.53384,0c-0.89783,0 -1.70764,0 -2.44049,0c-0.66684,0 -1.27866,0 -1.8465,0c-0.53484,0 -1.5495,0 -2.05,0c-0.50349,0 -1.013,0 -1.53149,0c-0.5305,0 -1.076,0 -1.6395,0c-0.5845,0 -1.82851,0 -2.49251,0c-0.688,0 -1.394,0 -2.112,0c-0.724,0 -1.448,0 -2.166,0c-0.70599,0 -2.058,0 -2.69316,0c-0.60617,0 -1.18434,0 -1.7355,0c-0.52516,0 -1.02533,0 -1.95467,0c-1.23183,0 -1.96483,0 -2.98933,0c-0.668,0 -1.707,0 -2.44701,0c-0.78,0 -1.59999,0 -2.905,0c-0.91466,0 -1.83733,0 -2.29166,0c-0.87466,0 -2.04167,0 -2.96567,0c-0.90533,0 -1.82784,0 -2.90933,0c-0.6945,0 -1.59601,0 -2.32533,0c-1.30667,0 -1.804,0 -2.90268,0c-0.60533,0 -1.25066,0 -1.93799,0c-0.73134,0 -2.334,0 -3.2065,0c-0.9075,0 -1.83501,0 -2.7675,0c-0.9225,0 -1.82001,0 -2.67751,0c-0.80251,0 -2.1825,0 -2.73416,0c-0.84334,0 -1.77,0 -2.58968,0c-0.6255,0 -1.692,0 -2.73199,0c-0.625,0 -1.32001,0 -2.08501,0c-0.83499,0 -1.73999,0 -2.715,0c-2.16,0 -3.34317,0 -4.58533,0c-1.29018,0 -2.61734,0 -3.9705,0c-1.36816,0 -2.74033,0 -4.1055,0c-2.66533,0 -3.94501,0 -5.18266,0c-1.19366,0 -2.34134,0 -3.44101,0c-1.04967,0 -2.04733,0 -2.991,0c-1.71733,0 -2.48767,0 -3.2,0c-0.65634,0 -1.25867,0 -1.80901,0c-0.50034,0 -0.95267,0 -1.35899,0c-0.68266,0 -0.96333,0 -1.20801,0c-0.21266,0 -0.39732,0 -0.558,0c-0.14066,0 -0.26534,0 -0.37799,0c-0.54584,0 -1.41983,0 -2.70534,0c-0.59334,0 -1.26666,0 -2.00999,0c-0.80334,0 -1.65668,0 -2.55,0c-0.92334,0 -1.86667,0 -3.77333,0c-0.94417,0 -1.87334,0 -2.7825,0c-0.88417,0 -1.73834,0 -2.55751,0c-0.77916,0 -1.51332,0 -2.82666,0c-0.57083,0 -1.08667,0 -1.55251,0c-1.14749,0 -1.75417,0 -2.98582,0c-0.8,0 -1.7135,0 -2.795,0c-0.6855,0 -1.524,0 -2.15468,0c-1.40132,0 -2.17999,0 -2.59533,0c-0.89266,0 -2.41666,0 -2.9805,0c-0.58683,0 -1.8015,0 -2.41533,0c-0.60883,0 -1.7835,0 -2.85417,0c-0.92266,0 -1.70133,0 -2.63433,0c-1.06567,0 -1.89484,0 -2.7965,0c-0.9225,0 -1.59583,0 -2.9025,0c-0.819,0 -1.512,0 -2.534,0c-0.88267,0 -1.428,0 -2.88483,0c-0.45183,0 -1.4265,0 -1.93533,0c-1.02567,0 -2.47916,0 -3.32583,0c-0.76667,0 -1.49333,0 -2.22,0c-1.1765,0 -2.05217,0 -2.516,0c-0.97467,0 -2.00533,0 -3.084,0c-1.11467,0 -1.677,0 -2.23734,0c-1.09867,0 -1.629,0 -3.096,0c-0.84133,0 -1.57066,0 -2.47217,0c-1.05717,0 -2.02783,0 -2.6945,0c-0.816,0 -2.20451,0 -2.80933,0c-0.65884,0 -1.35867,0 -2.0865,0c-0.74284,0 -1.48766,0 -3.60416,0c-0.626,0 -1.208,0 -2.264,0c-0.952,0 -1.404,0.00097 -2.736,0c-0.91734,-0.00067 -1.85876,-0.00665 -2.33334,-0.02084c-0.94761,-0.02832 -2.33422,-0.13901 -2.778,-0.2005c-0.85325,-0.11824 -1.63743,-0.28465 -2.66467,-0.49467c-1.00016,-0.20449 -2.08708,-0.13134 -2.75734,-0.34116c-0.88243,-0.27624 -1.41842,-1.25537 -2.1,-1.6575c-0.76813,-0.45319 -1.70483,-0.52969 -2.37467,-0.896c-0.97243,-0.53178 -1.26809,-1.20709 -1.85067,-1.95334c-0.4386,-0.56182 0.13254,-0.88895 1.02533,-1.26933c0.75154,-0.32019 1.67205,-0.15714 2.5425,-0.16683c0.93684,-0.01042 1.77196,0.1213 2.4615,-0.6105c0.61361,-0.6512 1.19202,-1.76427 0.63883,-2.33667c-0.63192,-0.65386 -1.46541,-0.67192 -2.282,-1.36617c-0.58984,-0.50146 -0.73996,-1.47074 -0.4275,-2.35184c0.22728,-0.64091 0.29853,-1.54465 1.43066,-2.19067c0.7368,-0.42043 1.85703,0.08553 2.552,-0.42799c0.67819,-0.50112 0.2254,-0.72497 -0.516,-1.32667c-0.76035,-0.61708 -1.31496,-1.37673 -1.39867,-2.18934c-0.09221,-0.89526 0.0349,-1.83984 -0.43734,-2.61066c-0.49273,-0.80427 -1.02615,-1.38484 -1.27867,-2.10533c-0.34047,-0.97145 0.52614,-0.66039 0.71467,-1.00484c0.45064,-0.82332 -0.5468,-1.49814 -1.66667,-2.3125c-0.53542,-0.38936 -1.17243,-0.78885 -1.8645,-1.22549c-0.7305,-0.46089 -1.48796,-0.92319 -2.2515,-1.3785c-0.74617,-0.44496 -1.45552,-0.87021 -2.71733,-1.56267c-0.50353,-0.27633 -1.53468,-0.3314 -2.10233,-1.03017c-0.39793,-0.48985 0.76347,-1.15127 1.59433,-1.45383c0.48708,-0.17738 1.57005,-0.51746 2.13866,-0.69067c0.57172,-0.17415 2.20297,-0.65768 2.683,-0.80367c0.8492,-0.25826 1.86279,-0.60822 2.853,-0.855c0.65619,-0.16354 1.44191,-0.61642 2.33333,-1c0.71128,-0.30607 1.75632,0.15308 2.43067,-0.252c0.73957,-0.44426 0.02517,-1.65373 -0.83067,-1.87866c-0.87132,-0.229 -1.63125,-0.3729 -2.4,-0.75201c-0.84521,-0.41681 -1.86641,-0.20829 -2.6,-0.71999c-0.6754,-0.47111 -1.31533,-1.15913 -1.8215,-2.00717c-0.35255,-0.59066 -0.58417,-1.2431 -0.97983,-2.24083c-0.32304,-0.81461 -0.6384,-1.65996 -1.12,-2.39433c-0.46197,-0.70444 -1.10949,-1.18568 -1.79066,-2.035c-0.59677,-0.74406 0.32579,-0.73024 1.212,-0.88717c0.73375,-0.12994 1.23878,-1.05708 1.464,-1.8315c0.33472,-1.15097 0.32843,-1.76669 0.436,-2.6055c0.1368,-1.06676 0.76719,-1.47013 1.64817,-1.5715c0.79379,-0.09133 1.30808,-0.86155 1.35183,-1.991c0.03014,-0.77816 0.17421,-1.65538 0.80133,-2.08267c0.68631,-0.46762 1.08807,-1.45863 1.17333,-2.168c0.08927,-0.74273 0.23997,-1.83121 0.82667,-2.54667c0.53865,-0.65686 1.39825,-1.23058 1.76266,-1.83867c0.55717,-0.92976 0.35258,-2.01742 1.28667,-2.28133c0.8825,-0.24933 1.48428,0.72444 2.2495,1.13883c0.71705,0.3883 1.32084,1.3917 2.19,1.307c0.78686,-0.07668 0.77151,-1.19881 1.41966,-2.1195c0.41289,-0.58651 1.26392,-1.44853 2.08884,-1.321c0.93974,0.14528 1.74061,0.65659 2.34,0.29066c0.86169,-0.52606 1.30934,-1.23402 2.16134,-1.38317c0.92789,-0.16243 1.68498,-0.62685 2.39999,-0.34367c0.82637,0.32729 1.83932,-0.10116 2.31434,-0.35266c0.80096,-0.4241 1.98455,-0.86399 2.583,-0.84184c0.86958,0.03219 1.71572,0.33343 2.432,1.02667c0.63412,0.61373 0.89764,1.77153 1.72783,2.09716c0.83367,0.327 1.5962,-0.28083 2.35883,-0.77983c0.77424,-0.5066 1.72581,-0.86987 2.4,-0.71467c0.9948,0.229 1.36317,0.06711 2.00484,-0.56583c0.64386,-0.63512 1.48455,-0.12621 2.27917,0.19517c0.78423,0.31718 1.53154,-0.59525 1.85266,-1.13116c0.35887,-0.5989 0.79739,-1.57702 1.46201,-2.5275c0.43363,-0.62015 1.28478,-1.04 2.18533,-1.05733c0.90116,-0.01735 1.89527,0.10616 2.51466,0.436c0.90186,0.48026 1.17633,1.264 1.18533,2.164l0.02084,0.9l0.32283,0.7955" fill="#5959d6" id="svg_3" stroke="#000000" stroke-dasharray="null" stroke-linecap="null" stroke-linejoin="null" stroke-width="0"/>
  <text fill="#ffffff" font-family="serif" font-size="24" font-weight="bold" id="svg_4" stroke="#000000" stroke-dasharray="null" stroke-linecap="null" stroke-linejoin="null" stroke-width="0" text-anchor="middle" transform="matrix(2.88588 0 0 1.5 -319.597 -29.25)" x="187.04424" xml:space="preserve" y="83.16667">FAQ</text>
 </g>
</svg>