<svg width="640" height="480" xmlns="http://www.w3.org/2000/svg" xmlns:svg="http://www.w3.org/2000/svg">
 <!-- Created with SVG-edit - https://github.com/SVG-Edit/svgedit-->
 <g class="layer">
  <title>Layer 1</title>
  <path d="m114.8246,62.5c1.78112,0 2.71163,0 3.4004,0c1.32988,0 1.75527,0 2.71957,0c1.10216,0 1.69986,0 2.32595,0c0.65244,0 2.02828,0 3.48115,0c0.74417,0 1.49341,0 2.24266,0c0.74418,0 1.47822,0 2.19705,0c1.37178,0 2.6368,0 3.2389,0c0.58993,0 1.75763,0 2.34757,0c1.86711,0 2.54067,0 3.2416,0c0.72525,0 1.47179,0 2.23658,0c0.77999,0 1.57215,0 2.37342,0c1.61776,0 2.4285,0 3.23822,0c0.80769,0 1.61235,0 2.41296,0c0.79554,0 1.58498,0 2.36733,0c1.53936,0 2.2947,0 3.77899,0c0.73101,0 1.45592,0 2.17576,0c0.71579,0 1.42854,0 2.84899,0c0.70937,0 2.12407,0 2.82736,0c0.69924,0 1.3934,0 2.08149,0c0.68099,0 2.67143,0 3.31508,0c0.63352,0 1.87015,0 2.47327,0c0.59298,0 2.31108,0 2.86368,0c1.07886,0 1.60712,0 2.64643,0c0.51306,0 2.03808,0 3.05036,0c0.5036,0 1.50068,0 2.47749,0c0.47826,0 1.86035,0 2.72768,0c0.81462,0 1.56843,0 2.86199,0c0.80279,0 1.56911,0 2.72211,0c0.67608,0 1.39678,0 2.50824,0c1.07545,0 1.74445,0 2.67192,0c1.09472,0 1.82904,-0.01984 2.57869,0.036c1.22276,0.09107 1.98628,0.24431 2.84899,0.4c0.93761,0.16921 1.42483,0.26764 2.93142,0.564c0.50688,0.09971 1.52045,0.3 2.02726,0.4c1.01363,0.2 2.02714,0.40064 3.0409,0.6c1.01351,0.19931 1.51921,0.30228 2.53408,0.47916c0.50623,0.08823 1.51768,0.26286 3.04073,0.39934c0.50488,0.04524 1.50971,0.08893 2.00632,0.10066c0.97667,0.02308 2.38625,0.02084 3.2796,0.02084c0.86091,0 1.6975,0 2.51787,0c1.21753,0 2.02405,0 2.81841,0c0.77407,0 1.87943,0 2.56871,0c0.95787,0 1.82465,-0.01324 2.84223,0.00134c0.71328,0.01022 1.47604,0.06012 2.6868,0.28266c0.69469,0.12769 1.39322,0.32836 2.73546,0.54934c0.83564,0.13757 1.60971,0.16376 2.70301,0.33333c0.64893,0.10065 1.3556,0.26533 2.11648,0.408c0.79068,0.14827 2.00493,0.31831 2.82566,0.36816c0.84323,0.05122 1.72859,0.05468 3.16692,0.05717c0.51679,0.00089 1.60716,0.00264 2.17864,0.01067c0.58777,0.00826 1.8081,0.04082 2.43813,0.07467c1.2968,0.06966 1.96045,0.13024 3.31373,0.26733c0.6884,0.06973 1.38213,0.14853 2.08149,0.222c0.70317,0.07387 1.40779,0.16679 3.53724,0.304c0.7114,0.04584 1.42782,0.06981 2.14992,0.096c0.73011,0.02648 1.47051,0.04895 2.22289,0.078c0.76672,0.02959 2.35085,0.11063 3.17099,0.16867c0.83685,0.05923 1.6854,0.13051 2.54219,0.20399c0.86099,0.07384 1.72169,0.15099 2.57869,0.222c0.84863,0.07031 2.50547,0.19005 3.30665,0.23117c0.78148,0.04011 1.54504,0.06716 2.29131,0.08549c0.72991,0.01794 1.44472,0.02931 2.83275,0.03467c1.33936,0.00517 1.9928,0.00134 2.63409,0.00134c1.23799,0 1.83062,0 2.40298,0c1.07581,0 2.48746,0 3.28688,0c0.7021,0 1.6083,0 2.62329,0c0.98236,0 1.86984,0.11011 2.62732,0.436c0.67627,0.29095 1.61585,0.57127 2.38947,0.76667c0.8993,0.22714 1.9413,0.46726 2.51465,0.61166c0.61199,0.15413 1.95163,0.51598 2.67854,0.72817c0.75713,0.22102 1.52892,0.45718 2.30499,0.69749c0.7687,0.23803 1.51482,0.47826 2.90306,0.90667c1.15828,0.35744 2.00877,0.66351 2.84899,0.79083c0.87056,0.13192 1.7909,0.0625 2.58679,0.0625c0.99606,0 1.71369,0 2.6503,0c0.7636,0 1.6083,0 2.49353,0c0.88526,0 2.12542,0 2.85963,0c0.97463,0 2.08016,0 2.80388,0c0.91768,0 1.89973,0 2.72531,0c0.88034,0 1.78806,0 2.69119,0c0.84842,0 1.9928,0 2.72432,0c0.95501,0 1.934,0 2.70437,0c0.93252,0 1.7247,0 2.52598,0c1.13409,0 1.97455,0 3.06673,0c0.60648,0 1.61758,0 2.3001,0c1.21365,0 1.97236,0 2.68547,0c1.28275,0 2.08403,0 3.02466,0c0.86583,0 1.85834,0 2.72803,0c0.65075,0 1.61167,0 2.62936,0c0.84334,0 2.07592,0 2.5111,0c1.03662,0 1.62992,0 2.26784,0c1.3934,0 2.14079,0 3.71667,0c0.82085,0 1.66098,0 2.51939,0c0.87561,0 1.76742,0 2.67446,0c0.92123,0 1.85561,0 3.75989,0c0.96804,0 1.94619,0 2.93449,0c0.99841,0 2.00697,0 3.02568,0c1.02885,0 2.06782,0 4.17616,0c1.06922,0 2.14757,0 3.23402,0c1.09353,0 2.19316,0 3.29783,0c1.10875,0 2.22054,0 4.44918,0c1.11432,0 2.22459,0 3.32675,0c1.08998,0 2.16374,0 3.21725,0c1.02919,0 2.02999,0 3.93021,0c0.89231,0 1.74614,0 2.56347,0c0.78287,0 1.53329,0 2.2533,0c0.69164,0 1.35693,0 2.61652,0c0.59788,0 1.17449,0 1.72876,0c0.53098,0 1.03764,0 1.51893,0c0.45494,0 0.88254,0 1.65155,0c0.34262,0 0.67305,0 1.00958,0c0.36084,0 0.76428,0 1.22853,0c0.54329,0 1.18392,0 2.83005,0c1.03609,0 2.20702,0 3.4955,0c1.38886,0 2.86083,0 4.39867,0c1.58652,0 3.20444,0 6.46562,0c1.61084,0 3.19634,0 4.7514,0c1.51961,0 2.99867,0 4.43211,0c1.38276,0 2.70978,0 5.17631,0c1.13034,0 2.19078,0 3.18229,0c0.92358,0 1.78026,0 2.57108,0c0.72592,0 1.38799,0 2.52462,0c0.47724,0 0.89875,0 1.26958,0c0.32521,0 0.60986,0 0.85906,0c0.21876,0 0.41219,0 0.74333,0c0.14712,0 0.28515,0 0.41507,0c0.12284,0 0.23955,0 0.35122,0c0.10762,0 0.2122,0 0.41627,0c0.10171,0 0.20543,0 0.68116,0c0.88303,0 1.63261,0 2.52817,0c1.01413,0 1.74261,0 2.50349,0c1.18445,0 2.39624,0 3.2058,0c0.80143,0 1.58668,0 2.34755,0c1.07819,0 2.06646,0 2.67464,0c1.09474,0 2.02726,0 2.79764,0c0.97899,0 1.91238,0 2.82464,0c0.91229,0 1.82505,0 2.60656,0c0.90518,0 1.86155,0 2.59542,0c0.78253,0 1.99574,0.00528 2.82854,-0.0045c0.89376,-0.01049 1.37655,-0.02094 2.43695,-0.08083c1.22389,-0.06914 1.90616,-0.13381 2.63137,-0.2c0.76013,-0.06937 1.54634,-0.14875 2.35061,-0.2355c0.81485,-0.08789 1.63162,-0.18085 2.44184,-0.28049c1.57118,-0.19322 3.03019,-0.39668 3.71429,-0.49417c0.65391,-0.09319 1.27666,-0.18742 2.43274,-0.34733c0.5319,-0.07357 1.94535,-0.24911 2.74137,-0.3c0.98885,-0.06322 1.99008,0.08257 2.77617,-0.078c0.8955,-0.18292 1.23023,-1.32451 2.06949,-1.8125c0.50889,-0.2959 1.35752,-0.14124 2.53408,-0.33333c0.92439,-0.15092 1.54121,-0.3554 2.5192,-0.63467c1.04995,-0.29981 1.79328,-0.5057 2.57009,-0.67783c0.79175,-0.17545 2.00468,-0.36958 2.81434,-0.4355c0.79088,-0.0644 1.55151,-0.07855 2.26242,-0.084c1.21498,-0.00931 2.18277,0.08571 3.13416,-0.288c0.69811,-0.27422 1.73064,-0.89182 2.53677,-1.196c0.45646,-0.17224 1.45589,-0.50381 1.98405,-0.656c1.06473,-0.3068 2.10918,-0.55737 3.09361,-0.69067c0.9358,-0.12671 1.40599,-0.14258 2.36091,-0.16167c1.55813,-0.03115 2.13027,-0.009 2.72748,-0.009c1.25015,0 1.89295,0 2.54082,0c0.64794,0 2.54089,0 3.13908,0c0.57895,0 1.68316,0 2.21039,0c1.00992,0 2.42847,0 3.32048,0c0.85148,0 1.66237,0 2.43274,0c1.07952,0 1.74849,0 2.676,0c1.09468,0 2.03803,0 2.67817,0c1.02223,0 1.93855,0 3.14681,0c0.76901,0 1.19657,0 2.13287,0c1.03758,0 1.59191,0 2.76633,0c1.25151,0 1.89753,0 2.55165,0c0.65821,0 1.97053,0 2.61655,0c1.25151,0 2.4273,0 2.98478,0c1.05422,0 1.55089,0 2.48341,0c1.24761,0 1.99942,0 3.10171,0c0.77711,0 2.10547,0 2.59898,0c1.02848,0 1.54934,0 2.56873,0c1.36683,0 2.09872,-0.03323 2.90844,0c0.50812,0.02085 -0.52995,0.32779 -1.20641,0.568c-0.7781,0.27631 -1.57941,0.59389 -2.35974,0.864c-1.20418,0.41682 -2.06401,0.41434 -2.87466,0.58884c-0.85773,0.18463 -1.61733,0.89639 -2.53408,0.97916c-0.75187,0.06789 -1.69034,0.16161 -2.37057,0.28533c-0.7958,0.14475 -1.65643,0.31567 -2.53,0.516c-1.24192,0.28481 -1.96744,0.49769 -2.91116,0.76267c-0.97206,0.27296 -1.77534,0.42558 -2.73008,0.436c-0.91217,0.00996 -1.82836,-0.08212 -2.73676,0.00017c-0.92386,0.08368 -1.57829,0.81295 -0.91755,0.99533c0.8185,0.22593 1.65433,0.01098 2.62045,-0.01683c0.5315,-0.0153 1.66608,-0.08153 2.25698,-0.14934c1.21266,-0.13917 2.42062,-0.39175 3.01139,-0.53466c0.57827,-0.13989 1.66478,-0.44427 2.16579,-0.58934c1.59958,-0.46318 2.33499,-0.6693 3.22922,-0.70533c0.91155,-0.03673 1.72319,0 2.64359,0c1.07036,0 1.67246,0 2.65163,0c0.63253,0 1.83368,0 2.88147,0c0.86577,0 1.85831,0 2.63678,0c0.69062,0 -0.44062,-0.00337 -1.12042,0.00134c-0.78528,0.00544 -1.62117,0.00861 -2.44487,0.084c-1.10501,0.10114 -1.97369,0.36183 -2.73107,0.562c-0.9835,0.25992 -1.8012,0.28154 -2.58122,0.40533c-1.06671,0.16929 -1.89802,0.74927 -2.70793,0.89017c-0.80031,0.13923 -1.78419,0.0408 -2.60944,0.06783c-0.88111,0.02886 -2.09588,0.19522 -2.70032,0.3465c-0.9186,0.22993 -1.5181,0.45117 -2.73546,0.8415c-0.89083,0.28564 -1.45209,0.50273 -2.5136,0.67983c-0.9058,0.15112 -1.949,0.08637 -2.74777,0.13216c-0.73789,0.0423 -1.93255,0.22608 -2.53581,0.93667c-0.32858,0.38699 0.39787,0.75098 1.47757,0.886c1.04896,0.13117 1.68755,0.11319 2.39216,0.13066c0.77538,0.01923 1.62179,0.02695 2.53915,0.0315c0.98827,0.00491 3.17775,0.0045 4.37587,0.0045c1.25077,0 2.53606,0 3.83756,0c1.29952,0 2.57869,0 3.81937,0c1.18395,0 3.30853,0 4.21706,0c0.8052,0 1.51507,0 2.13776,0c0.54363,0 1.01635,0 1.42616,0c0.35512,0 0.93358,0 1.17226,0c0.21134,0 0.39836,0 1.28176,0c0.81089,0 1.22819,-0.02334 0.29566,0.04166c-0.76462,0.0533 -1.22936,0.10624 -2.95985,0.40117c-0.6892,0.11745 -1.41608,0.26516 -2.1742,0.4185c-0.77922,0.15762 -1.5679,0.32344 -2.35671,0.49049c-0.77891,0.16496 -2.26539,0.48188 -2.95577,0.62684c-0.65573,0.13768 -1.88862,0.39495 -2.47729,0.52133c-0.57908,0.12431 -1.73191,0.37753 -2.91419,0.66666c-0.61799,0.15113 -1.88386,0.48145 -2.51923,0.648c-0.62727,0.16444 -1.23567,0.33846 -2.3895,0.616c-1.43161,0.34435 -2.16863,0.49203 -3.04764,0.548c-0.99557,0.06339 -1.79161,-0.04667 -2.55431,0.05733c-1.07742,0.14692 -1.64301,0.87014 -2.55301,0.95333c-0.98771,0.09029 -1.78184,0.01067 -2.7951,0.01067c-0.6918,0 -1.81358,0 -2.55555,0c-0.74197,0 -1.8205,0 -1.65173,0c0.6592,0 1.82521,0 2.64643,0c2.21516,0 3.6386,0 5.25061,0c1.76612,0 3.65177,0 5.62262,0c2.02151,0 4.05929,0 6.07876,0c3.84641,0 5.6103,0 7.25356,0c1.52367,0 2.92873,0 4.21619,0c1.17096,0 2.22629,0 3.16711,0c1.5421,0 2.14704,0 2.65169,0c0.41538,0 0.7528,0 1.02322,0c0.21474,0 0.38488,0 0.52154,0c0.21759,0 0.31862,-0.0009 0.4176,0.00134c0.09497,0.00214 0.18436,0.00587 0.26454,0.0195c0.07127,0.01212 0.13889,0.02525 0.17335,0.0645c0.05939,0.06763 0.03378,0.13999 -0.00674,0.2c-0.0524,0.07764 -0.25223,0.28072 -0.8636,0.516c-0.96816,0.37259 -1.94931,0.50835 -2.54491,0.60934c-0.68493,0.11613 -1.47263,0.2294 -2.37193,0.3465c-1.01976,0.13278 -3.4663,0.41222 -4.90582,0.564c-1.55949,0.16444 -3.20856,0.32923 -4.9156,0.4935c-1.7329,0.16676 -3.46098,0.32655 -5.1528,0.4755c-1.6234,0.14294 -4.54124,0.38038 -5.7797,0.46684c-1.08484,0.07573 -2.02609,0.13186 -2.83259,0.171c-0.68054,0.03303 -1.24471,0.0528 -1.70141,0.063c-0.35827,0.008 -0.81646,0.009 -0.93358,0.009c-0.04912,0 -0.03341,0 0.04411,0c0.13636,0 0.32839,0 0.5732,0c0.29449,0 1.02025,0 1.44627,0c0.46864,0 0.98189,0 1.54173,0c0.60853,0 1.26772,0 2.74629,0c1.70562,0 2.64662,0 3.63829,0c1.03219,0 2.09482,0 3.17775,0c1.09301,0 2.18602,0 3.26894,0c2.09482,0 3.08835,0 4.04234,0c0.91551,0 1.79347,0 2.63499,0c0.80601,0 1.57755,0 2.31563,0c1.37989,0 2.02337,0 2.63542,0c0.57963,0 1.1258,0 1.63756,0c0.47619,0 0.91594,-0.00004 1.3182,0c0.97156,0.00008 1.77454,0.08538 0.87579,0.35717c-0.60457,0.18283 -1.30329,0.34103 -2.38405,0.64283c-1.05242,0.29388 -1.79242,0.5111 -2.64068,0.7c-0.47724,0.10627 -2.22079,0.40311 -2.91945,0.50134c-0.75657,0.10635 -1.57167,0.21028 -2.44338,0.3195c-0.92714,0.11617 -1.90953,0.23506 -2.94507,0.36449c-2.22901,0.2786 -3.41853,0.43363 -4.6492,0.60133c-1.26389,0.17223 -2.55097,0.35551 -3.8513,0.555c-1.30682,0.20049 -2.61005,0.40923 -3.89695,0.645c-2.50562,0.45905 -3.69935,0.72826 -4.8546,0.99599c-1.11961,0.25948 -2.19938,0.53005 -3.24314,0.7965c-1.00918,0.25762 -1.98167,0.51605 -2.92378,0.7515c-1.78295,0.44557 -2.6301,0.63135 -3.44365,0.79733c-0.77495,0.1581 -1.51173,0.29303 -2.20618,0.4095c-0.64769,0.10861 -1.24737,0.19956 -1.79563,0.2745c-0.92776,0.1268 -1.30348,0.16711 -1.61777,0.20267c-0.25335,0.02866 -0.44625,0.04751 -0.57778,0.0645c-0.07109,0.00919 -0.08117,0.0178 -0.03044,0.0195c0.28366,0.00952 0.51733,0.00134 1.17486,0.00134c0.9251,0 1.49304,0 2.13399,0c0.71599,0 2.38102,0 3.33303,0c1.02799,0 2.12693,0 3.29177,0c1.22565,0 2.50705,0 3.83911,0c1.37772,0 4.24966,0 5.73311,0c1.50473,0 3.02166,0 4.54155,0c1.51389,0 3.01256,0 4.48686,0c1.44089,0 4.18581,-0.00053 5.47246,0.00017c1.22175,0.00066 2.37459,0.00194 3.45442,0.0105c1.00287,0.00795 1.92469,0.02016 2.76113,0.0465c0.7476,0.02354 1.96002,0.09735 2.41616,0.16433c0.36823,0.05407 0.65889,0.11967 0.8667,0.2145c0.15986,0.07296 0.26986,0.16733 0.3193,0.2685c0.04479,0.09179 0.04714,0.29552 0.0451,0.39533c-0.00204,0.09888 -0.00693,0.19711 -0.03192,0.28951c-0.02481,0.09166 -0.06354,0.18758 -0.14143,0.25349c-0.29214,0.24722 -1.155,0.17342 -2.00345,0.44117c-0.88872,0.28046 -1.46347,1.50777 -0.92442,1.83067c0.75367,0.45145 1.91912,0.08533 2.62465,0.08533c1.00361,0 0.1392,0 -0.79066,0c-0.75416,0 -1.85478,-0.20277 -2.58141,0.08533c-0.86732,0.34389 -0.09998,0.9032 0.57982,0.91333c1.2014,0.0179 2.88221,-0.75179 2.8926,0.0015c0.01039,0.75357 -1.38446,-0.03506 -2.62008,0.22133c-0.76375,0.15849 -1.79625,0.96183 -1.23227,1.42133c0.76486,0.62322 1.69479,0.34566 2.43695,0.35583c1.17956,0.01617 0.77155,0.01572 -0.16215,0.17284c-0.45163,0.076 -1.59426,0.3251 -2.29558,0.49283c-0.78002,0.18656 -1.62173,0.40038 -2.51175,0.633c-0.92572,0.24195 -1.87105,0.4967 -2.82195,0.759c-0.94391,0.26038 -2.74975,0.77464 -3.58521,1.022c-0.78627,0.23278 -1.52138,0.4571 -2.2047,0.675c-0.63439,0.20231 -1.21934,0.39175 -1.74849,0.585c-1.30014,0.47483 -2.71603,0.96802 -2.35194,1.54017c0.37151,0.58376 1.5069,0.11257 2.04347,0.117c0.63383,0.00523 2.22592,0.0045 3.1968,0.0045c1.07934,0 2.25401,0 3.51072,0c1.32569,0 2.70706,0 4.13106,0c1.45338,0 4.3956,0 5.85827,0c1.44039,0 2.84633,0 4.20561,0c1.30045,0 2.53,0 3.6764,0c1.05119,0 2.81892,0 3.5148,0c0.5732,0 1.03287,0 1.38818,0c0.25997,0 0.43381,0 0.53064,0c0.02889,0 -0.08061,0 -0.20948,0c-0.21307,0 -0.55377,0 -1.06585,0c-0.72694,0 -1.71236,0 -2.99982,0c-1.63317,0 -6.11069,-0.00043 -9.02036,0.00017c-3.29783,0.00068 -6.89572,0.00249 -10.70544,0.0105c-3.93339,0.00827 -7.9023,0.02131 -11.81843,0.0465c-3.77532,0.02428 -10.55059,0.10072 -13.39332,0.16417c-2.46603,0.05505 -4.58337,0.12311 -6.37981,0.20399c-1.50523,0.06778 -2.74684,0.1425 -3.75243,0.222c-0.79988,0.06324 -1.89338,0.17384 -2.22988,0.23134c-0.18047,0.03085 -0.16259,0.0762 0.08971,0.096c0.52222,0.04098 1.35551,0.05251 2.53464,0.078c1.56314,0.03379 5.99209,0.11378 8.9103,0.16867c3.31763,0.06241 6.93729,0.13135 10.76174,0.20399c3.93191,0.07468 7.8739,0.1496 11.72872,0.222c3.6704,0.06893 10.06846,0.18683 12.62518,0.23117c2.12489,0.03685 3.86262,0.06527 5.25766,0.08549c1.09709,0.01591 1.94077,0.02628 2.57566,0.0315c0.47069,0.00387 1.09777,0.00389 1.3346,0.00467c0.19835,0.00066 0.35141,-0.00658 0.44705,0.0105c0.03502,0.00626 -0.00229,0.02782 -0.1186,0.0465c-0.20237,0.0325 -0.90308,0.11024 -1.41639,0.16467c-0.63272,0.06709 -1.39344,0.14461 -2.28983,0.2355c-1.04024,0.10548 -2.23266,0.2253 -3.58521,0.3615c-1.52076,0.15314 -5.09953,0.5152 -7.16756,0.72367c-2.23112,0.22491 -4.59574,0.46182 -7.06548,0.69749c-2.54404,0.24277 -5.1338,0.48026 -7.74064,0.6975c-2.59248,0.21605 -7.62136,0.57348 -10.00356,0.698c-2.27653,0.119 -4.44652,0.20067 -6.50596,0.2565c-1.94548,0.05274 -3.7747,0.08014 -5.48428,0.09451c-1.58683,0.01334 -4.38038,0.0135 -5.5824,0.0135c-1.07531,0 -2.02894,0 -2.86606,0c-0.72558,0 -1.34475,0 -1.86251,0c-0.4215,0 -0.99594,0 -1.15964,0c-0.09169,0 -0.12058,0 -0.09577,0c0.06942,0 0.17434,0 0.30562,0c0.14848,0 0.46066,0 0.60834,0c0.14155,0 0.28112,0 0.42268,0c0.14768,0 0.30544,0 0.47743,0c0.19024,0 0.64162,0 0.9092,0c0.29195,0 0.60209,0 0.92448,0c0.32839,0 0.65678,0 0.97917,0c0.31014,0 0.86967,0 1.10854,0c0.21251,0 0.40276,0 0.57475,0c0.15776,0 0.30544,0 0.44699,0c0.13957,0 0.4288,-0.00046 0.58638,0.00017c0.17082,0.00067 0.3579,0.00283 0.56411,0.0105c0.22866,0.00851 0.48269,0.02326 0.7648,0.0465c0.31391,0.02586 1.04772,0.10843 1.4738,0.16417c0.47001,0.06149 0.98598,0.13348 1.55237,0.20399c0.61855,0.07701 1.29296,0.15396 2.02677,0.222c0.79475,0.07368 2.58302,0.19149 3.57945,0.23117c1.05378,0.04197 2.15261,0.06745 3.28267,0.08549c1.14819,0.01833 2.30165,0.02681 3.44687,0.0315c1.12394,0.00461 3.25527,0.00504 4.23883,0.00433c0.92479,-0.00066 1.79279,-0.00198 2.60603,-0.0105c0.7606,-0.00797 1.47065,-0.02077 2.1317,-0.0465c0.61477,-0.02393 1.71279,-0.10292 2.19888,-0.16417c0.44916,-0.05659 0.86113,-0.12701 1.23765,-0.20399c0.34584,-0.07071 0.65994,-0.14796 0.9457,-0.222c0.26015,-0.06741 0.70801,-0.1885 0.90147,-0.23117c0.17422,-0.03842 0.33285,-0.06659 0.47743,-0.08549c0.13184,-0.01723 0.25403,-0.02675 0.36792,-0.0315c0.10777,-0.0045 0.31323,-0.0045 0.41525,-0.0045c0.1061,0 0.22031,0 0.3467,0c0.14254,0 0.30544,0 0.49259,0c0.21561,0 0.7481,0 1.07123,0c0.35666,0 0.73962,0 1.14188,0c0.41439,0 0.83391,0 1.25133,0c0.40832,0 1.16923,0 1.50913,0c0.3115,0 0.59671,0 0.85754,0c0.23856,0 0.45683,0 0.65684,0c0.18381,0 0.51084,0 0.65814,0c0.13926,0 0.27234,0 0.40146,0c0.12701,0 0.25403,0 0.38314,0c0.13308,0 0.41965,0 0.57642,0c0.16488,0 0.33582,0 0.51084,0c0.17706,0 0.35413,0 0.52915,0c0.17094,0 0.49259,0 0.63989,0c0.13926,0 0.27234,0 0.40146,0c0.12701,0 0.25403,0 0.38314,0c0.13308,0 0.41965,0.00047 0.57642,-0.00017c0.16488,-0.00067 0.33588,-0.0024 0.51084,-0.0105c0.17719,-0.00821 0.35462,-0.02158 0.52915,-0.0465c0.1715,-0.02449 0.49457,-0.10461 0.63958,-0.164c0.13889,-0.05688 0.26448,-0.12547 0.38011,-0.1935c0.10728,-0.0631 0.20144,-0.12613 0.28886,-0.1755c0.07498,-0.04236 0.20113,-0.0865 0.24345,-0.06667c0.04238,0.01986 0.06954,0.0744 0.08668,0.1395c0.02073,0.07866 0.10746,1.00864 0,1.692c-0.1512,0.96194 -0.87641,1.681 -0.9298,2.64c-0.04782,0.85911 0.84053,1.18083 1.74187,1.18533c0.99897,0.00499 1.83554,0 2.30808,0c1.64666,0 2.27306,-0.00159 2.92787,0.00267c0.67101,0.00436 2.01347,0.0319 2.6598,0.06933c0.61465,0.03559 2.6069,-0.19055 2.97396,0.63783c0.27432,0.61909 -1.50603,1.13714 -2.17507,1.2685c-0.76759,0.15071 -1.62729,0.26772 -2.55586,0.375c-0.97942,0.11315 -1.99577,0.20502 -3.03026,0.285c-1.03473,0.08001 -3.03923,0.19844 -3.97682,0.24017c-0.88563,0.03941 -1.71873,0.06676 -2.49814,0.08549c-0.72447,0.01742 -1.39337,0.02667 -2.00543,0.0315c-0.55433,0.00437 -1.48549,0.0045 -1.86152,0.0045c-0.82413,0 -1.85397,0 -2.76707,0c-0.68846,0 -1.7561,0 -2.55889,0c-0.9569,0 -1.47788,0 -2.57467,0c-0.56355,0 -2.24318,0 -2.78545,0c-1.05416,0 -1.56604,0 -2.55945,0c-1.41398,0 -1.8653,-0.0061 -2.74134,0.0045c-0.84789,0.01026 -1.67871,0.0196 -2.89613,0.16216c-0.81386,0.0953 -1.62104,0.26254 -2.43274,0.408c-0.81021,0.1452 -2.02516,0.31815 -2.81075,0.36816c-1.02378,0.06518 -1.91949,0.05717 -1.38737,0.05717c0.8954,0 1.53567,0 3.25211,0c1.09183,0 2.32862,0 3.69316,0c1.47498,0 3.04325,0 4.68756,0c1.70302,0 3.44767,0 6.99267,0c1.76798,0 3.52068,0 5.25315,0c1.70716,0 3.38389,0 5.0251,0c1.60069,0 3.15578,0 6.10883,0c1.38818,0 2.71251,0 3.9699,0c1.18748,0 2.30196,0 3.3404,0c0.95944,0 1.83671,0 3.33285,0c0.61459,0 1.14609,0 1.60255,0c0.38958,0 0.72038,0 1.00045,0c0.23751,0 0.44062,-0.00019 0.77575,0c0.14681,0.00008 0.28255,-0.00053 0.40597,0.0045c0.11037,0.0045 0.20763,0.01109 0.28737,0.0315c0.06601,0.0169 0.13988,0.04131 0.15139,0.13066c0.00711,0.05558 -0.04071,0.12467 -0.1095,0.195c-0.08958,0.09155 -0.22532,0.18515 -0.40139,0.285c-0.214,0.12136 -0.47805,0.25433 -1.17851,0.52c-0.4327,0.16409 -1.49385,0.50193 -2.11914,0.69067c-0.68864,0.20785 -1.44448,0.42641 -2.267,0.66151c-0.88984,0.25433 -2.87806,0.81518 -3.97602,1.12366c-1.15636,0.32488 -2.35887,0.66113 -3.59733,0.9975c-1.25918,0.34201 -2.52864,0.67873 -3.79809,0.9975c-1.2525,0.31451 -3.66873,0.87053 -4.81104,1.09818c-1.09047,0.21732 -2.13683,0.40079 -3.13821,0.567c-0.95764,0.15897 -1.87619,0.29939 -2.75507,0.44099c-0.84294,0.1358 -2.4281,0.41615 -3.17131,0.5775c-0.7137,0.15494 -1.39108,0.32304 -2.03129,0.4935c-0.60382,0.16078 -1.16533,0.32298 -1.68471,0.47549c-0.47533,0.13957 -1.28238,0.37965 -1.61368,0.46684c-0.28508,0.07504 -0.53243,0.13243 -0.74804,0.17099c-0.18801,0.03363 -0.35636,0.0596 -0.65684,0.06934c-1.01308,0.03281 -1.77843,0.00424 -2.82603,0.00267c-0.88656,-0.00134 -1.381,0.00323 -2.44957,-0.04167c-0.56726,-0.02383 -1.74954,-0.10205 -2.95645,-0.29166c-0.6097,-0.09578 -1.80293,-0.3676 -2.37867,-0.51733c-0.55779,-0.14507 -1.58281,-0.46487 -2.85845,-0.81601c-0.8461,-0.23289 -1.39727,-0.33333 -0.61812,-0.33333c1.29389,0 1.89648,0 2.58729,0c0.77594,0 1.63398,0 2.57108,0c1.01314,0 2.09922,0 3.25527,0c2.50977,0 3.85519,0 5.24523,0c1.41843,0 2.84899,0 4.27552,0c1.40624,0 2.77598,0 4.09301,0c2.41109,0 3.47694,0 4.45054,0c0.89045,0 1.70698,0 2.45854,0c0.69588,0 1.34512,0 1.95686,0c1.14739,0 1.69931,0 2.23811,0c0.52247,0 1.02576,0 1.50671,0c0.45565,0 0.88291,0 1.27873,0c0.68518,0 0.96971,0 1.21767,0c0.21561,0 0.40276,0 0.83459,0c0.9981,0 0.3227,0.09705 -0.90165,0.44284c-0.42664,0.1205 -1.39059,0.42049 -1.92252,0.57799c-1.13223,0.33527 -1.72139,0.51295 -2.93529,0.8125c-1.21229,0.29915 -1.82434,0.41495 -2.43274,0.54134c-0.60797,0.12628 -1.82558,0.37326 -2.43268,0.50934c-1.2186,0.27316 -2.42674,0.59618 -3.01813,0.76416c-0.57765,0.16408 -1.66441,0.49185 -2.16579,0.642c-1.26853,0.37991 -2.33499,0.67381 -3.22922,0.70984c-0.91155,0.03673 -1.73785,-0.01236 -2.70304,0.00133c-0.72242,0.01025 -1.99559,0.26659 -1.72047,0.57333c0.4551,0.50745 1.82143,0.26563 2.59929,0.30383c0.90072,0.04424 1.90761,0.06779 3.00136,0.08551c1.16255,0.01883 2.37595,0.02684 3.62171,0.03149c1.25993,0.0047 3.7494,0.0045 4.94517,0.0045c1.1532,0 2.26174,0 3.32369,0c1.01332,0 1.97592,0 2.8858,0c0.85519,0 2.39321,-0.00055 3.0727,0.00017c0.62065,0.00066 1.18463,0.00175 1.69374,0.0105c0.45658,0.00784 0.86268,0.01974 1.2194,0.04649c0.31094,0.02332 0.83663,0.04276 0.9822,0.16434c0.41723,0.34854 -0.67831,0.99606 -1.42579,1.21051c-0.48572,0.13936 -1.06715,0.27834 -1.74855,0.4395c-0.79165,0.18723 -2.75173,0.62947 -3.93544,0.89282c-1.30985,0.29143 -2.73138,0.60431 -4.24966,0.933c-1.59859,0.34607 -3.26331,0.70122 -4.97944,1.05901c-1.75047,0.36494 -5.29794,1.08092 -7.06585,1.42166c-1.74608,0.33655 -3.46246,0.65576 -5.13912,0.95401c-1.62439,0.28896 -3.18864,0.5549 -4.68298,0.79199c-1.41144,0.22394 -3.95226,0.58377 -5.06426,0.7115c-1.0059,0.11554 -1.91559,0.1994 -2.73527,0.2565c-0.73572,0.05124 -1.39603,0.07994 -1.98724,0.0945c-0.52921,0.01303 -1.43074,0.0135 -1.81611,0.0135c-0.34584,0 -0.65313,0 -0.92294,0c-0.2333,0 -0.43109,0 -0.59448,0c-0.12992,0 -0.32623,-0.03235 -0.32623,0c0,0.01367 0.09057,0 0.24636,0c0.251,0 0.61354,0 1.10383,0c0.6342,0 2.39927,0 3.55631,0c1.32835,0 2.80673,0 4.41385,0c1.71459,0 3.5153,0 5.3809,0c1.90916,0 5.77314,0 7.68651,0c1.87897,0 3.70925,0 5.47667,0c1.6904,0 3.28954,0 4.78333,0c1.37413,0 3.70684,0 4.64177,0c0.78689,0 1.44002,0 1.9735,0c0.42812,0 0.76499,0 1.02483,0c0.19699,0 0.45918,0 0.55037,0c0.07096,0 0.12163,0 0.15207,0c0.01015,0 0,0 -0.03044,0c-0.05067,0 -0.21282,0 -0.324,0c-0.12943,0 -0.27506,0 -0.43486,0c-0.17199,0 -0.35407,0 -0.54431,0c-0.1963,0 -0.59906,0 -0.80229,0c-0.20627,0 -0.41866,0 -0.64008,0c-0.23367,0 -1.03801,-0.00264 -2.06005,0.00017c-0.81362,0.00223 -1.70067,0.01099 -2.62738,0.05699c-0.46883,0.02327 -1.84971,0.14928 -2.72766,0.3c-0.86701,0.14885 -1.72783,0.35074 -3.06051,0.64284c-0.46091,0.10101 -1.41311,0.29991 -1.90563,0.38933c-1.01196,0.18373 -2.06618,0.34056 -3.16253,0.444c-0.56151,0.05298 -1.70883,0.11378 -2.28946,0.13068c-1.16471,0.03389 -1.74546,0.03285 -2.32188,0.03467c-1.68502,0.00531 -2.22728,0.00133 -3.28144,0.00133c-1.01363,0 -1.50529,0 -2.91927,0c-0.89064,0 -1.73265,0 -2.51787,0c-0.72038,0 -1.93805,0 -2.67699,0c-1.05589,0 -1.85595,0 -2.91419,0c-0.87394,0 -1.79075,0 -2.70304,0c-0.91229,0 -1.8382,0 -2.59088,0c-1.00955,0 -1.64208,0 -2.62125,0c-1.10835,0 -1.95222,0 -2.91803,0c-0.81145,0 -1.67642,0 -2.63189,0c-0.86367,0 -1.92289,0 -2.45743,0c-0.8727,0 -2.09445,0 -2.7594,0c-0.76227,0 -1.67048,0 -2.77332,0c-0.63624,0 -2.03438,0 -2.76788,0c-0.73761,0 -1.46505,0 -2.16817,0c-0.66461,0 -2.28912,0 -3.28654,0c-1.00182,0 -1.72554,0 -2.69896,0c-0.84081,0 -1.52636,0 -2.76249,0c-0.96497,0 -1.47788,0 -2.53408,0c-0.53113,0 -1.56911,0 -2.97569,0c-0.8082,0 -1.54343,0 -2.23811,0c-1.3961,0 -2.1286,0 -2.85304,0c-1.00045,0 -2.01273,0 -2.87633,0c-0.86144,0 -1.62318,-0.00124 -2.89359,0.00017c-0.55547,0.00061 -1.16975,0.00166 -1.83671,0.0105c-1.46783,0.01945 -2.25654,0.04099 -3.07332,0.07466c-1.69532,0.0699 -2.56099,0.1331 -3.43286,0.19867c-0.87428,0.06575 -1.74617,0.1409 -2.61213,0.216c-0.85587,0.07423 -1.69717,0.151 -2.5209,0.216c-1.57529,0.12431 -2.32107,0.16505 -3.03818,0.2c-0.6905,0.03365 -1.35696,0.05826 -2.00091,0.084c-0.62378,0.02493 -1.81967,0.06911 -2.95645,0.16667c-0.5526,0.04742 -1.61427,0.1792 -2.59743,0.33333c-0.45615,0.07152 -1.9636,0.33533 -2.72107,0.44733c-0.72549,0.10727 -1.71561,0.33089 -2.49489,0.5735c-0.87536,0.27252 -1.7823,0.57915 -2.6946,0.87917c-0.60815,0.2 -1.82289,0.60497 -2.43676,0.8c-0.96903,0.30786 -1.68619,0.51688 -2.93548,0.8c-0.46855,0.10619 -1.46829,0.29805 -1.98133,0.38933c-1.01001,0.17969 -1.94739,0.33551 -3.07956,0.48933c-0.95637,0.12994 -1.86579,0.28738 -2.55589,0.474c-0.81819,0.22125 -2.01047,0.49924 -2.61955,0.56201c-0.89005,0.09172 -1.7394,0.08466 -2.75167,0.08533c-0.85145,0.00056 -1.95581,0 -2.82467,0c-0.91226,0 -1.67976,0 -2.60569,0c-0.91768,0 -1.85428,0 -2.61655,0c-0.83521,0 -1.69479,0 -2.53,0c-1.1025,0 -1.98133,0 -2.97334,0c-1.01632,0 -1.84346,0 -2.67059,0c-1.01363,0 -1.70695,0 -2.88951,0c-0.80585,0 -1.70293,0 -2.35163,0c-1.04995,0 -1.82202,0 -2.69543,0c-1.0153,0 -1.58887,0 -2.89307,0c-0.73826,0 -1.52719,0 -2.35671,0c-0.85989,0 -1.74005,0 -2.63038,0c-0.8903,0 -1.77045,0 -3.45986,0c-0.79131,0 -1.54612,0 -2.26849,0c-0.69403,0 -1.36368,0 -2.64628,0c-0.62102,0 -1.84278,0 -3.05373,0c-0.59535,0 -1.17851,0 -2.29215,0c-1.01635,0 -1.90294,0 -2.95051,0c-0.7648,0 -1.90158,0 -2.7706,0c-0.79589,0 -1.77033,0 -2.62178,0c-1.01496,0 -1.59206,0 -2.56669,0c-1.1297,0 -1.98247,0 -2.92449,0c-0.50697,0 -1.598,0 -2.18404,0c-1.25826,0 -1.93112,0 -3.33975,0c-0.72153,0 -1.44509,0 -2.16359,0c-0.70634,0 -1.3934,0 -3.27049,0c-0.55566,0 -1.59497,0 -2.09281,0c-0.98762,0 -2.55521,0 -3.12708,0c-0.59717,0 -1.84732,0 -2.49016,0c-0.64787,0 -1.29575,0 -3.1887,0c-0.59838,0 -1.17854,0 -2.29218,0c-0.53756,0 -1.5843,0 -3.11387,0c-0.50682,0 -1.52045,0 -2.02726,0c-1.01363,0 -2.02726,0 -3.0409,0c-1.00958,0 -1.50678,0 -2.47073,0c-0.90314,0 -2.09062,0 -3.07282,0c-0.66495,0 -1.45153,0 -3.07233,0c-0.70229,0 -1.48262,0 -2.32782,0c-0.89689,0 -1.83229,0 -2.79306,0c-0.97292,0 -1.94483,0 -3.83289,0c-0.89231,0 -1.74614,0 -2.56347,0c-0.78287,0 -1.53329,0 -2.2533,0c-0.69164,0 -1.35693,0 -2.61652,0c-0.59804,0 -1.17582,0 -1.73333,0c-1.05416,0 -2.02726,0 -2.48338,0c-1.62182,0 -2.31108,0 -3.19294,0c-1.06702,0 -1.8455,0 -2.76048,0c-0.85312,0 -1.86811,0 -2.60705,0c-0.84842,0 -2.05656,0.01472 -2.67752,-0.009c-1.0093,-0.03856 -1.7707,-0.14035 -2.62175,-0.32433c-0.97342,-0.21042 -2.02423,-0.5186 -2.57631,-0.66667c-0.56157,-0.15062 -1.69346,-0.46432 -2.82974,-0.66667c-1.08812,-0.19377 -1.62132,-0.23401 -2.63966,-0.29166c-0.486,-0.02751 -1.40949,-0.03427 -2.65488,-0.04184c-1.06433,-0.00645 -1.71286,0.13153 -2.8385,-0.22116c-0.77628,-0.24323 -1.57786,-0.71986 -2.38848,-1.06534c-0.7713,-0.32872 -1.45481,-0.61778 -2.48675,-0.88c-0.65384,-0.16614 -1.40098,-0.32132 -2.22137,-0.49049c-0.88111,-0.18169 -1.81203,-0.36385 -2.77787,-0.5535c-0.98808,-0.19402 -1.98708,-0.38263 -3.95452,-0.78934c-0.94876,-0.19612 -1.86715,-0.39699 -2.75659,-0.60001c-0.86345,-0.19708 -1.69993,-0.39709 -2.51026,-0.59999c-0.78748,-0.19717 -1.55243,-0.39207 -3.01114,-0.8c-0.70037,-0.19586 -1.37732,-0.39691 -2.03286,-0.591c-0.63244,-0.18726 -1.23973,-0.36943 -1.82301,-0.537c-0.55572,-0.15965 -1.07426,-0.35149 -2.49875,-0.629c-0.8074,-0.15729 -1.92995,-0.23016 -2.66672,-0.24033c-1.19289,-0.01645 -2.09382,-0.00267 -2.58272,-0.00267c-1.06498,0 -1.64513,0 -2.25972,0c-1.34071,0 -2.06865,0 -3.60162,0c-0.78268,0 -1.56133,0 -2.32477,0c-0.73707,0 -1.43665,0 -2.67868,0c-0.98525,0 -2.09062,0 -2.68562,0c-1.17548,0 -1.84278,0 -2.86909,0c-0.64197,0 -1.90376,0 -2.44877,0c-0.76799,0 -2.63966,0 -3.51814,0c-1.00011,0 -2.1016,0 -3.28417,0c-1.24339,0 -2.52732,0 -3.83153,0c-1.30421,0 -3.83153,0 -5.01799,0c-1.12867,0 -2.20263,0 -3.22488,0c-0.97359,0 -1.90157,0 -2.78698,0c-0.84588,0 -2.4312,0 -3.17622,0c-0.71461,0 -1.39882,0 -2.0526,0c-0.62339,0 -1.21637,0 -1.77893,0c-0.53215,0 -1.50524,0 -1.94651,0c-0.41289,0 -0.79942,0 -1.16162,0c-0.33991,0 -0.65954,0 -0.96092,0c-1.06364,0 -1.76914,0 -2.69087,0c-1.01498,0 -1.86186,0 -2.4535,0c-1.21246,0 -2.1673,0 -2.8782,0c-0.8082,0 -1.74617,0.00449 -2.83412,-0.00267c-0.59215,-0.00389 -1.21034,-0.00285 -2.50029,-0.06934c-0.66357,-0.03419 -1.33663,-0.06035 -2.66247,-0.26132c-1.30116,-0.19724 -1.92317,-0.3667 -2.53274,-0.51733c-1.16764,-0.28854 -1.71306,-0.45171 -2.2408,-0.58134c-1.40695,-0.34561 -2.21789,-0.48534 -3.3058,-0.54666c-0.68572,-0.03865 -1.74226,-0.02133 -2.5231,-0.02133c-0.90652,0 -1.42466,0 -2.62616,0c-1.46908,0 -2.31818,0 -3.23416,0c-0.9687,0 -1.97592,0 -3.00746,0c-1.04167,0 -2.0793,0 -3.09867,0c-1.92726,0 -2.81013,0 -3.63827,0c-0.77948,0 -1.5164,0 -2.21681,0c-0.67001,0 -1.3157,0 -1.94314,0c-1.22446,0 -1.83248,0.00084 -2.43947,-0.00133c-0.60497,-0.00217 -1.20698,-0.00522 -1.80477,-0.0195c-1.17976,-0.0282 -1.76182,-0.03537 -3.44549,-0.2005c-0.54333,-0.05328 -1.59658,-0.2034 -2.10836,-0.27867c-0.99356,-0.14615 -2.40679,-0.33952 -2.85913,-0.37849c-0.88829,-0.07652 -1.78662,-0.10583 -2.72463,-0.117c-0.49429,-0.00589 -2.12846,-0.0045 -2.74458,-0.0045c-0.66883,0 -1.40151,0 -2.20922,0c-0.89384,0 -1.88502,0 -2.98463,0c-2.56922,0 -4.0569,0 -5.6723,0c-1.72891,0 -3.55717,0 -5.47057,0c-1.98436,0 -4.02548,0 -6.10916,0c-4.23834,0 -6.36494,0 -8.47937,0c-2.09011,0 -4.14373,0 -6.1487,0c-1.94415,0 -3.81531,0 -5.60133,0c-3.26795,0 -4.73028,0 -6.0872,0c-1.26771,0 -2.46245,0 -3.60042,0c-1.09742,0 -2.17053,0 -3.23551,0c-2.17053,0 -3.30377,0 -4.46539,0c-1.17784,0 -2.35974,0 -3.53352,0c-1.15351,0 -2.27459,0 -3.35107,0c-1.9705,0 -2.84307,0 -3.63962,0c-0.72559,0 -1.3853,0 -1.98419,0c-0.54313,0 -1.0356,0 -1.48243,0c-0.77712,0 -1.1172,0 -1.4299,0c-0.28838,0 -0.55547,0 -0.80432,0c-0.23364,0 -0.45512,0 -0.66748,0c-0.40951,0 -0.61207,0 -0.81361,0c-0.19952,0 -0.39599,0 -0.58842,0c-0.18735,0 -0.36862,0 -0.5428,0c-0.32301,0 -0.47188,0.00142 -0.62169,-0.00267c-0.16208,-0.00443 -0.34758,-0.0163 -0.56713,-0.039c-0.26572,-0.02748 -0.58797,-0.07005 -0.97765,-0.129c-1.0296,-0.15576 -1.68598,-0.27151 -2.43542,-0.39999c-0.83286,-0.14278 -1.73941,-0.30122 -2.71096,-0.47101c-1.02734,-0.17953 -2.10112,-0.36809 -3.21271,-0.56099c-2.29864,-0.39891 -3.46767,-0.59697 -4.63433,-0.79601c-1.15254,-0.19664 -2.279,-0.38872 -3.36628,-0.58051c-1.03729,-0.18297 -2.0126,-0.35594 -2.91014,-0.53549c-1.52726,-0.30554 -2.13167,-0.4559 -2.63409,-0.59866c-0.41735,-0.11858 -0.75535,-0.23381 -1.02326,-0.345c-0.21691,-0.09003 -0.38493,-0.17987 -0.52151,-0.255c-0.21772,-0.11977 -0.31769,-0.16881 -0.42032,-0.20134c-0.10026,-0.03177 -0.20238,-0.0518 -0.30409,-0.0645c-0.10108,-0.01262 -0.2027,-0.01758 -0.30409,-0.0195c-0.2027,-0.00383 -0.3046,-0.00133 -0.40951,-0.00133c-0.11099,0 -0.67663,0.00711 -1.88671,-0.00133c-0.72715,-0.00507 -1.15882,-0.01358 -2.17762,-0.05583c-0.59584,-0.0247 -1.97978,-0.10741 -2.77195,-0.16417c-0.84317,-0.06042 -1.71654,-0.12991 -2.59997,-0.20401c-0.87353,-0.07326 -1.71655,-0.14796 -2.50874,-0.222c-0.72149,-0.06743 -2.37176,-0.24954 -2.29824,-0.34816c0.65397,-0.87732 2.11613,-0.0045 2.69576,-0.0045c0.62727,0 1.30117,0 2.02068,0c0.76411,0 1.57181,0.00015 3.3139,0c0.93339,-0.00009 1.91239,0.00002 2.94207,-0.0045c1.08544,-0.00476 2.23171,-0.01392 3.44382,-0.03149c1.28313,-0.01862 2.64249,-0.03979 5.60877,-0.13068c1.61438,-0.04947 3.30448,-0.11624 5.05549,-0.18599c1.79671,-0.07156 3.62369,-0.14833 5.46601,-0.222c1.84224,-0.07367 3.66898,-0.15266 7.21706,-0.25867c1.69278,-0.05057 3.32601,-0.08444 4.90041,-0.10951c1.51651,-0.02415 2.97635,-0.03821 4.38041,-0.04649c1.34931,-0.00797 2.64491,-0.00983 5.07897,-0.01067c1.14051,-0.0004 2.23135,0.00032 3.27353,-0.0045c0.99455,-0.00459 1.94253,-0.01279 2.84476,-0.03149c0.85778,-0.01779 1.67298,-0.03056 3.17335,-0.13068c0.68992,-0.04604 1.33854,-0.11279 1.94617,-0.18599c0.56817,-0.06845 1.09509,-0.14508 1.58126,-0.222c0.44634,-0.07062 0.85084,-0.14493 1.54073,-0.25867c0.28391,-0.04681 0.5299,-0.08199 0.73893,-0.114c0.17477,-0.02676 0.31828,-0.04745 0.42877,-0.078c0.08467,-0.02341 0.16989,-0.04933 0.1838,-0.14134c0.00833,-0.05511 -0.03634,-0.12173 -0.09122,-0.19049c-0.06612,-0.08282 -0.15952,-0.16699 -0.27369,-0.25351c-0.12887,-0.09767 -0.27798,-0.20146 -0.64872,-0.38933c-0.20958,-0.1062 -0.44351,-0.2028 -0.69485,-0.3c-0.26626,-0.10298 -0.55038,-0.20206 -0.84992,-0.3c-0.31234,-0.10214 -1.32561,-0.40569 -2.05295,-0.59866c-0.74043,-0.19646 -1.46736,-0.41055 -2.82195,-0.63466c-0.83048,-0.13739 -1.56906,-0.16133 -2.53408,-0.16667c-0.80127,-0.00443 -1.66642,0 -2.87196,0c-0.60953,0 -1.54157,0 -2.18657,0c-1.38243,0 -2.11495,0 -2.83936,0c-1.00045,0 -2.01273,0 -2.87635,0c-0.81918,0 -2.06511,0 -2.87061,0c-0.46864,0 -1.51741,0 -2.08944,0c-0.59838,0 -2.51111,0 -3.17385,0c-0.66579,0 -1.32752,0 -2.61044,0c-0.607,0 -1.71659,0 -2.63967,0c-0.98373,0 -1.86965,0 -2.80185,0c-0.93508,0 -1.61759,0 -2.94207,0c-0.83472,0 -1.5691,0 -2.53408,0c-0.78303,0 -1.90724,0.14618 -1.90056,-0.02083c0.03156,-0.78889 1.40191,-0.0634 3.08313,-0.14584c1.1,-0.05394 2.35296,-0.11765 3.72966,-0.18599c1.47093,-0.07303 3.00672,-0.14847 4.57807,-0.222c1.57733,-0.07381 3.13111,-0.14977 6.05206,-0.25867c1.31319,-0.04895 2.51915,-0.0838 3.62171,-0.10951c1.0031,-0.02339 1.91102,-0.03796 2.72768,-0.04649c0.72946,-0.00761 1.37584,-0.00999 2.43543,-0.01067c0.42183,-0.00026 0.77982,0 1.08104,0c0.25155,0 0.46052,0 0.63402,0c0.14513,0 0.26895,0 0.48114,0c0.10103,0 0.46458,0.00192 0.11353,0c-0.97178,-0.00534 -1.82955,-0.05611 -2.83411,-0.284c-0.55269,-0.12538 -1.37092,-0.41862 -2.42697,-0.5945c-0.8853,-0.14743 -1.92607,-0.12151 -2.75742,-0.12151c-0.91362,0 -2.63482,0.32607 -2.52699,-0.5c0.13136,-1.00634 1.42463,-0.39258 2.58459,-0.44283c0.67865,-0.0294 1.40657,-0.03842 2.16968,-0.0465c0.78537,-0.00832 1.57992,-0.00999 3.14361,-0.01067c0.74519,-0.00032 1.46098,0 2.80844,0c0.63369,0 1.24204,0 2.38677,0c1.05552,0 2.02726,0 2.9098,0c0.78523,0 2.04072,0.11068 2.83411,-0.01067c0.94893,-0.14514 1.37871,-0.81673 1.78467,-1.68933c0.37557,-0.80729 0.22101,-1.29467 -0.82965,-1.3c-0.65041,-0.0033 -1.48328,0 -1.98081,0c-1.18257,0 -2.64896,0 -3.49923,0c-0.92427,0 -1.91543,0 -2.96639,0c-1.10368,0 -2.25297,0 -3.44078,0c-1.21923,0 -3.72358,0 -4.9935,0c-1.26687,0 -2.51752,0 -3.73878,0c-1.17868,0 -2.30162,0 -3.35563,0c-0.97191,0 -2.61669,0.00062 -3.26728,-0.00017c-0.5401,-0.00066 -0.98094,-0.00092 -1.33343,-0.0105c-0.27563,-0.00749 -0.48666,-0.01671 -0.64011,-0.0465c-0.11277,-0.0219 -0.30523,-0.08772 -0.32757,-0.2295c-0.14221,-0.90272 0.79781,-1.57719 1.25826,-1.888c1.1237,-0.75851 1.9441,-0.95547 2.78411,-1.17867c0.42753,-0.1136 1.27864,-0.31434 2.45704,-0.48c0.94717,-0.13316 1.76368,-0.16133 2.87196,-0.16666c0.64601,-0.00311 1.73162,0 2.50942,0c1.20724,0 2.01291,0.00782 2.7858,-0.01067c0.70844,-0.01694 1.75783,-0.2179 2.55706,-0.70534c0.65346,-0.39854 1.61029,-0.61179 2.28675,-0.852c0.77812,-0.27631 1.57948,-0.59363 2.35974,-0.864c1.20164,-0.41638 1.9205,-0.568 1.3015,-0.568c-0.96092,0 -1.884,0 -2.99359,0c-0.60699,0 -1.23933,0 -1.88992,0c-1.99027,0 -2.64339,0.00088 -3.28231,-0.00134c-0.62069,-0.00215 -1.7913,-0.0134 -2.3327,-0.03467c-0.9763,-0.03835 -2.87971,-0.12291 -2.79121,-0.78283c0.11158,-0.83196 1.54235,-0.95412 2.08301,-1.182c0.58365,-0.24599 1.84693,-0.71804 2.49624,-0.93667c0.63741,-0.21462 1.82994,-0.59171 2.85168,-0.8065c0.81566,-0.17146 1.96612,0.00485 1.9678,-0.256c0.00573,-0.88683 0.13337,-0.22514 0.67711,-0.28533c0.69079,-0.07647 1.54844,-0.15546 2.59084,-0.2355c1.2443,-0.09555 2.71,-0.19174 4.41538,-0.28049c4.19948,-0.21856 6.71823,-0.30217 9.46327,-0.39734c2.90494,-0.10072 5.90335,-0.19258 8.92808,-0.28049c2.98408,-0.08673 5.86079,-0.16483 8.56317,-0.2355c4.614,-0.12066 6.40885,-0.16408 7.86308,-0.2c1.1481,-0.02836 2.02457,-0.04947 2.66382,-0.0645c0.43654,-0.01026 0.70599,-0.00169 0.83929,-0.0195c0.00552,-0.00074 -0.06032,-0.0018 -0.15543,0c-0.12351,0.00234 -0.27446,0.00779 -0.45157,0.0195c-0.20269,0.0134 -0.42992,0.03252 -0.67964,0.0645c-0.56749,0.07268 -0.88062,0.13393 -1.2123,0.2c-0.34884,0.06949 -0.71119,0.14942 -1.0856,0.2355c-0.38515,0.08855 -0.77794,0.18307 -1.17683,0.28049c-0.8085,0.19747 -1.21331,0.29922 -1.61776,0.39734c-0.40207,0.09754 -0.80102,0.19252 -1.19659,0.28049c-0.38967,0.08666 -0.77312,0.16873 -1.15099,0.2355c-0.72676,0.12843 -1.07763,0.16727 -1.41638,0.2c-0.32591,0.03148 -0.63916,0.05155 -0.93812,0.0645c-0.28356,0.01228 -0.55106,0.01754 -0.80127,0.0195c-0.44463,0.00348 -0.63791,0.00134 -0.81496,0.00134c-0.16488,0 -0.47438,0 -1.31908,0c-0.96227,0 -1.54477,0 -2.87195,0c-0.72576,0 -1.46775,0 -2.20161,0c-1.3461,0 -2.19907,0 -3.06117,0c-0.67441,0 -1.97506,0 -2.49894,0c-1.15013,0 -1.7622,0 -2.38947,0c-0.63538,0 -2.51921,0.00102 -3.11861,-0.00034c-0.58723,-0.00134 -1.75781,-0.0165 -2.35703,-0.04133c-0.61988,-0.02569 -1.95422,-0.11216 -3.46324,-0.29167c-0.84032,-0.09996 -1.72623,-0.23235 -2.6471,-0.37199c-0.94288,-0.14297 -1.89303,-0.29522 -2.83868,-0.444c-0.92722,-0.14588 -1.82111,-0.29733 -3.46797,-0.51733c-0.72457,-0.09679 -1.38351,-0.16731 -1.97962,-0.219c-0.53654,-0.04652 -1.01861,-0.08575 -1.83535,-0.10533c-1.15372,-0.02766 -2.80237,0.34318 -2.8581,-0.509c-0.04631,-0.70802 1.34943,-0.49362 2.01983,-0.49866c1.18272,-0.0089 2.06156,-0.00134 2.98498,-0.00134c0.47083,0 1.41555,0.00331 2.79542,-0.00017c0.88052,-0.00222 1.745,-0.01604 2.17593,-0.03584c0.87087,-0.03999 2.22686,-0.17281 3.1426,-0.31667c0.8629,-0.13556 2.52221,0.17776 2.36024,-0.6265c-0.16877,-0.83804 -1.91547,0.45116 -2.64676,-0.2425c-0.71296,-0.67628 -0.35552,-1.69172 0.09968,-2.37967c0.62425,-0.94345 1.38498,-1.19526 2.02051,-1.56267c0.61887,-0.35778 2.22768,-1.1961 1.85698,-1.66933c-0.42617,-0.54404 -1.41517,-0.13615 -2.36395,-0.105c-0.56097,0.01842 -1.85962,0.10357 -2.60031,0.15967c-0.8068,0.0611 -1.68417,0.13325 -2.63798,0.20399c-1.03459,0.07674 -2.15538,0.15385 -3.36779,0.222c-1.30816,0.07354 -4.2343,0.19168 -5.86167,0.23117c-1.7406,0.04224 -3.59701,0.06776 -5.57092,0.08549c-2.09346,0.01881 -4.30861,0.02692 -6.6474,0.0315c-2.46447,0.00483 -7.77862,0.0045 -10.62591,0.0045c-2.94257,0 -5.94394,0 -8.96761,0c-3.00948,0 -5.96827,0 -8.83989,0c-2.74796,0 -7.72692,0 -9.89339,0c-1.94752,0 -3.6903,0 -5.24251,0c-1.37584,0 -2.58949,0 -3.65516,0c-0.93187,0 -2.45096,0 -3.06573,0c-0.53266,0 -0.99235,0 -1.38817,0c-0.34109,0 -0.63656,0 -0.89554,0c-0.23162,0 -0.64926,0.00258 -0.85111,-0.00083c-0.19687,-0.00333 -0.38627,-0.00924 -0.55496,-0.05251c-0.1546,-0.03965 -0.29594,-0.11266 -0.37251,-0.2325c-0.08257,-0.12923 -0.06707,-0.55159 0.0223,-0.82133c0.10686,-0.32254 0.28156,-0.6748 0.50023,-1.0515c0.2378,-0.40966 0.52218,-0.82926 0.84689,-1.2495c0.33601,-0.43485 1.10093,-1.26972 1.52805,-1.64883c0.43262,-0.38399 0.9092,-0.74243 1.43226,-1.071c0.5493,-0.34505 1.16135,-0.66421 1.83366,-0.96301c0.72228,-0.32101 2.39583,-0.91984 3.35276,-1.20916c1.03505,-0.31294 2.16421,-0.61326 3.38756,-0.91051c1.31604,-0.31977 2.73662,-0.63251 4.26334,-0.9465c1.63305,-0.33585 5.24763,-1.01479 7.23227,-1.364c2.08607,-0.36707 4.25849,-0.73176 6.4984,-1.09351c2.28697,-0.36935 4.60518,-0.72894 6.93629,-1.0755c2.32352,-0.34543 6.88093,-0.98109 9.0813,-1.267c2.13936,-0.27798 4.22104,-0.53352 6.24448,-0.7815c1.96655,-0.241 3.87799,-0.47207 5.73361,-0.7095c1.80292,-0.23068 5.25134,-0.71088 6.89591,-0.97283c1.58823,-0.25298 3.10798,-0.51807 4.55222,-0.783c1.36281,-0.25 2.63308,-0.49701 3.80416,-0.729c1.06429,-0.21083 2.83671,-0.56928 3.53369,-0.7025c0.57757,-0.1104 1.04996,-0.19595 1.43074,-0.2565c0.30084,-0.04784 0.53625,-0.07917 0.71918,-0.09451c0.1429,-0.01198 0.36338,-0.014 0.46458,-0.01333c0.10019,0.00066 0.19851,0.00212 0.29345,0.0105c0.09127,0.00805 0.17836,0.02098 0.25695,0.0465c0.07429,0.02412 0.19825,0.10569 0.23871,0.16417c0.04102,0.05927 0.06588,0.13048 0.07602,0.20399c0.01023,0.07415 0.00531,0.15062 -0.0152,0.222c-0.02022,0.0703 -0.10231,0.19151 -0.16252,0.23117c-0.06443,0.04244 -0.14989,0.06841 -0.24936,0.08549c-0.11616,0.01996 -0.25402,0.02705 -0.41356,0.0315c-0.18376,0.00513 -0.63251,0.0045 -0.90062,0.0045c-0.29547,0 -0.61527,0 -0.95636,0c-0.35933,0 -0.73387,0 -1.12057,0c-0.39583,0 -1.20268,0 -1.60712,0c-0.39836,0 -0.78455,0 -1.1525,0c-0.34362,0 -0.65683,0 -0.93355,0c-0.23415,0 -0.60088,0.06406 -0.61849,-0.00083c-0.003,-0.01105 0.11529,-0.02117 0.33298,-0.05251c0.34762,-0.05003 0.84237,-0.12444 1.50069,-0.2325c0.84061,-0.13799 3.1341,-0.54513 4.61168,-0.821c1.67014,-0.31182 3.48937,-0.66045 5.41736,-1.0305c1.9951,-0.38293 4.01515,-0.77294 6.01946,-1.15649c1.94616,-0.37243 5.49885,-1.04278 7.03225,-1.32c1.36297,-0.24641 2.57032,-0.45646 3.63539,-0.6315c0.93423,-0.15354 1.75243,-0.27933 2.46769,-0.3795c0.62416,-0.08741 1.65556,-0.21046 2.08622,-0.25367c0.37758,-0.03788 0.70069,-0.06518 0.96701,-0.08549c0.2074,-0.01582 0.35448,-0.02148 0.43789,-0.0315c0.01906,-0.00229 -0.14596,-0.0045 -0.33264,-0.0045c-0.25257,0 -0.56595,0 -0.93508,0c-0.41982,0 -0.88524,0 -1.39122,0c-0.54145,0 -1.7105,0 -2.32865,0c-0.6374,0 -1.29306,0 -1.96594,0c-0.6891,0 -1.3934,0 -2.1119,0c-0.73168,0 -2.2305,0.0005 -2.9958,-0.00017c-0.77543,-0.00067 -1.56101,-0.0024 -2.35669,-0.0105c-0.80586,-0.00821 -1.6219,-0.02201 -2.44792,-0.0465c-0.83635,-0.0248 -2.53945,-0.10509 -3.40445,-0.16433c-0.86766,-0.05942 -1.72899,-0.13156 -2.57564,-0.2145c-0.82517,-0.08083 -1.61971,-0.17007 -2.37494,-0.2685c-0.70979,-0.09251 -1.95685,-0.28793 -2.47799,-0.39567c-0.45726,-0.09454 -0.85264,-0.19308 -1.18291,-0.3105c-0.28309,-0.10065 -0.51832,-0.21167 -0.69028,-0.3465c-0.14926,-0.11702 -0.32183,-0.40691 -0.34278,-0.56434c-0.02162,-0.16256 0.00527,-0.33886 0.06538,-0.5145c0.06466,-0.18893 0.17002,-0.37928 0.30257,-0.5685c0.14151,-0.20202 0.50849,-0.5996 0.72474,-0.79549c0.22561,-0.20437 0.47183,-0.40192 0.72829,-0.60001c0.26149,-0.20197 0.53132,-0.39976 0.80128,-0.6c0.2693,-0.19976 0.79373,-0.59811 1.04049,-0.79967c0.23975,-0.19584 0.46646,-0.39111 0.68421,-0.57899c0.20798,-0.17946 0.40399,-0.35104 0.59297,-0.507c0.17604,-0.14528 0.49909,-0.38535 0.64872,-0.4715c0.13457,-0.07748 0.2628,-0.1348 0.38011,-0.1815c0.10579,-0.04212 0.63735,-0.80966 -0.21759,-1.02533c-0.9552,-0.24095 -2.32649,-0.15026 -1.99348,-0.75201c0.41984,-0.75864 1.5015,-0.27752 2.48813,-0.28266c1.39204,-0.00725 2.25956,-0.00134 3.22335,-0.00134c1.03475,0 2.11512,0 3.21575,0c1.09557,0 2.16073,0 3.17014,0c1.75021,0 2.44675,0.00118 3.02468,-0.00134c0.47253,-0.00206 0.85446,0.01331 1.15402,-0.0195c0.79035,-0.08659 1.46067,-0.83051 0.72863,-0.97466c-0.94235,-0.18557 -1.8786,-0.0045 -2.40079,-0.0045c-1.11533,0 -1.68618,0 -2.79847,0c-0.99876,0 -2.15735,0 -2.96926,0c-0.87967,0 -2.05297,0.45968 -2.553,-0.256c-0.46752,-0.66915 0.23285,-1.60345 0.97579,-2.57734c0.3964,-0.51962 0.93565,-0.95189 1.79987,-1.56216c0.88747,-0.62669 1.50862,-1.00183 2.38136,-1.56283l0.53452,-0.32734l1.0579,-0.54367l0.77847,-0.168" fill="#f2ca7b" id="svg_2" stroke="#000000" stroke-dasharray="null" stroke-linecap="null" stroke-linejoin="null" stroke-opacity="0"/>
  <text fill="#1c1c60" font-family="serif" font-size="24" font-weight="bold" id="svg_3" stroke="#000000" stroke-dasharray="null" stroke-linecap="null" stroke-linejoin="null" stroke-opacity="0" stroke-width="0" text-anchor="middle" transform="matrix(2.0198 0 0 2.13022 -313.589 -74.8306)" x="317.40196" xml:space="preserve" y="91.94371">A Global Community</text>
 </g>
</svg>