<svg class ="head" width="640" height="480" xmlns="http://www.w3.org/2000/svg" xmlns:svg="http://www.w3.org/2000/svg">
 <!-- Created with SVG-edit - https://github.com/SVG-Edit/svgedit-->
 <g class="layer">
  <title>Layer 1</title>
  <path d="m102.47071,62.5c16.28065,0 18.1152,0 18.82699,0c1.10192,0 2.21873,0 3.44494,0c0.74494,0 1.67095,0 2.84475,0c1.48829,0 2.36626,0 3.31807,0c1.00424,0 2.03946,0 3.0842,0c1.03282,0 2.03229,0 2.97698,0c1.63918,0 2.29895,0 3.37069,0c0.92402,0 1.91953,0 2.51258,0c1.5137,0 2.47942,0 3.56903,0c1.18254,0 2.42701,0 3.70246,0c1.27545,0 2.51992,0 3.70246,0c2.05532,0 2.8787,0 3.59127,0c0.64588,0 1.2691,0 1.91378,0c0.71019,0 1.52998,0 2.50345,0c2.58425,0 4.26612,0 6.17552,0c2.07857,0 4.26792,0 6.50969,0c2.23581,0 4.40729,0 6.45607,0c3.49597,0 4.8413,0 5.9198,0c0.84263,0 1.48036,0 1.94415,0c0.32085,0 0.52972,0 0.65758,0c0.1366,0 0.20333,-0.00046 0.28907,0.00134c0.11203,0.00235 0.25739,0.00838 0.44316,0.0195c0.2336,0.01398 0.52198,0.03449 0.872,0.0645c1.49423,0.12812 2.15832,0.20066 2.91444,0.26733c0.8497,0.07492 1.79721,0.15161 2.84653,0.222c1.15331,0.07737 2.41491,0.15965 5.2797,0.25867c1.60934,0.05563 3.34819,0.08567 5.2249,0.114c2.02428,0.03056 4.20595,0.05262 6.55435,0.078c2.52468,0.02728 5.23539,0.05046 11.25191,0.14133c3.31977,0.05014 6.82995,0.11669 10.50699,0.186c3.82001,0.072 7.75907,0.14897 11.79354,0.222c4.10587,0.07433 8.2592,0.15462 16.61421,0.25867c4.1578,0.05178 8.29435,0.08479 12.4118,0.1095c4.10071,0.02461 8.18718,0.03833 12.26171,0.0465c4.06501,0.00816 8.12285,0.00999 16.22665,0.01067c4.04394,0.00034 8.04978,0 11.97938,0c3.81523,0 7.47799,0 10.95011,0c3.24345,0 6.22002,0 11.22015,0c1.96104,0 3.58493,0 4.91576,0c1.08188,0 1.95886,0 2.67501,0c0.59941,0 1.12616,0 2.13794,0c0.57218,0 1.24209,0 2.04778,0c0.97961,0 2.17128,0 3.6131,0c1.73011,0 3.78666,0 9.03139,0c3.24839,0 6.8792,0 10.834,0c4.22044,0 8.64821,0 13.22485,0c4.66717,0 9.36654,0 18.62824,0c4.45831,0 8.79156,0 13.01756,0c4.13668,0 8.20189,0 12.21347,0c3.97585,0 7.93384,0.00034 15.86769,0c4.00522,-0.00017 8.02597,0.00037 12.04191,-0.009c3.99097,-0.00931 7.93672,-0.02618 11.8168,-0.063c3.79447,-0.036 7.48403,-0.0629 14.46037,-0.26134c3.25668,-0.09264 6.36816,-0.2282 9.358,-0.372c2.89186,-0.13908 5.70651,-0.29584 8.46815,-0.444c2.73048,-0.14649 5.45115,-0.31196 10.96284,-0.51733c2.82773,-0.10537 5.71152,-0.16998 8.64501,-0.219c2.97842,-0.04977 5.9976,-0.07673 9.05244,-0.093c3.08574,-0.01644 6.19777,-0.02 12.48129,-0.02133c3.16063,-0.00067 6.32006,0 9.46521,0c3.11777,0 6.195,0 9.21865,0c2.9569,0 5.834,0 11.29639,0c2.56002,0 4.99378,0 7.29411,0c2.15979,0 4.17183,0 6.02901,0c1.69518,0 3.2212,0 5.73715,0c0.98001,0 1.78846,0 2.44448,0c0.52256,0 0.93075,0 1.24365,0c0.23667,0 0.41615,0 0.67983,0c0.11932,0 0.23983,0 0.36275,0c0.12648,0 0.25772,0 0.39488,0c0.14436,0 0.29705,-0.00122 0.63217,0c0.18406,0.00067 0.37896,-0.00053 0.5736,0.036c0.20188,0.0379 0.40892,0.11603 0.58433,0.252c0.19886,0.15414 0.40444,0.37935 0.62897,1.04533c0.14487,0.42969 0.20348,0.9379 0.26092,1.488c0.06064,0.58064 0.0911,1.17855 0.11077,1.776c0.01912,0.58124 0.02407,1.13066 0.02541,2.06933c0.00051,0.3615 0.00135,0.65205 -0.00534,0.8805c-0.00513,0.17555 -0.01174,0.30825 -0.03755,0.4035c-0.01945,0.07177 -0.05551,0.12649 -0.15563,0.216c-0.06315,0.05645 -0.14055,0.11805 -0.22158,0.19051c-0.0874,0.07816 -0.17737,0.16238 -0.26448,0.25349c-0.08849,0.09256 -0.18294,0.18393 -0.30814,0.38934c-0.05955,0.09766 -0.10132,0.20406 -0.09292,0.3135c0.00923,0.12028 0.08176,0.25565 0.20729,0.3945c0.15596,0.1725 0.38547,0.36439 1.0769,0.792c0.44513,0.27528 0.9707,0.55003 1.50817,0.8715c0.55244,0.33043 1.09544,0.67144 1.55103,1.0605c0.42637,0.3641 0.95242,0.75463 0.9117,1.568c-0.02087,0.41737 -0.4167,0.81878 -0.87026,1.191c-0.50307,0.41283 -1.13259,0.77689 -1.80293,1.137c-0.68416,0.36753 -1.39649,0.68735 -2.68751,1.33866c-0.5635,0.28428 -1.05617,0.54769 -1.44382,0.819c-0.32879,0.2301 -0.58818,0.45728 -0.67187,0.693c-0.07278,0.20493 -0.01367,0.47465 0.52732,0.82133c0.37921,0.24301 0.92144,0.40745 1.51708,0.591c0.64475,0.1987 1.33523,0.37267 2.04244,0.53699c0.70135,0.16297 1.38155,0.30823 2.59535,0.53867c0.49326,0.09364 0.90494,0.15791 1.22224,0.23251c0.2318,0.05449 0.41073,0.11314 0.40746,0.1875c-0.00393,0.08935 -0.20678,0.17778 -0.8355,0.41333c-0.46192,0.17308 -1.01684,0.35216 -1.61538,0.5805c-0.63431,0.24197 -1.27706,0.50504 -1.87266,0.8235c-0.57291,0.30634 -1.23373,0.5805 -1.67413,1.42934c-0.19897,0.38349 -0.11455,0.84362 0.07507,1.263c0.20275,0.44843 0.55343,0.87325 0.9542,1.281c0.40783,0.41492 0.85455,0.79891 1.75036,1.456c0.39168,0.2873 0.75872,0.52419 1.07391,0.738c0.27077,0.18369 0.50249,0.33539 0.65584,0.486c0.11968,0.11755 0.21638,0.26563 0.05715,0.44267c-0.11663,0.12967 -0.35955,0.20438 -0.6093,0.309c-0.27273,0.11422 -0.56313,0.22406 -0.83448,0.363c-0.26212,0.13421 -0.58269,0.25682 -0.74022,0.66134c-0.07762,0.19931 0.01247,0.43757 0.13226,0.66299c0.12742,0.23977 0.31065,0.46432 0.49671,0.681c0.17625,0.20524 0.39096,0.3608 0.56233,0.65601c0.04472,0.07698 0.0173,0.14025 -0.04646,0.1605c-0.08609,0.02734 -0.20322,0.02065 -0.32523,0.0435c-0.12782,0.02394 -0.29993,0.05797 -0.42251,0.29601c-0.08391,0.16288 -0.06278,0.39113 -0.0393,0.64349c0.02632,0.2826 0.08634,0.58605 0.15367,0.9045c0.06915,0.32724 0.15611,0.65321 0.28269,1.28533c0.05802,0.28989 0.10121,0.56355 0.11975,0.8235c0.01767,0.24821 0.01396,0.48982 -0.01963,0.7245c-0.03359,0.2346 -0.08325,0.47492 -0.29862,0.952c-0.1167,0.25851 -0.27466,0.51295 -0.41102,0.777c-0.1336,0.25871 -0.25699,0.51089 -0.30374,0.759c-0.04301,0.22823 -0.06686,0.50443 0.31767,0.79733c0.2415,0.18399 0.63915,0.25728 1.0525,0.3645c0.44585,0.11565 0.91803,0.22028 1.36337,0.39149c0.43996,0.16914 0.96427,0.34975 1.35646,1.07734c0.22104,0.41005 0.19101,0.93953 0.11793,1.4835c-0.07773,0.57865 -0.25317,1.16566 -0.46105,1.7445c-0.20235,0.56362 -0.42091,1.08736 -0.84815,1.93867c-0.15516,0.3091 -0.28437,0.5376 -0.39132,0.6945c-0.07155,0.10491 -0.12295,0.17213 -0.16621,0.1815c-0.02145,0.00465 -0.00763,-0.0443 -0.0381,-0.04266c-0.01207,0.00065 -0.00182,0.04148 -0.01069,0.0945c-0.0128,0.07642 -0.03635,0.17688 -0.07511,0.3015c-0.04719,0.15189 -0.10696,0.3327 -0.31127,0.77067c-0.12411,0.26598 -0.27797,0.55193 -0.44854,0.8535c-0.17712,0.31317 -0.36653,0.62745 -0.56648,0.9345c-0.1945,0.2986 -0.3698,0.58986 -0.77192,1.04533c-0.16567,0.18767 -0.34773,0.34327 -0.56822,0.447c-0.24383,0.11472 -0.57139,0.18653 -0.97565,0.249c-0.50253,0.07765 -1.13095,0.13575 -2.8241,0.304c-1.10194,0.1095 -2.38232,0.23891 -3.84184,0.381c-1.63774,0.15944 -3.4542,0.33101 -5.45003,0.507c-2.17357,0.19167 -4.52495,0.39922 -9.76841,0.77866c-2.89579,0.20955 -6.01901,0.40841 -9.41697,0.591c-3.71784,0.19978 -7.80609,0.38068 -12.31174,0.53699c-4.96887,0.17239 -10.45042,0.34137 -23.14235,0.53867c-7.29109,0.11334 -15.20843,0.17098 -23.72112,0.219c-9.0784,0.05121 -18.69298,0.07695 -28.81378,0.093c-10.59733,0.01681 -21.64134,0.02 -44.95049,0.02133c-12.18428,0.00069 -24.56869,0 -36.99599,0c-12.31294,0 -24.35427,0 -35.96672,0c-11.02638,0 -21.30939,0 -39.0164,0c-7.15335,0 -13.19766,0 -18.23888,0c-4.14424,0 -7.49744,0 -10.16569,0c-2.0893,0 -3.70564,0.00045 -5.94363,0c-0.82874,-0.00017 -1.57886,-0.00023 -2.32655,-0.009c-0.82163,-0.00964 -1.79334,-0.03093 -2.99127,-0.063c-1.5007,-0.04017 -3.38009,-0.09726 -8.5803,-0.26134c-3.44082,-0.10857 -7.37002,-0.23466 -11.66846,-0.3765c-4.54872,-0.15009 -9.2285,-0.30807 -13.91995,-0.4755c-4.58455,-0.16362 -8.94394,-0.30777 -16.50302,-0.648c-2.99707,-0.1349 -5.48309,-0.27515 -7.53358,-0.39149c-1.68847,-0.0958 -3.0879,-0.18355 -4.27426,-0.2205c-1.04474,-0.03255 -2.02744,-0.0509 -4.07573,0.112c-1.20666,0.09597 -2.53122,0.2652 -3.94725,0.4485c-1.47647,0.19113 -2.97733,0.40395 -4.47261,0.6195c-1.45786,0.21016 -2.84298,0.42342 -5.2797,0.76534c-0.99103,0.13906 -1.83382,0.24842 -2.54633,0.3285c-0.59803,0.06721 -1.10151,0.11347 -1.5278,0.1395c-0.366,0.02235 -0.69092,0.03 -1.28657,0.032c-0.31369,0.00105 -0.69886,0 -1.21508,0c-0.70682,0 -1.6638,0 -2.93053,0c-1.63601,0 -3.70086,0 -9.35542,0c-3.67843,0 -7.84172,0 -12.36714,0c-4.76487,0 -9.64649,0 -14.52215,0c-4.747,0 -9.24265,0 -16.98905,0c-3.04031,0 -5.54813,0 -7.61041,0c-1.70371,0 -3.13581,0 -4.38327,0c-1.14977,0 -2.28882,0 -4.8826,0c-1.61119,0 -3.45468,0 -5.51259,0c-2.25447,0 -4.68763,0 -7.28162,0c-2.73694,0 -5.59896,0 -11.62677,0c-3.12629,0 -6.28354,0 -9.43126,0c-3.09769,0 -6.10484,0 -8.98097,0c-2.70457,0 -5.1971,0.00021 -9.38401,0c-1.62608,-0.00008 -2.95435,0.00099 -4.02052,-0.0045c-0.83986,-0.00433 -1.48942,-0.00999 -1.98346,-0.0315c-0.37559,-0.01635 -0.67007,-0.03796 -1.14362,-0.13066c-0.25195,-0.04932 -0.52572,-0.11874 -0.82198,-0.204c-0.32343,-0.09308 -0.66984,-0.20753 -1.0364,-0.348c-0.39618,-0.15182 -0.82242,-0.32133 -1.71542,-0.78133c-0.49413,-0.25454 -0.99312,-0.54786 -1.49921,-0.858c-0.51213,-0.31384 -1.01096,-0.63832 -1.48848,-0.966c-0.45831,-0.3145 -0.89345,-0.60804 -1.57883,-1.176c-0.27701,-0.22955 -0.49513,-0.44196 -0.66294,-0.6375c-0.14752,-0.17189 -0.25922,-0.34006 -0.35202,-0.5025c-0.09102,-0.15932 -0.16304,-0.3307 -0.37485,-0.69334c-0.12401,-0.21231 -0.27947,-0.43731 -0.43243,-0.6855c-0.16173,-0.26242 -0.32301,-0.54013 -0.45387,-0.83849c-0.13399,-0.30551 -0.28492,-0.62707 -0.30497,-1.30933c-0.01042,-0.3548 0.0736,-0.72019 0.21443,-1.077c0.14483,-0.36695 0.36137,-0.72589 0.64328,-1.059c0.29003,-0.34271 0.62194,-0.69573 1.52483,-1.19733c0.47713,-0.26507 1.02945,-0.45527 1.5957,-0.633c0.5728,-0.17979 1.1588,-0.32617 1.73508,-0.47099c0.55901,-0.14049 1.10912,-0.23878 2.02992,-0.56267c0.39339,-0.13837 0.72778,-0.28983 0.91847,-0.48151c0.14869,-0.14947 0.15873,-0.35512 -0.00358,-0.49049c-0.23203,-0.19353 -0.694,-0.34512 -2.10616,-0.528c-0.98589,-0.12768 -2.16761,-0.17176 -3.51126,-0.219c-1.49161,-0.05244 -3.1151,-0.07699 -4.85143,-0.093c-1.83153,-0.01689 -3.74058,-0.02 -7.71941,-0.02133c-2.02754,-0.00068 -4.02172,0 -5.92537,0c-1.75593,0 -3.30695,0 -4.59591,0c-0.96969,0 -1.56294,0.00003 -1.3914,0c0.85751,-0.00017 2.19035,-0.00066 3.92582,-0.009c2.06548,-0.00993 4.38833,-0.02757 6.89565,-0.063c2.61951,-0.03701 5.28001,-0.06059 10.42279,-0.26134c2.35441,-0.0919 4.53264,-0.22411 6.53827,-0.37199c1.83977,-0.13566 3.51395,-0.28834 5.02655,-0.444c1.3571,-0.13966 2.55875,-0.28323 4.51729,-0.51733c0.76316,-0.09122 1.39047,-0.15754 1.87982,-0.237c0.36485,-0.05924 0.6521,-0.10384 0.7219,-0.219c0.05246,-0.08656 -0.0841,-0.23265 -0.61628,-0.544c-0.39607,-0.23172 -0.90836,-0.48238 -1.53315,-0.75301c-0.72769,-0.3152 -1.5865,-0.6382 -2.58386,-0.951c-1.12021,-0.35133 -2.38434,-0.72504 -5.41312,-1.296c-1.73257,-0.32661 -3.59212,-0.568 -5.49115,-0.8505c-1.89238,-0.28151 -3.72684,-0.55069 -5.4161,-0.9135c-1.52675,-0.3279 -3.2334,-0.39488 -4.38069,-1.736c-0.42412,-0.49577 -0.14884,-1.2574 0.37346,-1.89301c0.61524,-0.7487 1.5649,-1.42262 2.61424,-2.091c1.08585,-0.69164 2.21886,-1.32277 4.35845,-2.34933c0.87488,-0.41976 1.63163,-0.74286 2.27472,-0.9855c0.5288,-0.19952 0.97268,-0.33837 1.34196,-0.4185c0.29855,-0.06478 0.55099,-0.08923 0.94984,-0.096c0.17112,-0.00291 0.32341,0.00616 0.43958,-0.018c0.08112,-0.01687 0.11931,-0.07129 0.07505,-0.126c-0.07997,-0.09887 -0.27151,-0.20861 -0.91172,-0.52267c-0.46433,-0.22778 -1.0413,-0.47971 -1.71721,-0.7665c-0.76764,-0.32572 -1.63077,-0.67544 -2.58564,-1.0455c-1.03556,-0.40133 -2.15123,-0.82675 -4.63165,-1.688c-1.33332,-0.46295 -2.70206,-0.90126 -4.01159,-1.395c-1.23962,-0.46739 -2.37126,-0.9184 -3.20749,-1.485c-0.69004,-0.46754 -1.32954,-1.19603 -0.52416,-2.12c0.64739,-0.74271 2.12668,-1.1478 3.73462,-1.66351c1.82196,-0.58435 3.85365,-1.08421 5.98612,-1.5645c2.15626,-0.48564 4.2816,-0.92184 8.14827,-1.60533c1.59968,-0.28277 2.95691,-0.48779 4.06163,-0.6705c0.85988,-0.14222 1.5081,-0.20366 1.8423,-0.3735c0.14898,-0.07571 0.0214,-0.23322 -0.94031,-0.456c-0.81847,-0.18961 -1.84439,-0.35483 -3.00736,-0.5715c-1.26249,-0.23522 -2.57961,-0.48118 -3.89723,-0.7605c-1.28294,-0.27197 -2.52958,-0.45567 -4.41245,-1.168c-0.68512,-0.25919 -1.20714,-0.56467 -1.29908,-0.9045c-0.08097,-0.29928 0.25177,-0.65184 0.77015,-0.9315c0.68747,-0.37087 1.65897,-0.70592 4.30127,-1.33067c1.64829,-0.38972 3.50619,-0.72321 5.4983,-1.0725c2.07881,-0.36449 4.20432,-0.70404 6.32384,-1.0275c2.06229,-0.31473 4.02124,-0.604 7.43669,-1.06667c1.36895,-0.18544 2.52384,-0.32968 3.49697,-0.4515c0.82649,-0.10346 1.5419,-0.19027 2.17823,-0.2805c0.59502,-0.08437 1.18393,-0.172 2.46513,-0.43467c0.76139,-0.1561 1.59371,-0.35022 2.482,-0.558c0.92405,-0.21615 1.86116,-0.442 2.79292,-0.666l0.90557,-0.218l0.8591,-0.206" fill="#ffffaa" id="svg_5" stroke="#000000" stroke-dasharray="null" stroke-linecap="null" stroke-linejoin="null" stroke-opacity="0" stroke-width="5"/>
  <text fill="#00007f" font-family="serif" font-size="24" id="svg_7" stroke="#000000" stroke-dasharray="null" stroke-linecap="null" stroke-linejoin="null" stroke-opacity="0" stroke-width="0" text-anchor="middle" transform="matrix(1.84043 0 0 1.46433 -276.342 -49.1589)" x="334.5" xml:space="preserve" y="104.5">A Life-Changing Experience</text>
 </g>
</svg>