<svg width="640" height="480" xmlns="http://www.w3.org/2000/svg" xmlns:svg="http://www.w3.org/2000/svg">
 <!-- Created with SVG-edit - https://github.com/SVG-Edit/svgedit-->
 <g class="layer">
  <title>Layer 1</title>
  <path d="m132.74917,83.1461c1.71724,0 2.57585,0 3.43448,0c0.85862,0 1.71724,0 2.57586,0c0.85861,0 1.62185,-0.0044 2.46646,0c0.907,0.00472 1.6566,0.01691 2.58985,0.31638c0.58732,0.18846 1.52643,0.65798 2.09885,0.92372c0.76321,0.35431 1.70216,0.81568 2.2553,1.03105c0.89257,0.34753 1.91059,0.3862 2.54914,0.3862c0.73015,0 1.67861,0 2.5555,0c0.97979,0 1.89405,0 2.72119,0c0.64365,0 1.32545,0 2.35293,0c0.9588,0 1.55028,0 2.36598,0c1.16867,0 1.93189,0 2.7948,0c0.91316,0 1.77179,0 2.6304,0c0.77689,0 1.68798,0 2.40492,0c0.75989,0 1.71009,0 2.51147,0c0.9184,0 1.92077,0 2.54914,0c0.96165,0 1.75158,0 2.59239,0c0.91332,0 1.61166,0 2.65727,0c0.8319,0 1.6907,-0.00386 2.43974,0c0.91718,0.00472 1.51239,0.01185 2.67,0.25156c0.52094,0.10788 1.29051,0.36957 2.28408,0.5266c0.81372,0.1286 1.8136,0.10762 2.56012,0.10762c0.85432,0 1.56729,0 2.51701,0c0.76322,0 1.71724,0 2.48046,0c0.95402,0 1.88817,0 2.70306,0c0.82427,0 1.84286,0 2.43434,0c0.70598,0 1.52644,0 2.97178,0c0.54029,0 1.11684,0 1.73727,0c0.67195,0 1.40305,0 2.20093,0c0.87228,0 1.82662,0 4.01197,0c1.24119,0 2.56441,0 3.94679,0c1.41863,0 2.85061,0 4.27307,0c1.39,0 2.72467,0 5.13644,0c1.03751,0 1.96528,0 2.79768,0c0.75128,0 1.43579,0 2.06784,0c0.59388,0 1.16391,0 2.28965,0c0.58133,0 1.1779,0 1.78594,0c0.61565,0 1.23514,0 1.85462,0c0.61565,0 1.22369,0 2.40159,0c0.56271,0 1.10539,0 1.62707,0c0.49975,0 0.9766,0 1.42961,0c0.4282,0 0.83063,0 1.55442,0c0.31991,0 0.61312,0 1.12702,0c1.09903,0 1.75492,0 2.73041,0c0.71552,0 1.60275,-0.00156 2.66171,0c0.80139,0.00118 1.23139,-0.00722 2.14655,0.03691c0.99327,0.04789 1.52105,0.08907 2.62356,0.25836c1.18563,0.18205 1.79506,0.33134 2.42194,0.46769c0.63944,0.13909 1.28703,0.28801 1.94334,0.43447c0.66151,0.14762 2.66227,0.55797 3.33177,0.67689c0.67029,0.11906 1.34446,0.2295 2.02204,0.34014c0.68221,0.1114 1.37094,0.22055 2.06498,0.34014c1.41457,0.24374 2.133,0.38535 2.8557,0.53029c0.72167,0.14472 1.43432,0.29625 2.81627,0.58107c0.65612,0.13523 1.27846,0.27707 2.41939,0.46769c0.95498,0.15956 1.74646,0.25507 2.66793,0.28729c0.85297,0.02982 1.71295,0.00797 2.73821,0.00797c0.75304,0 1.18202,0 2.10678,0c0.96293,0 1.43962,0 2.76127,0c0.76894,0 1.49208,0 2.21523,0c1.1849,0 2.09822,0 2.59305,0c1.05642,0 1.61419,0 2.18914,0c1.80882,0 2.4337,0 3.06814,0c0.64395,0 1.29748,0 2.63311,0c0.68212,0 1.37379,0 2.78573,0c0.71965,0 1.44504,0 2.17231,0c0.72539,0 1.44504,0 2.15514,0c0.69677,0 1.37633,0 3.27467,0c0.5783,0 1.65571,0 2.15674,0c0.93143,0 2.1664,0 2.89147,0c0.64873,0 1.47872,0 2.48428,0c0.81282,0 1.73251,0 2.31923,0c1.17121,0 1.72328,0 2.68493,0c1.16772,0 1.61102,0 2.57587,0c0.51771,0 1.61419,0 2.18914,0c0.59024,0 1.80882,0 3.06814,0c0.64395,0 1.29748,0 1.96051,0c0.6726,0 1.35472,0 2.04639,0c2.13158,0 2.85697,0 3.58425,0c0.72539,0 1.44504,0 2.15514,0c0.69677,0 1.37633,0 2.66872,0c1.18298,0 1.73155,0 2.74281,0c0.46269,0 1.30229,0.00983 2.64295,-0.00118c0.53177,-0.00437 1.47185,-0.04645 2.42194,-0.25038c0.7846,-0.16841 1.5481,-0.43123 2.51482,-0.55864c0.70396,-0.09277 1.54551,-0.07499 2.63928,-0.07559c0.43774,-0.00024 1.42102,0 1.96467,0c0.57702,0 1.82742,0 3.19994,0c0.73063,0 1.49465,0 2.29681,0c0.8451,0 1.7379,0 2.68319,0c1.00253,0 2.06704,0 4.40123,0c1.2755,0 2.6102,0 3.98684,0c1.40145,0 2.81056,0 4.21009,0c1.37283,0 2.70179,0 5.15937,0c1.09808,0 2.10646,0 3.03093,0c0.84621,0 1.61993,0 2.32685,0c0.64587,0 1.2364,0 2.27439,0c0.45823,0 0.88025,0 1.26787,0c0.35523,0 0.67991,0 0.97597,0c0.26937,0 0.5139,0 0.9362,0c0.18159,0 0.346,0 0.49515,0c0.13579,0 0.48216,0.00932 1.34931,0c0.85879,-0.00923 1.53244,-0.47414 2.3852,-0.77816c0.70745,-0.25221 1.4897,-0.10762 2.25293,-0.10762c0.91617,0 1.72328,0 2.68493,0c1.16772,0 1.61134,0 2.58443,0c0.5295,0 1.0876,0 2.28967,0c0.64395,0 2.01775,0 2.74788,0c0.76067,0 1.55381,0 2.38124,0c0.86371,0 1.76559,0 2.70752,0c0.98392,0 3.08531,0 4.20532,0c1.16201,0 2.36025,0 3.58905,0c1.25358,0 2.52623,0 3.81224,0c1.29367,0 3.88098,0.00045 5.16429,-0.00015c1.27475,-0.00059 2.54183,-0.00204 3.80226,-0.0093c1.25469,-0.00722 2.50468,-0.01931 3.75072,-0.04119c1.24333,-0.02183 3.72516,-0.0932 4.96331,-0.14542c1.22709,-0.05175 2.431,-0.1141 3.60046,-0.1807c1.12399,-0.064 2.19051,-0.1314 3.18835,-0.19664c0.91783,-0.06002 2.46704,-0.16554 3.07975,-0.20477c0.51049,-0.03268 0.93137,-0.05807 1.27504,-0.07573c0.27868,-0.01432 0.50496,-0.02352 0.69118,-0.0279c0.1585,-0.00372 0.44219,-0.00357 0.58974,-0.00414c0.15521,-0.00059 0.31621,-0.00212 0.48085,-0.0093c0.16671,-0.00727 0.33371,-0.01912 0.49797,-0.04119c0.16147,-0.02169 0.46571,-0.09224 0.60232,-0.14556c0.1332,-0.05198 0.25842,-0.11715 0.37779,-0.19c0.24357,-0.14864 1.03723,-0.72055 1.75158,-0.99917c0.73357,-0.28613 1.55657,-0.36675 2.30682,-0.38221c0.99004,-0.02041 1.86798,-0.00399 2.43563,-0.00399c0.69167,0 1.53596,0 2.56154,0c1.23544,0 2.70942,0.00012 6.48733,0c2.34991,-0.00007 4.98509,-0.00004 7.8664,-0.00399c3.08831,-0.00423 6.34456,-0.01206 9.72957,-0.0279c3.47472,-0.01627 7.00015,-0.0302 14.04576,-0.11574c3.4452,-0.04183 6.80159,-0.1008 10.04727,-0.16476c3.11318,-0.06136 6.07178,-0.12892 8.85378,-0.19664c2.58373,-0.0629 4.94689,-0.12675 8.92456,-0.22912c1.57841,-0.04062 2.89642,-0.07291 3.97971,-0.09699c0.87436,-0.01944 1.56554,-0.03306 2.09932,-0.04119c0.40213,-0.00612 0.69834,-0.00885 1.07613,-0.00945c0.12927,-0.0002 0.2328,0 0.31339,0c0.06062,0 0.104,0 0.13311,0c0.01764,0 0.02667,0 0.03051,0c0.00047,0 0.00384,0 0.01287,0c0.01764,0 0.04676,0 0.09014,0c0.06062,0 0.1412,0 0.374,0c0.15675,0 0.33837,0 0.54095,0c0.21976,0 0.45285,0 0.69549,0c0.24835,0 0.49861,0.00016 0.9896,0c0.23391,-0.00007 0.45919,0.00023 0.67691,-0.00399c0.21102,-0.00409 0.41651,-0.01166 0.61676,-0.0279c0.19699,-0.01598 0.39334,-0.03179 0.7734,-0.11574c0.19274,-0.04258 0.38483,-0.10325 0.58101,-0.16875c0.20334,-0.0679 0.41267,-0.14523 0.63248,-0.22454c0.23111,-0.08339 0.47328,-0.17567 1.01254,-0.34487c0.29365,-0.09214 0.60366,-0.17778 0.92304,-0.26175c0.32305,-0.08494 0.64675,-0.16418 0.96596,-0.23783c0.30885,-0.07127 0.60296,-0.13883 1.13209,-0.23857c0.22436,-0.04229 0.42449,-0.07411 0.60389,-0.09699c0.16159,-0.02061 0.31024,-0.03383 0.44935,-0.04119c0.13317,-0.00704 0.26459,-0.00885 0.53681,-0.00945c0.14819,-0.00032 0.3078,0 0.4808,0c0.18825,0 0.39369,0 0.61822,0c0.24549,0 0.51393,0 1.12702,0c0.34792,0 0.7225,0 1.54423,0c0.4433,0 1.38526,0 2.90789,0c0.5293,0 1.06722,0 2.16495,0c0.55795,0 1.68724,0 2.2566,0c1.14356,0 2.28327,0 2.84361,0c0.54892,0 1.59704,0 2.08867,0c1.29938,0 2.28537,0 3.00519,0c0.95018,0 1.76305,0 2.52498,0c0.9362,0 1.81138,0 2.68144,0c0.79372,0 1.66255,0 2.47665,0c0.89678,0 1.74139,0 2.5046,0c0.85864,0 1.94426,-0.22365 2.46011,0.3862c0.52354,0.61894 -0.33313,1.41427 -0.85812,1.82826c-0.72745,0.57365 -1.43546,0.85021 -2.20617,1.32867c-0.63778,0.39594 -1.4867,0.67774 -2.2566,1.13852c-0.58514,0.35021 -0.81328,1.35799 -1.52897,1.51764c-0.85101,0.18985 -0.83523,0.80377 -0.01269,0.87752c0.88502,0.07935 1.54976,0.00945 2.46518,0.00945c0.71691,0 1.47762,-0.0359 2.63736,0.00399c0.71429,0.02457 1.55512,0.56031 1.33915,1.38005c-0.23455,0.89015 -0.74457,1.32898 -1.18822,1.88155c-0.48644,0.60593 -1.01155,1.22476 -1.90024,2.01087c-0.54817,0.48488 -1.11479,0.8828 -1.6629,1.21972c-0.97021,0.59638 -1.60642,0.95868 -2.35687,1.22194c-0.85823,0.30106 -0.63289,0.25392 0.27344,0.25392c0.77275,0 1.38334,0 2.83266,0c0.40469,0 1.23783,0 2.07103,0c0.795,0 1.83572,-0.04559 2.64074,0.00945c1.10606,0.07562 1.96691,0.35062 2.15324,1.14605c0.17614,0.75176 -0.57914,1.45847 -0.73619,2.24c-0.14086,0.70101 0.85742,0.96648 1.52006,1.05585c1.05196,0.14187 1.8501,0.50349 2.05431,1.29325c0.16176,0.62569 -0.09503,1.53129 -0.41418,2.22745c-0.41436,0.90376 -0.63405,1.48018 -1.12498,2.0246c-0.64011,0.70987 -1.73341,0.53397 -2.19424,1.09409c-0.4964,0.60335 -0.88572,1.38771 -1.52641,1.8098c-0.69234,0.4561 -1.52187,0.99105 -0.95629,1.53373c0.39834,0.3822 2.00528,0.48213 2.57063,0.51641c0.63417,0.03845 1.32255,0.05983 2.04779,0.07573c0.74614,0.01636 1.49718,0.02371 2.23674,0.0279c0.71185,0.00403 2.52306,0.00399 2.98877,0.00399c1.04608,0 2.57476,-0.57137 2.81502,0.14763c0.17515,0.52409 -1.26904,0.74789 -1.91445,0.91649c-0.75348,0.19684 -1.59396,0.37198 -2.46133,0.60587c-0.87559,0.2361 -1.71263,0.51424 -2.47158,0.82319c-0.67289,0.27392 -1.6095,0.80913 -1.4754,1.36632c0.19565,0.81291 0.80734,0.84123 1.28622,1.45519c0.04187,0.05367 -1.01062,0.38477 -1.58179,0.63274c-0.64809,0.28135 -1.33315,0.60254 -2.35291,1.13882c-0.65379,0.34381 -1.24214,0.71877 -2.10363,1.13882c-0.74457,0.36307 -1.82256,0.22697 -2.50751,0.78037c-0.64593,0.52189 -0.07628,1.42483 0.73875,1.71222c0.63231,0.22296 1.44495,0.33785 2.35833,0.43049c0.48767,0.04946 2.04348,0.0701 2.57872,0.03868c0.54001,-0.0317 1.61946,-0.14574 2.15231,-0.22203c1.04369,-0.14943 2.03143,-0.32981 2.94347,-0.5114c0.82289,-0.16384 1.60851,-0.13502 2.58472,-0.56218c0.24025,-0.10511 -0.42402,-0.14235 -1.13715,0.00355c-0.97021,0.1985 -1.71682,0.46679 -2.50006,0.75306c-0.77322,0.2826 -1.89378,0.56452 -2.46011,1.07844c-0.507,0.46007 0.34518,0.66995 1.32721,0.67467c0.60424,0.00291 1.5702,0 2.19826,0c1.04701,0 1.61923,-0.03793 1.0098,0.06378c-0.99717,0.1664 -1.59302,0.43144 -2.59188,0.84046c-0.70043,0.28684 -1.72846,0.72131 -2.37667,0.97008c-0.60098,0.23062 -1.4736,0.47351 -2.23715,1.06767c-0.50438,0.39249 -0.91751,1.04534 -1.46189,1.80936c-0.51835,0.72753 -0.12624,1.23617 0.51393,1.47158c0.84146,0.30942 0.63685,1.3026 1.08376,1.92511c0.50572,0.70447 1.17517,0.69492 0.37511,0.70995c-0.84886,0.01595 -1.82734,0.12421 -2.5156,0.46119c-0.72169,0.35335 -0.93026,1.17028 -0.57082,1.79076c0.37511,0.64751 0.97178,1.32486 1.80306,1.73392c0.57216,0.28155 1.56903,0.4062 2.19826,0.43093c1.24534,0.04895 2.15546,0.49375 2.86713,-0.03867c0.5084,-0.38035 -0.6528,-0.83158 -1.56729,-0.83515c-0.76326,-0.00297 -1.5564,-0.00865 -2.47618,0.32036c-0.5661,0.20251 -1.5122,0.76664 -1.73743,1.45121c-0.27269,0.82893 0.4472,1.38627 1.51057,1.62393c0.73194,0.1636 1.49963,0.1429 2.38505,0.14763c0.63598,0.00339 -0.05089,0 -0.96677,0c-0.38157,0 -1.75414,-0.0013 -2.27948,0.00118c-1.11171,0.00522 -1.68299,0.01277 -2.25404,0.03071c-1.11205,0.03493 -2.13514,0.0941 -3.01212,0.21968c-0.7462,0.10686 -1.87095,-0.08854 -2.64074,0.56099c-0.39444,0.33286 0.38169,0.86229 0.96421,1.15506c0.71336,0.35852 1.59594,0.70734 2.62927,1.04169c0.55987,0.18115 1.15328,0.34801 1.77592,0.49691c1.30217,0.31143 1.9863,0.44362 3.3987,0.62744c0.71697,0.09331 1.43814,0.15004 2.1508,0.18999c0.6956,0.03899 1.36715,0.05978 2.00488,0.05448c1.1414,-0.00949 3.01509,0.32182 3.11874,-0.39211c0.10213,-0.70322 -1.37408,-0.85921 -2.23721,-0.41101c-0.66736,0.34655 -0.42612,1.38537 -0.42612,2.18257c0,0.7972 -0.02614,1.61006 0.0814,2.26406c0.14592,0.88772 0.45081,1.41783 0.42711,2.24c-0.02783,0.9652 -0.86819,1.15129 -1.72107,1.08567c-0.58677,-0.04514 -2.12675,-0.27378 -3.1001,-0.42016c-1.09115,-0.16408 -2.27308,-0.34717 -3.52174,-0.5328c-1.28808,-0.19149 -2.59019,-0.38035 -3.88241,-0.54873c-1.2532,-0.16331 -3.54649,-0.41082 -4.54115,-0.46873c-0.887,-0.05164 -1.6785,-0.06362 -2.37981,-0.0372c-0.62218,0.02345 -1.17319,0.07753 -1.65853,0.15412c-0.43439,0.06855 -1.17075,0.2451 -1.48891,0.33866c-0.29365,0.08634 -0.56138,0.1771 -0.79709,0.28435c-0.21871,0.09952 -0.56354,0.12241 -0.95024,0.80782c-0.42431,0.75212 -0.32666,1.56746 0.10464,2.43148c0.32084,0.64275 0.88811,1.15683 1.67606,1.68298c0.54112,0.36132 2.08552,1.59006 2.31652,0.9038c0.18581,-0.55211 -1.33548,-0.74595 -1.7719,-1.11964c-0.63021,-0.53965 -1.04888,-0.92879 -0.2735,-0.22322c0.4879,0.44399 1.40989,0.44181 1.93984,1.32513c0.20764,0.34614 0.77404,0.78729 1.42387,0.85405c0.73671,0.07568 1.74308,0.11318 2.6072,0.04118c0.89044,-0.07419 1.51599,-0.57886 2.46774,-0.57266c0.78737,0.00514 1.24767,0.1064 2.29602,0.2148c0.57734,0.0597 1.18437,0.13004 2.47787,0.21968c0.67621,0.04686 2.07207,0.09969 2.78322,0.11575c0.71482,0.01614 1.42975,0.02375 2.14084,0.0279c0.7034,0.00411 2.07213,0.00399 2.73006,0.00399c0.63697,0 1.84032,0 2.40287,0c1.03735,0 1.5083,0 3.03599,0c0.56098,0 1.78378,0.28442 2.38127,-0.03188c0.66427,-0.35165 0.25405,-1.45564 -0.5279,-1.73968c-0.65216,-0.23689 -1.49939,-0.35287 -2.40415,-0.49958c-0.45558,-0.07388 -1.72765,-0.26147 -2.41941,-0.30943c-0.97999,-0.06796 -1.89529,0.30825 -1.85028,1.07874c0.0453,0.77594 0.34268,1.41873 0.92299,1.95891c0.6712,0.62482 1.46539,0.87377 2.2375,1.06057c0.92945,0.22487 1.28989,0.09404 0.41011,-0.05846c-0.40388,-0.07001 -1.33152,-0.20239 -1.83747,-0.26102c-1.57614,-0.18265 -2.09752,-0.21363 -3.10104,-0.26175c-0.47934,-0.02299 -1.38521,-0.04495 -2.20699,-0.04945c-1.33559,-0.00731 -2.07894,-0.08689 -2.94853,-0.00118c-0.77107,0.07601 -0.58485,0.96258 -0.10307,1.41961c0.61705,0.58535 1.24586,0.8943 1.91171,1.23774c0.70958,0.366 1.8476,0.88726 2.60784,1.23774c0.73572,0.3392 1.41985,0.66251 2.04919,0.91413c0.94115,0.37627 1.64799,0.17942 1.01242,-0.11855c-0.75715,-0.35496 -1.55378,-0.44219 -2.44596,-0.62551c-0.48039,-0.09871 -1.48088,-0.29738 -1.98182,-0.42045c-1.45881,-0.35839 -2.32589,-0.67162 -2.72849,-0.82319c-0.74242,-0.27951 -1.94642,-1.24763 -2.64714,-0.95782c-0.72297,0.299 -0.2314,1.31001 0.2328,1.88613c0.64226,0.7971 1.47983,1.01662 2.07341,1.38536c0.80466,0.49985 0.24567,0.50121 -0.43474,-0.09021c-0.47247,-0.4107 -1.1704,-0.90967 -1.86257,-1.34712c-0.74708,-0.47217 -1.49747,-0.89639 -2.17229,-1.25559c-0.76076,-0.40495 -1.82309,-1.87365 -2.28106,-1.19345c-0.38227,0.56779 2.27541,-0.33317 2.26545,0.52276c-0.00967,0.8302 -1.49811,0 -2.35961,0c-1.22083,0 -1.71723,0 -2.25369,0c-1.17791,0 -1.81167,0 -2.4703,0c-0.67959,0 -2.08646,0 -2.80768,0c-0.73648,0 -1.49398,0 -2.2782,0c-0.81666,0 -1.67146,0 -2.5701,0c-0.94831,0 -3.01666,0 -4.14461,0c-1.17948,0 -2.39524,0 -3.63197,0c-1.24243,0 -2.47537,0 -3.6835,0c-1.16801,0 -3.32283,0 -4.28291,0c-0.88182,0 -1.69306,0 -2.4413,0c-0.69298,0 -1.33822,0 -1.94339,0c-0.57268,0 -1.65137,0 -2.17147,0c-0.51154,0 -1.01539,0 -1.51261,0c-0.49151,0 -0.97819,0 -1.46108,0c-0.48004,0 -1.43534,0 -1.91282,0c-0.48039,0 -0.96642,0 -1.46108,0c-0.50613,0 -1.02652,0 -2.12174,0c-1.18682,0 -1.82047,0 -2.47793,0c-0.67656,0 -1.36745,0 -2.77303,0c-0.70515,0 -1.40559,0 -2.77303,0c-0.65793,0 -1.29489,0 -2.49825,0c-0.56255,0 -1.09651,0 -2.07085,0c-1.19998,0 -2.08867,0 -2.91296,0c-0.82554,0 -1.72884,0 -2.57712,0c-0.94465,0 -1.56714,0 -2.36135,0c-1.09476,0 -2.0526,0 -2.61022,0c-0.61391,0 -1.28697,0 -2.02203,0c-0.79995,0 -1.66764,0 -3.61767,0c-1.08472,0 -2.22859,0 -3.41442,0c-1.21066,0 -2.42896,0 -3.6377,0c-1.18202,0 -2.32016,0 -4.39613,0c-0.9079,0 -1.72995,0 -2.47569,0c-0.67895,0 -1.30063,0 -1.87465,0c-0.53582,0 -1.04305,0 -2.0098,0c-0.47701,0 -0.95402,0 -1.43103,0c-0.47701,0 -0.95402,0 -1.43103,0c-0.47701,0 -0.95402,0 -1.90804,0c-0.47687,0 -1.42675,0 -2.36517,0c-0.46254,0 -1.36951,0 -2.67046,0c-0.82047,0 -1.60278,0 -2.34691,0c-1.04465,0 -1.69466,0 -2.6148,0c-0.58799,0 -1.73697,0 -2.58556,0c-0.81427,0 -1.80262,0 -2.47665,0c-0.69118,0 -1.77208,0 -2.40843,0c-1.02605,0 -1.72439,0 -2.73693,0c-0.6379,0 -1.57096,0.00027 -2.19933,0c-1.33816,-0.00059 -2.06363,0.00012 -2.82643,-0.03188c-0.80193,-0.03364 -1.6424,-0.10561 -2.52116,-0.22086c-0.93539,-0.12268 -1.42521,-0.20931 -2.46774,-0.37128c-0.55454,-0.08615 -1.73985,-0.26363 -2.37344,-0.35019c-0.65499,-0.08948 -2.00462,-0.25836 -2.68589,-0.33601c-0.67598,-0.07705 -1.34063,-0.14872 -1.9877,-0.20859c-1.21154,-0.11211 -2.28551,-0.18447 -3.23732,-0.22086c-0.43934,-0.0168 -1.26505,-0.0281 -2.42704,-0.03188c-0.76449,-0.0025 -1.5382,0.00095 -2.324,-0.06378c-0.81255,-0.06693 -2.08651,-0.32276 -2.52626,-0.43934c-0.90162,-0.23902 -1.80131,-0.52251 -2.25465,-0.64367c-1.31568,-0.3516 -2.16253,-0.49005 -2.98356,-0.56099c-0.40504,-0.03501 -1.2192,-0.05897 -2.4728,-0.06378c-0.89044,-0.00342 -1.37388,0.00047 -2.46456,-0.01845c-0.62654,-0.01087 -1.31984,-0.02932 -2.08931,-0.05713c-1.80658,-0.06532 -2.85927,-0.11744 -4.00815,-0.18071c-1.23716,-0.06813 -2.55351,-0.152 -3.93965,-0.26041c-1.44929,-0.11334 -2.95258,-0.24483 -4.49771,-0.41986c-3.19816,-0.3623 -4.82627,-0.61757 -6.46954,-0.88343c-1.65609,-0.26793 -3.31465,-0.56458 -4.97283,-0.87427c-1.65548,-0.30919 -3.29951,-0.63222 -4.92992,-0.95398c-3.19953,-0.63144 -4.75802,-0.93933 -6.28382,-1.23537c-1.48734,-0.28857 -2.93217,-0.56625 -4.32888,-0.83706c-1.3445,-0.26068 -2.63235,-0.51007 -3.85661,-0.75735c-2.24673,-0.45383 -3.25723,-0.67424 -4.19134,-0.88459c-0.8594,-0.19352 -1.64173,-0.37866 -2.34688,-0.55406c-0.63039,-0.1568 -1.18435,-0.30028 -1.66002,-0.43447c-0.72713,-0.20512 -0.97723,-0.2834 -1.14862,-0.3555c-0.10702,-0.04501 -0.14837,-0.09611 -0.11305,-0.11426c0.08068,-0.04147 0.23938,-0.03132 0.44504,-0.03455c0.56852,-0.00893 0.92523,-0.00237 1.3229,-0.00237c0.43203,0 0.89169,0 1.37237,0c0.49497,0 0.99758,0 1.50114,0c0.98328,0 1.45124,0 1.90298,0c0.43838,0 0.86624,0 1.28648,0c0.41549,0 0.82906,0 1.24356,0c0.84336,0 1.27681,0 1.71597,0c0.44108,0 0.88025,0 1.3137,0c0.42391,0 0.83445,0 1.22781,0c0.71997,0 1.03988,0 1.33309,0c0.26841,0 0.5139,0 0.7384,0c0.20543,0 0.39371,0 0.56671,0c0.44583,0 0.78999,-0.03567 0.01779,0.05063c-0.91364,0.1021 -1.66101,0.33543 -2.40366,0.52277c-0.98785,0.24921 -1.91742,0.31238 -2.59287,0.31238c-1.00777,0 -1.58272,0 -2.5644,0c-0.68943,0 -1.70118,0 -2.35151,0c-1.02317,0 -1.79275,0 -2.67681,0c-1.02017,0 -1.56842,0 -2.13193,0c-1.14228,0 -1.70578,0 -3.27421,0c-0.45841,0 -1.27218,0 -2.2782,0c-1.06087,0 -1.73344,0 -2.49668,0c-0.98867,0 -1.89261,0 -2.63864,0c-0.79995,0 -1.89119,0 -2.32892,0c-0.98328,0 -1.52693,0 -2.10395,0c-1.25041,0 -2.62292,0 -3.35244,0c-0.75622,0 -1.53724,0 -2.34115,0c-0.82493,0 -1.6689,0 -2.53007,0c-0.87643,0 -2.66743,0 -3.57854,0c-0.92063,0 -1.8508,0 -2.7905,0c-0.94925,0 -1.90804,0 -2.87639,0c-0.97787,0 -2.96222,0 -3.96745,0c-1.00713,0 -2.00852,0 -2.99657,0c-0.96706,0 -1.90551,0 -2.80768,0c-0.85832,0 -2.41274,0 -3.0955,0c-0.61979,0 -1.18044,0 -1.68575,0c-0.45378,0 -0.85989,0 -1.22208,0c-0.32215,0 -0.8615,0 -1.08728,0c-0.20671,0 -1.03353,0 -1.58051,0c-1.20015,0 -1.72742,0 -2.96891,0c-0.71042,0 -1.47808,0 -2.30109,0c-0.87643,0 -2.78194,0.00041 -3.81131,-0.00015c-1.1,-0.00059 -2.29349,-0.0025 -3.60335,-0.0093c-1.44917,-0.00751 -3.06054,-0.02063 -4.85693,-0.04118c-2.00444,-0.02294 -6.72878,-0.09476 -9.48219,-0.14572c-2.97963,-0.05515 -6.13476,-0.12052 -9.41476,-0.19931c-3.35456,-0.08058 -6.73303,-0.17142 -10.08446,-0.27902c-3.27459,-0.10513 -9.38958,-0.34935 -12.13754,-0.49559c-2.52585,-0.13442 -4.83366,-0.28263 -6.92906,-0.43713c-1.89047,-0.13939 -3.57992,-0.2829 -5.07444,-0.42118c-1.30645,-0.12087 -3.37436,-0.33363 -4.15032,-0.41352c-0.62327,-0.06417 -1.11293,-0.1147 -1.48827,-0.15146c-0.27979,-0.02741 -0.48324,-0.04655 -0.62966,-0.05581c-0.10803,-0.00684 -0.28621,-0.00699 -0.39304,-0.00842c-0.13742,-0.00184 -0.31694,-0.00916 -0.54952,-0.0279c-0.29796,-0.024 -0.672,-0.06469 -1.13338,-0.12356c-0.56144,-0.07165 -2.02661,-0.28951 -2.95111,-0.4367c-1.05482,-0.16794 -2.23469,-0.36188 -3.5375,-0.57c-1.42058,-0.22693 -2.95554,-0.46791 -4.6022,-0.71349c-1.75216,-0.26133 -5.56314,-0.78999 -7.61198,-1.05099c-2.12468,-0.27066 -4.30975,-0.53279 -6.53552,-0.7972c-2.24827,-0.26708 -4.50196,-0.52962 -6.74159,-0.79721c-2.20865,-0.2639 -6.45905,-0.79205 -8.46694,-1.06279c-1.92647,-0.25976 -3.7719,-0.52385 -5.53953,-0.7879c-1.69449,-0.25313 -3.31658,-0.50688 -4.86979,-0.75602c-1.4882,-0.23872 -4.27737,-0.7001 -5.5839,-0.91709c-1.24643,-0.20701 -2.42979,-0.40414 -3.54752,-0.58859c-1.04885,-0.17309 -2.02609,-0.33329 -2.92932,-0.47701c-0.82548,-0.13133 -2.23345,-0.34393 -2.81247,-0.42163c-0.50102,-0.06724 -0.93389,-0.11845 -1.30652,-0.16076c-0.32096,-0.03644 -0.59945,-0.06512 -0.84288,-0.097c-0.2183,-0.02859 -0.612,-0.10183 -0.80201,-0.15338c-0.19296,-0.05235 -0.38584,-0.11612 -0.58243,-0.18071c-0.20058,-0.0659 -0.40491,-0.13474 -0.61677,-0.19664c-0.21683,-0.06336 -0.67608,-0.16917 -0.91999,-0.20475c-0.25098,-0.03661 -0.51084,-0.05978 -0.77705,-0.07574c-0.27156,-0.01627 -0.54822,-0.02377 -0.82858,-0.0279c-0.28317,-0.00416 -0.85432,-0.00355 -1.14085,-0.00414c-0.28842,-0.00059 -0.58072,-0.00218 -0.87864,-0.0093c-0.30567,-0.0073 -0.62094,-0.01984 -0.94735,-0.04118c-0.34016,-0.02225 -1.06795,-0.09426 -1.45837,-0.14557c-0.40846,-0.05369 -0.83158,-0.11854 -1.2679,-0.19001c-0.44839,-0.07346 -0.90584,-0.15393 -1.37093,-0.23783c-0.47113,-0.08499 -1.42243,-0.26184 -1.89881,-0.35019c-0.47254,-0.08764 -0.93741,-0.17368 -1.39097,-0.25642c-0.43814,-0.07993 -0.85719,-0.1555 -1.25358,-0.22455c-0.36937,-0.06435 -1.01286,-0.17054 -1.28141,-0.20874c-0.2365,-0.03364 -0.44848,-0.05921 -0.64253,-0.07574c-0.1822,-0.01552 -0.35994,-0.02383 -0.5395,-0.0279c-0.18806,-0.00427 -0.61677,-0.00399 -0.87007,-0.00399c-0.28477,0 -0.60389,0 -0.96022,0c-0.39639,0 -0.83572,0 -1.32084,0c-0.53378,0 -1.75874,0 -2.45374,0c-0.74366,0 -1.52739,0 -2.3426,0c-0.83811,0 -1.69053,0 -2.54867,0c-0.85528,0 -2.52291,0.00092 -3.32016,-0.0003c-0.77243,-0.00118 -1.52396,-0.00396 -2.25817,-0.0186c-0.72102,-0.01437 -1.43272,-0.03864 -2.13796,-0.08238c-0.70423,-0.04367 -2.12182,-0.18756 -2.84155,-0.29099c-0.73429,-0.10551 -1.48192,-0.23489 -2.24815,-0.37069c-0.78789,-0.13963 -1.59837,-0.28985 -2.43705,-0.43448c-0.8671,-0.14954 -2.70235,-0.43225 -3.67393,-0.55494c-0.99373,-0.12547 -1.99827,-0.23379 -2.99801,-0.33217c-0.97987,-0.09642 -1.92693,-0.17911 -2.82629,-0.25245c-0.83698,-0.06826 -2.26812,-0.17355 -2.83773,-0.21273c-0.476,-0.03274 -0.87,-0.05815 -1.19348,-0.07574c-0.26421,-0.01437 -0.4808,-0.02353 -0.66114,-0.0279c-0.15549,-0.00376 -0.4379,-0.00399 -0.58609,-0.00399c-0.15964,0 -0.33264,0 -0.52089,0c-0.20544,0 -0.42995,0 -0.67545,0c-0.2684,0 -0.88152,0 -1.22926,0c-0.37349,0 -0.76989,0 -1.18633,0c-0.4336,0 -0.88151,0 -1.34087,0c-0.46795,0 -1.41816,0 -1.89517,0c-0.47701,0 -0.95402,0 -1.43103,0c-0.47701,0 -0.95402,0 -1.43103,0c-0.47701,0 -1.43103,0 -1.90741,0c-0.47256,0 -0.93748,0 -1.39096,0c-0.43821,0 -0.85735,0 -1.25358,0c-0.36953,0 -1.01317,0 -1.28093,0c-0.23342,0 -0.43631,0 -0.61248,0c-0.15328,0 -0.28748,0 -0.40642,0c-0.10749,0 -0.30338,0 -0.39878,0c-0.0954,0 -0.19081,0 -0.28621,0c-0.0954,0 -0.1908,0 -0.2862,0c-0.09541,0 -0.28621,0 -0.38177,0c-0.09651,0 -0.19494,0 -0.29622,0c-0.1051,0 -0.33057,0 -1.19348,0c-0.76322,0 -1.68004,0.00874 -2.51703,-0.00945c-0.69348,-0.01507 -1.53965,-0.06019 -2.57585,-0.13819c-0.59944,-0.04513 -1.24473,-0.09918 -2.62547,-0.23857c-0.71398,-0.07207 -1.4276,-0.15199 -2.12938,-0.23783c-0.67964,-0.08314 -1.92578,-0.24962 -2.95874,-0.43773c-0.44252,-0.08059 -1.49832,-0.35227 -2.46265,-0.56218c-0.66695,-0.14517 -1.40566,-0.2146 -2.21269,-0.34383c-0.70977,-0.11365 -1.52407,-0.26427 -2.41558,-0.42783c-0.46502,-0.08531 -1.89086,-0.34964 -2.8406,-0.52749c-0.4712,-0.08824 -1.4013,-0.26433 -1.8578,-0.35431c-1.3275,-0.26166 -2.16643,-0.43687 -2.95731,-0.62005c-0.74058,-0.17153 -1.43285,-0.31299 -2.56187,-0.70862c-0.68756,-0.24094 -1.5198,-0.72415 -2.05814,-1.06294c-0.88599,-0.55757 -1.54916,-0.79875 -2.28965,-1.06294c-0.99895,-0.3564 -1.73258,-0.5258 -2.38108,-0.97436c-0.65161,-0.45072 -0.53831,-1.46795 -0.16902,-2.0373c0.51268,-0.79043 1.05981,-1.12537 1.66095,-1.43969c0.98249,-0.51372 1.60771,-0.76325 2.2693,-1.06294c0.68926,-0.31221 1.37964,-0.63245 2.40127,-1.02131c0.92212,-0.35099 1.48902,-0.56433 2.53293,-0.75735c0.87932,-0.16259 1.68417,-0.14703 2.64805,-0.14763c0.63251,-0.00039 1.64505,0 2.57236,0c0.66273,0 1.32557,-0.01507 2.52975,0.0003c0.73575,0.00939 1.62018,0.06269 2.32558,0.50283c0.69722,0.43504 0.72659,1.11774 0.08141,1.34166c-0.90861,0.31534 -0.99924,1.28288 -0.13992,1.55071c0.61578,0.19193 1.35548,0.23906 2.40748,0.14733c0.82823,-0.07222 1.20815,-0.98179 0.7726,-1.62364c-0.38843,-0.57241 -1.2885,-0.86412 -2.24386,-1.21175c-0.52328,-0.19041 -1.36828,-0.4645 -2.20824,-0.85507c-0.85718,-0.39859 -2.1304,-0.31761 -2.22605,-1.32867c-0.0378,-0.39955 1.27711,-0.29522 1.98691,-0.29526c1.05658,-0.00007 2.19854,-0.16769 1.82027,-0.63422c-0.47073,-0.58059 -1.62076,-0.23928 -2.25244,-0.24757c-1.19464,-0.01568 -1.89691,-0.02879 -1.89691,-0.00399c0,0.66832 1.57335,0.09372 2.69082,-0.00399c0.84197,-0.07362 1.24242,-0.74972 0.61312,-1.16643c-0.85354,-0.56518 -1.30577,-0.61623 -2.13796,-0.90881c-1.29148,-0.45406 -1.72107,-0.57371 -2.55439,-0.78923c-0.80929,-0.20931 -1.62283,-0.3822 -2.88051,-0.52704c-0.43213,-0.04977 -1.3095,-0.09932 -2.16642,-0.14763c-0.79989,-0.0451 -2.13325,0.28446 -2.65838,-0.37675c-0.29305,-0.36899 0.77179,-0.50704 1.64473,-0.50903c0.71615,-0.00164 1.49336,0 2.2782,0c0.73905,0 2.4309,0.43613 2.85252,-0.19635c0.34073,-0.51114 -0.68093,-1.14379 -1.37427,-1.57522c-0.78228,-0.48678 -1.65077,-0.88089 -2.22144,-1.0969c-0.79007,-0.29905 -2.27356,-0.83861 -2.33004,-0.37941c-0.09317,0.75756 1.13714,0.76552 1.74013,0.97318c1.29222,0.44501 2.00623,0.48011 2.64836,0.45234c1.19924,-0.05187 1.70747,-0.64549 2.5466,-0.80311c0.76359,-0.14343 1.9691,-0.03229 2.4733,-0.03174c0.55286,0.0006 1.77022,0.00723 2.41749,0.01831c0.66166,0.01132 1.32925,0.02607 1.99343,0.05713c1.28673,0.06019 2.46844,0.17073 3.01328,0.2368c0.99708,0.12092 1.85532,0.27487 2.88385,0.42577c0.69825,0.10244 1.71387,-0.22491 1.16756,-0.82658c-0.42513,-0.46821 -1.47465,-0.65511 -2.20363,-0.844c-0.90706,-0.23504 -1.62901,-0.56369 -2.33354,-0.81433c-0.92048,-0.32747 -1.48066,-0.50801 -2.10521,-0.70863c-0.6878,-0.22093 -1.44039,-0.45468 -2.25674,-0.70021c-0.87667,-0.26367 -1.8148,-0.5388 -2.81484,-0.81979c-2.17103,-0.61002 -3.34581,-0.91789 -4.57167,-1.23773c-1.27206,-0.33189 -2.58805,-0.66674 -3.94249,-1.00581c-1.38677,-0.34716 -2.80269,-0.69608 -4.24301,-1.04566c-2.93092,-0.71137 -4.41334,-1.06233 -5.89331,-1.41253c-1.46606,-0.34691 -2.90757,-0.68489 -4.31313,-1.01112c-1.3573,-0.31504 -2.65546,-0.61414 -3.88382,-0.89154c-2.1971,-0.49618 -3.14799,-0.7027 -4.00053,-0.8846c-0.76013,-0.16218 -1.4357,-0.30181 -2.0335,-0.41986c-0.52546,-0.10376 -0.98623,-0.19104 -1.38953,-0.26043c-0.65679,-0.11299 -0.92433,-0.14935 -1.15119,-0.1807c-0.18467,-0.02551 -0.32604,-0.04145 -0.42072,-0.05713c-0.04761,-0.00789 -0.04522,-0.01575 0.00859,-0.01727c0.26955,-0.00762 0.48814,-0.00118 0.75813,-0.00118c0.31578,0 0.67163,0 1.06183,0c0.41882,0 0.86053,0 1.31941,0c0.94639,0 1.42276,0 1.89532,0c0.46493,0 0.9184,0 1.35662,0c0.41913,0 1.83778,0.1013 2.52832,-0.00399c0.842,-0.12838 0.99567,-1.09422 1.61691,-1.4512c0.76151,-0.43759 1.69085,-0.27725 2.49286,0.06038c0.7741,0.32588 1.59015,0.49883 2.2057,0.50785c0.94755,0.01389 1.88896,0.00118 2.55551,0.00118c0.76449,0 1.57938,0 2.51353,0c0.78357,0 1.44471,0.00322 2.521,-0.00015c0.62807,-0.00196 1.59924,0.01018 2.19822,-0.07544c1.1352,-0.16226 1.77893,-0.92349 1.17345,-1.43024c-0.58339,-0.48826 -1.37109,-0.64748 -2.18058,-0.83515c-1.12328,-0.26041 -1.70164,-0.36405 -2.46424,-0.27504c-1.10699,0.12921 -0.84502,0.9622 -0.25409,1.28734c0.88715,0.48812 1.46883,0.76096 2.30444,1.0123c0.90067,0.27091 1.67626,0.29739 2.41654,0.31239c0.98988,0.02006 1.91879,-0.24482 1.91726,-0.97052c-0.00147,-0.69956 -1.47429,-1.57326 -0.89916,-2.1281c0.52268,-0.50425 1.50168,0.8077 2.2906,0.40835c0.69,-0.34928 0.49923,-1.25721 -0.02385,-2.08661c-0.33568,-0.53227 -0.87782,-1.41716 -0.12291,-1.10723c0.59778,0.24542 1.74659,1.02321 2.33958,0.3772c0.5439,-0.59254 -0.40085,-1.27508 -1.23975,-1.85985c-0.43225,-0.3013 -1.08596,-0.85028 -2.02634,-1.19182c-0.64143,-0.23296 0.14482,0.34939 0.77514,0.59052c0.74457,0.28484 1.16327,0.43653 2.57236,0.67039c0.49461,0.08209 1.50372,0.15195 1.99899,0.16003c0.94021,0.01533 2.23434,0.13977 2.92233,-0.27297c0.69835,-0.41895 0.35508,-1.50128 0.07696,-2.04203c-0.30265,-0.58842 -0.62753,-1.24006 -1.68926,-2.00895c-0.50796,-0.36786 -1.1655,-0.57617 -1.87751,-0.75468c-1.23485,-0.3096 -2.17589,-0.44007 -2.64836,-0.48777c-0.90054,-0.09091 -2.06232,-0.36938 -2.63564,0.5043c-0.40743,0.62087 0.09316,1.37933 0.982,2.01722c0.67724,0.48603 1.1461,0.59761 2.00742,0.7566c0.78051,0.14407 2.00606,-0.31166 1.68941,-0.84887c-0.34382,-0.58331 -0.76176,-0.82586 -2.1316,-1.69775c-0.52482,-0.33405 -1.08959,-0.62786 -1.61993,-0.95c-0.95718,-0.5814 -1.90616,-1.24528 -1.51737,-1.70159c0.50069,-0.58764 1.30268,-0.32915 1.90995,-0.39329c1.3137,-0.13874 1.98485,-0.11892 3.1602,-0.33217c0.89718,-0.16278 1.77378,-0.37999 1.93857,-1.19994c0.17608,-0.87613 -0.70803,-1.8006 -0.03053,-2.19555c0.53331,-0.31089 1.48978,0.10451 1.96767,0.20299c0.99074,0.20417 2.31685,0.57524 2.98052,0.67689c0.76928,0.11783 1.36402,-0.63992 1.09394,-1.4704c-0.1927,-0.59254 -0.6041,-1.14748 -1.64696,-1.42566c-0.44718,-0.11929 -1.5252,-0.37172 -2.12937,-0.51198c-0.63223,-0.14678 -1.28178,-0.29486 -1.93762,-0.43979c-1.28138,-0.28317 -2.46348,-0.52982 -3.00946,-0.63865c-0.99489,-0.19832 -1.43861,-0.30723 -2.88385,-0.52704c-0.67185,-0.10218 -0.20839,0.2532 0.53473,0.48511c0.46448,0.14495 0.99447,0.29387 1.58702,0.44909c0.6511,0.17055 1.36106,0.35313 2.96637,0.68973c0.88538,0.18565 1.83202,0.35915 2.83774,0.53147c1.06384,0.18228 2.19001,0.35867 3.37867,0.53147c1.25012,0.18174 2.56406,0.36562 5.39086,0.70863c1.50732,0.1829 3.05893,0.35433 4.62939,0.5235c1.5651,0.1686 3.10199,0.32688 4.58646,0.47566c1.40781,0.14109 2.71542,0.2702 4.93547,0.47714c0.87072,0.08116 1.58593,0.14606 2.16229,0.19c0.45279,0.03452 0.79913,0.05771 1.05467,0.05448c0.18129,-0.00229 0.32055,-0.00464 0.44012,-0.09684c0.05197,-0.04007 0.08114,-0.10248 0.10017,-0.16476c0.01931,-0.06323 0.02394,-0.13096 0.01431,-0.19664c-0.00954,-0.06512 -0.01016,-0.48047 -0.50372,-0.33541c-0.68366,0.20094 0.0051,1.22199 0.70725,1.87785c0.46662,0.43586 1.01678,0.96268 2.06705,1.32867c0.58174,0.20272 1.53331,0.36492 2.33035,0.2929c0.27636,-0.02497 -0.25466,-0.1417 -1.57223,-0.39004c-0.58329,-0.10994 -1.22639,-0.23969 -1.92331,-0.38c-0.74302,-0.14959 -1.52397,-0.30914 -2.33544,-0.47566c-0.83453,-0.17125 -2.54149,-0.5236 -3.39886,-0.70036c-0.84969,-0.17518 -1.68407,-0.34704 -2.49572,-0.51286c-0.78094,-0.15954 -1.52369,-0.31031 -2.22096,-0.4491c-0.64346,-0.12807 -1.73187,-0.38747 -2.5466,-0.47803c-0.81451,-0.09053 -0.53568,0.6288 -0.05597,1.00389c0.63886,0.49952 1.08402,0.72936 1.58241,0.97082c1.16771,0.56574 1.89024,0.80366 2.67635,1.06058c0.85462,0.27931 1.79137,0.54676 2.80483,0.81448c1.08531,0.2867 2.24966,0.57046 3.49171,0.85434c2.70554,0.61836 4.17547,0.91948 5.7025,1.23891c1.57003,0.32842 3.16873,0.65619 4.77822,0.98853c1.60493,0.3314 3.18988,0.65705 4.73529,0.98853c2.91909,0.62612 4.25823,0.93679 5.5117,1.23537c1.16969,0.27862 2.2521,0.54833 3.24844,0.80252c0.91165,0.23258 1.73603,0.45035 2.47569,0.64308c1.22067,0.31808 1.70274,0.44055 2.10648,0.53029c0.3273,0.07274 0.58658,0.12558 0.7842,0.13686c0.13903,0.00793 0.25223,-0.00771 0.26903,-0.06245c0.04232,-0.13789 -0.08729,-0.24246 -0.18953,-0.35195c-0.12716,-0.13617 -0.3065,-0.28165 -0.53664,-0.43448c-0.27164,-0.18038 -0.60589,-0.36891 -1.00888,-0.55406c-0.98412,-0.45214 -1.60421,-0.65484 -2.27439,-0.87988c-0.70958,-0.23827 -1.45021,-0.46637 -2.20235,-0.68825c-0.74506,-0.2198 -1.47028,-0.42409 -2.15943,-0.60853c-1.19757,-0.3205 -1.67871,-0.44095 -2.07213,-0.52202c-0.29663,-0.06113 -0.55913,-0.13848 -0.59817,-0.05049c-0.08741,0.19702 1.15006,0.85293 1.74029,1.18975c0.71308,0.40693 1.56273,0.86991 2.55439,1.38581c1.12743,0.58653 2.40641,1.22497 3.84232,1.91196c1.58478,0.75821 5.25523,2.42177 7.34103,3.32375c2.20582,0.95388 4.50109,1.9165 6.83747,2.87924c2.32753,0.95909 4.61017,1.88144 6.80312,2.75168c2.05324,0.8148 5.58055,2.17753 6.98074,2.68953c1.15086,0.42083 2.08309,0.74622 2.82628,0.96595c0.56355,0.16662 0.98372,0.27378 1.28077,0.28035c0.19527,0.00432 0.39278,-0.13898 0.41294,-0.23931c0.02239,-0.11134 -0.00336,-0.2424 -0.05152,-0.38c-0.05354,-0.15295 -0.1381,-0.31172 -0.24041,-0.47566c-0.10864,-0.17408 -0.37501,-0.52554 -0.52536,-0.70036c-0.15238,-0.17719 -0.31365,-0.34875 -0.48082,-0.51286c-0.16426,-0.16126 -0.3307,-0.31209 -0.498,-0.4491c-0.15853,-0.12982 -0.46056,-0.34229 -0.60182,-0.4172c-0.12512,-0.06636 -0.24193,-0.11428 -0.34774,-0.13287c-0.08938,-0.01571 -0.17311,-0.01016 -0.22753,0.02658c-0.05287,0.03569 -0.08798,0.18672 -0.07251,0.28271c0.01793,0.11122 0.0114,0.25442 0.16981,0.47537c0.29358,0.40949 -0.22941,-0.24421 -0.70803,-0.5449c-0.94436,-0.59329 -1.51619,-1.08116 -1.99073,-1.36292c-1.09457,-0.64992 -1.84914,-0.84521 -2.63055,-1.04404c-0.39283,-0.09996 -1.15741,-0.28614 -2.43164,-0.46519c-0.78242,-0.10994 -1.7915,-0.08383 -2.35564,-0.14453c-0.74362,-0.08 -1.70185,-0.35154 -2.49922,-0.59983c-0.45846,-0.14276 -1.50749,-0.47928 -2.10902,-0.66197c-0.65518,-0.19899 -2.14848,-0.62348 -2.9907,-0.84592c-0.88898,-0.23479 -1.81037,-0.46696 -2.74329,-0.70287c-0.92711,-0.23444 -1.83132,-0.46127 -2.69177,-0.68692c-0.80204,-0.21034 -2.15468,-0.5894 -2.66776,-0.76783c-0.41623,-0.14474 -1.20748,-0.08502 -1.29445,-0.83293c-0.08198,-0.70501 1.39623,-0.94612 1.73123,-1.56843c0.37542,-0.69739 0.63828,-1.24275 1.51117,-1.41607c0.81584,-0.162 1.44606,-0.22841 2.25403,-0.56218c1.01418,-0.41894 1.58178,-1.0506 2.42067,-1.06176c0.86283,-0.01149 1.68672,-0.1446 2.31382,-0.37675c0.96367,-0.35675 2.14801,-0.61875 1.85223,-1.08243c-0.45448,-0.71245 -1.98105,-0.42258 -1.9082,-0.06083c0.09902,0.49162 1.23121,0.27361 2.06068,0.38266c1.28566,0.16903 2.10104,0.20895 2.85252,0.2331c0.67459,0.02168 1.87195,-0.36415 2.58794,0.06909c0.6346,0.38399 0.34933,1.41725 0.29909,2.07923l-0.2164,0.88061l-0.27731,0.67792" fill="#d4aaff" id="svg_2" stroke="#000000" stroke-dasharray="null" stroke-linecap="null" stroke-linejoin="null" stroke-opacity="0" stroke-width="6"/>
  <text fill="#00007f" font-family="Serif" font-size="24" font-weight="bold" id="svg_3" stroke="#000000" stroke-dasharray="null" stroke-linecap="null" stroke-linejoin="null" stroke-opacity="0" stroke-width="0" text-anchor="middle" transform="matrix(1.60736 0 0 1.49302 -129.991 -46.7289)" x="297.5" xml:space="preserve" y="119.5">A World-Class Curriculum</text>
 </g>
</svg>