<svg width="640" height="480" xmlns="http://www.w3.org/2000/svg" xmlns:svg="http://www.w3.org/2000/svg">
 <!-- Created with SVG-edit - https://github.com/SVG-Edit/svgedit-->
 <g class="layer">
  <title>Layer 1</title>
  <rect fill="#00ffff" height="0" id="svg_12" stroke="#000000" stroke-dasharray="null" stroke-linecap="null" stroke-linejoin="null" stroke-opacity="0" stroke-width="null" width="1" x="127.5" y="61.5"/>
  <rect fill="#5656ff" height="111" id="svg_24" stroke="#000000" stroke-dasharray="5,5" stroke-linecap="null" stroke-linejoin="null" stroke-width="5" width="0" x="91.5" y="45.5"/>
  <path d="m78.5,47.51069c2.52084,0 3.54433,0 4.35733,0c0.75201,0 1.209,0 2.97601,0c0.73983,0 1.55866,0 2.4555,0c0.97383,0 2.02367,0 3.1485,0c1.19884,0 2.47066,0 5.22933,0c1.48167,0 3.01334,0 4.575,0c1.57166,0 3.13333,0 4.665,0c1.48167,0 2.89333,0 5.42667,0c1.08683,0 2.05466,0 2.9145,0c0.76283,0 1.43967,0 2.0415,0c0.53783,0 1.02267,0 1.87733,0c0.39017,0 0.76134,0 1.1145,0c0.33617,0 0.65633,0 0.9615,0c0.29117,0 0.56933,0 1.09067,0c0.24583,0 0.48666,0 0.7275,0c0.24583,0 0.50166,0 0.7725,0c0.60667,0 1.752,0 2.67733,0c0.49067,0 1.488,0 2.45333,0c1.25001,0 1.90734,0 2.69334,0c1.0425,0 2.00667,0 2.95866,0c0.76801,0 1.72,0 2.48534,0c1.00317,0 1.85583,0 2.8205,0c0.83551,0 1.46083,-0.00006 2.15018,0c1.17099,0.0001 2.04317,-0.00545 2.96967,0.02407c0.96858,0.03086 1.47095,0.04565 2.95799,0.23166c0.50159,0.06274 1.47945,0.23489 1.95866,0.32197c0.92819,0.16866 2.20313,0.40058 2.97101,0.47911c0.69479,0.07106 1.66167,0.0935 2.8705,0.09869c0.59566,0.00256 1.4758,-0.02194 2.53349,0.09619c0.74376,0.08307 1.5332,0.28182 2.192,0.41595c1.27608,0.2598 1.79269,0.34817 2.90134,0.53611c0.57233,0.09703 1.14336,0.19461 2.25333,0.35587c0.98387,0.14294 1.79134,0.25432 2.75751,0.30483c0.82407,0.04309 2.0305,0.02407 2.71317,0.02407c0.69867,0 2.01601,0 2.84399,0c0.75601,0 1.83867,0 2.47601,0c0.70132,0 1.45067,0 2.23199,0c1.19701,0 2.37599,0 3.12534,0c0.70132,0 1.90266,0 2.65117,0c0.70349,0 1.71683,0 2.70833,0c0.41116,0 1.3965,0 2.64583,0c0.73767,0 1.54134,0 2.397,0c0.89366,0 1.81134,0 2.739,0c0.92368,0 1.82933,0 3.53067,0c0.77083,0 1.48666,0 2.1525,0c0.62083,0 1.20168,0 2.26334,0c1.4175,0 1.86284,0 2.73151,0c0.85266,0 1.70532,0 3.01933,0c0.916,0 1.3815,0 2.3125,0c0.911,0 2.1875,0 2.95016,0c0.69867,0 1.66167,0 2.57066,0c0.918,0 1.58333,0 2.32866,0c1.33801,0 1.85684,0 2.98651,0c0.59683,0 1.20566,0 2.43134,0c0.60283,0 2.28867,0 2.79483,0c0.92934,0 1.75467,0 2.48399,0c1.20801,0 1.9955,0 2.828,0c1.01067,0 1.80467,0 2.64667,0c0.842,0 2,0 2.9375,0c0.80251,0 1.89583,0 2.53583,0c0.72,0 1.52,0 2.40001,0c1.47166,0 2.01334,0 2.595,0c0.63167,0 2.08499,0 2.92667,0c0.93166,0 3.105,0 4.36133,0c1.35434,0 2.78467,0 4.269,0c1.51633,0 3.04266,0 4.55701,0c1.48032,0 4.25101,0 5.50266,0c1.16168,0 2.24335,0 3.255,0c0.95166,0 1.85333,0 2.715,0c0.83167,0 2.44501,0 3.24451,0c0.79651,0 1.58701,0 2.3685,0c0.7695,0 1.52399,0 2.2605,0c0.71552,0 2.0715,0 2.70667,0c0.60617,0 1.18433,0 1.7355,0c0.52518,0 1.02533,0 1.5015,0c0.45319,0 1.29449,0 1.68466,0c0.37119,0 0.72433,0 1.06052,0c0.32016,0 0.62534,0 0.9165,0c0.27817,0 0.7995,0 1.04449,0c0.45999,0 1.26001,0 2.28568,0c0.94049,0 1.80676,-0.03164 2.71933,0.02407c0.7803,0.04764 1.7829,0.22899 2.59265,0.386c0.44354,0.08601 1.3898,0.2786 1.89468,0.37088c1.58939,0.29051 2.14874,0.36777 3.29099,0.51733c0.58389,0.07645 1.18008,0.14572 1.785,0.21837c1.24017,0.14893 2.52072,0.31095 3.17435,0.40208c0.66107,0.09217 1.32379,0.18897 2.63733,0.39207c0.64487,0.09971 1.27451,0.20099 1.88699,0.29809c1.69122,0.26812 2.20752,0.35355 3.24268,0.48989c0.53546,0.07053 1.71179,0.19612 2.37598,0.25111c1.53348,0.12697 2.42798,0.17612 3.39468,0.23108c1.02396,0.05821 2.09042,0.11181 3.18298,0.16205c1.10214,0.05068 2.19839,0.09705 3.27301,0.13605c2.01819,0.07324 2.93506,0.09643 3.79068,0.11554c0.80341,0.01795 1.56396,0.02984 2.2905,0.03726c0.70145,0.00717 1.38699,0.01016 2.06549,0.01126c1.37201,0.00223 2.08084,0.00077 2.80267,0.00077c0.72781,0 1.45465,0 2.17349,0c0.70383,0 1.38568,0 2.03851,0c1.19064,0 1.71631,0 2.19598,0c0.43768,0 1.53867,0 2.13602,0c1.23032,0 2.03033,0 2.93481,0c0.95718,0 1.85733,0 2.64252,0c0.97198,0 1.63348,0 2.75748,0c0.66702,0 1.37802,0 2.47452,0c1.06116,0 1.72549,0 2.672,0c1.21066,0 1.81143,0.01219 2.71066,-0.01203c0.90134,-0.02428 1.80219,-0.11037 2.70001,-0.23368c0.6015,-0.08262 1.79816,-0.24455 2.69098,-0.30156c0.83554,-0.05336 1.78128,-0.11897 2.58817,-0.31928c0.8483,-0.21059 1.52069,-0.28283 2.49966,-0.28885c0.83096,-0.00511 1.79184,0 2.56284,0c0.86102,0 1.75818,0 2.64767,0c0.85352,0 1.88901,0.00004 2.76901,0c1.01999,-0.00005 1.59601,-0.24134 2.26315,-0.50751c0.72974,-0.29115 1.7146,0.10799 2.41449,0.241c0.8114,0.15419 1.58023,-0.08589 2.56418,-0.36906c0.82547,-0.23756 1.48865,-0.45023 2.22116,-0.70538c0.80789,-0.28141 1.31305,-0.52427 2.41202,-0.7773c0.69775,-0.16065 1.67645,-0.19207 2.80914,-0.19247c0.65836,-0.00023 1.34299,-0.02466 2.30417,0.0492c1.00833,0.07748 1.67987,0.39728 2.45334,0.75332c0.75082,0.34562 1.57236,0.39751 2.37335,0.51685c0.81174,0.12094 1.44421,0.23214 2.56,0.31735c0.83398,0.06369 1.73849,0.07934 2.68799,0.09012c0.48761,0.00554 1.97867,0.00674 2.47882,0.00606c1.00433,-0.00135 2.02084,-0.00933 2.53586,-0.0207c1.04971,-0.02318 2.13211,-0.06806 3.25064,-0.14481c0.57584,-0.03951 1.16202,-0.08561 2.36002,-0.20797c0.61609,-0.06293 1.24237,-0.13248 2.51999,-0.30041c0.65579,-0.08619 1.98181,-0.28008 2.64801,-0.38051c0.66479,-0.10022 1.32352,-0.20288 1.97549,-0.30156c1.87512,-0.28383 2.46588,-0.3654 3.03384,-0.44329c1.06076,-0.14548 2.01328,-0.26839 2.43832,-0.33555c1.36102,-0.21505 1.95038,-0.47728 2.90433,-0.65733c0.80417,-0.15178 1.86771,-0.18953 2.49469,-0.01309c1.03555,0.29141 1.35342,0.73269 1.83865,1.09629c0.50458,0.37809 1.1835,0.93271 1.52802,1.26305c0.5416,0.51933 0.46133,1.16079 1.13864,1.50511c0.638,0.32434 1.63943,0.05399 2.50534,0.11708c0.88351,0.06437 1.59299,0.24129 2.43701,0.35317c1.1825,0.15675 1.7923,0.16531 2.69098,0.21837c1.20206,0.07097 1.80035,0.14264 2.65836,0.27422c0.77386,0.11868 1.74982,0.25842 2.51849,0.31928c1.23065,0.09743 1.64923,0.13611 2.60315,0.21529c1.07266,0.08904 1.64166,0.13272 2.22668,0.16792c1.79083,0.10776 2.392,0.11623 2.98883,0.13624c1.18369,0.03969 1.76981,0.05527 2.34732,0.09128c1.69537,0.10572 2.24097,0.18036 3.2955,0.34662c0.51788,0.08165 1.51517,0.27447 2,0.37088c1.39542,0.2775 2.27213,0.44591 3.11502,0.57857c0.40369,0.06353 1.55569,0.22564 2.62515,0.30339c0.66223,0.04814 1.61078,0.06653 2.22018,0.06942c1.20261,0.0057 2.12216,0.00077 2.75848,0.00077c1.00949,0 2.09576,-0.00317 2.84283,0.01204c0.74777,0.01522 1.83676,0.07369 2.51334,0.15203c0.95047,0.11004 1.79077,0.28076 2.79999,0.36434c0.83478,0.06913 1.80667,0.0493 2.61084,0.0493c1.06216,0 1.81351,0 2.70084,0c0.48965,0 1.55099,0 2.70834,0c0.61066,0 1.90799,0 2.60266,0c0.73065,0 1.50134,0 2.31601,0c0.86264,0 2.74799,0 3.77631,0c1.07834,0 2.19669,0 3.345,0c1.16833,0 2.34665,0 3.52499,0c1.16833,0 3.435,-0.0003 4.5152,0.0001c1.04114,0.00038 2.04431,0.00123 3.0105,0.00606c0.93018,0.00465 1.82544,0.01229 2.68646,0.02686c0.82831,0.01402 2.38995,0.06015 3.12421,0.09484c0.70306,0.03322 1.3717,0.07395 2.00397,0.11785c0.59503,0.04132 1.14954,0.08558 1.66205,0.12825c0.46881,0.03903 1.26575,0.10837 1.5918,0.13355c0.28064,0.02168 0.52124,0.03967 0.72748,0.04939c0.57251,0.02699 1.41602,0.0208 2.44617,0.0208c0.61652,0 1.66718,0 2.64819,0c0.72736,0 1.49469,-0.00058 2.68567,0c0.79602,0.00039 1.5694,-0.00904 2.29199,0.0208c1.21198,0.05005 2.17737,0.18948 2.54132,0.74947c0.23755,0.36545 0.32935,0.9888 -0.18597,1.44407c-0.43549,0.38471 -0.87561,0.85819 -1.14734,1.25188c-0.38861,0.56302 -0.45776,1.01607 -1.02081,1.44426c-0.59106,0.44953 -1.27545,0.71335 -2.02203,0.92442c-0.70306,0.19876 -1.54828,0.34128 -2.53564,0.70547c-0.7171,0.26451 -1.28455,0.61798 -2.12152,0.95725c-0.57916,0.23478 -1.39398,0.44016 -2.38647,0.5598c-0.75354,0.09083 -0.48413,0.4437 0.57184,0.53794c0.71967,0.06422 1.51453,0.06189 2.30396,0.06759c1.04395,0.00754 1.97736,0.0026 2.87738,0.0026c0.875,0 1.51996,0 2.51599,0c0.79651,0 1.98401,-0.00265 2.77563,0c0.92041,0.00308 0.91547,0.3269 0.31238,0.46293c-0.95306,0.21498 -1.86505,0.29197 -2.37201,0.35202c-1.12305,0.13303 -1.73602,0.19886 -2.37604,0.27421c-1.35693,0.15975 -2.06543,0.24937 -3.50549,0.4407c-0.71497,0.09499 -1.41296,0.1912 -2.08649,0.28336c-0.63953,0.08751 -2.26917,0.29207 -3.02802,0.40054c-0.7901,0.11293 -0.29437,0.51918 0.40399,0.76103c0.50262,0.17408 1.49933,0.43039 2.38269,0.47911c1.00616,0.0555 1.89386,-0.1411 2.7887,0.14028c0.71088,0.22353 0.07587,0.70689 -0.67737,0.88716c-1.11383,0.26657 -1.60614,0.32846 -2.66852,0.51733c-0.56873,0.10111 -1.15277,0.20096 -2.32599,0.40131c-0.57141,0.09758 -2.12061,0.36319 -2.56213,0.44329c-0.78009,0.14151 -1.93695,0.15042 -2.76801,0.62623c-0.50146,0.28712 0.40002,0.44779 0.97467,0.47756c1.54956,0.08028 2.01422,0.11207 3.02533,0.18911c0.54279,0.04136 1.69165,0.12989 2.29468,0.17023c0.61835,0.04136 1.89551,0.11215 3.21466,0.15598c0.67157,0.02232 1.35077,0.03793 2.03546,0.05979c0.69,0.02203 1.38513,0.04249 2.08051,0.08579c2.10376,0.13098 2.79565,0.22757 3.48517,0.30965c0.6825,0.08125 1.35083,0.17066 2.00549,0.2565c1.25171,0.16412 2.4057,0.30781 3.44403,0.39361c0.4646,0.03839 2.31549,-0.303 2.53418,0.22588c0.15503,0.37483 -1.09943,0.39352 -2.37817,0.63538c-0.52057,0.09847 -1.70325,0.29882 -2.3587,0.40401c-0.69385,0.11135 -1.42615,0.22428 -2.19598,0.33536c-1.63495,0.23591 -2.49976,0.34711 -3.38135,0.45985c-0.88641,0.11335 -1.76764,0.22138 -2.63098,0.32409c-0.83264,0.09906 -1.62354,0.19057 -2.36102,0.2721c-1.26312,0.13963 -1.77283,0.18137 -2.54498,0.26622c-0.92493,0.10164 -1.3302,0.52194 -2.07898,0.75669c-0.72223,0.22644 -1.4198,0.30146 -2.64001,0.46216c-0.95227,0.12542 -1.47076,0.17568 -2.5625,0.28885c-0.56915,0.059 -1.15082,0.1162 -2.9375,0.28885c-0.59912,0.05789 -1.19318,0.11534 -2.34668,0.22492c-0.54907,0.05216 -1.56598,0.15243 -2.82001,0.2565c-0.84198,0.06988 -1.88538,0.29408 -1.40533,0.50992c0.81097,0.36462 1.8266,0.15022 2.32202,0.16407c0.5553,0.01552 1.85437,0.04449 3.41669,0.09628c0.88391,0.0293 1.82928,0.06755 2.82898,0.10746c1.04565,0.04174 2.12921,0.0861 3.24298,0.12825c1.13556,0.04298 2.28473,0.08918 4.59467,0.14943c1.14325,0.02982 2.26794,0.04879 3.3645,0.06326c1.05945,0.01398 2.073,0.02202 3.03149,0.02686c0.89453,0.00452 1.716,0.00565 3.104,0.00616c0.55151,0.0002 1.01202,-0.00052 1.3905,0.0026c0.3056,0.00252 0.54761,0.00576 0.73352,0.0182c0.14117,0.00945 0.7832,0.23527 0.2453,0.50761c-0.4826,0.24433 -1.27197,0.04891 -2.7948,0.0493c-0.66516,0.00017 -1.38635,0 -2.14648,0c-0.78217,0 -1.56934,0 -2.34454,0c-0.74615,0 -2.64532,0 -3.13812,0c-1.1745,0 -1.81421,0 -3.14185,0c-0.77234,0 -1.53265,0 -2.19299,0c-0.23553,0 0.30646,0 1.79816,0c0.42065,0 1.26599,-0.00006 2.06335,0c1.3653,0.0001 0.85663,0.18771 0.17133,0.41267c-0.56396,0.18513 -1.18701,0.41582 -2.31,0.74273c-0.82556,0.24033 -1.26508,0.3515 -2.16669,0.55363c-0.88812,0.19911 -2.16248,0.42132 -2.9267,0.50395c-0.67676,0.07317 -1.63812,-0.01696 -2.59998,0.26189c-0.75385,0.21855 0.02148,0.41234 0.85999,0.41364c0.79071,0.00123 1.72534,0 2.74805,0c0.52679,0 2.08533,0 2.57532,0c0.91998,0 1.76001,0 2.52002,0c1.27948,0 2.13745,0.08057 2.13745,0c0,-0.38561 -1.81433,-0.00838 -2.70514,0.0026c-0.83746,0.01032 -1.9223,-0.02908 -2.54651,0.31032c-0.65192,0.35446 -0.47095,0.91133 0.12152,1.18988c0.96271,0.4526 1.59033,0.46748 2.15979,0.57174c1.25146,0.2291 1.93195,0.31426 2.62067,0.40131c0.68866,0.08704 2.03302,0.23185 3.27551,0.31408c0.57404,0.03798 1.63483,0.07743 2.12,0.08627c0.87976,0.01604 3.09204,0.48375 3.09204,0.01232c0,-0.28078 -1.34406,0 -1.98938,0c-1.19067,0 -2.10675,-0.03023 -3.07867,0.00077c-0.77136,0.02461 -1.65503,0.10865 -2.31464,0.46216c-0.67346,0.36092 0.11328,0.68939 0.97382,0.69248c0.7395,0.00265 1.62299,0 2.62354,0c1.07697,0 1.79163,-0.0002 2.46631,0c1.30835,0.00039 2.09967,0.197 1.48651,0.37397c-0.81744,0.23592 -1.8277,0.18785 -2.55151,0.21837c-0.77216,0.03256 -1.96936,0.10747 -2.75897,0.18911c-0.7691,0.07952 -1.48901,0.18963 -2.76569,0.30387c-0.74719,0.06686 -2.2207,0.23114 -1.82135,0.5777c0.47668,0.41366 1.8338,0.23221 2.47534,0.32197c0.69995,0.09794 1.4245,0.20469 2.8147,0.4406c0.63208,0.10726 1.4588,0.28154 2.51465,0.41364c0.48676,0.06089 -0.34918,0.04929 -1.17249,0.04929c-0.60168,0 -1.85425,-0.00483 -2.97021,0.00309c-0.6405,0.00454 -1.33246,0.01681 -2.07147,0.04505c-0.7851,0.03001 -1.61383,0.0725 -2.4765,0.14905c-1.84296,0.16355 -2.80206,0.30621 -3.77332,0.46139c-0.97528,0.15581 -1.92731,0.33346 -2.8335,0.53293c-0.86316,0.19001 -1.66455,0.38023 -2.3385,0.61092c-1.09735,0.37561 -1.44574,0.59547 -1.58405,0.80494c-0.11816,0.17898 0.45044,0.73051 0.87085,0.88099c0.49188,0.17607 1.81848,0.46697 2.61401,0.60082c0.85638,0.14409 1.76776,0.26885 2.70447,0.38994c0.94031,0.12156 1.86823,0.23054 2.75854,0.33796c0.83368,0.10059 2.25061,0.27559 2.78766,0.36983c0.78467,0.1377 1.32825,0.47382 1.8938,0.81504c0.64404,0.38858 1.62225,0.39507 2.61737,0.51685c0.63477,0.07769 1.30005,0.18867 2.61334,0.31735c0.80206,0.07859 1.90454,0.18912 1.56262,0.47026c-0.53308,0.43837 -2.13959,0.19545 -2.04883,0.64375c0.11493,0.56744 1.10541,0.64537 1.99017,0.88301c0.96558,0.25936 1.70245,0.33414 2.72516,0.386c0.79144,0.04013 0.72101,-0.06372 -0.25983,0.03024c-0.86688,0.08304 -1.74719,0.58352 -1.54932,1.03371c0.20831,0.47393 1.23425,0.71076 1.92767,0.86395c0.79437,0.17552 1.98346,0.32118 2.58301,0.3577c0.85864,0.05231 1.63196,0.04698 2.86096,0.04929c0.82819,0.00156 0.62091,0.25592 0.07104,0.44002c-0.95441,0.31955 -1.74365,0.61958 -2.30402,0.7955c-1.03943,0.32632 -1.88092,0.26237 -2.65332,0.54535c-0.67316,0.24661 -0.15533,0.52767 -1.11688,0.53004c-0.51898,0.00128 -1.22614,0.0094 -2.19299,0.03292c-0.60358,0.01469 -2.09552,0.06253 -2.99646,0.09484c-0.98706,0.0354 -2.03607,0.07557 -3.12305,0.11786c-1.10101,0.04283 -2.19196,0.08627 -3.24896,0.12825c-0.99902,0.03968 -2.72705,0.10716 -3.414,0.13373c-0.56903,0.02201 -1.03259,0.03871 -1.401,0.06153c-0.28754,0.01781 -1.34247,0.37951 -0.992,0.83575c0.33801,0.43996 1.51331,0.32506 2.41333,0.32813c0.90009,0.00309 1.60858,0.25981 2.5,0.48142c0.71124,0.17681 1.66858,0.08118 2.51886,0.12931c0.81787,0.0463 1.81329,0.17385 2.60614,0.26786c0.44019,0.0522 1.41754,0.1669 2.54169,0.27682c0.61804,0.06044 1.94836,0.17379 2.64532,0.23108c0.70868,0.05826 1.42273,0.11519 2.13446,0.17331c0.70294,0.05741 2.05432,0.17046 3.29352,0.28808c0.57538,0.05462 1.63489,0.16255 2.12,0.21105c0.87976,0.08795 2.41962,0.0008 2.9942,0.25188c0.37634,0.16445 -0.3764,0.42414 -1.4967,0.63538c-0.65289,0.12311 -1.66766,0.27626 -2.30414,0.35519c-1.18555,0.14701 -2.02008,0.15883 -2.82269,0.16561c-0.75165,0.00636 -1.57581,-0.01146 -2.76898,0.20557c-0.63446,0.11541 -1.52063,0.54146 -2.21436,0.74274c-0.84772,0.24598 -1.76331,0.20595 -2.66467,0.20633c-0.80798,0.00034 -1.78949,0 -2.65045,0c-0.46954,0 -1.44153,0 -2.39752,0c-1.24915,0 -1.91949,0 -2.79999,0c-1.23468,0 -1.99335,0 -2.86401,0c-0.47485,0 -1.49847,0 -2.04535,0c-1.76746,0 -2.38934,0 -3.01715,0c-0.62683,0 -1.84949,0 -2.43134,0c-1.54352,0 -2.35547,0 -3.03949,0c-0.94348,0 -2.00403,0 -2.87201,0c-0.4715,0 -1.44452,0 -2.39749,0c-1.2345,0 -1.84384,0 -2.68649,0c-0.92468,0 -1.67468,0 -2.60468,0c-1.11002,0 -1.94601,0 -2.83801,0c-0.4595,0 -1.3905,0 -2.772,0c-0.884,0 -1.75198,0 -2.1875,0c-0.88898,0 -2.3125,0 -2.8215,0c-1.05399,0 -1.58698,0 -2.63498,0c-0.98401,0 -2.237,0 -2.90302,0c-0.849,0 -1.953,0 -2.58899,0c-0.69202,0 -1.7825,0 -2.86401,0c-0.68134,0 -1.64581,0 -2.26215,0c-1.2045,0 -2.10452,0 -2.7045,0c-1.20001,0 -2.091,0 -2.92801,0c-0.93866,0 -1.85068,0 -2.672,0c-0.89999,0 -1.84271,-0.07511 -2.70035,0.12786c-0.76938,0.18208 -1.66766,0.40131 -2.39966,0.44984c-0.73199,0.04853 -1.6358,0.27968 -2.66666,0.48142c-0.63602,0.12448 -1.67642,0.04262 -2.45868,0.11708c-0.88187,0.08394 -1.70972,0.37609 -2.62201,0.52648c-0.90884,0.14983 -1.59164,0.27872 -2.35397,0.49336c-0.80188,0.22578 -1.57788,0.48452 -2.59851,0.62238c-0.76801,0.10374 -1.76379,0.21358 -2.3895,0.40208c-0.8912,0.26849 -1.66956,0.48909 -2.5105,0.75333c-0.74768,0.23493 -1.18961,0.68833 -1.92102,0.92462c-0.77359,0.24991 -1.64758,0.29846 -2.52216,0.42884c-0.73581,0.10969 -1.56647,0.27826 -2.457,0.44974c-0.90945,0.17513 -1.54321,0.29837 -2.21432,0.43742c-1.12164,0.23238 -1.957,0.41965 -2.85767,0.62324c-0.47003,0.10625 -1.4371,0.32828 -1.93066,0.44214c-1.49747,0.34544 -1.99677,0.46028 -2.98666,0.69248c-0.49023,0.11499 -1.45486,0.34478 -1.92535,0.46216c-1.36798,0.3413 -2.23285,0.57748 -2.66,0.69324c-0.85101,0.23063 -1.70624,0.46613 -2.59198,0.69324c-0.91425,0.23442 -1.85736,0.45792 -2.33334,0.56567c-0.94476,0.21389 -1.40948,0.32063 -2.77817,0.57732c-0.85178,0.15975 -1.66116,0.28568 -2.40298,0.41421c-0.98801,0.17118 -1.81708,0.35805 -2.64151,0.52254c-0.61218,0.12213 -1.76089,0.29472 -2.69699,0.40179c-0.50195,0.05741 -1.55005,0.15905 -2.08401,0.20066c-1.56042,0.12159 -2.05283,0.14384 -2.991,0.17331c-0.90472,0.02842 -1.81067,0.03121 -2.27335,0.03225c-1.47449,0.00331 -1.99866,0.00077 -3.07199,0.00077c-0.53915,0 -1.5975,0 -3.06,0c-0.43784,0 -1.2915,0 -2.22916,0c-0.54285,0 -1.15768,0 -1.86151,0c-1.74268,0 -2.8085,0 -3.98932,0c-1.27084,0 -2.60669,0 -3.98251,0c-1.39084,0 -2.77167,0 -4.11749,0c-2.48666,0 -3.58417,0 -4.58667,0c-0.92252,0 -1.78,0 -2.58749,0c-0.77252,0 -1.52502,0 -2.27252,0c-1.53998,0 -2.35831,0 -3.20667,0c-0.86832,0 -1.74664,0 -2.625,0c-0.86832,0 -1.71664,0 -2.535,0c-1.50665,0 -2.17764,0 -2.79465,0c-0.569,0 -1.09601,0 -1.58701,0c-0.461,0 -0.89801,0 -1.31699,0c-0.80801,0 -1.20752,0 -1.604,0c-0.3905,0 -0.772,0 -1.14151,0c-0.69101,0 -1.79868,0 -2.58334,0c-1.14581,0 -1.84048,0 -2.78314,0c-0.59186,0 -1.27869,0 -2.0715,0c-0.90985,0 -3.12451,0 -4.44934,0c-1.47385,0 -3.09567,0 -4.8645,0c-1.91483,0 -3.97467,0 -6.1785,0c-2.34683,0 -7.46552,0 -10.23083,0c-2.87735,0 -5.83868,0 -8.85602,0c-3.04532,0 -6.09064,0 -9.10797,0c-2.96133,0 -8.604,0 -11.23636,0c-2.50632,0 -4.90067,0 -7.19699,0c-2.21234,0 -4.35468,0 -6.44101,0c-2.04431,0 -6.06299,0.00058 -8.06082,-0.00019c-1.98483,-0.00077 -3.9437,-0.00253 -5.86349,-0.01213c-1.86786,-0.00934 -3.67093,-0.02433 -5.39551,-0.05373c-1.63409,-0.02786 -4.57779,-0.11832 -5.86349,-0.18968c-1.17032,-0.06495 -2.23335,-0.14673 -3.201,-0.2357c-0.88829,-0.08167 -1.70407,-0.1723 -2.463,-0.2565c-0.71307,-0.07912 -2.04787,-0.21984 -2.69467,-0.2671c-0.63866,-0.04666 -1.27695,-0.07786 -1.91699,-0.09878c-0.64536,-0.02109 -1.30128,-0.03106 -1.97101,-0.0364c-0.68764,-0.00548 -2.133,-0.0052 -2.89783,-0.0052c-0.79384,0 -1.61566,0 -2.46451,0c-0.87483,0 -1.77466,0 -2.69849,0c-0.94684,0 -2.9055,0 -3.91484,0c-1.02533,0 -2.06267,0 -3.108,0c-1.04933,0 -2.09866,0 -3.144,0c-1.03734,0 -3.07201,0 -4.063,0c-0.97701,0 -1.946,0 -2.91299,0c-0.97101,0 -1.952,0 -2.94901,0c-1.019,0 -3.147,0 -4.26534,0c-1.14833,0 -2.31667,0 -3.495,0c-1.17833,0 -2.34666,0 -3.495,0c-1.11833,0 -3.22501,0.00092 -4.1965,-0.00029c-0.9205,-0.00115 -1.79916,-0.00379 -2.6445,-0.01819c-0.82172,-0.01401 -1.62889,-0.03798 -2.4285,-0.08059c-0.80453,-0.04287 -2.45746,-0.18402 -3.32034,-0.28481c-0.89598,-0.10466 -1.81699,-0.23208 -2.7645,-0.37175c-0.97624,-0.1439 -1.97501,-0.30201 -2.9985,-0.46534c-1.04718,-0.16711 -3.20477,-0.51368 -4.3145,-0.68526c-1.12228,-0.17352 -2.25316,-0.34352 -3.38699,-0.5078c-1.12817,-0.16346 -2.24701,-0.31984 -3.351,-0.46621c-1.08005,-0.1432 -3.15211,-0.3961 -4.13301,-0.50346c-0.93916,-0.1028 -1.8399,-0.1927 -2.7,-0.27817c-0.8199,-0.08148 -1.60075,-0.15702 -2.34,-0.23657c-0.70074,-0.0754 -1.98225,-0.23702 -2.56117,-0.33112c-0.55042,-0.08946 -1.07129,-0.1898 -1.5735,-0.29116c-0.49213,-0.09933 -0.97623,-0.20363 -1.4655,-0.30156c-0.49606,-0.09929 -1.54472,-0.28486 -2.11082,-0.36463c-0.58858,-0.08294 -1.20189,-0.15507 -1.83301,-0.2227c-0.64357,-0.06896 -1.2984,-0.13112 -1.959,-0.19151c-0.66206,-0.06053 -1.97717,-0.17523 -2.62216,-0.23378c-0.63635,-0.05777 -1.26476,-0.11661 -1.8855,-0.17937c-0.6156,-0.06223 -1.22609,-0.12807 -1.8315,-0.20018c-0.60393,-0.07193 -1.80545,-0.23446 -2.40401,-0.32582c-0.59747,-0.0912 -1.18719,-0.18852 -1.76849,-0.2851c-0.5697,-0.09466 -1.12332,-0.18859 -1.66051,-0.27469c-0.51486,-0.08253 -1.47025,-0.22114 -1.90683,-0.2697c-0.40625,-0.04518 -0.78812,-0.07719 -1.146,-0.09878c-0.33488,-0.0202 -0.65056,-0.03091 -0.948,-0.0364c-0.28127,-0.0052 -0.804,-0.00491 -1.04967,-0.0053c-0.23967,-0.00038 -0.4774,-0.00142 -0.71701,-0.00606c-0.24574,-0.00476 -0.50154,-0.01313 -0.771,-0.02686c-0.28792,-0.01467 -0.93335,-0.06193 -1.29733,-0.09494c-0.39073,-0.03545 -0.80296,-0.07745 -1.233,-0.12392c-0.44464,-0.04805 -0.89893,-0.10019 -1.35899,-0.15511c-0.4626,-0.05522 -1.37718,-0.17025 -1.82317,-0.22858c-0.44336,-0.05799 -0.89032,-0.11809 -1.34851,-0.17937c-0.47615,-0.06369 -0.97714,-0.13066 -1.5105,-0.20018c-0.57197,-0.07455 -1.86132,-0.23705 -2.59,-0.32602c-0.77932,-0.09516 -1.60109,-0.19365 -2.4555,-0.29723c-0.8786,-0.1065 -1.77238,-0.21543 -2.6715,-0.32842c-0.89688,-0.11271 -2.64511,-0.34255 -3.48017,-0.45947c-0.81026,-0.11344 -1.59727,-0.22872 -2.367,-0.34056c-0.75562,-0.1098 -1.5006,-0.21823 -2.241,-0.31976c-0.73695,-0.10105 -2.22208,-0.28616 -2.97917,-0.36742c-0.77225,-0.08288 -1.57002,-0.15882 -2.3985,-0.23483c-0.86584,-0.07944 -1.77747,-0.15894 -2.7405,-0.24523c-1.02231,-0.09161 -3.27199,-0.30079 -4.50883,-0.42346c-1.30186,-0.12912 -2.65112,-0.26838 -4.03201,-0.41508c-1.39778,-0.14849 -2.79516,-0.30125 -4.17599,-0.45667c-1.34982,-0.15194 -3.88868,-0.44962 -5.0485,-0.59302c-1.08414,-0.13403 -2.09366,-0.26409 -3.0315,-0.38994c-0.87112,-0.1169 -1.67661,-0.2297 -2.4195,-0.33796c-0.68506,-0.09983 -1.88883,-0.28526 -2.41433,-0.36973c-0.48115,-0.07734 -0.92146,-0.15064 -1.3275,-0.21664c-0.37564,-0.06106 -0.72591,-0.11729 -1.0575,-0.16465c-0.31513,-0.045 -0.92196,-0.11481 -1.222,-0.13884c-0.29601,-0.0237 -0.58695,-0.03992 -0.8685,-0.05546c-0.26946,-0.01488 -0.52443,-0.02727 -0.7605,-0.04506c-0.21593,-0.01627 -0.57564,-0.06049 -0.70734,-0.09753c-0.115,-0.03235 -0.20595,-0.07612 -0.2775,-0.12392c-0.07023,-0.04692 -0.12565,-0.10129 -0.1875,-0.15511c-0.06477,-0.05635 -0.22844,-0.17341 -0.34234,-0.22839c-0.1246,-0.06015 -0.27307,-0.11574 -0.4395,-0.16724c-0.17721,-0.05483 -0.37283,-0.10381 -0.5835,-0.14645c-0.22005,-0.04455 -0.69974,-0.11267 -0.95534,-0.13624c-0.26313,-0.02427 -0.53555,-0.0404 -0.8145,-0.05546c-0.28472,-0.01538 -0.57484,-0.02822 -0.8685,-0.04506c-0.29703,-0.01704 -0.89632,-0.06335 -1.1955,-0.09753c-0.30089,-0.03437 -0.60075,-0.07677 -0.89999,-0.12392c-0.30077,-0.04739 -0.60043,-0.10012 -0.9,-0.15511c-0.30044,-0.05516 -0.89995,-0.1708 -1.19967,-0.22839c-0.29762,-0.05718 -0.59113,-0.11341 -0.879,-0.16724c-0.27946,-0.05226 -0.54893,-0.10167 -0.807,-0.14645c-0.24329,-0.04222 -0.68056,-0.11113 -0.872,-0.13633c-0.17661,-0.02325 -0.34611,-0.04185 -0.513,-0.06153c-0.17112,-0.02018 -0.3526,-0.04255 -0.549,-0.07192c-0.2197,-0.03285 -0.7476,-0.12812 -1.0665,-0.19238c-0.35717,-0.07197 -0.74669,-0.15474 -1.1685,-0.24176c-0.44918,-0.09267 -0.92294,-0.18904 -1.4205,-0.28337c-0.51442,-0.09753 -1.59027,-0.28094 -2.14567,-0.36203c-0.55796,-0.08146 -1.11794,-0.15378 -1.6725,-0.2227c-0.54378,-0.06759 -1.07357,-0.12954 -1.5825,-0.19151c-0.48439,-0.05898 -1.3588,-0.17312 -1.73817,-0.23369c-0.34591,-0.05523 -0.65879,-0.11319 -0.942,-0.1733c-0.26207,-0.05562 -0.50239,-0.1142 -0.726,-0.17331c-0.2137,-0.0565 -0.61753,-0.17386 -0.81983,-0.23137c-0.21235,-0.06037 -0.44316,-0.12927 -1.02734,-0.2669c-0.79382,-0.18702 -1.3068,-0.28968 -2.60416,-0.5416c-0.80004,-0.15535 -1.6928,-0.31987 -2.655,-0.49567c-1.0111,-0.18474 -2.05292,-0.37167 -3.105,-0.55806c-1.04126,-0.18448 -2.05185,-0.36337 -3.90667,-0.67938c-0.80536,-0.13721 -1.52746,-0.25685 -2.172,-0.36048c-0.57152,-0.09189 -1.07745,-0.17032 -1.524,-0.23571c-0.39153,-0.05732 -1.55667,-0.15697 -2.2415,-0.27037c-0.90939,-0.15059 -1.41546,-0.43287 -2.3265,-0.63548c-0.89598,-0.19926 -1.59489,-0.23641 -2.736,-0.51993c-0.78896,-0.19602 -0.99615,-0.6946 -0.268,-0.90353c0.91194,-0.26166 1.81825,-0.2424 2.53867,-0.3497c0.88506,-0.13183 1.53774,-0.31166 2.25017,-0.47988c0.72956,-0.17227 2.15368,-0.44804 2.8085,-0.51425c0.84816,-0.08575 2.11388,-0.22937 1.82533,-0.57568c-0.43163,-0.51803 -1.39135,-0.55096 -2.09733,-0.74408c-0.75518,-0.20658 -1.95518,-0.46953 -2.77533,-0.62228c-0.86247,-0.16064 -1.32807,-0.23274 -2.32333,-0.4145c-1.12773,-0.20595 -1.74485,-0.32992 -2.39467,-0.46216c-0.67555,-0.13749 -1.36783,-0.28041 -2.76267,-0.58695c-0.69192,-0.15206 -1.36883,-0.30241 -2.63467,-0.60543c-0.58146,-0.13919 -1.61753,-0.40217 -2.06933,-0.52532c-0.77823,-0.21214 -1.96715,-0.6356 -1.392,-0.89044c0.48569,-0.21519 1.45921,-0.32974 2.50083,-0.38321c0.77175,-0.03962 1.56462,0.03895 2.68767,-0.15848c0.70918,-0.12468 1.26828,-0.40542 2.3775,-0.63528c0.50029,-0.10367 1.67333,-0.29259 2.312,-0.39207c0.65732,-0.10238 1.32369,-0.20137 1.986,-0.29809c1.84314,-0.26917 2.3866,-0.34019 3.344,-0.48989c0.80226,-0.12544 2.17436,0.05782 2.432,-0.59234c0.17008,-0.4292 -0.88591,-0.75644 -1.50917,-1.11612c-0.55518,-0.3204 -1.84908,-0.49517 -1.7985,-1.11006c0.0336,-0.40848 1.47072,-0.61857 2.004,-0.71423c0.85248,-0.15292 2.05461,-0.25082 2.62633,-0.28626c0.9765,-0.06052 1.816,-0.36716 1.832,-0.88119c0.01619,-0.51985 0.05437,-1.04086 -0.00134,-1.56057c-0.04259,-0.39736 -0.42711,-0.97391 -0.93183,-1.30581c-0.67147,-0.44155 -1.39691,-0.71156 -2.17883,-1.01271c-0.40515,-0.15604 -1.22921,-0.45327 -2.388,-0.83882c-0.63846,-0.21243 -1.56257,-0.35262 -2.16667,-0.77027c-0.49468,-0.34201 -0.33281,-0.9352 -0.75867,-1.38649c-0.44787,-0.47462 -0.09249,-0.94556 0.48783,-1.09504c0.91241,-0.23501 1.80824,-0.30281 2.68567,-0.43742c0.91829,-0.14087 1.90154,-0.26127 2.16917,-0.78452c0.26109,-0.51048 -0.43197,-0.95152 -0.88933,-1.26556c-0.72535,-0.49804 -1.52826,-0.79577 -2.02267,-1.00607c-0.86229,-0.36678 -1.58267,-0.81569 -0.94283,-0.95735c0.88914,-0.19686 1.9388,-0.10698 2.60417,-0.5777c0.4739,-0.33526 -0.1453,-0.85443 0.05067,-1.25323c0.24166,-0.49181 -0.59195,-0.99031 -0.17733,-1.46968c0.36882,-0.42642 1.53532,-0.07482 2.488,-0.33045c0.77707,-0.20851 0.97086,-0.80709 0.75033,-1.30417c-0.18693,-0.42134 -0.47104,-0.89527 -1.09933,-1.46458c-0.43708,-0.39604 -0.90784,-0.64687 -0.715,-0.80532c0.5283,-0.43408 0.69924,-0.86981 0.95066,-1.37879c0.20535,-0.41569 0.08308,-0.79097 0.08533,-1.42963c0.00169,-0.48065 0,-0.97978 0,-1.46968c0,-0.45292 -0.40822,-1.24214 0.16667,-1.70769c0.47099,-0.38142 0.89673,-0.80165 1.26933,-1.13846c0.53188,-0.48078 1.34859,-0.18949 1.88533,0.32814c0.34953,0.33708 0.66983,0.71685 1.026,1.08493c0.616,0.6366 0.99003,1.33237 1.95267,1.3162c0.60912,-0.01023 0.91005,-0.77509 1.1,-1.20105c0.21121,-0.47363 0.38597,-0.97104 0.69983,-1.67428c0.18732,-0.41972 0.40749,-0.79351 0.61483,-1.30282c0.23324,-0.57291 0.37629,-1.27432 0.932,-1.14616c0.75819,0.17485 1.00195,0.75344 1.528,1.1816c0.65365,0.53201 1.36692,1.00236 1.704,0.71818c0.44003,-0.37096 0.13271,-0.83597 0.20533,-1.27047c0.11537,-0.69027 0.19493,-1.15138 0.52667,-1.74082c0.31651,-0.56236 1.11243,-0.35904 1.88933,-0.52282c0.81449,-0.17171 0.8084,-0.95523 0.97917,-1.42019c0.09179,-0.2499 0.26254,-0.77124 0.3995,-1.55672c0.0856,-0.49093 0.09433,-0.94813 0.174,-1.35529c0.12623,-0.64509 0.74321,-1.16614 1.34734,-0.86039c0.74021,0.37461 1.21533,0.97478 1.884,0.84268c0.74765,-0.1477 0.61919,-0.93036 1.06866,-1.32968c0.48067,-0.42704 0.48715,-0.916 0.73133,-1.26613c0.38981,-0.55896 1.61581,-0.47045 2.116,0.00077c0.38256,0.36041 0.2701,0.96505 1.118,1.3292c0.5022,0.21568 1.6722,-0.34567 2.018,-0.54352c0.77642,-0.44424 1.15838,-0.69213 1.56267,-0.92432c0.75498,-0.4336 2.02095,-0.99077 2.65867,-0.80879c0.8928,0.25477 1.55595,0.20382 1.94267,-0.13528c0.62167,-0.54511 1.04811,-1.21013 1.9,-1.09176c0.92929,0.12912 0.80677,0.76843 1,1.18314c0.20728,0.44487 0.20982,0.93081 0.9,1.69238c0.31844,0.35138 1.39457,0.48233 1.80016,0.02734c0.41325,-0.46357 0.51651,-0.88266 0.78516,-1.29069c0.40687,-0.61793 0.7625,-0.9902 1.25333,-1.50049c0.52763,-0.54855 0.83855,-0.98572 0.9185,-0.84306c0.29928,0.53396 0.4623,0.96546 0.65884,1.39149c0.28732,0.62282 0.77045,1.17438 1.58849,1.00578c0.7127,-0.14689 1.02618,-0.74936 1.34817,-1.20682c0.35776,-0.50828 0.48721,-0.77808 0.86333,-1.25939c0.54884,-0.70234 1.47089,-1.25954 2.19867,-0.93511c0.67307,0.30005 0.25333,1.0052 0.02934,1.4042l-0.596,0.34585l-0.872,0.27422" fill="#ffffaa" id="svg_48" stroke="#000000" stroke-dasharray="null" stroke-linecap="null" stroke-linejoin="null" stroke-width="0"/>
  <text fill="#00007f" font-family="serif" font-size="24" font-weight="bold" id="svg_50" stroke="#000000" stroke-dasharray="null" stroke-linecap="null" stroke-linejoin="null" stroke-width="0" text-anchor="middle" transform="matrix(1.98494 0 0 1.78125 -221.31 -46.4844)" x="260.59107" xml:space="preserve" y="81.25439">Application Process</text>
 </g>
</svg>