<svg width="640" height="480" xmlns="http://www.w3.org/2000/svg" xmlns:svg="http://www.w3.org/2000/svg">
 <!-- Created with SVG-edit - https://github.com/SVG-Edit/svgedit-->
 <g class="layer">
  <title>Layer 1</title>
  <rect fill="#00ffff" height="0" id="svg_12" stroke="#000000" stroke-dasharray="null" stroke-linecap="null" stroke-linejoin="null" stroke-opacity="0" stroke-width="null" width="1" x="127.5" y="61.5"/>
  <rect fill="#5656ff" height="111" id="svg_24" stroke="#000000" stroke-dasharray="5,5" stroke-linecap="null" stroke-linejoin="null" stroke-width="5" width="0" x="91.5" y="45.5"/>
  <path d="m154.5,67.5c1.672,0 2.77333,0 3.58333,0c0.64,0 1.75,0 2.58467,0c0.88266,0 1.78134,0 2.22667,0c1.272,0 2.382,0 3.022,0c0.81,0 1.91133,0 2.88333,0c0.80017,0 1.58533,0 2.54666,0c0.84,0 1.83867,0 2.67417,0c0.58368,0 1.77917,0 2.67917,0c0.6,0 1.8,0 2.69549,0c0.86852,0 1.93784,0 2.64734,0c0.85266,0 1.85716,0 2.65717,0c1.00016,0 -3.512,-28 2.48533,0c5.99733,28 75.79384,7 2.98134,0c-72.8125,-7 1.73332,0 2.536,0c0.768,0 1.81166,0 2.61866,0c0.58133,0 1.77601,0 2.637,0c0.77101,0 1.891,0 2.875,0c0.6765,0 1.45201,0 2.5,0c0.92,0 1.68001,0 2.66667,0c0.98399,0 1.67467,0 2.74733,0l0.91934,0l0.875,0l0.64499,0" fill="none" id="svg_1" stroke="#000000" stroke-dasharray="null" stroke-linecap="null" stroke-linejoin="null" stroke-width="0" style="vector-effect: non-scaling-stroke;"/>
  <path d="m129.5,60.5c2.58934,0 3.3855,0 4.284,0c0.50217,0 1.13734,-0.00026 2.88268,0c1.14116,0.00017 2.44934,0.00014 3.90149,0.009c1.57318,0.0096 3.24445,0.02728 4.99051,0.063c1.79828,0.03679 3.62683,0.06803 7.27466,0.26133c1.78102,0.09438 3.52179,0.2291 5.2245,0.372c1.66664,0.13988 3.2963,0.29508 4.89151,0.444c1.56113,0.14574 3.08752,0.30671 6.05066,0.51733c1.43472,0.10198 2.84373,0.16933 4.2285,0.219c1.36328,0.0489 2.70894,0.07661 4.03951,0.093c1.31845,0.01624 2.62799,0.02 5.23199,0.02133c1.29967,0.00066 2.59734,0 3.89101,0c1.28766,0 2.56732,0 3.83699,0c1.25768,0 2.50134,0 4.93867,0c1.189,0 2.35199,0 3.483,0c1.09299,0 2.142,0 3.14099,0c0.94301,0 1.82401,0 3.37601,0c0.66116,0 1.24933,0 1.7715,0c0.46317,0 0.87433,0 1.24049,0c0.32817,0 0.62534,0 1.15466,0c0.24501,0 0.48001,0 0.705,0c0.215,0 0.42,0 0.61501,0c0.185,0 0.36,0 0.67999,0c0.14534,0 0.28267,0 0.414,0c0.12733,0 0.25267,0 0.37801,0c0.12733,0 0.25867,0 0.54134,0c0.15517,0 0.32133,0 0.4995,0c0.19116,0 0.39633,0 0.6165,0c0.23616,0 0.48933,0 1.05066,0c0.311,0 0.64801,0 1.017,0c0.40701,0 0.858,0 1.35901,0c0.55699,0 1.17599,0 2.62399,0c0.83801,0 1.744,0 2.70601,0c1.006,0 2.04399,0 3.10199,0c1.06601,0 2.12801,0 4.192,0c0.98201,0 1.936,0 2.87401,0c0.93399,0 1.87599,0 2.838,0c0.994,0 2.032,0 4.28799,0c1.24017,0 2.56134,0 3.96451,0c1.48616,0 3.05634,0 4.7115,0c1.74117,0 3.56932,-0.00016 7.49066,0c2.09283,0.00008 4.26266,-0.0001 6.49649,0.0045c2.28485,0.0047 4.6077,0.01339 6.95551,0.0315c2.35986,0.01821 4.71896,0.03344 9.38135,0.13067c2.28067,0.04756 4.52432,0.11399 6.73349,0.204c2.17886,0.08878 4.3298,0.2009 6.4545,0.348c2.10434,0.14569 4.19296,0.29454 8.31201,0.78133c2.04837,0.24208 4.08618,0.5463 6.12299,0.858c2.04056,0.31229 4.08472,0.64597 6.14099,0.966c2.06906,0.32201 4.15182,0.66827 8.40268,1.176c2.15878,0.25785 4.3298,0.45327 6.48599,0.624c2.11856,0.16776 4.1803,0.299 6.16202,0.408c1.879,0.10335 3.6344,0.18522 6.68533,0.30134c1.25757,0.04787 2.34125,0.08291 3.267,0.1095c0.78363,0.02251 1.44128,0.0377 1.98898,0.0465c0.45364,0.00729 0.82935,0.00999 1.41068,0.01067c0.2355,0.00027 0.444,0 0.62851,0c0.16348,0 0.30899,0 0.43948,0c0.1185,0 0.228,0 0.43201,0c0.09982,0 0.19867,0 0.2955,0c0.09384,0 0.18365,0 0.26849,0c0.07883,0 0.15067,0 0.26935,0c0.04565,0 0.08533,0 0.12299,0c0.03967,0 0.08533,0 0.14099,0c0.06967,0 0.15735,0 0.40268,0c0.16415,0 0.35333,0 0.5625,0c0.22415,0 0.45834,0 0.69751,0c0.23917,0 0.47333,0 0.90665,0c0.19067,0 0.36536,0 0.52802,0c0.15466,0 0.30533,0 0.45599,0c0.15466,0 0.31732,0.00029 0.68268,0c0.20917,-0.00017 0.43341,0.00019 0.66748,-0.009c0.23929,-0.0094 0.47833,-0.03266 0.71252,-0.063l0.22415,-0.04234l0.20917,-0.05634" fill="none" id="svg_2" stroke="#000000" stroke-dasharray="null" stroke-linecap="null" stroke-linejoin="null" stroke-width="0"/>
  <path d="m142.44639,80.5c2.11937,0 2.95193,-0.00393 3.85214,-0.05717c1.64359,-0.09721 2.40693,-0.16355 3.28305,-0.2295c0.98228,-0.07394 2.06457,-0.15868 3.24086,-0.255c1.26492,-0.10358 2.61227,-0.21725 4.03563,-0.345c3.05418,-0.27411 4.67141,-0.43221 6.33924,-0.6c1.711,-0.17214 3.45597,-0.35608 5.22601,-0.555c1.78894,-0.20104 3.58752,-0.41171 5.38495,-0.645c3.5714,-0.46353 5.32243,-0.7295 7.04258,-0.99599c1.68222,-0.26062 3.31474,-0.52906 4.89042,-0.7965c1.51229,-0.25668 2.95051,-0.50993 4.30762,-0.7515c2.43854,-0.43407 3.50443,-0.62687 4.47107,-0.79733c0.87211,-0.1538 1.656,-0.29036 2.3578,-0.4095c0.62479,-0.10607 1.17888,-0.1986 1.66899,-0.2745c0.8077,-0.12508 1.13865,-0.16835 1.42705,-0.20267c0.25014,-0.02977 0.46764,-0.05109 0.657,-0.0645c0.16547,-0.01171 0.31238,-0.01755 0.44506,-0.0195c0.24173,-0.00356 0.35997,-0.00288 0.48039,0.00134c0.12531,0.00438 0.25828,0.01498 0.39915,0.03899c0.15447,0.02633 0.32519,0.06372 0.50512,0.12901c0.96586,0.35046 1.81129,0.85171 2.45041,1.124c1.18546,0.50504 2.32745,0.674 3.19965,0.87333c1.04079,0.23786 1.81576,0.51978 2.99538,1.01733c0.75407,0.31806 1.90338,0.95835 2.57463,1.29383c1.14415,0.57182 1.83028,0.74119 3.09074,1.02084c0.48629,0.10789 1.56973,0.3097 2.79638,0.5c1.34943,0.20935 2.05363,0.2977 2.75988,0.38934c1.3792,0.17896 2.03101,0.26538 3.71596,0.444c1.15215,0.12214 2.02262,0.17821 3.33603,0.33333c0.94363,0.11145 1.50279,0.19218 2.79638,0.39584c0.73682,0.116 1.53193,0.2513 2.3843,0.4095c1.88678,0.3502 2.91225,0.56886 3.98441,0.79467c1.10375,0.23247 2.22264,0.47451 3.34505,0.71249c1.10998,0.23534 2.19262,0.46604 3.2391,0.6675c1.90845,0.36741 2.75337,0.49621 3.51972,0.59734c0.69076,0.09116 1.31472,0.15623 1.87564,0.1935c0.94708,0.06293 2.28911,0.0625 3.16433,0.0625c1.25258,0 2.11092,0 3.09642,0c1.04909,0 2.10877,0 3.16846,0c0.70644,0 2.11779,0 3.15452,0c0.98373,0 2.15959,0 3.14863,0c1.1319,0 2.29226,0 3.21672,0c1.1319,0 1.85602,0 3.29836,0c0.65937,0 1.73671,0 2.92003,0c0.84146,0 2.10954,0 2.90391,0c1.2987,0 2.40548,0 3.37568,0c1.02083,0 1.8152,0 3.08328,0c1.24826,0 2.04068,0 3.22928,0c0.83363,0 2.21493,0 3.22556,0c1.03418,0 1.54537,0 2.52657,0c1.64524,0 2.57953,0 3.83055,0c0.92939,0 1.78342,0 2.94356,0c1.1586,0 2.17932,0.07621 3.23479,-0.0045c1.09471,-0.08372 1.86208,-0.47869 2.87213,-0.7115c1.15407,-0.26601 2.11037,-0.26884 2.99534,-0.28266c1.30444,-0.02037 2.28493,-0.15684 3.30975,-0.52217c0.76363,-0.27222 1.92722,-0.69443 2.89451,-0.95833c0.64042,-0.17472 2.13264,-0.46105 2.89451,-0.5c1.19924,-0.06131 2.12708,-0.16923 3.15272,-0.5955c0.96625,-0.40159 1.81163,-0.42 3.07468,-0.42533c1.08242,-0.00457 1.91066,0.04256 2.97259,-0.17067c1.04688,-0.21021 1.84813,-0.55075 2.84407,-0.85017c0.56931,-0.17116 1.89071,-0.527 3.50773,-0.8125c0.92105,-0.16262 1.93599,-0.28958 3.0413,-0.4095c1.19931,-0.13012 2.50181,-0.24215 3.91024,-0.3465c1.51785,-0.11245 3.15157,-0.21935 6.7851,-0.41067c2.00415,-0.10552 4.12088,-0.20167 6.3316,-0.3c2.28701,-0.10173 4.63313,-0.20049 7.02039,-0.3c2.41072,-0.10049 4.82759,-0.19727 9.60779,-0.4c2.3302,-0.09883 4.60629,-0.19815 6.82082,-0.3045c2.14666,-0.10309 4.218,-0.21052 6.2062,-0.3315c1.89966,-0.1156 3.70572,-0.21797 6.9892,-0.53066c1.47469,-0.14043 2.83505,-0.30849 4.08861,-0.48151c1.15619,-0.15958 2.21619,-0.32809 3.18786,-0.49049c0.89054,-0.14884 1.70017,-0.30618 3.12408,-0.528c0.61843,-0.09634 1.18907,-0.16866 1.72022,-0.2145c0.49888,-0.04305 0.97804,-0.06335 1.44472,-0.0615c0.46439,0.00185 0.93689,0.01995 1.93725,0.10933c0.54649,0.04883 1.11648,0.11559 1.70078,0.186c0.58842,0.07091 1.16938,0.14644 1.73258,0.222c0.53532,0.07182 1.0315,0.14098 1.86506,0.25867c0.32127,0.04536 0.59187,0.08373 0.83187,0.1185c0.22943,0.03324 0.46823,0.06878 0.73647,0.1095c0.31778,0.04824 0.70488,0.10797 1.76772,0.272c0.70937,0.10948 1.53057,0.23633 2.44608,0.3765c0.99191,0.15186 2.04271,0.31174 3.1349,0.4755c1.11548,0.16725 2.23624,0.33632 4.42713,0.648c1.03592,0.14738 2.02693,0.28162 2.97238,0.41399c0.90229,0.12634 1.76272,0.24854 2.58036,0.37801c0.77933,0.12341 1.52543,0.23412 2.88546,0.54133c0.63503,0.14344 1.2374,0.31411 1.8209,0.4905c0.57668,0.17434 1.1471,0.36395 1.7255,0.5535c0.59231,0.19411 1.201,0.40599 2.53695,0.78933c0.72615,0.20837 1.50107,0.40398 2.31543,0.6c0.84814,0.20415 1.73118,0.4026 2.64389,0.6c0.93704,0.20267 1.89689,0.40398 3.87137,0.8c1.00556,0.20169 2.01967,0.4003 3.03954,0.591c1.01947,0.19063 2.03696,0.37241 3.0501,0.53699c1.00146,0.16269 1.98823,0.32603 3.91847,0.53867c0.92806,0.10223 1.83311,0.16887 2.70928,0.219c0.84455,0.04832 1.6569,0.07635 2.43372,0.093c0.73891,0.01584 1.43804,0.02 2.70652,0.02133c0.56554,0.0006 1.08637,0 1.56477,0c0.43841,0 0.83912,0 1.20452,0c0.33244,0 0.63424,0 1.15543,0c0.2249,0 0.43331,0 0.6323,0c0.19662,0 0.39795,0 0.61106,0c0.23198,0 1.11149,0 1.90272,0c0.92313,0 1.92158,0.00006 2.93885,0c1.43883,-0.00008 2.29107,0.05391 3.38157,-0.036c1.36585,-0.11262 2.07214,-0.56438 3.09272,-0.79733c1.11533,-0.25458 1.88008,-0.18299 2.73789,-0.25066c1.53861,-0.12138 2.11195,-0.19031 3.30464,-0.352c1.20628,-0.16354 1.79869,-0.23348 3.37687,-0.564c0.85824,-0.17975 1.80746,-0.56258 2.94356,-0.83334c0.99449,-0.23701 1.9869,-0.16666 3.12096,-0.16666c1.01648,0 2.13451,0.14845 3.08014,-0.22134c0.9167,-0.35847 1.76607,-0.77333 2.82581,-0.77866c1.05964,-0.00533 2.12323,0.07568 3.18061,-0.00134c1.14893,-0.08369 1.90289,-0.47847 2.82581,-0.71467c1.15949,-0.29674 2.18511,-0.28175 3.32017,-0.284c0.93427,-0.00185 1.84738,0 3.07091,0c1.14289,0 2.03541,0.03201 3.13648,-0.009c0.95037,-0.0354 1.87465,-0.15316 3.1086,-0.32433c0.75199,-0.10432 1.58123,-0.23444 2.47436,-0.3765c0.94211,-0.14985 1.91662,-0.31023 2.90882,-0.4755c0.99489,-0.16572 1.97663,-0.33161 3.83996,-0.648c0.85389,-0.14499 1.65126,-0.27611 3.07389,-0.53066c0.63068,-0.11285 1.75582,-0.26838 3.0095,-0.636c1.13646,-0.33326 1.90706,-0.77296 2.87446,-0.916c0.96711,-0.143 1.77526,-0.11779 3.20888,-0.25066c1.12133,-0.10393 1.7136,-0.17903 2.91902,-0.35417c1.18644,-0.17239 1.76075,-0.23441 3.22006,-0.57916c1.12148,-0.26495 1.96854,-0.59212 2.92689,-1c0.92209,-0.39246 1.89028,-0.94038 2.68374,-1.37917c0.93628,-0.51775 1.9869,-0.6875 2.9681,-1.02084c0.9812,-0.33334 2.11195,-0.13277 3.01891,-0.536c0.89299,-0.39703 1.45687,-0.96333 2.52441,-0.964c1.24336,-0.00078 1.94274,0 3.08014,0c0.7347,0 2.12826,-0.07668 3.26893,0.00034c0.84865,0.0573 1.98241,0.54271 2.80088,1.0205c0.80722,0.47123 1.40606,1.42839 2.31187,1.85783c0.742,0.35178 1.92413,0.52096 2.59585,1.174c0.59461,0.57807 1.05317,1.42763 1.82657,2.14733c0.62813,0.58451 1.24897,1.4513 0.89446,2.3c-0.34617,0.82867 -1.43941,1.12444 -2.50203,1.66666c-0.93269,0.47593 -1.56423,0.84103 -2.5307,1.34933c-0.89263,0.46947 -1.67153,0.91193 -2.68765,1.19733c-1.13973,0.32013 -2.28176,0.27596 -2.92473,1.00267c-0.22727,0.25689 0.70804,0.284 1.76614,0.284c0.95138,0 2.10667,-0.00523 3.11018,0.0045c1.08371,0.01051 2.16304,-0.05827 3.463,0.16216c0.78781,0.13359 0.97599,1.16549 0.76747,1.83867c-0.23004,0.74273 -0.62288,2.00502 0.00647,2.53733c0.75472,0.63835 2.23178,0.63994 1.80225,1.14c-0.84035,0.97831 -1.63782,0.86782 -2.66667,1.32267c-0.56467,0.24964 -1.76732,0.75159 -2.39172,0.98933c-1.82348,0.69431 -2.40771,0.87166 -3.48459,1.191c-0.94724,0.2809 -2.18173,0.05698 -3.04913,1.013c-0.49626,0.54699 0.89209,0.80133 1.73276,0.80133c1.12288,0 1.98504,-0.02396 3.3584,0c1.03208,0.01801 1.48544,0.68362 1.909,1.48267c0.37007,0.69809 1.46837,1.30452 2.28579,1.456c0.97132,0.18001 1.08828,0.7645 0.53377,1.03333c-1.27663,0.61892 -2.46495,1.0303 -3.08959,1.268c-0.63244,0.24066 -1.86664,0.69781 -2.43649,0.90667c-1.63222,0.59822 -1.55734,0.85333 -0.68663,0.85333c1.00847,0 2.3219,0.00435 1.66488,0.05717c-1.3582,0.10918 -2.69577,0.22625 -3.45279,0.2955c-0.78778,0.07206 -1.58493,0.14642 -2.37016,0.222c-1.4508,0.13965 -3.45746,0.09341 -3.3847,0.42533c0.07298,0.33293 -0.44272,0 -1.96236,0c-0.49356,0 -1.59837,0 -2.82093,0c-0.64071,0 -1.95158,0 -3.26246,0c-0.6415,0 -1.88446,0 -3.0662,0c-0.56496,0 -1.63725,-0.00719 -3.08406,0.00034c-0.85289,0.00443 -2.03728,-0.071 -3.26914,0.333c-0.8494,0.27856 -1.46319,1.2437 -0.6766,1.49599c1.0784,0.3459 2.01436,0.16007 3.22771,0.17067c1.06129,0.00927 1.12425,0.48003 0.92877,1.32117c-0.18652,0.80266 0.8886,1.48867 1.89704,1.60683c0.7876,0.09229 1.63269,0.07066 3.27166,0.072c0.74257,0.0006 1.72985,0 2.96397,0c1.14289,0 2.08482,0 3.14453,0c1.05968,0 2.12625,0.00667 3.08779,0.35267c0.78691,0.28316 1.77681,0.50019 2.70828,0.562c1.08774,0.07217 2.26373,0.07697 2.85916,0.08083c1.70606,0.01109 2.69671,0.0045 3.55545,0.0045c1.06144,0 2.30616,0 3.21043,0c1.13014,0 2.18453,0 3.20102,0c1.08501,0 0.8628,0.03345 -0.20251,0.17067c-1.19165,0.15349 -1.95237,0.27035 -2.81169,0.39999c-0.9379,0.1415 -1.93333,0.29798 -2.96534,0.471c-1.05127,0.17625 -2.10113,0.3577 -3.1243,0.561c-1.90936,0.37939 -2.74953,0.58885 -3.50874,0.79466c-0.68731,0.18633 -1.89122,0.46291 -2.69236,0.88834c-0.99852,0.53024 -0.33924,0.70149 0.77082,0.71166c1.75974,0.01613 2.90727,0.00196 4.20421,0.00401c1.40761,0.00222 2.88708,0.00681 4.39942,0.0195c1.50656,0.01265 2.96861,0.02658 4.34646,0.0645c2.35086,0.0647 3.25517,0.11351 3.95617,0.20533c0.51509,0.06747 0.92116,0.14799 0.96959,0.3135c0.0442,0.151 -0.25871,0.3485 -0.6729,0.53851c-1.27721,0.58595 -2.21331,0.84615 -3.24654,1.19333c-1.1264,0.37848 -2.31913,0.7645 -3.53756,1.164c-1.21336,0.39783 -2.39103,0.77853 -3.48459,1.164c-1.84738,0.65118 -2.53469,0.92339 -3.01737,1.19333c-0.34243,0.19151 -0.58253,0.53304 0.08146,0.7675c1.93279,0.68251 3.09642,0.25866 4.2405,0.28983c1.23082,0.03354 2.51022,0.05171 3.79896,0.0645c1.25921,0.0125 2.45021,0.01749 3.53403,0.0195c1.69079,0.00314 2.23027,-0.00127 2.56836,0.00267c0.15918,0.00186 -0.55019,0.02784 -1.85877,0.16533c-0.93891,0.09865 -1.84519,0.23401 -2.65628,0.444c-1.29014,0.33401 -1.7177,1.10926 -0.7498,1.26784c0.77775,0.12743 1.71342,0.10732 2.70925,0.117c1.4817,0.0144 2.37738,0.06513 3.49322,-0.01633c1.13718,-0.08303 0.64947,-0.5209 -0.44153,-0.3125c-1.08591,0.20744 -1.67756,0.44202 -2.9681,0.875c-0.66575,0.22336 -1.32478,0.45105 -3.11525,1.125c-0.94814,0.35689 -2.03347,0.36584 -2.55582,1.13067c-0.45328,0.66371 1.01023,1.19225 2.14134,1.20267c0.88501,0.00815 0.63463,0.06673 -0.57301,0.35267c-0.88059,0.2085 -2.13347,0.16713 -2.98751,0.70866c-0.71455,0.45309 -0.36374,1.47375 0.28138,2.177c0.63848,0.69601 -0.89105,0.91659 -0.42738,1.59499c0.45415,0.66446 1.69521,0.25214 3.09584,0.44534c0.75968,0.10478 2.23699,0.36353 2.50242,-0.5c0.2461,-0.80055 -0.41135,-1.54218 -1.51634,-2.29267c-0.80664,-0.54786 -2.07821,-0.87128 -2.95948,-0.40067c-0.87179,0.46557 -1.68374,0.64687 -2.45686,1.17066c-0.87197,0.59074 -0.88177,1.58316 -0.77556,2.14801c0.23352,1.242 0.89514,1.79254 1.44745,2.32399c1.01106,0.9729 1.54311,1.73608 2.1588,2.29283c0.76147,0.68857 1.84415,0.68848 2.84547,0.95834c0.5139,0.13852 1.96405,1.51762 3.09329,0.54933c0.52576,-0.45081 -1.35162,-1.38429 -1.84307,-0.63116c-0.53636,0.82196 0.63212,1.83426 -0.01412,2.06667c-0.91731,0.3299 -2.39883,0.036 -3.19164,0.036c-0.79277,0 -2.42344,-0.50302 -3.24478,0.0625c-0.75601,0.52052 -0.00604,1.55132 0.46,2.10817c0.88813,1.06119 1.41159,1.36568 2.4302,2.073c0.53061,0.36845 1.6264,1.05528 2.14368,1.38933c1.32791,0.85751 2.46124,1.56187 1.90803,1.867c-0.65055,0.35884 -1.78083,-0.83923 -2.23631,-1.08501c-1.69057,-0.91219 -2.3625,-1.27948 -3.08251,-1.66432c-0.74936,-0.40053 -1.51551,-0.80673 -2.28539,-1.209c-0.75605,-0.39505 -1.48371,-0.77588 -2.17939,-1.119c-1.68471,-0.83095 -3.05901,-1.68988 -3.68948,-1.06551c-0.72705,0.72005 0.27452,1.84738 0.77908,2.291c0.80592,0.7086 1.99686,1.14613 2.65664,1.2375c1.1434,0.15834 2.08112,0.11299 3.16904,0.11433c1.25594,0.00154 1.9251,0 3.287,0c0.66916,0 1.92506,-0.00429 2.99261,0c1.12155,0.0045 2.70249,0.42586 2.25751,1.11333c-0.49924,0.77127 -1.76851,0.05882 -2.95865,-0.05167c-0.87473,-0.08121 -2.04346,0.2341 -2.59409,0.91034c-0.59622,0.73222 -0.52317,1.68002 -1.41447,2.528c-0.40575,0.38602 0.49439,-0.28638 0.13029,-0.49867c-0.92931,-0.54187 -1.86182,0.01204 -3.29049,0.28267c-0.64297,0.1218 -1.59244,0.41862 -2.81916,0.5945c-1.02834,0.14743 -2.25269,0.21614 -3.14881,0.06435c-1.08397,-0.18361 -1.88856,-0.82161 -1.27243,-0.77617c1.00761,0.07431 0.83316,0.8416 1.12112,1.48067c0.3456,0.76698 1.77875,0.35345 2.92667,0.71432c1.03998,0.32693 1.85201,0.78822 2.7542,1.291c0.90682,0.50537 1.91924,1.13368 2.33171,1.76466c0.49838,0.76242 0.86672,1.79105 1.09421,2.20134c0.49985,0.90154 1.05684,1.82372 1.34914,2.26083c0.75842,1.13408 1.70455,1.9716 1.53948,2.0845c-0.79719,0.54526 -1.82769,-0.40714 -2.70964,-0.61134c-1.39891,-0.3239 -2.22298,-0.35199 -3.35804,-0.35266c-0.98903,-0.00058 -2.16175,0 -3.09954,0c-0.88483,0 -2.18942,0 -3.34643,0c-0.7991,0 -1.9518,-0.00008 -2.99735,0c-1.05633,0.00009 -2.14317,-0.0013 -2.9353,0.036c-0.79371,0.03737 -2.20239,0.2442 -3.3188,0.53867c-0.96826,0.25539 -1.90836,0.40434 -2.85093,0.42401c-1.1771,0.02457 -2.14084,-0.01062 -3.29523,0.28532c-0.92277,0.23657 -2.01831,0.66782 -2.92628,0.71468c-1.13147,0.0584 -2.13139,0.05212 -3.29836,0.28667c-0.65411,0.13147 -1.66678,0.42999 -3.07996,0.8145c-0.74002,0.20135 -1.57907,0.39894 -2.58913,0.543c-0.58332,0.08319 -2.76613,0.24048 -3.63885,0.27184c-0.92637,0.03328 -1.89326,0.0519 -2.88585,0.0645c-1.0043,0.01276 -2.00634,0.01756 -2.99185,0.0195c-1.86502,0.00366 -2.71963,0.00133 -3.52128,0.00133c-0.75454,0 -1.46786,0 -2.79441,0c-0.62504,0 -2.41766,0 -3.00756,0c-1.20804,0 -1.8403,0 -3.1967,0c-0.73823,0 -1.52593,0 -3.27795,0c-0.9747,0 -2.00476,0 -3.07486,0c-1.09478,0 -2.19901,0 -3.29735,0c-1.07717,0 -2.1178,0 -4.02839,0c-0.84304,0 -1.61069,0 -2.31008,0c-0.63819,0 -1.75909,0 -2.71988,0c-1.26377,0 -2.43645,0 -3.2026,0c-1.57929,0 -2.42391,0 -3.29677,0c-0.88228,0 -1.75514,0 -3.39882,0c-0.74257,0 -1.72985,0 -2.97184,0c-0.85087,0 -2.11622,0 -3.04561,0c-1.0895,0 -1.67074,0 -2.85916,0c-1.70609,0 -2.70141,0 -3.59311,0c-0.82576,0 -1.62327,0 -3.2764,0c-0.88382,0 -1.79596,0 -2.72689,0c-1.41116,0 -2.34799,0 -3.27069,0c-0.89917,0 -2.18317,0 -2.9948,0c-1.27336,0 -2.25575,0 -2.81169,0c-1.2826,0 -2.83523,0 -3.71456,0c-0.94645,0 -1.95884,0 -3.03602,0c-1.1407,0 -2.34385,0 -4.93262,0c-1.38148,0 -2.81011,0 -4.27406,0c-1.48745,0 -2.98672,0 -4.48599,0c-1.48745,0 -2.95139,0 -5.7615,0c-1.32755,0 -2.61388,0 -3.87668,0c-1.25691,0 -2.52556,0 -3.82368,0c-1.34519,0 -2.75517,-0.00015 -5.84002,0c-1.70415,0.00009 -3.50716,-0.00008 -5.39025,0.0045c-1.94432,0.00471 -3.93108,0.01335 -5.94131,0.03149c-2.015,0.01819 -4.01632,0.03279 -7.89972,0.13068c-1.85514,0.04675 -3.67679,0.11615 -5.5033,0.18599c-1.86901,0.07147 -3.81779,0.15086 -5.88475,0.222c-2.22201,0.07648 -4.63694,0.16081 -10.19808,0.25867c-3.2049,0.0564 -6.66103,0.08524 -10.31245,0.10951c-3.79149,0.02521 -7.66778,0.03831 -11.57349,0.04649c-3.87981,0.00813 -7.67838,0.00999 -14.81044,0.01067c-3.23418,0.00031 -6.23408,0 -9.01261,0c-2.57012,0 -4.94477,0 -7.13695,0c-2.02262,0 -3.88865,0 -7.20271,0c-1.47394,0 -2.84306,0 -4.12038,0c-1.19844,0 -2.33092,0 -3.41043,0c-1.03945,0 -2.05183,0 -4.04718,0c-1.00574,0 -2.01734,0 -3.02894,0c-1.0057,0 -1.99966,0 -2.97594,0c-0.95274,0 -1.87602,0 -3.61079,0c-0.80122,0 -1.55888,0 -2.27655,0c-0.68113,0 -1.32929,0 -1.94804,0c-0.59283,0 -1.16329,0 -2.25122,0c-0.52376,0 -1.03458,0 -1.53125,0c-0.48137,0 -0.94626,0 -1.39348,0c-0.42838,0 -0.83675,0 -1.58874,0c-0.34184,0 -0.6625,0 -0.96431,0c-0.28532,0 -0.55652,0 -0.81595,0c-0.25002,0 -0.49295,0 -0.96706,0c-0.23528,0 -0.4694,0 -0.70116,0c-0.22822,0 -0.45174,0 -0.66936,0c-0.21056,0 -0.41288,0 -0.78808,0c-0.17132,0 -0.3344,0 -0.49276,0c-0.15719,0 -0.31672,0 -0.48216,0c-0.17485,0 -0.36265,0 -0.79123,0c-0.24707,0 -0.51651,0 -0.80713,0c-0.31065,0 -0.64013,0 -0.98727,0c-0.36363,0 -0.74257,0 -1.54165,0c-0.41857,0 -0.85245,0 -1.30516,0c-0.47509,0 -0.9761,0 -1.50653,0c-0.5634,0 -1.16329,0 -2.48672,0c-0.72901,0 -1.49925,0 -2.3048,0c-0.83499,0 -1.69354,0 -2.56974,0c-0.88797,0 -1.78184,0 -3.56366,0c-0.87719,0 -1.7426,0 -2.59622,0c-0.84185,0 -1.67194,0 -2.49026,0c-0.80653,0 -1.6013,0 -3.15549,0c-0.75905,0 -1.50398,0 -2.23241,0c-0.70959,0 -1.39799,0 -2.06285,0c-0.63895,0 -1.24963,0.00018 -2.37682,0c-0.51316,-0.00009 -0.9969,0.00029 -1.45707,-0.0045c-0.44252,-0.00461 -0.87342,-0.01334 -1.2981,-0.03149c-0.42506,-0.01817 -0.85702,-0.03867 -1.75829,-0.13068c-0.4842,-0.04944 -0.99451,-0.11765 -1.53479,-0.19949c-0.57601,-0.08727 -1.1889,-0.19287 -1.84208,-0.3165c-0.69978,-0.13246 -1.4485,-0.28081 -3.09897,-0.65067c-0.9146,-0.20496 -1.88827,-0.43831 -2.93003,-0.681c-1.11055,-0.25871 -2.29348,-0.53165 -3.55523,-0.80701c-1.33912,-0.29224 -2.75889,-0.60318 -5.87769,-1.17867c-1.68822,-0.31151 -3.44972,-0.6015 -5.25249,-0.89101c-1.81741,-0.29185 -3.62697,-0.56866 -5.40085,-0.83699c-1.7121,-0.25897 -3.33903,-0.49461 -6.22309,-0.93867c-1.21767,-0.18748 -2.2952,-0.36259 -3.26029,-0.519c-0.87798,-0.14229 -1.69402,-0.27588 -2.47612,-0.39299c-0.77136,-0.11551 -1.5584,-0.23198 -3.2905,-0.42134c-0.98558,-0.10776 -2.05332,-0.20216 -3.18612,-0.3045c-1.18438,-0.10701 -2.40697,-0.21381 -3.65236,-0.3315c-1.25549,-0.11864 -2.50914,-0.22784 -4.93577,-0.53067c-1.1561,-0.14427 -2.26459,-0.31238 -3.33095,-0.48149c-1.02788,-0.16301 -2.01624,-0.33226 -2.97064,-0.49051c-0.92087,-0.15269 -1.80748,-0.31485 -3.5103,-0.528c-0.81005,-0.10139 -1.59612,-0.16832 -2.35072,-0.2235c-0.71961,-0.05261 -1.40234,-0.08875 -2.04343,-0.1245c-0.59638,-0.03326 -1.14794,-0.04361 -2.08169,-0.15201c-0.38582,-0.04478 -0.7203,-0.11079 -1.00845,-0.19049c-0.25972,-0.07182 -0.48979,-0.1604 -0.70116,-0.25351c-0.20586,-0.09068 -0.40093,-0.19991 -0.84146,-0.38933c-0.24427,-0.10503 -0.51611,-0.20306 -0.81243,-0.2955c-0.31592,-0.09856 -0.65777,-0.18874 -1.02435,-0.26849c-0.38699,-0.08421 -0.79773,-0.16788 -1.69549,-0.26933c-0.48162,-0.05443 -0.99034,-0.08534 -1.52419,-0.10951c-0.56042,-0.02536 -1.14952,-0.03848 -1.7679,-0.04649c-0.64892,-0.00841 -1.32971,-0.00999 -2.79128,-0.01067c-0.78221,-0.00035 -1.59501,0 -2.43374,0c-0.85991,0 -1.73631,0 -2.62448,0c-0.89523,0 -1.79282,0 -3.57622,0c-0.8768,0 -1.73946,0 -2.58562,0c-0.82734,0 -1.63349,0 -2.41608,0c-0.7567,0 -1.48513,0 -2.8478,0c-0.62993,0 -1.22452,0 -1.7838,0c-0.52395,0 -1.01259,0 -1.4659,0c-0.41798,0 -0.80065,0 -1.46,0c-0.27728,0 -0.52278,0 -0.74001,0c-0.19251,0 -0.36382,0 -0.51748,0c-0.13952,0 -0.26845,0 -0.50865,0c-0.11774,0 -0.23548,0 -0.35323,0c-0.11774,0 -0.23548,0 -1.2516,0c-0.87247,0 -1.92117,0 -3.49735,0c-1.02024,0 -2.18059,0 -3.45633,0c-1.3664,0 -2.79874,0 -4.27228,0c-1.49003,0 -2.97182,0 -5.81177,0c-1.31322,0 -2.54638,0 -3.70182,0c-1.08009,0 -2.08718,0 -3.02363,0c-0.86816,0 -1.67037,0 -3.08642,0c-0.62129,0 -1.20255,0 -1.76261,0c-0.55771,0 -1.1319,0 -1.74142,0c-0.66368,0 -1.40035,0 -3.16806,0c-1.06242,0 -2.23554,0 -3.50048,0c-1.33794,0 -2.73005,0 -4.15748,0c-1.44392,0 -2.88548,0 -5.68617,0c-1.32402,0 -2.58562,0 -3.7813,0c-1.1262,0 -2.17941,0 -3.15609,0c-0.89661,0 -1.70962,0 -3.07072,0c-0.54398,0 -1.00788,0 -1.40585,0c-0.34616,0 -0.65465,0 -0.93959,0c-0.27552,0 -0.55574,0 -1.18684,0c-0.37639,0 -1.26102,0 -2.30579,0c-0.57655,0 -1.82619,0 -3.18886,0c-0.71744,0 -2.20414,0 -2.96397,0c-0.76454,0 -1.52908,0 -3.03933,0c-1.45373,0 -2.14841,0 -3.46712,0c-0.62403,0 -1.80146,0 -2.88469,0c-1.44823,0 -2.29598,0 -3.39098,0c-1.13033,0 -2.08699,0 -3.07936,0c-0.89641,0 -1.80774,0 -2.99301,0c-0.93488,0 -1.92627,0 -2.91766,0c-1.36346,0 -2.46791,-0.11008 -3.51736,0.05716c-1.11106,0.17706 -1.95224,0.8578 -2.90902,0.94151c-1.05411,0.09222 -2.01715,-0.0163 -2.9102,-0.22734c-1.65857,-0.39194 -2.40479,-0.65469 -3.2595,-0.90866c-0.9272,-0.27551 -1.90053,-0.57246 -2.89646,-0.8835c-0.99785,-0.31163 -1.97272,-0.62022 -2.89646,-0.92851c-1.62145,-0.54114 -2.27346,-0.77277 -2.80698,-0.99333c-1.08249,-0.44753 -1.31227,-1.04691 -0.30142,-1.05733c1.0596,-0.01091 2.24273,0.25383 3.17865,-0.22166c0.73409,-0.37296 0.51029,-1.41273 0.21547,-2.29434c-0.29654,-0.88675 -0.02787,-1.48613 0.64837,-2.31732c0.65737,-0.808 1.09471,-1.23384 1.9869,-2.16667c0.45459,-0.4753 0.90068,-0.9435 2.13408,-2.16667c0.61386,-0.60876 1.14536,-1.42273 2.19786,-1.748c1.00028,-0.30914 2.27662,-0.12415 2.87625,-0.78983c0.61029,-0.67752 1.14256,-1.28706 2.38291,-1.62883c0.79395,-0.21877 1.69037,-0.51398 2.58562,-0.888c0.85706,-0.35806 2.022,-0.88551 2.3939,-1.75784c0.34494,-0.80908 0.16848,-1.77997 -0.49059,-2.52083c-0.6916,-0.77743 -1.58554,-1.08853 -2.44806,-1.56133c-0.94754,-0.5194 -1.34651,-1.37053 -2.28735,-1.69567c-1.0669,-0.36871 -1.98906,-0.24166 -3.11723,-0.243c-1.14976,-0.00136 -2.50104,-0.006 -2.42451,-0.85733c0.04782,-0.53198 0.8378,-1.04971 1.70962,-1.632c1.09042,-0.72829 1.81603,-1.03875 2.56993,-1.392c0.7892,-0.36979 1.61254,-0.7249 2.4408,-1.077c1.5972,-0.67899 2.35571,-0.95441 3.58133,-1.54166c0.87607,-0.41977 1.7095,-1.19959 0.98119,-1.58334c-0.80838,-0.42593 -1.77159,-0.74203 -2.96868,-1.338c-0.68686,-0.34195 -1.40166,-0.7142 -2.13349,-1.0995c-0.73447,-0.38669 -1.46079,-0.75874 -3.33604,-1.8125c-0.49254,-0.27677 -2.36265,-0.77142 -2.11466,-1.58266c0.26826,-0.87754 1.71018,-0.85838 1.91312,-1.784c0.20365,-0.92888 0.83452,-1.35308 1.77144,-1.8c0.95755,-0.45676 1.84936,-0.73028 2.66549,-1.16417c0.71019,-0.37756 1.82223,-1.0687 2.47122,-1.56916c0.9813,-0.75673 1.83279,-1.58457 1.27181,-2.4095c-0.45117,-0.66346 -1.69677,-0.91056 -2.66569,-1.45717c-0.75524,-0.42606 -2.01241,-1.03173 -1.76417,-1.65717c0.37217,-0.93771 1.5999,-1.197 2.31658,-1.75883c0.86146,-0.67533 1.00317,-1.68533 1.00317,-2.36933c0,-0.94 -0.29401,-2.0066 0.06731,-2.75301c0.35576,-0.73492 0.94132,-1.52639 1.00807,-2.34966c0.08009,-0.9878 0.09005,-1.51309 0.02943,-2.54333c-0.07676,-1.3046 -0.33284,-2.26778 -1.09343,-2.26566c-1.05236,0.00292 -1.91715,0.64783 -2.97378,1.06233c-0.5453,0.21391 -1.52583,0.85566 -2.92472,1.068c-0.89377,0.13567 -0.20169,-1.1701 0.12579,-1.54c0.76566,-0.86483 1.21082,-1.32173 1.66488,-1.79333c0.90517,-0.94015 1.34123,-1.38461 2.46455,-2.49267c0.53547,-0.52821 1.28334,-1.22726 1.8674,-1.99c0.49321,-0.6441 1.46537,-1.58302 2.11936,-1.01733c0.72802,0.62971 0.63947,1.5921 1.41605,2.52666c0.45577,0.54848 1.86596,0.65646 2.72946,0.39c0.64487,-0.19899 1.83875,-0.9544 2.37546,-1.404c0.73086,-0.61224 1.92826,-0.93916 2.28519,-0.38766c0.47964,0.7411 0.7924,1.99265 1.12189,2.52167c0.44,0.70644 1.60275,1.15531 2.62958,0.86266c0.77087,-0.2197 2.03361,-1.14291 2.34857,-1.69067c0.42629,-0.74139 0.51983,-2.28139 1.34384,-2.144c1.06186,0.17705 1.02769,1.24785 1.64682,2.22134c0.44921,0.7063 1.47938,1.09875 2.08482,0.544c0.72597,-0.66517 1.22066,-1.29317 1.77615,-1.94c0.54731,-0.63731 0.72459,-2.74016 1.77477,-2.57217c0.63138,0.101 -0.05978,1.57938 0.05828,2.2855c0.17511,1.04729 1.15473,0.7706 1.72375,0.3075c0.82284,-0.66968 1.42878,-0.06631 2.26223,0.78316c0.58132,0.5925 1.62979,0.84443 2.49653,0.55016c1.08828,-0.36948 2.07738,-1.33378 2.42196,-1.68616c0.71068,-0.72679 1.29431,-1.52465 2.02046,-2.076c0.8218,-0.62396 2.0163,-0.47691 2.68923,0.10266c0.77925,0.67113 1.25965,1.65161 2.12094,2.06683c0.84659,0.40813 1.71296,-0.14439 2.28754,-0.94566c0.67255,-0.93788 0.89186,-1.69922 1.2149,-2.38783c0.4212,-0.89785 1.25397,-1.39493 2.25536,-1.1725c0.82987,0.18433 1.13044,-0.77261 1.5962,-1.33884c0.42862,-0.52109 1.58709,-1.42413 2.09856,-1.78033c1.1522,-0.80241 1.80296,-1.19549 2.46396,-1.59467c0.65934,-0.39817 1.27317,-0.83588 3.11526,-1.70833c0.92837,-0.43969 1.70199,-0.77405 2.6031,-0.75367c1.22605,0.02773 2.12452,0.50239 3.06268,1.02016c0.93345,0.51518 1.9695,0.86418 2.78893,0.89567c1.2085,0.04644 2.31632,0.24378 3.14784,0.5045c1.1425,0.35822 2.09423,0.47899 3.03677,0.49866c1.17709,0.02457 2.14773,-0.02863 3.29679,0.288c0.73014,0.20119 1.90845,0.85571 2.58503,1.3705c0.69584,0.52944 1.45126,1.34656 1.94491,1.93384c0.58767,0.69915 1.45327,1.25504 2.31169,1.42366c1.15926,0.22771 2.1382,0.42992 3.08799,0.98534c0.90891,0.5315 1.19867,1.59598 2.04401,1.91467c0.84658,0.31915 2.12577,0.07101 3.24027,0.0855c0.79936,0.0104 2.00281,0.16189 2.7954,0.70433c0.90781,0.62129 1.7318,1.13029 2.53283,1.28084c0.98857,0.18579 2.16019,0.584 3.07505,1.0355l0.55888,0.33099l0.95646,0.76151" fill="#ce8f54" id="svg_5" stroke="#000000" stroke-dasharray="null" stroke-linecap="null" stroke-linejoin="null" stroke-width="0"/>
  <text fill="#ffffff" font-family="serif" font-size="24" font-weight="bold" id="svg_6" stroke="#000000" stroke-dasharray="null" stroke-linecap="null" stroke-linejoin="null" stroke-width="0" text-anchor="middle" transform="matrix(2.40915 0 0 2.49286 -150.788 -147.798)" x="190.08492" xml:space="preserve" y="110.03098">Application Process</text>
 </g>
</svg>