<svg width="640" height="480" xmlns="http://www.w3.org/2000/svg" xmlns:svg="http://www.w3.org/2000/svg">
 <!-- Created with SVG-edit - https://github.com/SVG-Edit/svgedit-->
 <g class="layer">
  <title>Layer 1</title>
  <path d="m115.2482,70.21345c2.03239,0 2.87959,0 3.98509,0c0.88556,0 2.00771,0.16737 3.03622,-0.07991c1.03008,-0.24766 1.82048,-1.199 2.72001,-1.31599c0.99103,-0.12889 1.99255,-0.00187 3.01187,-0.00187c0.88632,0 1.87059,0 2.96631,0c0.95421,0 1.83259,0 2.94859,0c0.88374,0 1.83387,0 2.80617,0c0.4806,0 1.83499,0 3.00893,0c0.69221,0 1.89954,0 2.92978,0c0.92394,0 2.03737,0 2.98124,0c1.06731,0 1.95729,0 2.86723,0c1.14129,0 2.11541,0 3.08401,0c0.95439,0 1.95567,0.00728 2.95192,0c1.01995,-0.00745 2.03185,-0.22219 2.78826,-0.49924c0.9313,-0.34111 1.62351,-0.63336 2.77056,-1.0383c0.81722,-0.2885 1.68114,-0.56672 2.5903,-0.83866c1.44237,-0.43143 2.45994,-0.69959 2.97886,-0.83866c1.04842,-0.28098 2.09767,-0.557 2.61613,-0.69888c1.50894,-0.41296 2.45426,-0.69712 3.3447,-0.94932c0.82247,-0.23295 1.90927,-0.55402 3.07718,-0.67768c0.87742,-0.09291 1.9503,-0.05354 2.96962,-0.05032c0.9963,0.00315 1.90846,0.26988 2.54603,0.98472c0.8106,0.90885 1.6577,1.74944 2.41909,1.80894c1.03856,0.08116 2.15637,0.00187 3.11076,0.00187c1.00126,0 1.99753,0 2.99379,0c0.99628,0 1.9955,0 2.84566,0c0.88262,0 1.96891,0 2.98438,0c0.89941,0 2.02739,-0.15133 2.96741,0.07991c1.01995,0.25091 1.73381,1.34749 2.61023,1.31157c1.07862,-0.04421 1.40325,-1.23393 2.03276,-2.09036c0.74077,-1.00781 1.56889,-1.53782 2.69749,-1.92682c0.88519,-0.30511 1.90564,-0.16903 2.81427,-0.16983c1.06619,-0.00093 1.89057,0.15187 3.01317,-0.49294c0.90368,-0.51907 1.84605,-1.41323 2.65673,-0.82492c0.8987,0.6522 1.39018,0.72362 2.27721,0.49294c0.87568,-0.22772 1.7732,0.93514 2.76742,0.82305c1.02182,-0.11519 1.58664,-0.90586 2.34807,-1.84458c0.72557,-0.89451 1.64086,-1.73235 2.04291,-0.71612c0.42494,1.07408 0.50227,1.64909 0.94552,0.49504c0.3767,-0.98081 1.72839,-0.80205 2.41227,0.06406c0.65392,0.82817 1.47573,1.3292 2.31966,0.67931c0.79075,-0.60893 1.2912,-1.80179 1.70232,-2.86915c0.40591,-1.05379 0.97787,-2.6694 1.72244,-2.12088c0.92804,0.68368 0.65887,2.26352 0.67599,2.12088c0.14101,-1.17445 1.0558,-1.05932 1.88184,-0.49294c0.84254,0.57769 1.88184,0.49294 2.87812,0.49294c0.99626,0 1.99273,0 2.86187,0c1.07597,0 1.80823,0 3.05247,0c0.73834,0 1.92888,0 2.73919,0c1.1743,0 2.24197,0 2.87811,0c1.26176,0 2.24807,0 3.08328,0c0.8734,0 1.82095,0 2.44418,0c1.61175,0 2.62038,0 3.74745,0c1.22007,0 2.50765,0 3.83731,0c1.34625,0 2.68367,0 3.98675,0c2.40139,0 3.45394,0 4.40132,0c0.84772,0 1.6014,0 2.2665,0c0.5821,0 1.08666,0 1.51931,0c0.67155,0 0.92211,0 1.54792,0c1.00255,0 1.91412,0 2.76539,0c0.50862,0 2.40359,0 3.15061,0c0.78465,0 1.59255,0 2.4093,0c0.81124,0 1.60252,0 3.71298,0c0.57119,0 1.50769,0 2.4973,0c1.28189,0 2.29954,0 3.22202,0c0.92248,0 1.87686,0 2.87812,0c0.99626,0 2.01618,0.00842 3.02572,0c0.75388,-0.00629 1.67369,0.02676 2.9519,-0.46592c0.67946,-0.26189 1.59603,-0.97508 2.46781,-1.53568c1.03846,-0.6678 1.98641,-0.11191 2.29214,0.69119c0.36414,0.95653 0.76165,2.64203 1.32837,3.3197c0.7579,0.90624 1.86112,0.1047 2.38295,-0.69259c0.59672,-0.9117 1.20744,-2.27495 2.04492,-2.6271c1.03407,-0.43482 1.91996,0.11639 2.78367,0.71589c0.69919,0.4853 1.47479,-0.32045 2.2036,-1.37726c0.55933,-0.81106 1.0162,-1.74709 1.83902,-2.68744c0.80709,-0.92238 1.90696,-0.91694 2.58294,-0.23296c0.67598,0.68397 1.80419,0.43134 2.54105,1.20441c0.82431,0.86481 0.6198,2.34948 0.96434,3.45481c0.34295,1.10021 1.43543,1.601 2.07705,1.62444c1.53566,0.05608 2.08519,0.00684 2.71151,0.01887c0.70942,0.01363 1.50749,0.04026 2.39936,0.08806c0.99187,0.05316 2.08969,0.11751 4.61975,0.36528c1.44181,0.1412 2.98305,0.32599 4.60442,0.51997c1.68038,0.20105 3.39782,0.41439 5.13246,0.62061c1.72981,0.20565 3.43286,0.42295 6.68312,0.72311c1.50718,0.13919 2.9413,0.23612 4.31551,0.30611c1.32827,0.06764 2.62604,0.10715 3.90705,0.13c1.27868,0.02281 2.56963,0.02795 5.24556,0.02982c1.40807,0.00098 2.85154,0 4.31051,0c1.45455,0 2.88478,0 4.27068,0c1.32172,0 2.55932,0 4.70242,0c0.87117,0 1.61174,0 2.23495,0c0.51916,0 0.94758,0 1.29848,0c0.28671,0 0.52251,0 0.89445,0c0.16178,0 0.32029,0 0.48318,0c0.17509,0 0.37008,0 0.59277,0c0.25813,0 0.5594,0 1.32246,0c0.47379,0 1.00069,0 1.56745,0c0.59335,0 1.19997,0 1.80659,0c0.59335,0 1.16011,0 2.1608,0c0.41069,0 0.76158,0 1.05937,0c0.25127,0 0.79259,0 1.75416,0c1.1092,0 1.96267,0 2.68293,0c0.86195,0 2.45784,0 3.07,0c0.64314,0 1.99584,0 2.69212,0c0.70074,0 2.76299,0 3.41576,0c0.62838,0 1.80325,0 2.8541,0c0.90921,0 1.96973,-0.00767 3.01393,0c1.01552,0.00745 1.70856,0.07125 2.88843,0.23296c1.13575,0.15567 1.78825,0.26065 2.48257,0.36156c0.72297,0.10507 2.20637,0.31514 2.94305,0.40628c1.39999,0.1732 2.64175,0.28311 3.19895,0.31706c0.99187,0.06044 1.82946,0.07676 3.30709,0.07991c0.8837,0.00188 1.88997,0 2.65891,0c1.12545,0 2.1765,0 2.99842,0c1.10403,0 1.80511,0 2.92589,0c1.07099,0 1.97263,0 2.9165,0c1.14038,0 2.17647,0 3.17277,0c0.99755,0 1.82869,0 3.28398,0c0.53467,0 1.13355,0 2.47078,0c0.71175,0 1.43462,0 2.15526,0c2.01577,0 2.59712,0 3.59819,0c1.11416,0 1.86618,-0.00078 0.97745,0c-1.06765,0.00093 -1.89236,-0.06798 -2.96575,0.30961c-0.91083,0.3204 -1.98486,1.10841 -2.65672,1.5012c-0.87607,0.51219 -1.98831,0.91155 -2.83826,0.96982c-1.05086,0.07204 -2.27039,-0.28561 -2.27039,0.01491c0,1.1182 1.89845,0 2.73235,0c0.92248,0 1.88922,0 2.856,0c1.35435,0 2.15617,0 3.22054,0c1.20733,0 2.1132,-0.51108 2.97258,0.11928c0.65557,0.48088 -0.54926,1.1902 -1.35493,1.31389c-1.15045,0.17663 -1.92273,0.50014 -2.87758,0.86941c-1.09923,0.4251 -1.98908,0.4051 -3.01443,0.88991c-0.86239,0.40776 -1.82024,0.85089 -2.85451,0.9654c-0.77246,0.08553 -1.5816,0.08485 -2.74604,0.34501c-1.06582,0.23812 -2.44416,0.12669 -2.83752,1.36586c-0.29009,0.91383 1.02576,1.11262 2.20637,1.12007c0.79425,0.00501 1.95104,0 2.84434,0c0.64355,0 1.96598,0 2.9191,0c0.85347,0 2.09327,0 3.18253,0c0.74885,0 1.60731,0 2.76742,0c1.01839,0 1.8597,0 3.05078,0c0.99924,0 0.33931,0 -0.40292,0c-1.32098,0 -2.07668,0 -3.23236,0c-1.07596,0 -1.98756,0 -2.78955,0c-1.33631,0 -2.26116,0 -2.95339,0c-0.76307,0 -2.05823,0 -2.99399,0c-0.91803,0 -2.9244,-1.48607 -2.9244,0c0,0.88687 2.07979,0 2.67867,0c1.33723,0 2.04898,0 2.77184,0c0.72064,0 2.73641,0 3.3183,0c1.01549,0 1.86267,0 2.89549,0c1.11285,0 2.07654,-0.35132 3.24378,0.00629c0.83455,0.25568 0.11834,1.56075 -0.59297,1.95058c-0.82874,0.4542 -1.98293,0.94742 -2.71871,1.39777c-0.85549,0.52363 -1.62687,1.30365 -2.35859,1.95688c-0.85154,0.76022 -1.66187,1.18833 -2.37335,1.51703c-1.40442,0.64884 -1.98304,0.83948 -3.20871,1.3139c-0.63432,0.24553 -1.27162,0.47901 -2.49436,0.96539c-1.0943,0.43528 -3.13108,0.44916 -3.09656,1.56877c0.02767,0.89731 1.40786,0.46555 2.43088,0.49061c0.59936,0.01468 2.70985,0.01491 3.50485,0.01491c0.82708,0 1.6741,0 2.52888,0c0.85033,0 1.68407,0 2.48902,0c0.76398,0 2.69158,0 3.62808,0c0.70625,0 2.43247,-0.24517 2.37703,0.39696c-0.08111,0.9398 -1.95027,0.86466 -2.84272,0.95048c-0.60696,0.05838 -2.05121,0.05032 -2.7984,0.05032c-1.19554,0 -2.01638,-0.00235 -3.22496,0.46593c-0.7506,0.29083 -1.58738,0.72566 -2.47078,1.14057c-0.84647,0.39756 -2.96437,-0.09142 -2.86333,1.15922c0.0525,0.64957 1.26341,0.02982 2.38217,0.02982c0.71584,0 1.52026,0 2.39105,0c0.91509,0 1.85233,0 2.78958,0c0.91509,0 1.78588,-0.00687 3.91645,0.00023c0.92394,0.00308 2.0258,0.28701 1.46526,0.72777c-0.5926,0.46598 -2.44362,0.67899 -3.28384,0.8093c-0.95894,0.14871 -2.02786,0.28049 -3.19304,0.40466c-1.24838,0.13305 -2.56932,0.25068 -3.95023,0.35433c-1.42786,0.10717 -4.37841,0.27241 -5.87523,0.32941c-1.48762,0.05665 -2.9467,0.09357 -4.35703,0.1195c-1.34158,0.02467 -2.59473,0.03723 -3.73933,0.04403c-1.0162,0.00604 -2.58365,0.00629 -3.09875,0.00629c-0.32914,0 -0.47454,0 -0.43839,0c0.2155,0 0.60811,0 1.17561,0c0.7402,0 2.72979,0 3.97087,0c1.38168,0 2.87849,0 4.46496,0c1.65069,0 3.34009,0 5.0428,0c1.69052,0 4.93318,0 6.43868,0c1.41692,0 2.74526,0 3.98509,0c1.15122,0 2.21394,0 3.18804,0c0.88559,0 2.39105,0 3.01227,0c0.54038,0 1.00768,0 1.40972,0c0.34444,0 0.63909,0 0.89164,0c0.21827,0 0.58284,0 0.74334,0c0.14945,0 0.28782,0 0.41511,0c0.11624,0 0.22141,0 0.31549,0c0.08304,0 1.11619,0 2.04604,0c0.84131,0 2.14171,-0.02915 2.99619,0.01491c0.75661,0.03901 1.1492,0.88969 0.15499,1.1499c-0.73104,0.19134 -1.58924,0.1782 -2.47078,0.26836c-1.59059,0.16268 -2.37693,0.53543 -3.20577,0.9654c-0.90576,0.46986 -2.06938,0.2868 -2.82569,0.47687c-1.02846,0.25846 -2.00469,1.16114 -2.75489,1.26754c-1.28108,0.1817 -2.16232,0.03961 -2.96521,0.05032c-1.09089,0.01457 -1.98851,0.34786 -2.98437,0.80325c-0.86455,0.39534 -1.74703,0.56935 -2.90322,0.59451c-0.91644,0.01994 -1.89351,-0.0441 -2.9519,0.02912c-0.81222,0.05619 -1.8351,0.56153 -2.63753,0.97168c-1.01626,0.51945 -0.11364,0.39696 0.93576,0.39696c0.6376,0 1.33277,0 2.07222,0c1.55863,0 3.13493,0 3.8982,0c0.7378,0 1.44681,0 2.76519,0c0.60277,0 1.67873,0 2.9213,0c1.09146,0 1.8171,0 3.14841,0c0.85752,0 1.76818,0.00009 2.66999,0c1.20254,-0.00012 2.16607,0.03869 2.98254,-0.07991c1.09004,-0.15833 1.95719,-0.52927 2.8189,-0.82491c1.14622,-0.39325 2.45784,-0.1987 2.45784,-0.49295c0,-0.81981 -2.07796,0 -3.04031,0c-0.52544,0 -1.62059,0 -2.17259,0c-1.06859,0 -2.45213,0 -3.48326,0c-0.95644,0 -2.05307,0 -3.14378,0c-0.80293,0 -1.89828,0 -2.80674,0c-0.73557,0 -1.84105,0 -2.74435,0c-0.9033,0 -2.27322,-0.0318 -3.05669,0.05032c-1.19139,0.12489 -1.88899,0.33959 -3.00855,0.64856c-0.72959,0.20135 -2.78384,-0.28779 -2.71634,0.69888c0.07699,1.12522 1.33391,0 2.56486,0c1.78886,0 2.91832,0 4.18285,0c1.36858,0 2.81022,0 4.29393,0c1.49478,0 2.96964,0 4.39358,0c2.57111,0 3.66349,0 4.62414,0c0.84114,0 1.57485,0 2.21339,0c0.55551,0 1.04018,0 1.46617,0c0.72469,0 1.04592,0 1.34608,0c0.28026,0 0.54169,0 1.42134,0c0.96677,0 2.01618,0 3.04342,0c0.87505,0 2.01138,0 2.75857,0c1.19554,0 2.47879,0.14838 2.19623,0.90389c-0.49298,1.31811 -1.92145,1.17886 -2.48679,1.41244c-0.62267,0.25726 -2.03317,0.77783 -2.80803,1.0446c-0.81175,0.27949 -2.53165,0.8351 -3.42755,1.11169c-0.90917,0.28069 -1.82585,0.55447 -2.74137,0.82397c-0.90617,0.26675 -1.79622,0.52396 -2.66172,0.77367c-0.83333,0.24042 -2.37288,0.68513 -3.06538,0.88828c-0.64176,0.18826 -1.78778,0.53698 -2.78772,0.80372c-0.88076,0.23495 -2.06584,0.47525 -2.79306,0.54442c-0.9766,0.0929 -2.24015,0.07991 -2.97444,0.07991c-1.08389,0 -2.05361,0 -2.8366,0c-0.87154,0 -2.30616,0 -3.3231,0c-0.5223,0 -1.58907,0 -2.67793,0c-0.55,0 -2.2088,0 -2.76097,0c-1.09663,0 -2.17556,0 -2.70563,0c-1.53924,0 -2.50598,0 -3.38418,0c-1.0544,0 -1.37118,0 -0.45163,0c0.71932,0 1.63684,0 4.14153,0c1.61505,0 3.44488,0 5.44961,0c2.13975,0 4.37473,0 6.66505,0c2.30579,0 4.58725,0 8.91773,0c1.97574,0 3.80649,0 5.49109,0c1.53742,0 2.92646,0 4.16609,0c1.08906,0 2.02648,0 3.44191,0c0.47693,0 0.80442,0 0.98799,0c0.0452,0 -0.04243,0 -0.25738,0c-0.3367,0 -0.78962,0 -2.02205,0c-0.7677,0 -1.62501,0 -2.56209,0c-1.00677,0 -2.07333,0 -3.18973,0c-1.15622,0 -2.34234,0 -4.76437,0c-1.21618,0 -2.42352,0 -3.61315,0c-1.16305,0 -2.29069,0 -3.37404,0c-1.03022,0 -1.99844,0 -3.71348,0c-0.73155,0 -1.38003,0 -1.95104,0c-0.49906,0 -0.93171,0 -1.30344,0c-0.3164,0 -0.58301,0 -0.9889,0c-0.14611,0 -0.25904,-0.02517 -0.25904,0c0,0.09227 0.25904,0 0.57784,0c0.47156,0 1.11582,0.00052 3.0021,0c1.27338,-0.00035 2.74826,-0.00031 4.39355,-0.01886c1.78484,-0.02013 3.67835,-0.05696 5.64885,-0.1321c2.01759,-0.07694 4.05417,-0.13676 8.03808,-0.54792c1.89983,-0.19608 3.71413,-0.47477 5.43795,-0.78624c1.634,-0.29525 3.16611,-0.6271 4.59117,-0.97495c1.31831,-0.32179 2.52108,-0.63761 4.54594,-1.2673c0.82273,-0.25585 1.51992,-0.4982 2.10381,-0.71286c0.48305,-0.17758 0.87147,-0.33425 1.17723,-0.46127c0.23326,-0.09692 0.39795,-0.23062 0.59335,-0.22364c0.03996,0.00143 0.04679,0.0623 0.00666,0.13209c-0.06615,0.11499 -0.18894,0.24973 -0.35204,0.42142c-0.20465,0.21545 -0.45923,0.46763 -1.13058,1.07721c-0.41163,0.37375 -0.87614,0.7773 -1.38648,1.20558c-0.54484,0.45725 -1.12426,0.92631 -1.73514,1.39427c-0.62706,0.48038 -1.26392,0.97229 -2.5977,1.82641c-0.65716,0.42084 -1.31821,0.79109 -1.96763,1.1322c-0.62743,0.32956 -1.23629,0.62102 -1.81821,0.88059c-0.54544,0.24328 -1.05227,0.46005 -1.93348,0.78275c-0.35971,0.13172 -0.67257,0.23167 -0.94316,0.31241c-0.23428,0.0699 -0.44187,0.11724 -0.62432,0.17402c-0.82509,0.25675 -1.64917,0.73939 -2.51797,0.98031c-1.10254,0.30574 -1.99327,0.32335 -2.92535,0.39696c-0.93208,0.07361 -2.22616,0.1654 -3.23679,0.49295c-0.79553,0.25784 -1.73156,0.68193 -2.57773,0.97843c-1.0165,0.35618 -1.80713,0.95283 -2.93201,1.20487c-0.91336,0.20465 -1.95415,0.11928 -2.84914,0.11928c-0.69628,0 -1.95658,0 -2.9794,0c-1.18669,0 -1.82983,0 -2.49733,0c-1.38148,0 -2.08222,0 -2.7807,0c-1.36378,0 -2.64786,0 -3.25672,0c-1.15122,0 -2.21394,0 -2.71205,0c-1.76673,0 -3.48032,-1.25239 -3.48032,0c0,0.68702 1.04498,0 1.70085,0c0.82746,0 3.06355,0 4.49614,0c1.61525,0 3.37441,0 5.23871,0c1.93074,0 3.88915,0 5.83651,0c1.89753,0 5.38816,0 6.91189,0c1.36766,0 2.58922,0 3.6746,0c0.95917,0 1.80213,0 2.53882,0c0.64037,0 1.67207,0.00157 2.08607,-0.00047c0.37417,-0.00184 0.73516,-0.0079 1.1092,-0.02935c0.41417,-0.02375 0.89461,-0.06786 1.46783,-0.13c0.69321,-0.07515 2.54388,-0.30508 3.74341,-0.45893c1.35685,-0.17403 2.82873,-0.36642 4.37362,-0.5703c1.57603,-0.20798 3.14091,-0.41661 4.65259,-0.62061c1.41661,-0.19116 3.79595,-0.51815 4.68377,-0.646c0.68111,-0.09809 1.1698,-0.16928 1.47945,-0.22434c0.14655,-0.02606 0.14307,-0.03736 0.005,-0.02306c-0.25914,0.02684 -1.08106,0.13933 -1.61657,0.21711c-0.60544,0.08794 -1.2727,0.18904 -1.99418,0.29982c-0.76813,0.11795 -1.57488,0.24388 -2.41264,0.3753c-0.86107,0.13507 -2.62185,0.41313 -3.50613,0.55258c-0.87654,0.13824 -1.73754,0.27389 -2.57537,0.40466c-0.80675,0.12592 -1.57478,0.24493 -2.2964,0.35433c-0.66726,0.10115 -1.80811,0.26804 -2.26893,0.32941c-0.39079,0.05204 -0.71976,0.09194 -0.99461,0.1195c-0.2281,0.02287 -0.41761,0.04287 -1.40952,0.05032c-1.00954,0.00758 -1.75842,0 -2.61689,0c-1.16011,0 -2.21394,0 -3.01592,0c-1.25402,0 -1.98756,0 -3.14324,0c-0.7557,0 -2.0811,0 -2.88809,0c-1.15308,0 -2.05046,-0.00049 -2.7661,0c-1.35807,0.00094 -2.26454,-0.01324 -2.86724,0.07991c-1.41317,0.2184 -2.11104,0.63421 -3.24415,1.14803c-0.38599,0.17503 0.32157,0.16983 1.19274,0.16983c0.58504,0 2.10381,0 3.05156,0c1.05511,0 2.19215,0 3.38566,0c1.2245,0 2.4545,0 3.6646,0c1.16473,0 3.25614,0 4.13822,0c0.77249,0 1.44756,0 2.03736,0c0.5168,0 0.97268,-0.00009 1.75051,0c1.01305,0.00012 2.04465,0.0015 2.79249,0.05032c0.82871,0.05411 2.27613,0.25552 2.81465,0.34664c1.12403,0.19018 2.25495,0.40913 2.80526,0.50786c1.49191,0.26768 2.32768,0.143 3.43215,0.52835c0.87745,0.30615 0.26455,1.24795 -1.20142,2.06124c-0.7179,0.39827 -1.56816,0.77957 -2.51061,1.19929c-1.01748,0.45314 -2.09962,0.90586 -3.2279,1.35024c-1.15061,0.45317 -2.30646,0.9101 -4.5932,1.64378c-1.08204,0.34716 -2.12962,0.63128 -3.14155,0.8785c-0.97775,0.23887 -1.93121,0.43854 -2.86262,0.61432c-0.91215,0.17214 -1.81223,0.32113 -3.58954,0.60383c-0.88489,0.14076 -1.76659,0.27902 -2.64178,0.41304c-0.86495,0.13246 -1.71666,0.25954 -2.55209,0.3753c-0.81506,0.11293 -1.60633,0.2261 -3.10838,0.37646c-0.70324,0.07039 -1.37837,0.11809 -2.02908,0.15305c-0.63047,0.03387 -1.24568,0.05353 -1.84973,0.065c-0.59737,0.01134 -1.19257,0.0142 -2.39399,0.01491c-0.61382,0.00036 -1.86142,-0.00347 -2.48848,-0.01491c-0.6249,-0.0114 -1.85541,-0.05109 -2.45304,-0.10437c-1.69173,-0.1508 -2.70911,-0.3632 -3.63747,-0.57961c-0.84273,-0.19644 -1.93331,-0.50884 -2.8438,-0.61898c-0.9993,-0.12088 -2.15215,0.17485 -2.92498,-0.13023c-0.79739,-0.31477 -0.01486,-1.00093 1.80213,-1.34744c0.90654,-0.17288 1.96692,-0.28529 3.15321,-0.41304c1.2948,-0.13944 2.68114,-0.26283 4.13951,-0.3753c1.51086,-0.11652 3.05609,-0.22949 6.17538,-0.37646c1.53752,-0.07244 3.04781,-0.11817 4.52476,-0.15305c1.43806,-0.03395 2.83198,-0.0534 4.17603,-0.065c1.28868,-0.01112 2.51649,-0.01397 4.76735,-0.01491c1.01343,-0.00042 1.95267,0 2.8211,0c0.8009,0 1.53759,0 2.21339,0c0.61821,0 1.18223,0 2.1608,0c0.42305,0 0.81621,0 1.19385,0c0.37657,0 0.76638,0 1.18389,0c0.4596,0 0.97562,0 2.23461,0c0.76621,0 1.61322,0 2.52223,0c0.95218,0 1.92871,0 2.91076,0c0.9688,0 1.90547,0 3.60724,0c0.73155,0 1.38003,0 1.95104,0c0.49906,0 0.93171,0 1.30344,0c0.3164,0 1.5409,1.20952 1.5409,0c0,-1.00264 -1.95148,-0.00994 -2.61371,0.00629c-1.10454,0.02707 -1.86416,0.01867 -3.18088,0.39254c-0.92816,0.26353 -1.58704,0.62721 -2.87518,0.99894c-1.09065,0.31473 -1.70815,0.42261 -2.35268,0.55911c-1.35253,0.28644 -2.04749,0.41795 -2.74232,0.55911c-1.36263,0.27684 -2.65199,0.55951 -3.27513,0.69259c-1.22297,0.26117 -1.83058,0.40075 -3.07,0.5859c-1.2877,0.19236 -1.96361,0.23717 -2.65229,0.27955c-1.3883,0.08543 -2.07388,0.09379 -2.74232,0.10437c-1.25598,0.01988 -2.82444,-0.00032 -3.62791,0.0212c-0.95684,0.02563 -2.04766,0.21616 -2.92572,0.48666c-0.64355,0.19825 -1.68275,0.55644 -2.83309,0.73499c-0.79712,0.12373 -1.97223,0.15923 -2.68367,0.16796c-1.30969,0.01608 -2.32964,0.1519 -3.04933,0.98659c-0.75604,0.87688 -0.15067,1.6221 1.02636,1.7309c0.54017,0.04993 1.15524,0.05833 2.59841,0.07361c0.82668,0.00876 2.68496,0.00629 3.71203,0.00629c1.07913,0 2.19586,0 3.33587,0c1.14882,0 2.29214,0 3.41553,0c1.0891,0 3.10673,0 4.00945,0c0.82857,0 1.5863,0 2.27647,0c0.62601,0 1.19112,0 1.69866,0c0.45329,0 1.52117,0 2.40967,0c1.01272,0 1.86358,0 3.04416,0c1.13649,0 1.79328,0 2.49439,0c0.73428,0 1.4907,0 3.02568,0c1.49073,0 2.19292,0 2.85748,0c1.19845,0 3.43012,1.56178 3.43012,0c0,-0.50322 -1.15126,0 -2.86005,0c-0.71473,0 -1.48924,0 -2.31467,0c-0.86749,0 -1.76818,0 -2.69323,0c-0.94056,0 -2.83275,0 -3.76814,0c-0.92431,0 -1.83757,0 -2.73972,0c-0.89113,0 -1.77116,0 -2.64013,0c-0.85789,0 -2.54051,0 -3.36499,0c-0.81236,0 -1.6114,0 -2.39605,0c-0.76915,0 -2.25653,0 -2.97258,0c-1.37114,0 -2.02445,0 -3.26905,0c-0.59352,0 -1.72852,0 -2.80154,0c-1.01991,0 -1.9955,0 -2.93569,0c-0.91363,0 -1.80953,0 -3.13919,0c-0.88076,0 -1.74825,0 -2.59361,0c-1.58907,0 -2.31967,0 -3.33252,0c-1.19554,0 -2.11948,0 -1.60512,0c0.99998,0 1.69366,0 2.53128,0c0.99258,0 2.1512,0 3.48694,0c3.24709,0 5.17175,0 7.26464,0c2.2191,0 4.52236,0 6.86764,0c2.34528,0 4.64853,0 6.86764,0c4.01755,0 5.74108,-0.00293 7.26762,0.00373c1.34273,0.00587 2.5152,0.0156 3.53011,0.0545c0.87141,0.0334 1.61508,0.06701 2.23495,0.18032c0.95458,0.17449 1.318,0.33522 1.55272,0.56096c0.1807,0.1738 0.24553,0.45841 0.13283,0.68561c-0.15854,0.31964 -0.54369,0.60202 -1.06268,0.87431c-1.48671,0.77999 -2.54767,1.03957 -3.74007,1.3903c-1.31733,0.38748 -2.74107,0.75202 -4.23748,1.11332c-1.53816,0.37138 -3.09335,0.72172 -4.636,1.05043c-2.92643,0.62357 -4.26227,0.87903 -5.50089,1.11449c-1.14474,0.2176 -2.20029,0.40797 -3.1698,0.57239c-0.8858,0.15023 -1.69211,0.27924 -2.42261,0.38368c-1.24351,0.17779 -1.76558,0.23587 -2.2287,0.28328c-0.4118,0.04216 -0.78067,0.0718 -1.11416,0.09015c-0.30563,0.01682 -0.59149,0.02457 -0.86509,0.02726c-0.54166,0.00531 -0.83036,0.00613 -1.16747,-0.00932c-0.42383,-0.01943 -0.97174,-0.07133 -1.68038,-0.16353c-0.90921,-0.1183 -2.05472,-0.29603 -3.47367,-0.54094c-3.81645,-0.65874 -6.26936,-1.13688 -9.06239,-1.67732c-3.08429,-0.59681 -6.40939,-1.25758 -9.92616,-1.97505c-3.6623,-0.74715 -7.41997,-1.52719 -11.22136,-2.35244c-7.55456,-1.64002 -11.21051,-2.49495 -14.76546,-3.33973c-3.4536,-0.8207 -6.79933,-1.6444 -10.03578,-2.46147c-3.12784,-0.78966 -6.1417,-1.5699 -9.03948,-2.33566c-5.44515,-1.43894 -7.98515,-2.13263 -10.40992,-2.79367c-2.31491,-0.63109 -4.52428,-1.24047 -6.63353,-1.83038c-2.01604,-0.56383 -3.94337,-1.109 -5.78665,-1.64168c-3.46252,-1.00059 -5.08841,-1.48992 -6.6492,-1.95501c-1.49445,-0.44531 -2.9216,-0.87275 -4.28396,-1.26637c-1.29442,-0.374 -2.52139,-0.72481 -3.68619,-1.01479c-2.12107,-0.52804 -3.08744,-0.70092 -3.98658,-0.84052c-0.83269,-0.12929 -1.60393,-0.21531 -2.31302,-0.27046c-0.6474,-0.05036 -1.23568,-0.07347 -1.76504,-0.08177c-0.88698,-0.01392 -1.24774,-0.00559 -1.55863,-0.00559c-0.26657,0 -0.49443,0 -0.68908,0c-0.16695,0 -0.31177,0 -0.44001,0c-0.22877,0 -0.33985,0 -0.45312,0c-0.1177,0 -0.24205,0 -0.37525,0c-0.14428,0 -0.30184,0 -0.47491,0c-0.40146,0 -0.63466,0 -0.89441,0c-0.29076,0 -0.61696,0 -0.98299,0c-0.41032,0 -0.86935,0 -1.38151,0c-1.20142,0 -1.89696,0 -2.64786,0c-0.79516,0 -1.62356,0 -2.47406,0c-0.86161,0 -1.72318,0 -2.57371,0c-1.62356,0 -2.37609,0 -3.08328,0c-0.66067,0 -1.27375,0 -1.83811,0c-0.51457,0 -0.97819,0 -1.38979,0c-0.6627,0 -0.91289,0 -1.11437,0c-0.15938,0 -0.28336,0 -0.37856,0c-0.07307,0 -0.13063,0 -0.17935,0c-0.09739,0 -0.1581,0 -0.22877,0c-0.07952,0 -0.16678,0 -0.2607,0c-0.09942,0 -0.2033,0 -0.31049,0c-0.21992,0 -0.33079,0 -0.44278,0c-0.11422,0 -0.23174,0 -0.3537,0c-0.12746,0 -0.26161,0 -0.40349,0c-0.3114,0 -0.48356,0 -0.67007,0c-0.20425,0 -0.4295,0 -0.67912,0c-0.27732,0 -0.58561,0 -0.92819,0c-0.80144,0 -1.26453,-0.00107 -1.76082,0.00187c-0.51845,0.00306 -1.04802,0.00933 -1.57745,0.02726c-0.51852,0.01756 -1.01559,0.03695 -1.47779,0.09015c-0.78418,0.09026 -1.08619,0.175 -1.32392,0.27768c-0.19415,0.08386 -0.34407,0.18793 -0.45001,0.30192c-0.08986,0.09668 -0.14685,0.20758 -0.2009,0.30192c-0.09567,0.16701 -0.15756,0.23579 -0.23911,0.27768c-0.09749,0.05009 -0.22843,0.0738 -0.39022,0.09015c-0.19982,0.02021 -0.4446,0.02469 -0.73888,0.02726c-0.76013,0.00664 -1.235,0.00091 -1.76967,0.00373c-0.58781,0.00311 -1.22213,0.01005 -1.89625,0.02726c-0.70743,0.01805 -1.44158,0.04268 -2.19512,0.09015c-1.54161,0.09712 -2.31552,0.18421 -3.08473,0.27955c-0.76134,0.09437 -1.50901,0.20524 -2.23829,0.32918c-0.70831,0.12037 -1.38996,0.24876 -2.03905,0.39207c-1.19173,0.2631 -1.72224,0.41323 -2.21245,0.55539c-0.454,0.13165 -0.87249,0.2655 -1.2603,0.39207c-0.36052,0.11766 -1.58833,0.52176 -2.49622,0.66698c-0.91444,0.14626 -1.55259,0.19602 -2.34305,0.29446c-0.97333,0.12122 -3.57856,0.46245 -5.2557,0.69562c-1.91243,0.26588 -4.02833,0.57041 -6.31638,0.91414c-2.43061,0.36514 -4.97173,0.76084 -7.59157,1.1909c-2.67001,0.43829 -8.03106,1.38285 -10.66157,1.88722c-2.57074,0.49292 -5.06024,0.99902 -7.45212,1.4991c-2.27802,0.47627 -4.42206,0.94037 -6.41597,1.37331c-1.82586,0.39646 -4.90041,1.06865 -6.12965,1.31133c-1.06756,0.21077 -2.03847,0.37752 -2.97553,0.47804c-0.9612,0.1031 -2.01305,0.15136 -3.21463,0.17612c-1.41386,0.02913 -5.12748,0.02516 -7.52997,0.02516c-2.7368,0 -5.74368,0 -8.95648,0c-3.35448,0 -6.78644,0 -10.2317,0c-3.39433,0 -9.77341,0 -12.64175,0c-2.63256,0 -5.03708,0 -7.2213,0c-1.9717,0 -3.7386,0 -5.30847,0c-1.38057,0 -3.60484,0 -4.46809,0c-0.7293,0 -1.35677,0 -1.91451,0c-0.52009,0 -1.03464,0 -1.57576,0c-0.5998,0 -2.10379,0 -3.06465,0c-1.10253,0 -2.33347,0 -3.67955,0c-1.44791,0 -2.98438,0 -4.59614,0c-1.67373,0 -5.15403,0 -6.93422,0c-1.79016,0 -3.57809,0 -5.35164,0c-1.74698,0 -3.45522,0 -5.11253,0c-1.59422,0 -4.54466,0 -5.87984,0c-1.24331,0 -2.40249,0 -3.48529,0c-1.01417,0 -1.96746,0 -2.8676,0c-0.85477,0 -2.45914,0.00144 -3.22349,-0.00047c-0.74555,-0.00186 -1.4757,-0.00635 -2.19346,-0.02935c-0.70913,-0.02273 -1.41305,-0.06116 -2.11375,-0.13c-0.70301,-0.06906 -2.12522,-0.29515 -2.85154,-0.46009c-0.75719,-0.17195 -1.55618,-0.39249 -2.41596,-0.64368c-0.93915,-0.27438 -1.97029,-0.59509 -3.11335,-0.94559c-1.27012,-0.38945 -4.25839,-1.28893 -6.00087,-1.79358c-1.87504,-0.54304 -3.84195,-1.09963 -5.85642,-1.66473c-2.01821,-0.56616 -3.99821,-1.11538 -5.89626,-1.63959c-1.77266,-0.48958 -4.77044,-1.31269 -5.92061,-1.62816c-0.92208,-0.25291 -1.64255,-0.45074 -2.18847,-0.59754c-0.39727,-0.10682 -0.67252,-0.18064 -0.85348,-0.22015c-0.11151,-0.02435 -0.23578,-0.03102 -0.30017,-0.03168c-0.0965,-0.00099 -0.24614,-0.00537 -0.46991,-0.01467c-0.31902,-0.01324 -0.75423,-0.03479 -1.3267,-0.065c-0.73081,-0.03857 -2.75139,-0.15265 -4.07235,-0.22947c-1.49811,-0.08713 -3.12903,-0.18348 -4.84852,-0.28514c-1.76377,-0.10427 -3.52752,-0.20892 -5.24702,-0.3103c-1.63093,-0.09616 -4.44998,-0.2606 -5.55993,-0.32312c-0.90622,-0.05105 -1.62649,-0.09013 -2.17851,-0.1195c-0.40145,-0.02136 -0.67015,-0.03368 -0.82358,-0.04403c-0.05611,-0.00379 0.05313,-0.00629 0.18781,-0.00629c0.19003,0 0.44648,0 0.78041,0c0.42249,0 0.94461,0 1.57743,0c0.75458,0 2.67333,0 3.85464,0c1.31748,0 2.75229,0 4.28563,0c1.61303,0 3.28695,0 5.00293,0c1.73923,0 5.21216,0 6.91007,0c1.65695,0 3.26518,0 4.81696,0c1.48758,0 2.90321,0 4.23914,0c1.24847,0 3.45208,0.0008 4.39429,-0.00023c0.83926,-0.00092 1.58336,-0.00228 2.23995,-0.01467c0.57695,-0.0109 1.08225,-0.02766 1.52264,-0.065c0.38469,-0.03261 1.01685,-0.1414 1.27486,-0.22969c0.23059,-0.07891 0.43074,-0.17767 0.59278,-0.29982c0.14373,-0.10834 0.2591,-0.23512 0.33375,-0.3753c0.06824,-0.12814 0.11516,-0.41503 0.09354,-0.55282c-0.02246,-0.14316 -0.08195,-0.28579 -0.16605,-0.41933c-0.09269,-0.14719 -0.21773,-0.28578 -0.3653,-0.41932c-0.1622,-0.1468 -0.56275,-0.42422 -0.79646,-0.55887c-0.24888,-0.14339 -0.51574,-0.2777 -0.79535,-0.40466c-0.28606,-0.12988 -0.57906,-0.2485 -0.87506,-0.35433c-0.29296,-0.10473 -0.8646,-0.26979 -1.13723,-0.33011c-0.26613,-0.05888 -0.53356,-0.10524 -0.80531,-0.16354c-0.28362,-0.06085 -0.58444,-0.13441 -0.90495,-0.23901c-0.35129,-0.11465 -1.1563,-0.45822 -1.61765,-0.69515c-0.50273,-0.25819 -1.03085,-0.55814 -1.57909,-0.88479c-0.56509,-0.33669 -1.13355,-0.69333 -1.69864,-1.06091c-0.55811,-0.36304 -1.61032,-1.08306 -2.09069,-1.42828c-0.45089,-0.32403 -0.86861,-0.63611 -1.25696,-0.92882c-0.36031,-0.27158 -0.69134,-0.5256 -0.99794,-0.75269c-0.27944,-0.20698 -0.76672,-0.54446 -0.98003,-0.66557c-0.19287,-0.1095 -0.37755,-0.19449 -0.55625,-0.26837c-0.1774,-0.07334 -0.3621,-0.13969 -0.55625,-0.21805c-0.21179,-0.08547 -0.70678,-0.31541 -0.99793,-0.47151c-0.32003,-0.1716 -0.65779,-0.36644 -1.00956,-0.5703c-0.35892,-0.208 -0.71676,-0.41898 -1.06933,-0.62061c-0.33821,-0.19341 -0.94812,-0.52556 -1.21065,-0.64623c-0.23071,-0.10604 -0.43868,-0.18604 -0.62765,-0.23901c-0.17139,-0.04805 -0.33331,-0.07493 -0.48817,-0.08805c-0.15221,-0.01289 -0.46824,-0.01258 -0.64075,-0.01258c-0.1891,0 -0.40035,0 -0.63927,0c-0.27213,0 -0.583,0 -0.93815,0c-0.40497,0 -1.38648,0 -1.97262,0c-0.64923,0 -1.35825,0 -2.12371,0c-0.8186,0 -1.68702,0 -2.60193,0c-0.95808,0 -2.99047,0 -4.05593,0c-1.08206,0 -2.16412,0 -3.22957,0c-1.03225,0 -2.01468,0 -2.9307,0c-0.833,0 -2.1835,0.00098 -2.67167,-0.00023c-0.36197,-0.00091 -0.60831,0.02613 -0.73391,-0.01467c-0.02502,-0.00813 0.05294,-0.03714 0.2225,-0.065c0.25545,-0.04197 0.99974,-0.15161 1.47411,-0.22969c0.53225,-0.08761 1.11302,-0.18829 1.73351,-0.29982c0.6518,-0.11717 1.3256,-0.24252 2.01247,-0.3753c0.69169,-0.13372 2.05254,-0.41136 2.70543,-0.55258c0.63119,-0.13653 1.23976,-0.27383 1.8265,-0.40466c0.56451,-0.12587 1.10663,-0.24672 1.62724,-0.35433c0.49782,-0.10289 1.42756,-0.27116 1.85971,-0.32941c0.40921,-0.05517 0.79685,-0.09342 1.16232,-0.1195c0.34302,-0.02448 0.66415,-0.03734 0.96306,-0.04403c0.27672,-0.00621 0.7638,-0.00629 0.9745,-0.00629c0.19077,0 0.36382,0 0.52138,0c0.14427,0 0.27748,0 0.40183,0c0.1177,0 0.34205,0.00074 0.45201,-0.00023c0.10553,-0.00093 0.32041,0.15668 0.35127,-0.02889c0.15016,-0.90278 -1.58969,-0.84457 -2.4892,-1.09095c-1.10437,-0.3025 -1.74271,-0.4283 -3.1591,-0.69703c-0.76773,-0.14565 -1.56986,-0.28133 -2.39935,-0.41932c-0.85125,-0.14161 -1.71943,-0.28022 -3.48326,-0.55911c-0.88461,-0.13987 -1.76369,-0.27849 -2.63182,-0.41304c-0.85136,-0.13195 -1.68058,-0.25851 -2.48238,-0.3753c-0.76826,-0.1119 -2.8187,-0.38212 -3.40079,-0.4396c-1.01008,-0.09974 -1.83966,-0.14774 -2.80118,-0.16796c-1.22347,-0.02573 -2.3819,-0.64469 -1.98295,-1.1464c0.89183,-1.12156 1.73646,-1.02077 2.46706,-1.32671c0.81636,-0.34185 1.70661,-0.67926 2.64509,-1.02317c0.96401,-0.35326 1.9362,-0.69437 2.89417,-1.02317c1.78621,-0.61306 2.57976,-0.87199 3.29729,-1.11449c1.2271,-0.41471 1.78493,-0.45244 2.93568,-1.07348c1.06088,-0.57255 0.82386,-1.91155 0.12066,-2.35081c-1.01372,-0.63321 -2.1161,-0.46524 -2.12169,-0.75713c-0.02225,-1.16104 0.92333,-1.66026 1.06103,-2.90595c0.12386,-1.12049 1.33663,-1.14276 1.99678,-0.66371c0.79553,0.57729 -0.33891,0.1091 -0.95199,-0.38764c-0.72459,-0.58709 -1.49761,-1.28188 -2.37777,-1.81151c-1.29016,-0.77636 -2.19069,-0.98976 -3.02589,-1.10353c-0.76242,-0.10386 -2.55936,-1.10229 -2.97535,0.03192c-0.31813,0.86743 1.42474,1.52638 2.17113,1.95314c0.84126,0.481 1.72306,0.94006 2.57702,1.32508c1.3068,0.58919 1.86779,0.29701 1.10992,-0.40815c-0.51116,-0.47561 -1.65943,-1.36085 -2.4309,-1.92472c-0.76796,-0.56132 -0.63877,-0.92997 0.32545,-0.44589c1.06731,0.53584 1.44758,0.82259 2.33128,1.1909c1.41734,0.59074 2.44516,0.77306 3.4685,0.88525c0.50217,0.05505 1.47113,0.09833 2.76299,0.10064c1.01787,0.00181 2.75951,0.33172 2.69417,-0.90482c-0.06827,-1.29204 -1.16322,-1.78864 -1.83941,-2.82186c-0.38538,-0.58888 -1.24618,-1.55387 -1.96173,-2.33031c-0.82456,-0.89474 -1.27589,-1.35387 -2.19087,-2.30048c-0.89088,-0.92169 -1.32672,-1.32751 -2.36283,-2.45472c-0.85681,-0.93214 -0.81792,-1.73388 -0.17379,-1.64656c1.08585,0.14721 2.03018,0.3718 3.06704,0.57774c1.03686,0.20593 1.52238,0.3531 3.06999,0.57961c0.99819,0.1461 2.61476,0.0431 2.27446,-0.88153c-0.40836,-1.10958 -1.9285,-1.07621 -1.50548,-1.13498c1.27553,-0.17719 1.751,1.03981 2.4678,1.28222c1.16435,0.39376 2.36097,0.67136 3.11279,0.7287c0.97957,0.07471 2.22682,-0.57852 2.10767,-1.70341c-0.08231,-0.77705 -1.18317,-2.38226 -1.54864,-2.78389c-0.78706,-0.86492 -1.71723,-1.63022 -2.19733,-1.99648c-0.94644,-0.72202 -2.30375,-1.59201 -3.09619,-2.03119c-0.6682,-0.37032 -1.72478,-1.01179 -1.29626,-0.90412c1.16877,0.29368 1.86666,0.98865 2.78365,1.46672c0.51418,0.26806 2.31249,1.09555 2.99823,1.36725c0.71199,0.28211 1.44127,0.5496 2.17353,0.79463c1.40316,0.46952 2.03154,0.8426 3.59986,1.02316c0.86726,0.09985 0.58259,-1.56368 1.34423,-1.51751c0.83433,0.05059 1.836,1.18837 2.5071,1.45927c1.07487,0.43389 1.87976,-0.18175 3.08272,-0.47082c0.64973,-0.15612 1.72704,-0.13963 3.02866,-0.16983c0.85329,-0.0198 0.10133,-1.18086 0.86639,-1.88233c0.46339,-0.42487 1.24167,0.92496 1.90103,1.1252c0.94794,0.28788 2.06407,0.0964 2.58293,0.75713c0.65317,0.83176 1.64815,1.2744 2.61484,1.39147c0.93241,0.11292 2.04493,0.00629 2.84029,0.00629c0.87506,0 2.01173,0 3.03162,0c0.75716,0 1.86265,0 2.74435,0c1.31452,0 2.19088,0 3.16242,0c0.90919,0 2.21099,0 2.80598,0c0.66695,0 2.15028,0 2.93347,0c0.78871,0 1.56636,0 2.31633,0c1.9217,0 2.85819,0.00006 3.56444,0c1.26766,-0.00012 2.16912,-0.13326 2.95191,-0.69888c0.87853,-0.63479 1.88184,-0.69888 2.87812,-0.69888c0.99626,0 1.88184,0 2.89434,0.11928l0.50036,1.27849l0.45163,0.83866l0.42471,1.22887" fill="#0000ff" id="svg_2" stroke="#000000" stroke-dasharray="null" stroke-linecap="null" stroke-linejoin="null" stroke-opacity="0" stroke-width="null"/>
  <text fill="#ffffff" font-family="serif" font-size="24" id="svg_3" stroke="#000000" stroke-dasharray="null" stroke-linecap="null" stroke-linejoin="null" stroke-opacity="0" stroke-width="0" text-anchor="middle" transform="matrix(1.74051 0 0 1.76522 -108.728 -59.4263)" x="212.5" xml:space="preserve" y="93.5">The Founder’s Story</text>
 </g>
</svg>