<svg width="640" height="480" xmlns="http://www.w3.org/2000/svg" xmlns:svg="http://www.w3.org/2000/svg">
 <!-- Created with SVG-edit - https://github.com/SVG-Edit/svgedit-->
 <g class="layer">
  <title>Layer 1</title>
  <text fill="#ffffff" font-family="serif" font-size="24" id="svg_3" stroke="#000000" stroke-dasharray="null" stroke-linecap="null" stroke-linejoin="null" stroke-opacity="0" stroke-width="0" text-anchor="middle" transform="matrix(1.74051 0 0 1.76522 -108.728 -59.4263)" x="212.5" xml:space="preserve" y="95.76601">The Founder’s Story</text>
  <path d="m161.55881,72.12694c1.31589,0 2.12622,0 3.30227,0c1.62785,0 2.63201,0 3.7451,0c1.19644,0 2.45071,0 3.73724,0c1.29326,0 2.56769,0 3.79776,0c2.22482,0 3.17476,0 4.01579,0c0.74422,0 1.99064,0 2.99503,0c1.26458,0 2.49285,0 3.36548,0c1.4703,0 2.60511,0 3.88336,0c1.36429,0 2.05519,0 3.40737,0c0.64248,0 2.79202,0 3.62027,0c1.10121,0 2.64254,0 3.53353,0c1.40374,0 2.32164,0 3.9405,0c1.1113,0 1.93732,0 3.49231,0c1.33382,0 2.08141,0 2.87201,0c1.67803,0 2.54931,0 3.43136,0c1.76408,0 3.4941,0 4.35575,0c0.86836,0 1.75019,0 2.65218,0c1.89136,0 3.94409,0 5.04439,0c1.14064,0 2.30818,0 3.48917,0c1.18098,0 2.34851,0 3.48917,0c1.1003,0 3.12613,0 4.02767,0c0.82489,0 1.57719,0 2.88008,0c1.06087,0 2.58562,0 3.70497,0c1.11869,0 2.35276,0.01711 3.34531,-0.05171c1.3497,-0.09358 2.17564,-0.21115 3.47707,-0.34052c1.46751,-0.14588 2.58958,-0.21046 3.8428,-0.21369c1.21009,-0.00312 2.42024,0 3.49633,0c1.17025,0 2.25307,0 3.39461,0c0.95823,0 2.74518,0 3.44233,0c1.50727,0 2.29318,0 3.86902,0c0.76574,0 1.50054,0 3.40177,0c1.39566,0 2.47672,0.00366 3.80425,-0.0001c1.13758,-0.00322 2.01378,-0.01343 3.00558,-0.0516c1.75954,-0.06773 3.08161,-0.16108 3.76122,-0.20601c1.34158,-0.0887 2.58371,-0.18074 4.08458,-0.27469c0.97729,-0.06117 2.06678,-0.27968 3.10262,-0.50736c1.14593,-0.25187 2.28596,-0.16497 3.43942,-0.17481c1.29932,-0.01108 2.18095,0.0211 3.73724,-0.21096c0.92653,-0.13816 2.19669,-0.34585 3.2606,-0.39223c0.81098,-0.03536 2.63533,-0.13036 3.61713,-0.21369c1.00648,-0.08543 2.00318,-0.19723 3.46989,-0.29125c1.34642,-0.0863 2.19197,-0.0753 3.33456,-0.15188c1.35629,-0.09091 2.43002,-0.36577 3.76838,-0.50332c1.0128,-0.10409 2.32701,-0.05171 3.45645,-0.05171c1.34279,0 2.4662,0 3.25095,0c1.60698,0 2.7889,0 3.87394,0c1.40329,0 2.43593,0 3.7572,0c1.4163,0 2.48119,0 3.09431,0c1.34728,0 2.06528,0 3.5497,0c1.49517,0 2.94729,0 3.65318,0c1.37149,0 2.68915,0 3.32783,0c1.83578,0 3.00379,0 4.15026,0c1.14647,0 1.72643,0 3.52413,0c1.2406,0 2.47044,0 3.64649,0c1.56911,0 2.44578,0 3.67001,0c0.89682,0 2.60511,-0.00105 3.31593,0.0002c1.62073,0.00286 2.50918,0.00995 3.43497,0.02504c0.95308,0.01553 1.92335,0.03619 2.8962,0.07817c1.92544,0.08307 3.75441,0.23723 4.63047,0.32669c0.85755,0.08757 1.69122,0.18523 3.29779,0.389c0.7784,0.09873 2.28267,0.29606 3.73369,0.46222c0.69621,0.07972 2.02778,0.21556 3.2449,0.35194c1.58511,0.17762 2.44935,0.29996 3.48601,0.47484c1.23748,0.20875 2.29741,0.31235 3.67879,0.31558c0.934,0.00219 2.30102,0 3.56558,0c1.15923,0 2.36376,-0.00004 3.31774,0c1.17068,0.00005 2.52752,-0.00678 3.46541,0.02181c1.77587,0.05415 2.53138,0.15026 3.56402,0.28114c1.03264,0.13088 2.64734,0.25515 3.57838,0.28761c0.97294,0.03392 1.97086,0.03042 3.83652,0.18824c0.88086,0.07451 2.1258,0.25357 3.3417,0.43303c1.2104,0.17865 2.00377,0.31513 3.22697,0.43303c1.59611,0.15385 2.391,0.1597 3.47662,0.17016c1.61314,0.01555 2.8429,0.00273 4.05301,0.00273c1.00035,0 2.24094,0 3.15348,0c1.11688,0 2.4274,0 3.15192,0c2.43433,0 3.32668,0 4.24861,0c0.94077,0 1.88958,0 2.83572,0c1.84116,0 2.71467,0.00048 4.31382,0c1.34995,-0.00041 2.46683,0.01766 3.37219,-0.02181c1.60193,-0.06985 2.55645,-0.4029 3.79709,-0.5324c0.96059,-0.10027 1.98662,-0.04978 2.63002,-0.0509c1.62959,-0.00283 2.63626,-0.00081 3.7666,-0.00081c1.24326,0 2.58874,0 4.02564,0c1.51757,0 3.10506,0 4.75172,0c3.42779,0 5.18602,0 6.95237,0c1.75556,0 3.48154,0 5.1591,0c1.61035,0 3.13465,0 4.55411,0c2.4489,0 3.44658,0 4.29904,0c0.72337,0 1.33382,0 1.84744,0c0.43294,0 0.80138,0 1.1214,0c0.55932,0 0.83166,-0.00078 1.12406,0.00162c0.33282,0.00272 1.20071,0.01976 2.47065,0.06766c0.83749,0.03159 3.01553,0.13139 4.38911,0.19925c1.55044,0.07659 3.2513,0.16503 5.07646,0.2663c1.92577,0.10686 3.92536,0.22388 5.97193,0.35355c2.07139,0.13125 6.17943,0.41985 8.16716,0.57876c1.93488,0.15468 3.80857,0.31842 5.619,0.48716c1.74904,0.16302 3.42902,0.33035 5.03813,0.49806c1.53895,0.1604 4.38525,0.47515 5.68933,0.6246c1.22726,0.14065 2.37804,0.27624 3.45688,0.40264c1.0088,0.11819 1.94961,0.22869 2.82768,0.32629c0.81439,0.09052 2.26959,0.237 2.9166,0.28832c0.59199,0.04696 1.13465,0.08057 1.62758,0.10361c0.44345,0.02073 0.84065,0.03224 1.19197,0.03817c0.30672,0.00518 0.79264,0.00545 0.97528,0.00545c0.14903,0 0.27115,0 0.37311,0c0.08851,0 0.17033,0 0.25211,0c0.64968,0 1.54514,0 2.52756,0c2.26696,0 3.27248,-0.00043 4.39498,0.00081c1.22201,0.00135 2.52604,0.00429 3.89458,0.01182c1.41564,0.00778 2.86104,0.01809 4.31808,0.03908c2.88159,0.04152 4.27176,0.07914 5.61317,0.12118c1.28594,0.04031 2.50709,0.08776 3.65454,0.1427c1.06838,0.05115 2.04899,0.104 2.9285,0.16996c1.44605,0.10844 1.99417,0.17243 2.42379,0.24237c0.34242,0.05574 0.93892,0.13018 0.73618,0.67873c-0.17185,0.46494 -0.95025,0.80331 -2.08251,1.2594c-0.64295,0.25898 -1.79783,0.60703 -2.99751,0.96947c-0.80203,0.2423 -1.59574,0.4712 -2.66986,0.81365c-1.18389,0.37745 -1.93525,0.71043 -2.97913,1.12449c-0.71812,0.28484 -1.97821,0.39744 -3.11224,0.53644c-1.21175,0.14853 -2.43733,0.47472 -3.35315,0.52038c-1.03826,0.05176 -2.45185,0.03464 -3.68884,0.03464c-1.02189,0 -1.94694,0 -0.60417,0c1.14917,0 1.81317,0 3.27293,0c0.77692,0 2.37787,0 3.98777,0c0.79822,0 1.58839,0 3.13378,0c0.7498,0 2.87556,0 4.16458,0c0.60081,0 1.70829,-0.00042 3.11405,0c1.34634,0.00041 2.84713,0.21961 2.19252,0.48554c-1.06887,0.43426 -2.29901,0.36154 -3.33632,0.48393c-1.01721,0.12001 -2.64775,0.34337 -3.39931,0.54533c-1.23354,0.33147 -2.06446,0.63826 -3.41654,0.83536c-0.94389,0.13759 -2.03032,0.41794 -3.15012,0.73992c-0.88127,0.2534 -3.2513,0.03958 -3.13871,0.54543c0.11034,0.49557 2.67438,0 3.39775,0c0.8148,0 1.70493,0 3.64649,0c1.01918,0 2.04911,0 3.07367,0c1.96848,0 2.88324,0 3.7469,0c1.58478,0 2.31132,0 3.64604,0c1.74658,0 2.76847,0 3.68277,0c1.16977,0 2.58698,-0.00295 3.73254,0c1.25319,0.00323 2.71746,0.18665 2.23737,0.45727c-0.58123,0.32764 -2.0755,0.55646 -2.96276,0.74558c-1.01438,0.21621 -2.14476,0.4405 -3.36209,0.66984c-1.26961,0.23919 -2.57573,0.47267 -3.89458,0.69166c-1.29341,0.21477 -3.73238,0.57443 -4.83375,0.70307c-1.00228,0.11706 -1.92446,0.20149 -2.7651,0.25903c-0.7585,0.05191 -1.44593,0.08381 -2.06327,0.09543c-1.84674,0.03478 -2.98295,0.01363 -4.15945,0.01363c-1.19037,0 -2.20869,0 -1.84879,0c0.86773,0 2.96928,0 3.90061,0c1.03354,0 2.15042,0 3.33185,0c1.22718,0 2.48119,0 3.74333,0c1.25135,0 3.64645,0 4.75574,0c1.04204,0 2.01686,0 2.92443,0c0.84036,0 1.61351,0 2.95808,0c1.51375,0 2.72838,0 3.95617,0c0.88968,0 2.28087,0 3.28122,0c1.49115,0 2.52198,0 3.67161,0c1.14737,0 2.68554,0 3.57567,0c0.94926,0 1.94157,0 2.96075,0c1.02993,0 2.05449,0 4.02297,0c1.77481,0 2.58156,0 3.33452,0c1.34457,0 2.47405,-0.00597 4.09109,0c0.87495,0.00323 -0.25752,0.09632 -1.17626,0.21642c-1.1312,0.14787 -1.96947,0.27875 -3.85063,0.50988c-0.98123,0.12056 -1.9531,0.23144 -2.88816,0.31265c-1.60477,0.13937 -2.61332,0.12461 -3.99249,0.27387c-1.09924,0.11896 -2.1343,0.3696 -3.22697,0.45323c-1.0651,0.08152 -2.42112,0.05171 -3.60796,0.05171c-1.15365,0 -2.69227,0 -3.30136,0c-1.32307,0 -2.73219,0 -3.44884,0c-2.10155,0 -2.76051,-0.004 -3.99741,0.00273c-1.12956,0.00615 -2.17004,-0.02 -3.87263,0.13138c-1.03867,0.09235 -1.80886,0.34054 -3.2653,0.44999c-1.2582,0.09455 -2.22055,0.02181 -3.5174,0.02181c-0.52908,0 -2.46326,0 -3.23707,0c-1.76541,0 -2.7651,0 -3.84817,0c-1.17043,0 -2.43232,0 -3.78966,0c-3.01725,0 -4.67959,0 -6.41993,0c-1.78872,0 -3.59627,0 -5.39307,0c-1.75647,0 -3.44301,0 -5.03005,0c-2.75726,0 -3.87505,0 -4.81536,0c-0.7736,0 -1.39119,0 -1.8636,0c-0.33791,0 -0.65345,-0.04565 -0.65345,0c0,0.04201 0.26758,0 0.84754,0c0.8704,0 2.00968,0 2.67347,0c2.33507,0 3.21622,0 4.14037,0c0.96182,0 1.95593,0 2.97691,0c1.04249,0 2.1011,0 4.24525,0c1.07408,0 2.13877,0 3.18462,0c1.01762,0 2.93051,0 3.80693,0c0.81057,0 2.7564,0 3.99273,0c1.06489,0 2.49285,0 3.24581,0c1.33112,0 2.90429,0 4.08748,0c0.63195,0 1.97653,0 2.68915,0c2.29925,0 3.11967,0 3.96832,0c0.87823,0 2.72879,0 3.70386,0c1.00999,0 2.05629,0 4.26318,0c1.16148,0 2.35391,0 3.56783,0c1.22603,0 2.45473,0 3.67674,0c1.20584,0 2.38616,0 4.63252,0c1.04877,0 2.04374,0 2.98496,0c0.88742,0 1.72105,0 2.50089,0c0.72608,0 2.5816,0 3.55507,0c1.12743,0 2.58365,-0.01574 3.68593,0c1.21376,0.01733 2.42014,0.40803 1.60362,0.93483c-0.53167,0.34302 -1.66028,0.59962 -2.28128,0.75285c-0.68632,0.16935 -1.4577,0.34665 -3.30945,0.63501c-1.04273,0.16237 -2.1812,0.29598 -3.37625,0.4299c-1.23592,0.1385 -2.50577,0.26541 -3.78765,0.39173c-1.27822,0.12595 -2.54299,0.23931 -4.93727,0.4912c-1.11253,0.11704 -2.16142,0.2397 -3.15639,0.36082c-0.95012,0.11567 -1.85774,0.23256 -2.73285,0.34447c-0.84816,0.10845 -1.67194,0.21998 -3.2987,0.40556c-0.80355,0.09167 -2.38973,0.24861 -3.15529,0.32154c-1.44277,0.13745 -2.12942,0.16428 -3.79167,0.38537c-1.15746,0.15394 -2.14644,0.50783 -3.2774,0.59329c-1.63021,0.12318 -2.70326,0.01262 -3.28232,0.01262c-1.17158,0 -3.13916,-0.40718 -3.13916,0c0,0.36356 2.09753,0 3.87238,0c1.06559,0 2.232,0 3.47908,0c1.3076,0 2.65554,0 4.02363,0c1.36813,0 2.71607,0 5.27075,0c1.17088,0 2.26786,0 3.29759,0c0.9692,0 1.88461,0 2.753,0c0.82805,0 1.62245,0 3.13735,0c0.73257,0 1.45032,0 2.83613,0c1.31052,0 1.93418,0 3.66262,0c1.5046,0 2.40906,0 3.25972,0c1.62512,0 2.80704,0 3.89208,0c1.4069,0 2.44668,0 3.73746,0c1.22628,0 2.04374,0.00623 1.36612,0.02181c-1.28007,0.02945 -3.2916,0.07855 -4.60384,0.1125c-1.49525,0.03868 -3.14117,0.08315 -4.90502,0.13633c-1.85035,0.0558 -3.75462,0.11796 -5.67948,0.19087c-1.91526,0.07254 -5.58412,0.24014 -7.27727,0.33901c-1.59122,0.09292 -3.07839,0.1951 -4.46531,0.29902c-1.29234,0.09684 -2.48854,0.19595 -3.59405,0.28812c-1.01709,0.08479 -2.79436,0.23113 -3.5627,0.28286c-0.69112,0.04653 -1.31355,0.08048 -1.87165,0.10361c-0.49794,0.02064 -0.94286,0.03228 -1.3392,0.03817c-0.35309,0.00525 -0.95193,0.00512 -1.2083,0.00556c-0.23487,0.0004 -0.45789,-0.01608 -1.0667,0.02171c-1.21376,0.07535 -2.15818,0.24848 -3.22853,0.37042c-1.37207,0.15631 -2.61919,0.20669 -3.53915,0.21288c-1.3534,0.0091 -2.58181,0.00081 -3.56201,0.00081c-1.79298,0 -2.48948,0 -3.97927,0c-0.76104,0 -2.23471,0 -2.91504,0c-1.96914,0 -1.66997,0 -1.11803,0c2.85792,0 4.24213,0 5.81058,0c1.70829,0 3.51203,0 5.36689,0c1.86155,0 3.68548,0 5.42737,0c3.06025,0 4.3006,0 5.34601,0c0.87064,0 1.58663,0 2.16815,0c0.46724,0 0.84036,0 1.13953,0c0.45715,0 0.6523,0 0.83539,0c1.19041,0 2.20849,0 3.47305,0c1.12542,0 2.24767,0 3.76795,0c0.93088,0 1.9613,0 3.06965,0c1.16485,0 2.36466,0 3.57793,0c1.20518,0 2.38079,-0.00012 4.55722,0c0.96182,0.00005 1.83225,-0.00119 2.61385,0.00273c1.30793,0.00656 3.47789,-0.06841 3.29665,0.30023c-0.21817,0.44383 -2.09963,0.21053 -3.6373,0.25206c-0.88525,0.02391 -1.8268,0.0357 -2.80544,0.0509c-0.99879,0.0155 -2.0009,0.0262 -2.98697,0.0509c-2.70183,0.06767 -3.48113,0.10357 -4.83149,0.21328c-1.11631,0.09069 -2.09031,0.14849 -3.34712,0.57765c-0.88316,0.30157 -1.97205,0.37001 -3.26283,0.37001c-0.80675,0 -1.72105,0 -3.29308,0c-1.1541,0 -2.33507,0 -3.48917,0c-1.56308,0 -2.81151,0 -3.80583,0c-1.38692,0 -2.71537,-0.15148 -2.71537,0c0,0.35568 2.94126,0 3.95933,0c1.15656,0 2.42875,0 3.79372,0c1.43489,0 2.9168,0 4.42296,0c1.50748,0 4.43507,0 5.81304,0c1.30941,0 2.54886,0 3.71707,0c1.09563,0 2.11727,0 3.06362,0c0.86974,0 2.37385,-0.00035 3.00691,0.0001c0.55912,0.0004 1.05119,-0.00018 1.48241,0.00636c0.70856,0.01075 2.44968,0.10654 2.23848,0.48968c-0.37709,0.68412 -1.76783,0.58904 -3.17071,0.87404c-0.81159,0.16489 -1.70846,0.322 -2.67237,0.47898c-1.01701,0.16563 -3.21433,0.47765 -4.37791,0.62208c-1.18672,0.14731 -2.394,0.28265 -3.60415,0.41536c-1.20067,0.13167 -2.38337,0.25623 -3.53152,0.38263c-1.10535,0.12168 -3.13502,0.36206 -4.03438,0.48726c-0.83232,0.11588 -1.59578,0.23573 -2.30327,0.35083c-0.66121,0.10756 -1.84448,0.34397 -3.5174,0.53806c-1.05997,0.12297 -2.12244,0.1658 -3.13017,0.21086c-0.94278,0.04214 -2.56006,0.16319 -3.5927,0.29407c-1.03264,0.13088 -2.64508,0.25869 -3.56402,0.28115c-0.93863,0.02295 -2.71065,0.02181 -3.81186,0.02181c-0.93182,0 -2.30438,0 -3.50444,0c-0.07238,0 0.81459,0 1.46648,0c1.79459,0 2.96034,0 4.2901,0c1.4696,0 3.05488,0 4.73157,0c1.74391,0 3.53082,0 5.33661,0c3.5712,0 5.2911,0 6.95057,0c1.59217,0 3.11044,0 4.54799,0c1.3502,0 2.60626,0 3.76147,0c1.981,0 2.79579,0 3.49767,0c0.59699,0 1.09719,0 1.50863,0c0.33077,0 0.58891,0 0.78254,0c0.22589,0 0.24854,0.00251 -0.41837,0.06312c-1.18134,0.10736 -2.06081,0.1923 -4.50995,0.44181c-1.60665,0.16368 -3.43324,0.35605 -5.43542,0.56624c-2.13015,0.22362 -4.34049,0.45673 -6.58508,0.69165c-2.2306,0.23346 -4.39847,0.46356 -8.3722,0.86283c-1.71519,0.17233 -3.24228,0.31927 -4.59239,0.44444c-1.18319,0.1097 -2.21399,0.20064 -3.10395,0.27539c-0.75989,0.06382 -1.40354,0.11446 -2.38797,0.18904c-0.36384,0.02757 -0.65276,0.04874 -0.8713,0.06636c-0.15433,0.01244 -0.2789,0.00929 -0.29043,0.02817c-0.00291,0.00476 0.05741,0.00606 0.26536,0.00646c0.32806,0.00064 1.436,0 2.28038,0c1.71929,0 2.42202,0 4.01042,0c0.88024,0 1.81428,0 2.79941,0c1.03354,0 3.23505,0 4.3972,0c1.19714,0 2.42383,0 3.67472,0c1.26973,0 2.55292,0 3.84415,0c1.29394,0 3.86836,0 5.13965,0c1.26189,0 2.51837,0 3.77353,0c1.25787,0 2.52243,0 3.79774,0c1.29012,0 3.93089,0 5.28688,0c1.37079,0 2.7443,0 4.10836,0c1.34256,0 2.65148,0 3.91473,0c1.20539,0 3.39439,0 4.35665,0c0.87351,0 1.66369,0 2.37586,0c0.63954,0 1.21191,0 1.72237,0c0.45403,0 1.21417,-0.00135 1.53037,0.0001c0.72009,0.0033 1.06928,0.24665 0.09077,0.43536c-0.56174,0.10833 -3.31831,0.4766 -4.63252,0.63339c-1.49307,0.17813 -3.13953,0.36251 -4.90502,0.55259c-1.84867,0.19904 -3.75261,0.39561 -5.67948,0.58532c-1.91321,0.18836 -5.58108,0.52374 -7.27838,0.66268c-1.59615,0.13066 -3.1058,0.24253 -4.53593,0.34356c-1.35902,0.09601 -2.65895,0.18176 -3.90669,0.26721c-1.20658,0.08262 -3.53271,0.2534 -4.66769,0.35002c-1.12394,0.09568 -2.23257,0.19956 -3.32779,0.30538c-1.08299,0.10464 -2.15108,0.2122 -3.20682,0.31629c-1.04179,0.10272 -3.08491,0.29656 -4.08752,0.38243c-0.98738,0.08457 -1.96258,0.16145 -2.92443,0.23358c-0.9475,0.07105 -1.88223,0.13697 -2.80347,0.20086c-0.90741,0.06293 -2.68246,0.18435 -3.54966,0.245c-0.85386,0.05973 -1.69393,0.1193 -2.52108,0.17541c-0.81324,0.05517 -1.61301,0.10755 -2.40007,0.15361c-0.77265,0.04521 -2.27861,0.11791 -3.01163,0.14279c-0.71738,0.02435 -1.41925,0.04067 -2.10356,0.05181c-0.66523,0.01083 -1.31048,0.01622 -1.93418,0.01908c-0.60081,0.00276 -1.72844,0.00273 -2.25239,0.00273c-0.49437,0 -0.95644,0 -1.38356,0c-0.73864,0 -1.59914,0 -0.88742,0c1.34638,0 3.46722,-0.00025 4.85906,0.0001c1.62179,0.00041 3.47481,0.00173 5.56049,0.00636c2.3196,0.00516 4.87458,0.0139 7.6661,0.02817c3.0296,0.0155 9.80807,0.06476 13.54747,0.09947c3.91034,0.0363 7.92006,0.07874 11.95797,0.12361c3.99503,0.04441 7.87566,0.09014 11.57078,0.13451c3.43829,0.04129 9.25938,0.11286 11.51871,0.14006c1.83176,0.02205 3.279,0.03911 4.38468,0.05181c0.8072,0.00927 1.3589,0.01529 1.6982,0.01908c0.16988,0.0019 0.17345,0.00273 0.08157,0.00273c-0.15913,0 -0.41234,0 -0.78656,0c-0.52215,0 -1.2191,0 -2.11772,0c-1.12722,0 -4.17492,0 -6.13733,0c-2.22728,0 -4.67507,0 -7.29902,0c-2.75571,0 -5.59881,0 -8.48492,0c-2.8848,0 -8.47286,0 -11.09385,0c-2.48119,0 -4.81717,0 -7.00256,0c-2.02942,0 -3.89749,0 -5.59881,0c-1.52922,0 -4.04985,0 -5.03477,0c-0.81681,0 -1.48577,0 -2.02696,0c-0.4336,0 -0.77984,0 -1.05882,0c-0.23196,0 -0.63532,0 -0.84352,0c-0.22027,0 -0.45132,0 -0.69178,0c-0.24854,0 -0.50376,0 -0.76441,0c-0.26462,0 -0.80068,0 -1.06937,0c-0.26737,0 -0.53199,0 -0.79264,0c-0.25523,0 -0.50376,0 -0.74422,0c-0.23106,0 -0.65953,0 -0.85382,0c-0.17681,0 -0.33208,0 -0.46183,0c-0.1002,0 -0.19565,-0.01302 -0.19565,0c0,0.00575 0.17948,0 0.34689,0c0.25748,0 0.64135,0 1.18791,0c0.74557,0 1.72647,0 2.97893,0c1.56037,0 5.75006,0 8.43293,0c3.02172,0 6.30429,0 9.76971,0c3.5703,0 7.16747,0 10.71355,0c3.41704,0 9.55186,0 12.13141,0c2.2448,0 4.183,0 5.84288,0c1.40978,0 2.59773,0 3.592,0c0.82895,0 2.10361,-0.00036 2.60179,0.0001c0.42149,0.0004 0.7706,0.0005 1.05078,0.00636c0.216,0.00452 0.37882,0.00668 0.46991,0.02817c0.05306,0.01253 0.00238,0.06888 -0.08986,0.09947c-0.12536,0.04157 -0.30459,0.08269 -0.53245,0.12361c-0.27287,0.04901 -0.60393,0.09427 -0.9923,0.13451c-0.4434,0.04595 -1.52409,0.1161 -2.16253,0.14016c-0.69896,0.02635 -1.45561,0.04262 -2.2629,0.05817c-0.85283,0.01643 -1.74625,0.02978 -2.67438,0.04726c-0.95784,0.01804 -2.94097,0.06659 -3.95551,0.10229c-1.02747,0.03616 -2.06516,0.0806 -3.112,0.12997c-1.05566,0.04979 -2.11748,0.10505 -3.18462,0.16269c-1.07162,0.05788 -3.22098,0.17894 -4.29593,0.23965c-1.07101,0.06048 -2.13397,0.12071 -3.18462,0.18177c-1.03477,0.06013 -2.04936,0.12031 -3.03941,0.18178c-0.96231,0.05975 -2.78578,0.18042 -3.63821,0.24227c-0.80766,0.0586 -1.56386,0.11717 -2.2629,0.17541c-0.63831,0.05317 -1.20921,0.10401 -1.70628,0.15361c-0.42075,0.04198 -1.02919,0.09653 -1.155,0.14279c-0.04522,0.01662 0.07731,0.04267 0.35498,0.05181c0.46708,0.01538 1.15094,0.01647 2.07332,0.01908c1.18594,0.00337 4.44516,0.00273 6.55168,0.00273c2.37541,0 4.9525,0 7.66405,0c2.77881,0 5.55761,0 8.26917,0c2.57709,0 7.05902,0 8.84593,0c1.48306,0 2.69452,0 3.66668,0c0.76506,0 1.35533,0 1.80308,0c0.33746,0 0.81082,-0.0012 1.001,0.00031c0.14862,0.00117 0.23401,0.01116 0.20775,0.01908c-0.12589,0.03799 -0.44587,0.04743 -0.92977,0.08452c-0.69375,0.05318 -2.82948,0.1995 -4.31316,0.29852c-1.7254,0.11514 -3.63944,0.24102 -5.68757,0.37718c-2.12905,0.14154 -4.28513,0.28555 -6.41361,0.43171c-2.04866,0.14069 -5.6888,0.40121 -7.18318,0.51968c-1.27351,0.10095 -2.34209,0.19306 -3.22295,0.27903c-0.71714,0.06999 -1.28594,0.13286 -1.72241,0.19177c-0.3304,0.0446 -0.74286,0.11271 -0.83564,0.14824c-0.04784,0.01832 -0.00291,0.04277 0.12708,0.05181c0.22876,0.01591 0.57541,0.01648 1.04676,0.01908c0.60971,0.00337 2.29314,0.00273 3.38339,0.00273c1.23141,0 2.57036,0 3.98329,0c1.45327,0 2.91323,0 4.34631,0c1.3726,0 3.8018,0 4.79858,0c0.84619,0 1.55253,0 2.12983,0c0.45891,0 0.81032,0 1.06489,0c0.16852,0 0.29043,-0.00015 0.25995,0.00031c-0.10582,0.00159 -0.30853,0.00705 -0.62924,0.01908c-0.46101,0.0173 -1.08315,0.04489 -1.88781,0.08452c-1.0097,0.04974 -3.72745,0.19806 -5.46615,0.29842c-1.95441,0.11281 -4.06963,0.23852 -6.2926,0.37082c-2.27689,0.13551 -4.55349,0.2719 -6.77667,0.40354c-2.11534,0.12525 -5.80812,0.33967 -7.29118,0.4202c-1.23485,0.06705 -2.24419,0.11833 -3.04946,0.15542c-0.62186,0.02864 -1.0827,0.04709 -1.40374,0.05726c-0.2025,0.00642 -0.33885,0.00818 -0.30812,0.00818c0.10734,0 0.31415,0 0.64336,0c0.47443,0 1.11688,0 1.95031,0c1.04721,0 3.87439,0 5.68757,0c2.04308,0 4.26363,0 6.60925,0c2.41821,0 4.8566,0 7.26271,0c2.32141,0 6.50035,-0.00035 8.2649,0.0001c1.54133,0.0004 2.87831,0.0009 4.02966,0.00636c0.98471,0.00468 1.82183,0.01166 2.52916,0.02817c0.59785,0.01395 1.53985,0.06012 1.91264,0.09968c0.321,0.03406 0.59153,0.07359 0.76441,0.13634c0.13668,0.04961 0.1963,0.12531 0.13512,0.19087c-0.07862,0.08427 -0.59642,0.25108 -0.98623,0.33921c-0.46991,0.10624 -1.04516,0.20798 -1.71432,0.31174c-0.75579,0.11721 -1.611,0.2312 -2.56141,0.34446c-1.03945,0.12386 -3.40707,0.36404 -4.72891,0.48191c-1.38881,0.12385 -2.82587,0.24082 -4.28378,0.35719c-1.45442,0.1161 -2.88311,0.22616 -4.25961,0.33537c-1.3019,0.1033 -3.58375,0.2934 -4.51824,0.38506c-0.80072,0.07854 -1.4744,0.15355 -2.02897,0.22722c-0.4544,0.06036 -0.81439,0.11698 -1.08504,0.17269c-0.20549,0.0423 -0.44587,0.11416 -0.47935,0.14552c-0.02167,0.02029 0.0062,0.04189 0.05847,0.05181c0.07013,0.0133 0.16655,0.01635 0.27632,0.01908c0.12154,0.00303 0.38522,0.00242 0.51923,0.00283c0.13131,0.0004 0.25752,0.00112 0.37513,0.00636c0.10747,0.00479 -0.08449,0.02228 0.0968,0.34174c0.17521,0.30877 2.54574,-0.08712 2.61545,0.27034c0.11296,0.57906 -2.97741,-0.09211 -3.30387,0.42122c-0.13492,0.21213 1.19222,0.17208 2.54754,0.17208c1.15923,0 2.26897,0 3.56221,0c1.08574,0 0.94622,0.1623 1.39591,0.5933c0.27439,0.26299 2.00332,0.15071 1.8723,0.54987c-0.1963,0.59813 -1.0118,0.97215 -1.20001,1.58347c-0.18161,0.58982 0.07476,1.11072 1.46021,1.36756c0.83732,0.15523 1.90061,0.13028 2.94056,0.14178c1.77415,0.01962 2.79953,0.00906 2.51279,0.02727c-1.55774,0.09887 -2.13885,0.11054 -3.45512,0.19187c-1.41417,0.08739 -2.11136,0.12948 -3.38606,0.22016c-1.60325,0.11405 -0.75801,0.07658 0.08605,0.19389c1.20063,0.16686 0.68333,0.76816 -0.18645,1.19003c-0.75362,0.36553 -0.88517,0.75482 -0.42038,1.1772c0.03414,0.03103 -1.12029,0.03463 -2.113,0.03463c-1.72442,0 -2.93814,0 -3.52147,0c-1.44609,0 -1.44786,0 -0.39909,0c0.65546,0 2.12777,0 2.90425,0c1.53283,0 2.9312,0 4.16819,0c1.07568,0 1.98999,0 3.77915,0c0.09684,0 -1.25964,0 -2.08855,0c-1.41273,0 -2.70827,-0.00663 -3.59766,0.01262c-1.21581,0.02631 -2.64319,0.38358 -1.59422,0.5424c0.90683,0.1373 2.09839,0.0629 3.67698,0.22298c1.04085,0.10555 1.36476,0.39609 0.38231,0.42122c-0.87195,0.0223 -2.29728,0.00284 -3.63619,0.01535c-1.1461,0.01071 -2.66757,0.09478 -2.91861,0.60319c-0.23364,0.47316 0.00972,1.10906 0.94233,1.38816c1.01344,0.3033 0.34259,-0.08198 -1.01225,-0.2967c-0.8276,-0.13116 -2.12991,-0.28672 -3.29152,-0.38455c-1.28122,-0.1079 -2.49383,-0.22133 -3.54789,-0.07918c-1.16686,0.15737 -0.18748,0.5265 0.99678,0.63501c1.0857,0.09947 2.21103,0.32922 3.44748,0.65601c0.70261,0.1857 1.77936,0.49555 2.7752,0.81759c1.09037,0.35262 3.35742,0.60198 2.84516,1.12216c-0.31218,0.31702 -1.48421,-0.1729 -2.83974,-0.40425c-1.42024,-0.24239 -2.34205,-0.34631 -3.59295,-0.3994c-1.05948,-0.04496 -2.45916,-0.15394 -3.57969,0.10896c-0.8667,0.20335 -0.93904,0.86584 0.13422,0.97664c0.9271,0.0957 2.07217,0.08377 3.2431,0.09453c1.07371,0.00987 2.24739,-0.1075 1.05418,0.01293c-1.06477,0.10746 -1.5005,0.30028 -2.31784,0.20449c-1.47978,-0.17341 -2.37086,-0.18769 -3.6485,-0.20449c-1.52147,-0.02001 -0.69539,-0.03478 -1.91645,-0.10745c-1.31216,-0.0781 -2.11559,-0.11316 -2.98319,-0.15673c-0.91036,-0.04572 -2.76884,-0.13571 -3.67157,-0.17612c-1.63636,-0.07325 -2.93691,-0.1409 -3.92794,-0.14381c-1.30264,-0.00382 -2.79079,0.29617 -2.25485,0.77235c0.44792,0.39797 1.66098,0.60786 2.78484,1.00401c0.79785,0.28124 1.8936,0.88123 1.05078,1.19305c-0.86707,0.32079 -2.16462,0.38488 -3.32336,0.53685c-1.13256,0.14854 -2.37541,0.10093 -3.61354,0.10099c-1.077,0.00006 -2.08046,-0.01335 -3.78162,0.10099c-0.87257,0.05864 -1.88469,0.16623 -3.09788,0.26903c-0.69133,0.05858 -1.44474,0.12752 -4.15629,0.2965c-1.04676,0.06523 -2.15248,0.122 -3.30161,0.18177c-1.18102,0.06143 -2.38263,0.12109 -3.59204,0.18178c-1.20547,0.06049 -3.55597,0.18083 -4.67934,0.24237c-1.0889,0.05966 -2.14792,0.12063 -3.18261,0.18177c-1.01623,0.06005 -2.01871,0.12111 -3.01319,0.18178c-0.99189,0.06051 -2.98894,0.1819 -4.00258,0.24237c-1.01758,0.06071 -2.03007,0.12044 -3.0273,0.18177c-0.97347,0.05987 -1.9135,0.11935 -2.8095,0.18178c-0.84479,0.05886 -2.97765,0.23023 -4.02162,0.36083c-0.815,0.10195 -2.11202,0.3703 -3.28725,0.42041c-1.42812,0.06088 -2.23893,0.00646 -3.58014,0.00646c-0.90536,0 -2.51665,-0.01402 -3.52167,0.01262c-0.94828,0.02513 -2.29228,0.15946 -3.38946,0.29034c-1.09719,0.13088 -2.45005,0.23947 -3.76122,0.34013c-0.75247,0.05777 -2.1096,0.22694 -3.17408,0.39021c-1.13551,0.17416 -2.24911,0.37962 -3.8213,0.58249c-0.86026,0.111 -1.96011,0.18934 -3.58552,0.20197c-1.05065,0.00816 -2.1137,0 -3.36144,0c-1.09247,0 -2.44714,0 -3.46903,0c-1.23699,0 -2.30594,0 -3.4959,0c-0.86051,0 -2.76621,0 -3.32578,0c-1.33428,0 -2.14394,0 -3.07191,0c-1.06378,0 -3.66869,0.00027 -5.23669,-0.0001c-1.72528,-0.00041 -3.57698,-0.00152 -5.52417,-0.00636c-2.01169,-0.00501 -4.05711,-0.01311 -6.10504,-0.02817c-2.01986,-0.01486 -5.85133,-0.06205 -7.60784,-0.09968c-1.64978,-0.03535 -3.20535,-0.08046 -4.67909,-0.13634c-1.40818,-0.05339 -2.7619,-0.11742 -4.0741,-0.19087c-1.28733,-0.07205 -3.83278,-0.24324 -5.11474,-0.33911c-1.28893,-0.09639 -2.57405,-0.19941 -3.84817,-0.30538c-1.25635,-0.1045 -2.48505,-0.21099 -3.67875,-0.31629c-1.15127,-0.10155 -3.29139,-0.29472 -4.26724,-0.38233c-0.91373,-0.08204 -1.77079,-0.15862 -2.57754,-0.22722c-0.76018,-0.06464 -1.48015,-0.12314 -2.1661,-0.17269c-0.65505,-0.04732 -1.89938,-0.12054 -2.49781,-0.14552c-0.58128,-0.02425 -1.1445,-0.04059 -1.68609,-0.05181c-0.51702,-0.01072 -1.00749,-0.01618 -1.46825,-0.01908c-0.42843,-0.0027 -1.17786,-0.00273 -1.49471,-0.00273c-0.28194,0 -0.53425,0 -0.7624,0c-0.20931,0 -1.16255,0.01074 -2.26245,-0.01293c-0.98188,-0.02113 -1.64014,-0.05449 -2.43458,-0.09049c-2.06819,-0.09371 -3.36669,-0.16371 -4.82435,-0.24236c-1.58741,-0.08565 -3.27412,-0.18082 -5.03005,-0.28539c-1.79733,-0.10705 -3.60583,-0.21807 -5.39307,-0.33991c-3.40559,-0.23218 -4.96784,-0.3591 -6.44861,-0.48393c-1.42664,-0.12028 -2.82025,-0.24746 -4.20918,-0.37536c-1.40957,-0.1298 -2.86309,-0.26733 -4.39071,-0.40264c-3.36583,-0.29813 -5.25044,-0.44779 -7.24276,-0.6035c-2.06064,-0.16105 -4.15338,-0.31797 -6.23815,-0.47079c-2.0368,-0.14931 -3.98797,-0.28905 -5.81465,-0.41627c-3.12037,-0.21734 -4.34861,-0.29828 -5.36037,-0.36274c-0.82009,-0.05225 -1.47494,-0.09156 -1.99064,-0.11724c-0.40057,-0.01995 -0.71287,-0.03183 -0.96202,-0.03545c-0.41037,-0.00595 -0.61894,-0.00242 -0.84081,-0.00242c-0.23528,0 -0.48407,0 -0.74623,0c-0.27566,0 -0.56474,0 -0.86728,0c-0.64537,0 -0.98824,0 -1.34457,0c-0.36975,0 -0.75296,0 -1.14959,0c-0.41013,0 -0.83363,0 -2.18493,0c-0.9681,0 -1.98999,0 -3.06563,0c-1.12944,0 -2.92468,0 -4.19441,0c-0.66043,0 -2.03906,0 -2.75997,0c-2.30528,0 -3.12455,0 -3.96536,0c-0.85694,0 -2.59773,0 -3.47079,0c-0.86773,0 -1.72466,0 -4.17828,0c-0.76798,0 -2.23266,0 -2.93207,0c-1.33965,0 -3.22137,0 -3.82017,0c-1.16799,0 -2.31445,0 -3.46092,0c-1.76679,0 -2.99483,0 -3.61221,0c-1.20787,0 -2.33507,0 -4.13815,0c-0.71396,0 -2.08744,0 -2.7389,0c-0.7953,0 -2.93049,0.00026 -4.31899,-0.0001c-1.59826,-0.00041 -3.38745,-0.00164 -5.34871,-0.00636c-2.1146,-0.00509 -4.36365,-0.01356 -6.72827,-0.02817c-2.46152,-0.01521 -7.59967,-0.06404 -10.23759,-0.09947c-2.65435,-0.03565 -5.3004,-0.07848 -7.91417,-0.12361c-2.55747,-0.04417 -5.03407,-0.0905 -7.40591,-0.13451c-2.24275,-0.04162 -6.2441,-0.11415 -7.96234,-0.14006c-1.53922,-0.02322 -2.92261,-0.04036 -4.17289,-0.05181c-1.13992,-0.01044 -2.19252,-0.01621 -3.18058,-0.01908c-0.94637,-0.00275 -2.80546,-0.00273 -3.75876,-0.00273c-0.97214,0 -1.95502,0 -2.9406,0c-0.98018,0 -1.94694,0 -2.89218,0c-0.91565,0 -2.62594,0 -3.4067,0c-0.73234,0 -1.42166,0 -2.07332,0c-0.61942,0 -1.21191,0 -1.78291,0c-0.55487,0 -1.6377,0 -2.17509,0c-0.53468,0 -1.06399,0 -1.58523,0c-0.51049,0 -1.00755,0 -1.48846,0c-0.46207,0 -1.31903,0 -1.71186,0c-0.38343,0 -0.77493,0 -1.19197,0c-0.46006,0 -0.98063,0 -1.5792,0c-0.69401,0 -2.43838,0.00053 -3.51808,-0.0002c-1.21146,-0.00082 -2.53862,-0.00316 -3.96514,-0.01272c-1.51004,-0.01011 -3.08748,-0.02683 -4.71543,-0.05635c-1.66361,-0.03017 -5.0311,-0.1275 -6.70338,-0.19895c-1.65696,-0.07079 -3.29072,-0.15712 -4.89895,-0.24721c-1.57976,-0.08849 -3.12445,-0.18218 -4.63275,-0.26903c-1.46593,-0.0844 -4.25672,-0.22985 -5.57483,-0.28014c-1.26001,-0.04808 -2.46203,-0.08104 -3.60212,-0.10361c-1.07495,-0.02128 -2.08313,-0.03236 -3.02125,-0.03818c-0.86541,-0.00536 -2.3678,-0.00511 -3.00266,-0.00556c-0.57167,-0.0004 -1.09768,-0.00135 -1.59533,-0.00636c-0.48702,-0.00491 -0.98084,-0.01387 -1.49853,-0.02817c-0.55979,-0.01547 -1.87386,-0.06546 -2.65823,-0.09958c-0.86678,-0.03769 -1.80324,-0.08153 -2.79739,-0.12997c-1.04019,-0.05069 -2.11382,-0.10519 -3.20881,-0.16269c-1.10474,-0.05802 -3.29373,-0.17836 -4.3562,-0.23965c-1.03865,-0.05991 -2.05556,-0.12069 -3.05352,-0.18177c-0.98213,-0.06011 -1.95061,-0.12093 -2.90832,-0.18178c-0.9498,-0.06034 -2.83567,-0.18191 -3.77602,-0.24227c-0.93489,-0.06001 -1.85894,-0.11909 -2.76713,-0.17541c-0.88637,-0.05497 -1.74586,-0.10691 -2.57352,-0.15361c-0.78944,-0.04455 -2.23432,-0.11724 -2.88098,-0.14279c-0.59757,-0.0236 -1.15257,-0.0405 -1.66996,-0.05181c-0.4848,-0.0106 -0.94296,-0.01622 -1.37953,-0.01908c-0.42038,-0.00276 -1.23433,-0.00187 -1.64082,-0.00303c-0.42536,-0.00122 -0.88981,0.0019 -2.00252,-0.03756c-1.49326,-0.05295 -2.42658,-0.11002 -4.76204,-0.26509c-1.43884,-0.09553 -3.05582,-0.21561 -4.8445,-0.35447c-1.95474,-0.15175 -4.06452,-0.32431 -6.32085,-0.51806c-2.39868,-0.20597 -4.9313,-0.42601 -10.34785,-0.94523c-2.87617,-0.2757 -5.83265,-0.57528 -8.852,-0.88343c-3.05994,-0.31229 -6.13425,-0.63165 -9.20294,-0.94888c-3.03882,-0.31414 -6.02151,-0.62854 -11.74979,-1.1973c-2.6929,-0.26737 -5.26061,-0.51151 -7.69433,-0.73619c-2.2903,-0.21144 -4.43392,-0.4021 -6.4237,-0.5726c-1.82665,-0.15652 -3.48453,-0.29717 -6.27468,-0.50897c-1.11775,-0.08485 -2.0654,-0.14908 -2.85588,-0.20449c-0.65088,-0.04563 -1.18011,-0.08096 -1.59735,-0.1227c-0.33009,-0.03302 -0.61922,-0.0542 -0.92507,-0.17774c-0.14194,-0.05733 -0.22948,-0.14176 -0.27631,-0.23086c-0.04941,-0.09401 -0.04708,-0.19952 0.00202,-0.30719c0.05265,-0.11545 0.13673,-0.24206 0.49839,-0.47181c0.20109,-0.12775 0.46867,-0.24395 0.75632,-0.3581c0.29502,-0.11707 0.6124,-0.22507 0.93784,-0.32538c0.3179,-0.09799 0.62739,-0.19028 1.21908,-0.32639c0.25293,-0.05818 0.49102,-0.10198 0.71598,-0.13542c0.2145,-0.03189 0.43198,-0.05507 0.65548,-0.07543c0.23589,-0.02151 0.49406,-0.03874 1.09359,-0.0921c0.35562,-0.03166 0.74239,-0.07072 1.15365,-0.11269c0.42777,-0.04366 0.86312,-0.08945 1.29886,-0.13451c0.42748,-0.04421 0.83752,-0.08889 1.58122,-0.15673c0.31627,-0.02886 0.59866,-0.05042 0.85111,-0.06907c0.22803,-0.01685 0.43883,-0.02866 0.6333,-0.04726c0.76306,-0.07298 1.63191,-0.27492 2.68556,-0.41849c1.31239,-0.17884 2.65524,0.21051 3.68593,-0.17854c0.51377,-0.19393 -1.10973,-0.56797 -2.08858,-0.59299c-1.32817,-0.03396 -2.40589,-0.00646 -3.75046,-0.00646c-1.16171,0 -1.90392,0 -2.83974,0c-1.90325,0 -2.67301,0 -4.3134,0c-0.83028,0 -1.64038,0.00009 -3.11941,0c-1.56643,-0.0001 -1.48447,-0.06602 0.18824,-0.20197c0.79617,-0.06471 1.68546,-0.14158 2.64209,-0.22541c0.9975,-0.08742 2.00833,-0.17758 3.00513,-0.26903c1.84736,-0.16949 4.90342,0.1736 4.74523,-0.49018c-0.111,-0.46577 -2.35301,-0.02525 -3.42396,-0.02525c-1.33919,0 -2.46864,0 -3.76481,0c-0.93112,0 -2.22124,0 -3.23168,0c-1.07096,0 -2.73083,0 -3.68481,0c-1.44138,0 -2.31025,0.00839 -3.32737,-0.01939c-1.21398,-0.03316 -1.91467,-0.05896 -4.38869,-0.28357c-0.98319,-0.08926 -2.01983,-0.21123 -3.10193,-0.3381c-1.10871,-0.12999 -2.22044,-0.26765 -3.31976,-0.40354c-1.06724,-0.13193 -2.07864,-0.26488 -3.88672,-0.47019c-0.75226,-0.08542 -2.01089,-0.1161 -3.1463,-0.28357c-0.26822,-0.03956 0.86981,-0.14951 1.77596,-0.22722c1.18252,-0.10141 4.50805,-0.39728 6.70001,-0.59683c2.49258,-0.22691 5.20771,-0.47708 8.06947,-0.74164c2.93202,-0.27106 5.85704,-0.54273 8.69872,-0.80708c2.68182,-0.24948 7.25886,-0.67583 9.01986,-0.84051c1.41037,-0.13189 2.50965,-0.2342 3.33387,-0.3172c0.59222,-0.05963 0.99483,-0.09891 1.22827,-0.1427c0.12816,-0.02404 0.17661,-0.08272 0.17502,-0.11583c-0.00183,-0.03799 -0.00689,-0.07999 -0.02823,-0.12361c-0.02239,-0.04578 -0.06051,-0.09266 -0.12505,-0.13451c-0.06815,-0.04419 -0.29127,-0.11648 -0.44169,-0.14006c-0.16708,-0.0262 -0.35782,-0.04368 -0.5627,-0.05181c-1.30277,-0.05174 -2.37183,-0.02181 -3.52637,-0.02181c-1.16081,0 -2.37093,0 -3.60705,0c-1.12048,0 -2.43659,0 -3.55393,0c-1.29191,0 -2.32858,0 -3.48626,0c-1.20608,0 -2.38796,0 -3.47304,0c-1.40329,0 -2.70842,0 -3.72649,0c-1.19196,0 -2.23221,0 -1.51825,0c1.41584,0 2.7891,0 3.56984,0c1.65562,0 2.49284,0 3.31124,0c2.15401,0 3.20706,0.05846 4.2549,-0.02525c1.29986,-0.10385 2.15684,-0.40768 3.16446,-0.67116c1.22479,-0.32026 2.19154,-0.4921 3.32737,-0.51381c1.31964,-0.02523 2.46102,-0.00162 3.67651,-0.00162c0.59565,0 2.77206,0.1131 2.77206,0c0,-0.62399 -2.4274,0 -3.83651,0c-0.97213,0 -1.96846,0 -3.58553,0c-1.01112,0 -2.11905,0 -3.25925,0c-1.10793,0 -2.56993,0 -3.70744,0c-1.1151,0 -2.44534,0 -3.7684,0c-0.92865,0 -2.19435,0 -3.60705,0c-0.88562,0 -2.6974,0.37223 -3.42418,-0.0517c-0.43734,-0.2551 1.85383,-0.55854 2.59234,-0.61471c0.85334,-0.06489 1.81173,-0.12143 2.85587,-0.17541c1.11255,-0.05751 2.27993,-0.10832 3.48514,-0.15361c1.22579,-0.04605 3.6785,-0.11783 4.8743,-0.14279c1.16171,-0.02425 2.28345,-0.04056 3.35808,-0.05181c1.02068,-0.01069 1.98099,-0.01617 2.87403,-0.01908c0.81906,-0.00267 2.76907,0.02396 3.94745,-0.00273c0.27893,-0.00631 -0.59434,-0.04832 -2.09059,-0.13411c-1.33514,-0.07655 -2.06298,-0.12452 -3.57097,-0.21409c-0.74902,-0.04449 -1.47231,-0.09881 -3.37264,-0.1841c-1.3655,-0.06129 -2.58025,-0.03315 -3.7554,-0.08009c-1.28675,-0.05139 -2.19085,-0.21698 -3.32379,-0.34174c-0.84418,-0.09296 -2.72884,-0.20637 -3.75047,-0.24884c-1.07594,-0.04472 -2.21327,-0.09344 -3.38833,-0.21086c-1.24169,-0.12408 -2.4867,-0.31743 -3.10933,-0.41657c-1.22881,-0.19566 -2.94088,-0.49276 -3.95776,-0.66197c-0.87633,-0.14581 -2.23175,-0.42315 -1.91826,-0.51544c0.76449,-0.22506 2.44892,-0.0214 4.72753,-0.02181c1.44474,-0.00026 3.06025,0 4.80215,0c1.82391,0 3.68548,0 5.54032,0c1.80375,0 3.51203,0 6.46472,0c1.16642,0 2.12443,0 2.8942,0c0.60169,0 1.05549,0 1.38155,0c0.21849,0 0.43026,0.03635 0.43026,0c0,-0.1228 -1.31948,0.00143 -2.81621,-0.0001c-1.32262,-0.00136 -2.03537,-0.0007 -3.47461,-0.02171c-0.69245,-0.01011 -3.23494,0.26038 -3.56402,-0.24884c-0.21247,-0.32877 1.92423,-0.53282 2.59413,-0.62773c1.46563,-0.20764 2.22988,-0.28464 3.60794,-0.48928c1.42448,-0.21153 -0.29268,0.20105 -0.48315,-0.43657c-0.16712,-0.55947 2.41458,-0.41128 2.03501,-0.58684c-0.68733,-0.3179 -1.71232,-0.01221 -3.7256,-0.01262c-1.31073,-0.00026 -2.79492,0 -4.41088,0c-1.70604,0 -3.46049,0 -5.22165,0c-1.72621,0 -3.37578,0 -6.27827,0c-1.17919,0 -2.17283,0 -2.99706,0c-0.67094,0 -1.20474,0 -1.61752,0c-0.30791,0 -0.75969,-0.10483 -0.75969,0c0,0.37002 2.23693,0 3.61198,0c0.78501,0 1.6117,0 3.3202,0c0.84686,0 1.66548,0 3.78296,0c1.09762,0 2.08229,0 3.09386,0c1.87367,0 2.65666,0.00086 3.51225,-0.0008c1.84299,-0.00359 2.78741,-0.00975 3.71819,-0.02101c0.89607,-0.01084 3.23823,0.03769 4.13771,-0.15027c0.80972,-0.16921 -0.38919,-0.41391 -1.65002,-0.43111c-1.38093,-0.01884 -2.0126,-0.00273 -0.67341,-0.00273c0.73862,0 1.96084,0 3.06204,0c0.21513,0 -1.10972,0 -2.30572,0c-1.01448,0 -0.77761,0 0.48158,0c1.02457,0 2.3548,0.00022 1.47858,0c-1.61573,-0.00041 -2.71479,0.09429 -3.58419,-0.0517c-1.21762,-0.20447 -0.93807,-0.89568 -0.20191,-1.33595c0.76314,-0.45642 1.74737,-0.76811 0.62142,-1.13701c-0.73558,-0.24101 -1.84907,-0.40473 -2.46506,-0.50493c-1.37152,-0.2231 -2.13852,-0.32619 -3.80963,-0.50493c-0.89115,-0.09531 -2.82069,-0.25335 -3.86162,-0.32801c-1.09559,-0.07858 -2.25323,-0.15277 -3.47505,-0.22904c-1.28983,-0.08051 -4.09232,-0.25049 -5.60755,-0.34446c-1.57192,-0.09749 -3.17585,-0.19823 -4.78803,-0.29902c-1.59598,-0.09978 -3.1515,-0.19694 -4.64281,-0.28811c-1.40222,-0.08572 -3.84372,-0.22971 -4.84114,-0.28287c-0.84741,-0.04516 -1.55806,-0.07938 -2.14392,-0.10361c-0.47239,-0.01953 -0.84426,-0.0318 -1.12742,-0.03818c-0.20631,-0.00464 -0.32598,-0.0093 0.38746,-0.04009c1.41699,-0.06116 2.79467,-0.13756 3.588,-0.18178c0.84348,-0.04702 2.62028,-0.15241 3.52368,-0.21046c0.89475,-0.05749 2.59772,-0.17404 4.10342,-0.29943c0.67749,-0.05642 1.88043,-0.17272 2.89868,-0.26913c1.79076,-0.16956 2.80965,-0.15056 4.02521,-0.25428c0.8612,-0.07348 2.15832,-0.36053 3.29443,-0.60319c0.60863,-0.12999 1.82806,-0.38951 2.89756,-0.66045c1.35641,-0.34362 0.63061,-0.51625 -0.33749,-0.51625c-1.51265,0 -2.56343,-0.00004 -3.62632,0c-1.50346,0.00006 -3.25328,0.06892 -2.80926,0.43384c0.61319,0.50397 2.15311,0.17167 3.76839,0.17208c0.98064,0.00024 2.09037,0 2.69699,0c2.04308,0 2.8012,0 4.4008,0c0.82265,0 1.648,0 3.26911,0c0.77694,0 2.86125,0 3.97322,0c0.84843,0 1.29998,0 -0.00873,0c-0.78882,0 -2.35077,0 -2.23379,0c1.05482,0 2.7268,0.00028 3.43472,-0.0001c0.76035,-0.00041 2.32561,-0.00304 3.0737,-0.01252c1.28718,-0.01631 2.02156,-0.16929 1.06782,-0.27095c-0.7012,-0.07474 -2.50317,-0.24285 -3.5676,-0.35708c-2.40762,-0.25838 -3.71518,-0.42618 -5.09504,-0.60511c-1.4555,-0.18874 -2.98268,-0.39579 -4.59038,-0.60986c-1.68738,-0.22467 -3.45576,-0.4605 -5.31645,-0.69166c-3.97647,-0.494 -6.10742,-0.72745 -8.29513,-0.96462c-2.21129,-0.23972 -4.41881,-0.46848 -6.58505,-0.69166c-2.09159,-0.21548 -4.07809,-0.41522 -5.91949,-0.60986c-3.13147,-0.331 -4.3586,-0.47357 -5.35678,-0.60511c-0.798,-0.10516 -1.41084,-0.19457 -1.83333,-0.28721c-0.28668,-0.06286 -0.48425,-0.1317 -0.44169,-0.17814c0.11292,-0.12323 0.47942,-0.10556 0.78165,-0.1236c0.36427,-0.02175 0.79404,-0.03174 1.28474,-0.03908c0.55092,-0.00824 1.16126,-0.01068 1.82929,-0.01182c1.50412,-0.00257 2.3362,-0.00081 3.21264,-0.00081c0.9114,0 1.84834,0 2.80142,0c0.9598,0 1.91691,0 2.86193,0c1.81607,0 2.66965,0 3.48155,0c0.76887,0 1.49338,0 2.17216,0c0.63173,0 1.21504,0 1.74862,0c0.91252,0 1.91086,0 2.99213,0c1.28541,0 2.31446,0 3.68144,0c0.97616,0 2.75459,0.0011 3.31706,-0.0002c1.23257,-0.00285 2.52633,0.0063 3.75136,-0.06907c1.52687,-0.09394 2.77704,-0.33757 2.73173,-0.8501c-0.04889,-0.553 -2.11607,-0.76328 -2.00655,-1.28788c0.07461,-0.35739 2.20957,0.05283 3.14989,-0.35063c0.88742,-0.38076 0.07937,-0.95191 -1.20967,-1.19801c-0.79361,-0.15151 -1.79069,-0.23639 -2.88815,-0.31265c-1.78097,-0.12377 -3.02305,-0.14067 -3.63393,-0.15107c-1.17392,-0.02 -2.24096,-0.02141 -4.12045,-0.02181c-0.19317,-0.00004 0.68013,0 1.57831,0c1.89831,0 2.67122,0 4.3367,0c0.85762,0 1.70851,0 2.5352,0c2.16006,0 3.64626,0.37765 4.47385,-0.06928c0.64481,-0.34823 -0.63714,-0.89805 -1.77954,-1.21204c-0.95877,-0.26352 -2.09809,-0.39655 -3.41701,-0.65682c-1.05045,-0.20729 -1.34734,-0.47857 -0.50197,-0.48473c1.4943,-0.0109 2.80552,-0.00151 3.50127,-0.00727c1.37166,-0.01136 3.85635,0.38432 3.91719,-0.25125c0.03184,-0.33255 -2.57806,-0.27829 -3.17678,-0.2965c-1.23419,-0.03753 -2.73138,0.27508 -3.37219,-0.0509c-0.05247,-0.02669 1.19449,-0.21154 1.77484,-0.72791c0.5391,-0.47968 0.96652,-0.89888 1.65831,-0.86606c0.98816,0.04688 2.22634,0.15265 2.93454,0.205c2.4213,0.17897 3.31503,0.2383 4.2437,0.2967c0.95732,0.0602 1.93929,0.11735 2.94059,0.16996c1.01379,0.05326 2.03585,0.10281 3.0616,0.1427c2.03526,0.07914 4.01743,0.12307 4.97111,0.13825c0.91978,0.01464 1.79944,0.02352 2.63201,0.02818c1.4969,0.00837 3.60251,0.41892 4.51777,0.00646c0.01981,-0.00893 -0.87228,-0.04813 -2.36825,-0.13411c-1.32935,-0.07641 -2.04906,-0.12383 -3.52278,-0.21409c-0.72067,-0.04414 -2.62326,-0.16226 -3.89927,-0.22308c-0.8626,-0.04111 -0.30558,-0.39961 -1.10434,-0.57189c-1.57393,-0.33946 -2.40264,-0.36364 -3.23931,-0.46141c-0.88613,-0.10355 -1.80273,-0.20483 -3.63663,-0.389c-0.86783,-0.08715 -2.40627,-0.21006 -3.96717,-0.36355c-1.06177,-0.10442 -0.83076,-0.63923 0.00045,-0.97543c0.67125,-0.2715 2.4537,-0.36629 3.21622,-0.42414c0.83836,-0.06361 1.73543,-0.1211 3.61063,-0.24237c0.93629,-0.06055 1.84875,-0.10625 3.48155,-0.24237c1.31032,-0.10924 2.32998,-0.22967 3.48559,-0.42414c1.35208,-0.22754 2.45644,-0.42856 3.30362,-0.52352c0.92068,-0.10319 2.49933,-0.20277 3.66082,-0.22681c1.20198,-0.02488 2.40733,-0.00876 2.99392,0.01515c2.14818,0.08757 3.27101,0.01011 4.07451,0.33972c0.37643,0.15442 -0.27564,0.21373 0.81794,0.21369c1.27779,-0.00005 2.38587,0.12103 3.59629,-0.05171c1.14878,-0.16394 0.63942,-0.83025 0.42489,-1.26597c-0.27587,-0.56028 0.68246,-0.93748 1.60631,-1.13913c1.33647,-0.29172 2.22772,-0.43121 3.20905,-0.60511c1.06503,-0.18874 2.19461,-0.38345 3.36009,-0.58623c1.17945,-0.20521 2.35073,-0.40752 3.48111,-0.61349c2.07104,-0.37737 2.95721,-0.55659 3.74509,-0.72307c0.70479,-0.14892 1.8688,-0.426 2.81128,-0.63621c1.10128,-0.24564 2.38975,-0.38537 3.2886,-0.50211c1.32542,-0.17214 2.38444,-0.46373 3.17051,-0.63258c1.5742,-0.33813 2.39878,-0.42259 3.55999,-0.50281c1.03388,-0.07143 2.44972,-0.32698 3.55326,-0.54523c0.92047,-0.18204 2.55517,-0.37417 3.1295,-0.47585c1.35028,-0.23905 2.09235,-0.38263 2.86933,-0.53159c0.7989,-0.15316 2.40879,-0.46812 3.94969,-0.78265c0.72061,-0.14709 2.03592,-0.42551 3.19336,-0.66903c0.99404,-0.20914 2.16447,-0.47295 3.29286,-0.60663c0.96504,-0.11432 2.32979,-0.20815 3.20547,-0.30134c0.97459,-0.10372 2.01179,-0.22081 3.61937,-0.40233c1.07004,-0.12082 2.12564,-0.23878 3.15034,-0.36355c1.93425,-0.23551 2.81521,-0.36444 3.65119,-0.47211c1.14651,-0.14767 2.80708,-0.26967 3.67203,-0.33093c1.36727,-0.09684 2.44642,-0.27033 3.55505,-0.59057c0.96229,-0.27796 2.00351,-0.62034 2.93857,-0.7877c1.11286,-0.19917 1.97183,-0.30862 3.36435,-0.48463c0.96926,-0.12251 2.3956,-0.28125 3.25969,-0.37254l1.59086,-0.13825" fill="#50d892" id="svg_6" stroke="#000000" stroke-dasharray="null" stroke-linecap="null" stroke-linejoin="null" stroke-opacity="0" stroke-width="null"/>
  <text fill="#ffffff" font-family="Serif" font-size="24" font-weight="normal" id="svg_7" stroke="#000000" stroke-dasharray="null" stroke-linecap="null" stroke-linejoin="null" stroke-opacity="0" stroke-width="0" text-anchor="middle" transform="matrix(4.32696 0 0 2.0156 -619.424 -91.9633)" x="217.80284" xml:space="preserve" y="105.24039">Tuition</text>
 </g>
</svg>